<svg xmlns="http://www.w3.org/2000/svg" data-name="Camada 1" viewBox="0 0 90 61.5" x="0px" y="0px"><title>icones</title><path d="M89,23.6H80.71a6.2,6.2,0,0,0-12.23,0H1a1,1,0,0,0,0,2H68.48a6.2,6.2,0,0,0,12.23,0H89a1,1,0,0,0,0-2Zm-10.33,2a4.19,4.19,0,0,1-8.26-1,4.09,4.09,0,0,1,.12-1,4.19,4.19,0,0,1,8.14,0,4.09,4.09,0,0,1,.12,1A4.23,4.23,0,0,1,78.67,25.61Z"/><path d="M89,42H45.52a6.2,6.2,0,0,0-12.24,0H1a1,1,0,0,0,0,2H33.28a6.2,6.2,0,0,0,12.24,0H89a1,1,0,0,0,0-2ZM43.47,44a4.19,4.19,0,0,1-8.14,0,4.09,4.09,0,0,1-.12-1,4.19,4.19,0,1,1,8.38,0A4.09,4.09,0,0,1,43.47,44Z"/><path d="M1,7.21H14.89a6.2,6.2,0,0,0,12.23,0H89a1,1,0,0,0,0-2H27.12a6.2,6.2,0,0,0-12.23,0H1a1,1,0,0,0,0,2Zm15.94-2a4.19,4.19,0,0,1,8.13,0,3.95,3.95,0,0,1,0,2,4.19,4.19,0,0,1-8.13,0,3.95,3.95,0,0,1,0-2Z"/></svg>