<?xml version="1.0" encoding="UTF-8"?>
<svg width="50px" height="15px" viewBox="0 0 50 15" version="1.1" xmlns="http://www.w3.org/2000/svg" xmlns:xlink="http://www.w3.org/1999/xlink">
    <title>Logo-Airbnb</title>
    <defs>
    </defs>
    <g id="Native-Video" stroke="none" stroke-width="1" fill="none" fill-rule="evenodd">
        <g transform="translate(-519.000000, -3914.000000)" id="Trusted">
            <g transform="translate(147.000000, 3552.000000)">
                <g id="Group-2">
                    <g transform="translate(0.000000, 309.000000)">
                        <g id="Logo-Airbnb" transform="translate(372.779204, 53.812982)" fill="#797979" fill-rule="nonzero">
                            <path d="M13.6249452,2.06411221 C13.6249452,2.88171784 12.9663185,3.5403446 12.1487128,3.5403446 C11.3311072,3.5403446 10.6724804,2.88171784 10.6724804,2.06411221 C10.6724804,1.24650658 11.3083959,0.587879815 12.1487128,0.587879815 C12.9890297,0.610591083 13.6249452,1.26921784 13.6249452,2.06411221 Z M7.5383255,5.03928827 C7.5383255,5.17555587 7.5383255,5.40266855 7.5383255,5.40266855 C7.5383255,5.40266855 6.8342762,4.49421784 5.33533254,4.49421784 C2.85980437,4.49421784 0.929346628,6.37925305 0.929346628,8.99104883 C0.929346628,11.5801333 2.83709311,13.4878798 5.33533254,13.4878798 C6.85698747,13.4878798 7.5383255,12.5567178 7.5383255,12.5567178 L7.5383255,12.9428094 C7.5383255,13.1244995 7.67459311,13.2607671 7.85628325,13.2607671 L9.69589592,13.2607671 L9.69589592,4.72133052 C9.69589592,4.72133052 8.01526212,4.72133052 7.85628325,4.72133052 C7.67459311,4.72133052 7.5383255,4.88030939 7.5383255,5.03928827 Z M7.5383255,10.5127038 C7.19765649,11.0123516 6.51631846,11.4438657 5.69871282,11.4438657 C4.2451917,11.4438657 3.13233959,10.535415 3.13233959,8.99104883 C3.13233959,7.44668263 4.2451917,6.53823193 5.69871282,6.53823193 C6.49360719,6.53823193 7.22036775,6.99245728 7.5383255,7.4693939 L7.5383255,10.5127038 Z M11.058572,4.72133052 L13.2388537,4.72133052 L13.2388537,13.2607671 L11.058572,13.2607671 L11.058572,4.72133052 Z M43.6265297,4.49421784 C42.1275861,4.49421784 41.4235368,5.40266855 41.4235368,5.40266855 L41.4235368,0.610591083 L39.2432551,0.610591083 L39.2432551,13.2607671 C39.2432551,13.2607671 40.9238889,13.2607671 41.0828678,13.2607671 C41.2645579,13.2607671 41.4008255,13.1017883 41.4008255,12.9428094 L41.4008255,12.5567178 C41.4008255,12.5567178 42.1048748,13.4878798 43.6038185,13.4878798 C46.0793466,13.4878798 48.0098044,11.5801333 48.0098044,8.99104883 C48.0098044,6.40196432 46.0793466,4.49421784 43.6265297,4.49421784 Z M43.2631494,11.4211545 C42.4228325,11.4211545 41.7642058,10.9896404 41.4235368,10.4899925 L41.4235368,7.44668263 C41.7642058,6.99245728 42.4909663,6.51552066 43.2631494,6.51552066 C44.7166706,6.51552066 45.8295227,7.42397136 45.8295227,8.96833756 C45.8295227,10.5127038 44.7166706,11.4211545 43.2631494,11.4211545 Z M38.1076917,8.19615446 L38.1076917,13.2834784 L35.92741,13.2834784 L35.92741,8.44597841 C35.92741,7.03787982 35.4731847,6.47009812 34.2467762,6.47009812 C33.5881494,6.47009812 32.9068114,6.81076714 32.4752973,7.31041503 L32.4752973,13.2607671 L30.2950156,13.2607671 L30.2950156,4.72133052 L32.021072,4.72133052 C32.2027621,4.72133052 32.3390297,4.88030939 32.3390297,5.03928827 L32.3390297,5.40266855 C32.9749452,4.74404179 33.8152621,4.49421784 34.655579,4.49421784 C35.6094523,4.49421784 36.4043466,4.76675305 37.0402621,5.31182348 C37.8124452,5.94773897 38.1076917,6.7653446 38.1076917,8.19615446 Z M25.0032903,4.49421784 C23.5043466,4.49421784 22.8002973,5.40266855 22.8002973,5.40266855 L22.8002973,0.610591083 L20.6200156,0.610591083 L20.6200156,13.2607671 C20.6200156,13.2607671 22.3006494,13.2607671 22.4596283,13.2607671 C22.6413185,13.2607671 22.7775861,13.1017883 22.7775861,12.9428094 L22.7775861,12.5567178 C22.7775861,12.5567178 23.4816354,13.4878798 24.980579,13.4878798 C27.4561072,13.4878798 29.3865649,11.5801333 29.3865649,8.99104883 C29.4092762,6.40196432 27.4788185,4.49421784 25.0032903,4.49421784 Z M24.63991,11.4211545 C23.7995931,11.4211545 23.1409663,10.9896404 22.8002973,10.4899925 L22.8002973,7.44668263 C23.1409663,6.99245728 23.8677269,6.51552066 24.63991,6.51552066 C26.0934311,6.51552066 27.2062832,7.42397136 27.2062832,8.96833756 C27.2062832,10.5127038 26.0934311,11.4211545 24.63991,11.4211545 Z M18.7349804,4.49421784 C19.3936072,4.49421784 19.7342762,4.60777418 19.7342762,4.60777418 L19.7342762,6.629077 C19.7342762,6.629077 17.9173748,6.01587277 16.7818114,7.31041503 L16.7818114,13.2834784 L14.6015297,13.2834784 L14.6015297,4.72133052 C14.6015297,4.72133052 16.2821635,4.72133052 16.4411424,4.72133052 C16.6228325,4.72133052 16.7591001,4.88030939 16.7591001,5.03928827 L16.7591001,5.40266855 C17.167903,4.92573193 18.0536424,4.49421784 18.7349804,4.49421784 Z" id="Shape"></path>
                        </g>
                    </g>
                </g>
            </g>
        </g>
    </g>
</svg>
