<?xml version="1.0" encoding="UTF-8"?>
<svg width="120px" height="12px" viewBox="0 0 120 12" version="1.1" xmlns="http://www.w3.org/2000/svg" xmlns:xlink="http://www.w3.org/1999/xlink">
    <title>Logo-Air France</title>
    <defs>
    </defs>
    <g id="Native-Video" stroke="none" stroke-width="1" fill="none" fill-rule="evenodd">
        <g transform="translate(-271.000000, -3873.000000)" id="Trusted">
            <g transform="translate(147.000000, 3552.000000)">
                <g id="Group-2">
                    <g transform="translate(0.000000, 309.000000)">
                        <g id="Logo-Air-France" transform="translate(124.337611, 12.500000)" fill-rule="nonzero">
                            <path d="M111.733876,0.0873940442 L106.433545,7.75651667 C105.735574,8.76509118 104.602994,9.73675943 103.235986,9.84127798 L103.235986,10.0765923 L109.131246,10.0765923 C110.696072,10.0765923 111.837509,9.05768408 112.610769,7.93543826 L118.05341,0.0876892944 L111.733876,0.0876892944 L111.733876,0.0873940442 Z" id="Path" fill="#797979"></path>
                            <path d="M111.733876,0.0873940442 L106.433545,7.75533567 C105.735574,8.76509118 104.602994,9.73675943 103.235986,9.84098273 L103.235986,10.0762971 L109.131246,10.0762971 C110.696072,10.0762971 111.837509,9.05738883 112.610769,7.93514301 L118.05341,0.0873940442 L111.733876,0.0873940442 L111.733876,0.0873940442 Z" id="Path"></path>
                            <path d="M14.1147286,10.0762971 L14.1147286,0.930037971 L16.7846757,0.930037971 L16.7846757,10.0762971 L14.1147286,10.0762971 L14.1147286,10.0762971 Z M75.6631653,10.0762971 L69.2506273,4.6451706 L69.2506273,10.0762971 L66.9966876,10.0762971 L66.9966876,0.930037971 L68.9113849,0.930037971 L75.2388908,6.27613243 L75.2388908,0.930037971 L77.4928305,0.930037971 L77.4928305,10.0762971 L75.6631653,10.0762971 L75.6631653,10.0762971 Z M89.6093061,3.88106321 C88.4026187,3.28731516 87.0447633,2.80635267 85.2437374,2.80635267 C83.0934305,2.80635267 81.489927,3.91855998 81.489927,5.46508026 C81.489927,7.05057357 83.1214793,8.17163838 85.2242509,8.17163838 C86.959436,8.17163838 88.3367779,7.72817266 89.6946334,6.94575976 L89.6946334,9.20914741 C88.4959178,9.80378121 86.902748,10.2460659 85.1117606,10.2460659 C81.4524302,10.2460659 78.5763985,8.37890399 78.5763985,5.46537551 C78.5763985,2.59849656 81.5094135,0.759678634 85.1026078,0.759678634 C86.7991152,0.759678634 88.3367779,1.0803203 89.6093061,1.59907481 L89.6093061,3.88106321 L89.6093061,3.88106321 Z M31.6360535,10.0762971 L31.6360535,0.930037971 L40.556151,0.930037971 L40.556151,2.89049896 L34.3036386,2.89049896 L34.3036386,5.16392511 L40.4150214,5.16392511 L40.4150214,7.1255671 L34.3036386,7.1255671 L34.3036386,10.0762971 L31.6360535,10.0762971 L31.6360535,10.0762971 Z M91.2219624,10.0762971 L91.2219624,0.930037971 L100.481893,0.930037971 L100.481893,2.89049896 L93.8907285,2.89049896 L93.8907285,4.47569701 L100.377374,4.47569701 L100.377374,6.43645326 L93.8907285,6.43645326 L93.8907285,8.11465511 L100.453549,8.11465511 L100.453549,10.0765923 L91.2219624,10.0765923 L91.2219624,10.0762971 Z M49.8252342,6.64460461 L53.5132038,10.0762971 L50.6646304,10.0762971 C50.0333856,10.0762971 49.6182639,9.8784795 49.2875837,9.55783784 L46.7800242,7.1255671 C46.7321936,7.07773658 46.6572001,7.05057357 46.5630153,7.05057357 L44.8561742,7.05057357 L44.8561742,10.0762971 L42.1871128,10.0762971 L42.1871128,0.930037971 L47.9687013,0.930037971 C50.9660808,0.930037971 52.2309324,2.27755965 52.2309324,3.76857291 C52.2303419,5.50257703 50.6838216,6.3325252 49.8252342,6.64460461 L49.8252342,6.64460461 L49.8252342,6.64460461 Z M47.6941186,5.13528585 C48.7505237,5.13528585 49.2601254,4.59734008 49.2601254,3.99473452 C49.2601254,3.39094797 48.8075069,2.89049896 47.6941186,2.89049896 L44.8558789,2.89049896 L44.8558789,5.13528585 L47.6941186,5.13528585 L47.6941186,5.13528585 Z M26.9214991,6.64460461 L30.6079925,10.0762971 L27.7606,10.0762971 C27.1281742,10.0762971 26.7133478,9.8784795 26.3835533,9.55783784 L23.8748128,7.1255671 C23.8284586,7.07773658 23.7519888,7.05057357 23.657804,7.05057357 L21.9521439,7.05057357 L21.9521439,10.0762971 L19.2821968,10.0762971 L19.2821968,0.930037971 L25.0634899,0.930037971 C28.0620504,0.930037971 29.3257211,2.27755965 29.3257211,3.76857291 C29.3254258,5.50257703 27.7789056,6.3325252 26.9214991,6.64460461 L26.9214991,6.64460461 L26.9214991,6.64460461 Z M24.7903835,5.13528585 C25.8456076,5.13528585 26.3552093,4.59734008 26.3552093,3.99473452 C26.3552093,3.39094797 25.9025909,2.89049896 24.7903835,2.89049896 L21.9521439,2.89049896 L21.9521439,5.13528585 L24.7903835,5.13528585 L24.7903835,5.13528585 Z M9.93900578,10.0762971 L8.76863419,8.06830083 L3.6584446,8.06830083 L2.59288681,10.0762971 L0.0466495236,10.0762971 L5.13764785,0.939190725 L7.45742827,0.939190725 L13.2286829,10.0762971 L9.93900578,10.0762971 L9.93900578,10.0762971 Z M4.67617187,6.16364212 L7.65554112,6.16364212 L6.10902084,3.37146146 L4.67617187,6.16364212 L4.67617187,6.16364212 Z M63.2257527,10.0762971 L62.0840204,8.06830083 L57.1058076,8.06830083 L56.0777466,10.0762971 L53.5976454,10.0762971 L58.5581431,0.939190725 L60.8109018,0.939190725 L66.4218356,10.0762971 L63.2257527,10.0762971 L63.2257527,10.0762971 Z M58.1049341,6.16364212 L61.0093099,6.16364212 L59.5005816,3.37146146 L58.1049341,6.16364212 L58.1049341,6.16364212 Z" id="Shape" fill="#797979"></path>
                        </g>
                    </g>
                </g>
            </g>
        </g>
    </g>
</svg>
