<?xml version="1.0" encoding="UTF-8"?>
<svg width="38px" height="16px" viewBox="0 0 38 16" version="1.1" xmlns="http://www.w3.org/2000/svg" xmlns:xlink="http://www.w3.org/1999/xlink">
    <title>Logo-AOL</title>
    <defs>

    </defs>
    <g id="Native-Video" stroke="none" stroke-width="1" fill="none" fill-rule="evenodd">
        <g transform="translate(-1158.000000, -3871.000000)" id="Trusted">
            <g transform="translate(147.000000, 3552.000000)">
                <g id="Logos-Publishers">
                    <g transform="translate(649.000000, 316.000000)">
                        <g id="Logo-AOL" transform="translate(362.378626, 3.048991)" fill="#797979" fill-rule="nonzero">
                            <path d="M20.013178,3.12263977 C16.7486166,3.12263977 14.2789051,5.65858887 14.2789051,8.8001375 C14.2789051,12.1120113 16.8527039,14.4776354 20.013178,14.4776354 C23.1736517,14.4776354 25.7379883,12.1120113 25.7379883,8.8001375 C25.7379883,5.65858887 23.2777391,3.12263977 20.013178,3.12263977 Z M20.013178,6.122251 C21.4230898,6.11278881 22.5775142,7.3145256 22.5775142,8.8001375 C22.5775142,10.2762872 21.4230898,11.478024 20.013178,11.478024 C18.6032658,11.478024 17.4488414,10.2762872 17.4488414,8.8001375 C17.4488414,7.3145256 18.6032658,6.122251 20.013178,6.122251 Z" id="path8"></path>
                            <path d="M36.3482923,12.4901328 C36.3482923,13.5877823 35.4588179,14.4772571 34.3611681,14.4772571 C33.2635187,14.4772571 32.3740439,13.5877823 32.3740439,12.4901328 C32.3740439,11.3924834 33.2635187,10.5030086 34.3611681,10.5030086 C35.4588179,10.5030086 36.3482923,11.3924834 36.3482923,12.4901328 Z" id="path10"></path>
                            <polygon id="path12" points="30.5638614 14.0991356 27.4412375 14.0991356 27.4412375 1.5929524e-05 30.5638614 1.5929524e-05"></polygon>
                            <path d="M8.61086971,1.5929524e-05 L14.1937425,14.0991356 L10.219494,14.0991356 L9.55711943,12.1120113 L4.63662126,12.1120113 L3.97424627,14.0991356 L-2.15181908e-06,14.0991356 L5.67749576,1.5929524e-05 L8.61086971,1.5929524e-05 Z M7.14418255,4.44738916 L5.67749576,9.17863739 L8.61086971,9.17863739 L7.14418255,4.44738916 Z" id="path14"></path>
                        </g>
                    </g>
                </g>
            </g>
        </g>
    </g>
</svg>
