<?xml version="1.0" encoding="UTF-8"?>
<svg width="55px" height="12px" viewBox="0 0 55 12" version="1.1" xmlns="http://www.w3.org/2000/svg" xmlns:xlink="http://www.w3.org/1999/xlink">
    <title>Logo-Asus</title>
    <g id="Page-1" stroke="none" stroke-width="1" fill="none" fill-rule="evenodd">
        <g id="Desktop-HD" transform="translate(-261.000000, -687.000000)" fill="#797979" fill-rule="nonzero">
            <g id="Logo-Asus" transform="translate(260.995145, 687.781250)">
                <path d="M52.6399209,1.36216899 C52.6399209,0.748412396 53.1412057,0.246306007 53.7594356,0.246306007 C54.0554045,0.246306007 54.3326585,0.365350867 54.5429954,0.573314204 C54.753241,0.78739411 54.866078,1.06702172 54.866078,1.36216899 C54.866078,1.6579553 54.753241,1.94169105 54.5429954,2.14782855 C54.3326585,2.35935228 54.0554045,2.47739292 53.7594356,2.47739292 C53.141297,2.47748422 52.6399209,1.97756884 52.6399209,1.36216899 Z M52.5456162,1.36216899 C52.5456162,2.0297879 53.0905386,2.57315831 53.7594356,2.57315831 C54.0827008,2.57315831 54.3812259,2.44799688 54.61256,2.21885378 C54.8425247,1.98861518 54.965769,1.6867123 54.965769,1.36216899 C54.965769,1.03716922 54.8424334,0.735175046 54.61256,0.504753859 C54.3812259,0.277254019 54.0827008,0.150631917 53.7594356,0.150631917 C53.0905386,0.150631917 52.5456162,0.694002322 52.5456162,1.36216899 Z" id="Shape"></path>
                <path d="M53.3054401,2.07552523 L53.4844605,2.07552523 L53.4844605,1.51243574 L53.8909738,1.51243574 C53.960786,1.51243574 54.0120588,1.51727422 54.0498133,1.53480229 C54.109004,1.56721098 54.140965,1.62207751 54.1437652,1.71017436 L54.1601803,1.93018825 C54.1601803,1.98021631 54.1619183,2.01499859 54.1619183,2.03234408 C54.1710914,2.04978086 54.1776574,2.06466147 54.1789127,2.07561652 L54.4054401,2.07561652 L54.4054401,2.04466851 C54.3763758,2.03517413 54.3631473,2.00778651 54.346346,1.96487924 C54.3371729,1.94187364 54.3371729,1.9042613 54.3357245,1.85459842 L54.3279032,1.67803955 C54.3279032,1.60199326 54.3094605,1.54347504 54.2871553,1.51252703 C54.2593463,1.47874896 54.2136739,1.44917033 54.1620149,1.42926866 C54.2221711,1.40169845 54.268616,1.35696534 54.3064671,1.30848925 C54.3371729,1.25617889 54.3551329,1.19528708 54.3551329,1.11704978 C54.3551329,0.966600445 54.2934317,0.862253608 54.1683878,0.8059264 C54.1028242,0.776165185 54.0158246,0.762471375 53.9173344,0.762471375 L53.3054401,0.762471375 L53.3054401,2.07552523 Z M53.484557,1.36216899 L53.484557,0.912920707 L53.9172378,0.912920707 C53.9803874,0.912920707 54.0314671,0.922962835 54.0684492,0.940308328 C54.1299573,0.97390381 54.1694499,1.03726051 54.1694499,1.13046971 C54.1694499,1.22020982 54.1436687,1.27991483 54.0935546,1.31469711 C54.045951,1.3470145 53.9803874,1.36216899 53.898602,1.36216899 L53.484557,1.36216899 Z" id="Shape"></path>
                <polygon id="Path" points="4.97861308 3.02970995 0 10.7382298 3.40291194 10.7382298 8.18871616 3.36895129"></polygon>
                <path d="M5.09446271,2.85689406 C5.09446271,2.85689406 6.26966554,0.941495125 6.56070466,0.563454661 C6.83951065,0.181397345 7.20869578,0.0186235824 7.59668708,0.0186235824 C7.98385675,0.0186235824 12.7333267,0.0186235824 12.7333267,0.0186235824 L12.7333267,2.62665546 C12.7333267,2.62665546 12.9945133,1.6257292 13.4547167,1.15037138 C13.8860717,0.702675068 14.4620334,0.0822541557 15.7779173,0 L25.4538726,0 L25.4538726,2.85689406 L5.09446271,2.85689406 Z" id="Path"></path>
                <path d="M51.763517,2.85917636 L51.763517,0 L41.4105397,0 C40.0985814,0.0822541557 39.5199722,0.702675068 39.0874304,1.15046268 C38.6271358,1.62582049 38.3682315,2.62674675 38.3682315,2.62674675 L38.3682315,2.85689406 L51.763517,2.85917636 Z" id="Path"></path>
                <rect id="Rectangle" x="25.9589003" y="0.0138763948" width="2.89295443" height="2.84310896"></rect>
                <rect id="Rectangle" x="35.4571099" y="0.0138763948" width="2.89030696" height="2.84310896"></rect>
                <path d="M38.3474169,3.88310823 L35.5054947,3.71503953 L35.5054947,7.01333075 C35.5054947,7.01333075 35.496822,7.96358991 34.5689294,7.96358991 C33.6487053,7.96358991 29.6847123,7.96358991 29.6847123,7.96358991 C29.6847123,7.96358991 28.8576974,7.89639895 28.8576974,7.02218608 C28.8576974,6.15007293 28.8576974,3.26734321 28.8576974,3.26734321 L25.9874747,3.06193605 L25.9874747,8.12015581 C26.4513297,10.5466078 28.6651625,10.7332088 28.6651625,10.7332088 C28.6651625,10.7332088 28.8902887,10.7483632 28.9273533,10.7519236 L35.5242096,10.7519236 C35.5242096,10.7519236 38.3474169,10.5267061 38.3474169,7.8451841 C38.3474169,5.16284048 38.3474169,3.88310823 38.3474169,3.88310823 Z" id="Path"></path>
                <path d="M9.79673469,10.7397818 L23.3274064,10.7397818 C25.6840199,10.2720925 25.9302346,8.15502939 25.9302346,8.15502939 C26.0410632,7.52593573 25.9763371,7.01698243 25.9763371,7.01698243 C25.9054944,6.59283947 25.090804,4.72007393 23.3221114,4.55702629 C22.2674141,4.45989153 12.8811286,3.72243418 12.8811286,3.72243418 C13.0627998,4.65306555 13.4858473,5.12285455 13.7669356,5.3917097 C14.4186697,6.01085252 15.4556563,6.18640717 15.4556563,6.18640717 C15.7058878,6.20996053 22.6893661,6.78190535 22.6893661,6.78190535 C22.9118449,6.79331686 23.3335229,6.8492789 23.3285019,7.3950229 C23.3285019,7.46111836 23.2674275,7.94213628 22.731543,7.94213628 C22.0798089,7.94213628 12.6100824,7.94213628 12.6100824,7.94213628 L12.6100824,3.69860695 L9.79673469,3.49502564 L9.79673469,10.7397818 L9.79673469,10.7397818 Z" id="Path"></path>
                <path d="M38.3748958,7.92488208 C38.3748958,7.92488208 47.7735971,7.92488208 48.4263354,7.92488208 C48.6578521,7.92488208 48.9075359,7.78940464 48.9075359,7.78940464 C49.0121566,7.69619544 49.0969669,7.52593573 49.0969669,7.36179258 C49.0969669,6.81723538 48.6430628,6.79331686 48.4151977,6.78190535 C48.4151977,6.78190535 41.3534822,6.19854902 41.1073588,6.17882993 C41.1073588,6.17882993 40.1286165,6.02965869 39.4756043,5.4077771 C39.1918685,5.14156942 38.816293,4.85071289 38.5365741,3.89077676 C38.5365741,3.89077676 47.9762655,4.44154182 49.0251201,4.538494 C50.7958211,4.70638012 51.6254834,6.44019913 51.7001603,7.01698243 C51.7001603,7.01698243 51.7758415,7.53835145 51.6836365,8.17867403 C51.6836365,8.17867403 51.3168249,10.6162636 48.7201133,10.7644306 L38.3682315,10.7644306 L38.3748958,7.92488208 Z" id="Path"></path>
            </g>
        </g>
    </g>
</svg>