<?xml version="1.0" encoding="UTF-8"?>
<svg width="148px" height="26px" viewBox="0 0 148 26" version="1.1" xmlns="http://www.w3.org/2000/svg" xmlns:xlink="http://www.w3.org/1999/xlink">
    <title>Logo-BeInSport</title>
    <g id="Page-1" stroke="none" stroke-width="1" fill="none" fill-rule="evenodd">
        <g id="Desktop-HD" transform="translate(-458.000000, -577.000000)" fill="#797979" fill-rule="nonzero">
            <g id="Logo-BeInSport" transform="translate(458.279855, 577.000000)">
                <path d="M77.2831873,12.047012 C76.1064542,12.047012 75.2601594,11.7932271 74.7650199,11.2939442 C74.513739,11.0580363 74.36248,10.7347573 74.3423904,10.3906773 C74.3423904,10.3813546 74.2781673,9.37553785 74.9721912,8.62972112 C75.4807968,8.08486056 76.2607968,7.80932271 77.2935458,7.80932271 C78.2796813,7.80932271 79.0286056,8.08278884 79.5258167,8.62143426 C80.281992,9.44079681 80.1929084,10.6185657 80.1898008,10.6413546 C80.1898008,11.1047457 80.5654535,11.4803984 81.0288446,11.4803984 C81.4922357,11.4803984 81.8678884,11.1047457 81.8678884,10.6413546 C81.8678884,6.18717131 77.4717131,6.13537849 77.2842231,6.13537849 L77.263506,6.13537849 C72.7958566,6.13537849 72.6674104,9.92972112 72.6674104,10.3616733 C72.6674104,11.6233466 73.6421514,13.7561753 77.2945817,13.7561753 C78.5282869,13.7561753 79.4108367,14.0234263 79.9225498,14.5496414 C80.2276268,14.8587463 80.3936841,15.2787517 80.3824701,15.7129084 C80.3917928,15.9418327 80.3700398,16.7384064 79.7702789,17.3578486 C79.2523506,17.896494 78.4236653,18.1699602 77.3235857,18.1699602 L77.3059761,18.1699602 C76.3156972,18.1699602 75.5543426,17.889243 75.0415936,17.3412749 C74.5899798,16.8401204 74.3488397,16.1842192 74.3682869,15.5098805 C74.3682869,15.0404824 73.9877646,14.6599602 73.5183665,14.6599602 C73.0489685,14.6599602 72.6684462,15.0404824 72.6684462,15.5098805 C72.6309761,16.6272436 73.0498183,17.7117457 73.8286056,18.5138645 C74.685259,19.3912351 75.9096414,19.8739442 77.2790438,19.8739442 C80.8320319,19.8739442 82.0926693,17.6344223 82.0926693,15.7160159 C82.0895618,13.4858167 80.2043028,12.047012 77.2831873,12.047012 L77.2831873,12.047012 Z M134.647888,12.047012 C133.473227,12.047012 132.624861,11.7932271 132.127649,11.2939442 C131.877883,11.0568387 131.727863,10.7334619 131.708127,10.3896414 C131.708127,10.3803187 131.642869,9.37553785 132.338964,8.62868526 C132.844462,8.0838247 133.624462,7.80828685 134.659283,7.80828685 C135.644382,7.80828685 136.393307,8.08175299 136.890518,8.62039841 C137.646693,9.44079681 137.55761,10.6175299 137.555538,10.6413546 C137.571404,11.0924296 137.941674,11.4499043 138.393028,11.4499043 C138.844382,11.4499043 139.214652,11.0924296 139.230518,10.6413546 C139.230518,6.18717131 134.836414,6.13537849 134.648924,6.13537849 L134.628207,6.13537849 C130.159522,6.13537849 130.03004,9.92868526 130.03004,10.3616733 C130.03004,11.6223108 131.005817,13.7561753 134.660319,13.7561753 C135.890916,13.7561753 136.775538,14.0234263 137.288287,14.5506773 C137.592432,14.8595442 137.758375,15.2785138 137.748207,15.7118725 C137.755458,15.9407968 137.735777,16.7373705 137.13498,17.3568127 C136.617052,17.8954582 135.788367,18.1689243 134.688287,18.1689243 L134.670677,18.1689243 C133.678327,18.1689243 132.918008,17.8882072 132.406295,17.340239 C131.954867,16.8389723 131.713755,16.1831483 131.732988,15.5088446 C131.732988,15.0394466 131.352466,14.6589243 130.883068,14.6589243 C130.41367,14.6589243 130.033147,15.0394466 130.033147,15.5088446 C129.995316,16.6262689 130.414211,17.7109076 131.193307,18.5128287 C132.04996,19.3901992 133.273307,19.8729084 134.643745,19.8729084 C138.197769,19.8729084 139.458406,17.6333865 139.458406,15.7139442 C139.456335,13.4868526 137.567968,12.047012 134.647888,12.047012 L134.647888,12.047012 Z M88.4486853,6.13537849 C85.7388845,6.13537849 83.8484462,8.03513944 83.8484462,10.7542629 L83.8577689,18.7541833 C83.8468745,19.0675275 84.0078259,19.3618466 84.2775197,19.5217484 C84.5472135,19.6816502 84.882667,19.6816502 85.1523608,19.5217484 C85.4220546,19.3618466 85.583006,19.0675275 85.5721116,18.7541833 L85.5721116,15.3638247 L88.4486853,15.3638247 C90.9700943,15.3260452 92.9942892,13.2712937 92.9942892,10.7496016 C92.9942892,8.22790953 90.9700943,6.17315797 88.4486853,6.13537849 L88.4486853,6.13537849 Z M88.436255,13.6733068 L85.5752191,13.6733068 L85.569004,10.7511554 C85.569004,8.9901992 86.7208765,7.80517928 88.4372908,7.80517928 C90.0577295,7.80517928 91.3713546,9.11880437 91.3713546,10.739243 C91.3713546,12.3596817 90.0577295,13.6733068 88.4372908,13.6733068 L88.436255,13.6733068 Z M101.252908,6.13537817 C97.4601015,6.13423474 94.3844433,9.20788379 94.3831083,13.0006906 C94.3817741,16.7934975 97.4552683,19.8693103 101.248075,19.8708364 C105.040882,19.8723613 108.116849,16.7990218 108.118566,13.0062151 C108.114575,9.2152322 105.043887,6.14222756 101.252908,6.13537817 L101.252908,6.13537817 Z M101.252908,18.2062161 C99.1483959,18.2074721 97.2504472,16.9406011 96.4444076,14.9965656 C95.638368,13.05253 96.0830476,10.8143541 97.5710146,9.3260906 C99.0589817,7.83782709 101.297069,7.39270158 103.241265,8.1983539 C105.185461,9.00400623 106.45271,10.9017025 106.451873,13.0062151 C106.447311,15.8758002 104.122492,18.2010823 101.252908,18.2062161 L101.252908,18.2062161 Z M115.770438,15.087251 C117.840045,14.2685118 119.036427,12.0951982 118.621221,9.90860075 C118.206016,7.72200335 116.296265,6.13850279 114.070598,6.13537849 C111.346295,6.13537849 109.443426,8.04653386 109.443426,10.7822311 L109.450677,18.7583267 C109.450677,19.2348758 109.836997,19.6211952 110.313546,19.6211952 C110.790095,19.6211952 111.176414,19.2348758 111.176414,18.7583267 L111.176414,15.4156175 L113.916255,15.4156175 L116.195139,19.1447012 C116.369869,19.4517885 116.712945,19.6227298 117.063327,19.5772846 C117.413709,19.5318395 117.701824,19.2790316 117.79243,18.9375299 C117.854341,18.7152413 117.822917,18.4773182 117.705418,18.2787251 L115.770438,15.087251 Z M111.174343,13.714741 L111.174343,10.7749801 C111.174343,9.00159363 112.333466,7.81035857 114.060239,7.81035857 C115.690689,7.81035857 117.01243,9.1320996 117.01243,10.7625498 C117.01243,12.393 115.690689,13.714741 114.060239,13.714741 L111.174343,13.714741 Z M129.067732,7.26239044 C129.068305,7.73715813 128.684802,8.12297678 128.21004,8.12525896 L125.226773,8.12525896 L125.226773,18.749004 C125.226773,19.2255531 124.840454,19.6118725 124.363904,19.6118725 C123.887355,19.6118725 123.501036,19.2255531 123.501036,18.749004 L123.501036,8.12422311 L120.518805,8.12422311 C120.042542,8.12422311 119.656454,7.73813559 119.656454,7.26187251 C119.656454,6.78560943 120.042542,6.39952191 120.518805,6.39952191 L128.211076,6.39952191 C128.685671,6.40180501 129.068877,6.78779086 129.067732,7.26239044 Z M8.33450199,13.0631873 C8.35107158,10.076144 10.7831529,7.66658566 13.770221,7.67776819 C16.7572891,7.68902878 19.171198,10.1167921 19.1653352,13.1038756 C19.159451,16.090959 16.7360135,18.5092107 13.7489243,18.5086853 C10.7526796,18.4955573 8.33197746,16.060493 8.33657371,13.0642231 L8.33450199,13.0631873 Z M146.828526,0 L146.828526,19.4036653 C146.80883,21.0725914 146.153937,22.6713 144.997131,23.8744223 C143.694536,25.2312414 141.889225,25.9895768 140.008446,25.9699602 L6.81697211,25.9699602 C2.60621514,25.9699602 0,22.4946614 0,19.2576096 L0,0 L146.828526,0 Z M8.31792829,9.08031873 L8.31792829,2.46119522 C8.31792829,2.10821705 8.03178295,1.82207171 7.67880478,1.82207171 C7.32582662,1.82207171 7.03968127,2.10821705 7.03968127,2.46119522 L7.03968127,13.3066135 C7.03968127,16.4566534 9.612749,19.8584064 13.772749,19.8584064 C17.8001594,19.8584064 20.5058167,16.3447809 20.5058167,13.0642231 C20.5058167,8.92079681 17.0098008,6.36119522 13.772749,6.36119522 C10.7407968,6.36015936 8.98605578,8.19673307 8.31792829,9.08031873 Z M33.4208765,12.4302789 L27.0928287,12.4302789 C26.7255483,12.4302789 26.4278088,12.7280184 26.4278088,13.0952988 C26.4278088,13.4625792 26.7255483,13.7603187 27.0928287,13.7603187 L34.1159363,13.7603187 C34.2934928,13.7735791 34.4682099,13.7100518 34.5957835,13.5858458 C34.7233571,13.4616398 34.7915347,13.2886843 34.7830279,13.1108367 C34.7818145,9.7450853 32.299722,6.89525047 28.9660064,6.43197559 C25.6322907,5.96870071 22.4671919,8.03376498 21.5482938,11.2716516 C20.6293957,14.5095383 22.2379152,17.9293346 25.3180134,19.2862719 C28.3981115,20.6432093 32.0071647,19.5220149 33.7761753,16.6586454 C33.9725795,16.3541328 33.8876269,15.9482994 33.5855777,15.7481275 C33.4397533,15.6497204 33.2605017,15.6140387 33.0881089,15.6491016 C32.915716,15.6841646 32.7646437,15.7870308 32.6688446,15.9345817 C31.2899496,18.194775 28.4817839,19.1306766 26.0226485,18.1496167 C23.5635131,17.1685568 22.1707085,14.5566989 22.7262431,11.96803 C23.2817778,9.37936108 25.6236088,7.56896501 28.2687466,7.68329451 C30.9138844,7.79762401 33.090774,9.80333053 33.4208765,12.4302789 Z M37.2535458,19.8584064 L37.2587251,19.8584064 C37.974502,19.8584064 38.5141833,19.283506 38.5514741,18.7717928 L38.5514741,7.48095618 C38.5141833,6.96924303 37.9755378,6.39848606 37.259761,6.39537849 L37.2535458,6.39537849 C36.5284462,6.39537849 36.0022311,6.95888446 35.9618327,7.4923506 L35.9618327,18.7717928 C36.0074104,19.2949004 36.5377689,19.8542629 37.2587251,19.8573705 L37.2535458,19.8584064 Z M58.1778486,15.7698805 L58.1778486,7.44159363 C58.1353785,6.92366534 57.6133068,6.3663745 56.8985657,6.36326693 C56.196255,6.36326693 55.6555378,6.93505976 55.6203187,7.45816733 L55.6203187,15.7771315 C55.6203187,16.0050199 55.4680478,16.7301195 54.7916335,17.0522709 C53.3787251,17.723506 52.6515538,16.5519522 52.6163347,16.5011952 L47.4360159,8.33139442 C46.7544223,7.14844622 44.8204781,5.72932271 42.2847012,6.6740239 C39.7986454,7.69641434 39.7375299,10.2995219 39.7375299,10.3305976 L39.7375299,18.8246215 C39.78,19.3218327 40.2865339,19.8604781 41.0375299,19.8604781 C41.7263745,19.8604781 42.3064542,19.3187251 42.3064542,18.6806375 L42.3064542,10.5522709 C42.3012749,10.4921912 42.2194422,9.08964143 43.8975299,8.93737052 C44.8691633,8.88247012 45.3622311,9.89968127 45.3736255,9.92350598 C45.5683665,10.2404781 50.0992032,17.398247 50.5808765,18.1295618 C50.9620717,18.7106773 52.1626295,19.8594422 53.9360159,19.8594422 C54.5410127,19.8534714 55.1390837,19.7299873 55.6969721,19.4958566 C58.3187251,18.4299602 58.1882072,15.78749 58.1871713,15.7688446 L58.1778486,15.7698805 Z M145.857928,0.971633466 L65.5148207,0.971633466 L65.5148207,18.9499602 C65.5148207,21.4411952 63.9009562,24.0256574 61.17251,24.9993625 L139.143506,24.9993625 C141.055697,24.9993625 142.80008,24.2742629 144.05761,22.9556175 C145.194842,21.7715077 145.838873,20.1990189 145.858964,18.5573705 L145.857928,0.971633466 Z" id="Layer_1-2"></path>
            </g>
        </g>
    </g>
</svg>