<?xml version="1.0" encoding="UTF-8"?>
<svg width="79px" height="15px" viewBox="0 0 79 15" version="1.1" xmlns="http://www.w3.org/2000/svg" xmlns:xlink="http://www.w3.org/1999/xlink">
    <title>Logo-Bloomberg</title>
    <defs>
    </defs>
    <g id="Native-Video" stroke="none" stroke-width="1" fill="none" fill-rule="evenodd">
        <g transform="translate(-1023.000000, -3872.000000)" id="Trusted">
            <g transform="translate(147.000000, 3552.000000)">
                <g id="Logos-Publishers">
                    <g transform="translate(649.000000, 316.000000)">
                        <path d="M300.780625,7.3464606 C301.908163,7.3464606 302.578591,7.80357047 303.035701,8.50447228 L303.096649,8.50447228 L303.096649,7.59025253 L305.900256,7.59025253 L305.900256,14.8430625 C305.900256,16.1839182 305.443146,17.2200339 304.742244,17.8295137 C304.010868,18.4694676 302.974753,18.7437335 301.786267,18.7437335 C299.531192,18.7742075 297.977018,17.8599877 297.702752,16.0010742 L300.536833,16.0010742 C300.658729,16.3667621 301.024417,16.701976 301.725319,16.701976 C302.670013,16.701976 303.005227,16.1229702 303.005227,15.2392244 L303.005227,14.6297446 L302.944279,14.6297446 C302.487169,15.1782765 301.847215,15.5744383 300.932995,15.5744383 C299.13503,15.5744383 297.550382,14.2335827 297.550382,11.6128194 C297.550382,9.20537409 298.83029,7.3464606 300.780625,7.3464606 Z M245.714122,7.40740858 C248.36536,7.40740858 250.041429,9.20537409 250.041429,11.8261374 C250.041429,14.4773746 248.36536,16.2448662 245.714122,16.2448662 C243.062885,16.2448662 241.356341,14.4773746 241.356341,11.8261374 C241.356341,9.1749001 243.062885,7.40740858 245.714122,7.40740858 Z M254.734424,7.40740858 C257.385661,7.40740858 259.031257,9.1749001 259.031257,11.8261374 C259.031257,14.4773746 257.355187,16.2448662 254.70395,16.2448662 C252.083187,16.2448662 250.376643,14.4773746 250.376643,11.8261374 C250.376643,9.1749001 252.083187,7.40740858 254.734424,7.40740858 Z M276.492854,4.26858744 L276.492854,8.47399829 L276.553802,8.47399829 C277.102334,7.74262249 277.864183,7.3464606 278.930773,7.3464606 C281.033479,7.3464606 282.252438,9.23584808 282.252438,11.7651894 C282.252438,14.5992706 280.942057,16.2448662 278.747929,16.2448662 C277.833709,16.2448662 276.889016,15.8182303 276.401432,14.8735365 L276.370958,14.8735365 L276.370958,15.9706002 L273.567351,15.9706002 L273.567351,4.26858744 L276.492854,4.26858744 Z M286.823537,7.37693459 C288.072971,7.37693459 289.017664,7.77309648 289.74904,8.47399829 C290.724208,9.41869203 291.150844,10.8814436 291.12037,12.5879872 L285.513155,12.5879872 C285.635051,13.6241029 286.122635,14.1726347 287.006381,14.1726347 C287.524439,14.1726347 287.981549,13.9288428 288.164393,13.3803109 L290.998474,13.3803109 C290.51089,15.3001724 289.017664,16.2448662 286.914959,16.2448662 C284.32467,16.2143922 282.587652,14.4469007 282.587652,11.7956634 C282.587652,9.1749001 284.32467,7.37693459 286.823537,7.37693459 Z M240.746862,4.26858744 L240.746862,16.0010742 L237.729936,16.0010742 L237.729936,4.26858744 L240.746862,4.26858744 Z M296.910428,7.43788257 C297.15422,7.43788257 297.30659,7.46835656 297.398012,7.52930455 L297.398012,10.0891198 L297.337064,10.0891198 C295.600047,9.78437993 294.594405,10.6071777 294.594405,12.4965652 L294.594405,16.0010742 L291.638428,16.0010742 L291.638428,7.62072652 L294.442035,7.62072652 L294.442035,9.05300413 L294.502983,9.05300413 C295.112463,7.89499245 295.904787,7.43788257 296.910428,7.43788257 Z M233.09789,4.26858744 C234.194953,4.26858744 235.017751,4.54285336 235.627231,4.99996324 C236.297659,5.54849509 236.663347,6.34081887 236.663347,7.31598661 C236.663347,8.4435243 236.206237,9.14442611 235.292017,9.57106199 L235.292017,9.63200997 C236.510977,10.0281719 237.211879,11.1252356 237.211879,12.4356172 C237.211879,13.6850509 236.724295,14.6602186 235.931971,15.2696984 C235.261543,15.7572823 234.408271,15.9706002 233.25026,15.9706002 L227.338305,15.9706002 L227.338305,4.26858744 L233.09789,4.26858744 Z M269.940946,7.37693459 C271.891281,7.37693459 272.714079,8.8092122 272.714079,10.7290737 L272.714079,15.9706002 L269.788576,15.9706002 L269.788576,11.2471315 C269.788576,10.3938598 269.51431,9.84532791 268.782934,9.84532791 C268.051558,9.84532791 267.68587,10.5157557 267.68587,11.4299755 L267.68587,15.9706002 L264.760367,15.9706002 L264.760367,11.2471315 C264.760367,10.3938598 264.486101,9.84532791 263.754725,9.84532791 C263.02335,9.84532791 262.657662,10.5157557 262.657662,11.4299755 L262.657662,15.9706002 L259.640736,15.9706002 L259.640736,7.62072652 L259.640736,7.62072652 L262.444344,7.62072652 L262.444344,8.87016018 L262.505292,8.87016018 C263.053824,7.89499245 263.815673,7.37693459 265.034633,7.37693459 C266.101223,7.37693459 266.893546,7.89499245 267.289708,8.8092122 L267.350656,8.8092122 C268.021084,7.7121485 268.90483,7.37693459 269.940946,7.37693459 Z M245.653174,9.44916602 C244.738955,9.44916602 244.312319,10.3633858 244.312319,11.8261374 C244.312319,13.288889 244.738955,14.2335827 245.653174,14.2335827 C246.567394,14.2031087 247.024504,13.288889 247.024504,11.8261374 C247.024504,10.3633858 246.567394,9.44916602 245.653174,9.44916602 Z M254.673476,9.44916602 C253.759256,9.44916602 253.33262,10.3633858 253.33262,11.8261374 C253.33262,13.288889 253.759256,14.2335827 254.673476,14.2335827 C255.587696,14.2031087 256.044805,13.288889 256.044805,11.8261374 C256.044805,10.3633858 255.587696,9.44916602 254.673476,9.44916602 Z M277.864183,9.51011401 C276.949964,9.51011401 276.401432,10.3938598 276.401432,11.7347154 C276.401432,13.075571 276.980438,13.9593168 277.864183,13.9593168 C278.747929,13.9593168 279.235513,13.106045 279.235513,11.7347154 C279.235513,10.3938598 278.747929,9.51011401 277.864183,9.51011401 Z M232.79315,11.0033396 L230.538074,11.0033396 L230.538074,13.4107849 L232.79315,13.4107849 L232.79315,13.3803109 C233.494052,13.3803109 234.012109,12.9536751 234.012109,12.1918253 C234.012109,11.3690275 233.463578,11.0033396 232.79315,11.0033396 Z M301.786267,9.60153598 C300.963469,9.60153598 300.445411,10.3329118 300.445411,11.4909235 C300.445411,12.6184612 300.963469,13.4107849 301.786267,13.4107849 C302.609065,13.4107849 303.127123,12.5879872 303.127123,11.4909235 C303.127123,10.4548077 302.639539,9.60153598 301.786267,9.60153598 Z M286.884485,9.38821804 C286.061687,9.35774405 285.604577,9.93674989 285.513155,10.9119176 L288.194867,10.9119176 C288.133919,9.9062759 287.585387,9.38821804 286.884485,9.38821804 Z M232.48841,6.79792875 L230.5076,6.79792875 L230.5076,8.8092122 L232.518884,8.8092122 L232.518884,8.83968619 C233.128364,8.83968619 233.585474,8.50447228 233.585474,7.80357047 C233.585474,7.13314266 233.128364,6.79792875 232.48841,6.79792875 Z" id="Logo-Bloomberg" fill="#797979" fill-rule="nonzero"></path>
                    </g>
                </g>
            </g>
        </g>
    </g>
</svg>
