<?xml version="1.0" encoding="UTF-8"?>
<svg width="172px" height="33px" viewBox="0 0 172 33" version="1.1" xmlns="http://www.w3.org/2000/svg" xmlns:xlink="http://www.w3.org/1999/xlink">
    <title>Logo-CBSInteractive</title>
    <g id="Page-1" stroke="none" stroke-width="1" fill="none" fill-rule="evenodd">
        <g id="Desktop-HD" transform="translate(-652.000000, -721.000000)" fill="#797979" fill-rule="nonzero">
            <g id="Logo-CBSInteractive" transform="translate(652.150000, 721.000000)">
                <g id="Group">
                    <path d="M32.3703947,16.4782895 C32.3703947,25.5315789 25.2927632,32.8914474 16.2394737,32.8914474 C7.22960526,32.8914474 0.0651315789,25.5315789 0.0651315789,16.4782895 C0.0651315789,7.51184211 7.22960526,0.130263158 16.2394737,0.130263158 C25.2927632,0.130263158 32.3703947,7.51184211 32.3703947,16.4782895 Z M1.19407895,16.4782895 C3.47368421,21.2763158 8.83618421,25.9657895 16.2394737,25.9657895 C23.5993421,25.9657895 29.0052632,21.2763158 31.2848684,16.4782895 C29.0052632,11.7453947 23.6210526,7.07763158 16.2394737,7.07763158 C8.83618421,7.07763158 3.47368421,11.7453947 1.19407895,16.4782895 Z M16.2394737,7.81578947 C11.4414474,7.81578947 7.53355263,11.7236842 7.53355263,16.4782895 C7.53355263,21.3197368 11.4197368,25.1842105 16.2394737,25.1842105 C21.0375,25.1842105 24.9020642,21.3197368 24.9020642,16.4782895 C24.9236842,11.7236842 21.0375,7.81578947 16.2394737,7.81578947 Z" id="Shape"></path>
                    <g transform="translate(40.381579, 9.552632)">
                        <path d="M0.130263158,7.12105263 C0.130263158,2.95263158 3.32171053,0.151973684 7.53355263,0.151973684 C11.0723684,0.151973684 12.8526316,2.21447368 13.6559211,4.05986842 L10.1388158,5.68815789 C9.79144737,4.64605263 8.74934211,3.73421053 7.53355263,3.73421053 C5.57960526,3.73421053 4.25526316,5.23223684 4.25526316,7.09934211 C4.25526316,8.96644737 5.55789474,10.4644737 7.53355263,10.4644737 C8.74934211,10.4644737 9.79144737,9.55263158 10.1388158,8.51052632 L13.6559211,10.1171053 C12.8743421,11.9190789 11.0723684,14.0467105 7.53355263,14.0467105 C3.32171053,14.0901316 0.130263158,11.2677632 0.130263158,7.12105263 Z" id="Path"></path>
                        <path d="M14.6328947,13.8513158 L14.6328947,0.390789474 L22.8177632,0.390789474 C25.5967105,0.390789474 26.8125,2.25789474 26.8125,3.82105263 C26.8125,5.49276316 25.8138158,6.62171053 24.5111842,6.90394737 C25.9657895,7.12105263 27.0730263,8.46710526 27.0730263,10.2039474 C27.0730263,12.0710526 25.7921053,13.8513158 23.1,13.8513158 L14.6328947,13.8513158 L14.6328947,13.8513158 Z M22.6875,4.5375 C22.6875,4.08157895 22.2967105,3.77763158 21.8842105,3.77763158 L18.7361842,3.77763158 L18.7361842,5.3625 L21.8842105,5.3625 C22.3184211,5.34078947 22.6875,5.03684211 22.6875,4.5375 Z M22.9697368,9.61776316 C22.9697368,9.14013158 22.6006579,8.74934211 22.0144737,8.74934211 L18.7361842,8.74934211 L18.7361842,10.4644737 L22.0144737,10.4644737 C22.5789474,10.4644737 22.9697368,10.1171053 22.9697368,9.61776316 Z" id="Shape"></path>
                        <path d="M27.5072368,11.9625 L29.6348684,8.94473684 C30.6335526,9.92171053 32.1532895,10.6815789 33.9769737,10.6815789 C34.7368421,10.6815789 35.475,10.4861842 35.475,9.96513158 C35.475,8.6625 27.9631579,9.98684211 27.9631579,4.66776316 C27.9631579,2.38815789 29.8519737,0.195394737 33.5644737,0.195394737 C35.7572368,0.195394737 37.7546053,0.825 39.2743421,2.0625 L37.1032895,4.95 C35.9309211,4.05986842 34.4111842,3.62565789 33.1519737,3.62565789 C32.3486842,3.62565789 32.1315789,3.88618421 32.1315789,4.23355263 C32.1315789,5.51447368 39.6217105,4.40723684 39.6217105,9.42236842 C39.6217105,12.3967105 37.4289474,14.1118421 33.8032895,14.1118421 C30.8723684,14.0901316 28.9184211,13.2434211 27.5072368,11.9625 Z" id="Path"></path>
                    </g>
                </g>
                <g id="Group" transform="translate(86.842105, 9.552632)">
                    <polygon id="Path" points="0.151973684 13.8513158 0.151973684 0.173684211 1.32434211 0.173684211 1.32434211 13.8513158"></polygon>
                    <path d="M10.7901316,13.8513158 L10.7901316,7.14276316 C10.7901316,5.23223684 9.83486842,4.66776316 8.40197368,4.66776316 C7.12105263,4.66776316 5.81842105,5.47105263 5.18881579,6.36118421 L5.18881579,13.8513158 L4.125,13.8513158 L4.125,3.95131579 L5.18881579,3.95131579 L5.18881579,5.44934211 C5.90526316,4.58092105 7.31644737,3.7125 8.74934211,3.7125 C10.7684211,3.7125 11.8539474,4.68947368 11.8539474,6.92565789 L11.8539474,13.8513158 C11.8322368,13.8513158 10.7901316,13.8513158 10.7901316,13.8513158 Z" id="Path"></path>
                    <path d="M14.7197368,11.9407895 L14.7197368,4.88486842 L13.0697368,4.88486842 L13.0697368,3.95131579 L14.7197368,3.95131579 L14.7197368,1.2375 L15.8052632,1.2375 L15.8052632,3.95131579 L17.8026316,3.95131579 L17.8026316,4.88486842 L15.8052632,4.88486842 L15.8052632,11.7671053 C15.8052632,12.5703947 16.1309211,13.1131579 16.8256579,13.1131579 C17.3032895,13.1131579 17.7157895,12.8960526 17.9328947,12.6355263 L18.3453947,13.4605263 C17.9546053,13.8296053 17.4769737,14.0684211 16.6736842,14.0684211 C15.3710526,14.0901316 14.7197368,13.2868421 14.7197368,11.9407895 Z" id="Path"></path>
                    <path d="M18.6276316,8.87960526 C18.6276316,6.01381579 20.6467105,3.69078947 23.4039474,3.69078947 C26.4217105,3.69078947 28.0717105,6.07894737 28.0717105,8.94473684 L28.0717105,9.22697368 L19.8,9.22697368 C19.9085526,11.3763158 21.3414474,13.1565789 23.6644737,13.1565789 C24.9236842,13.1565789 26.0526316,12.6789474 26.8993421,11.7888158 L27.4421053,12.4835526 C26.4651316,13.5039474 25.2059211,14.0901316 23.5776316,14.0901316 C20.6684211,14.0901316 18.6276316,11.9407895 18.6276316,8.87960526 Z M23.3822368,4.62434211 C21.0375,4.62434211 19.8868421,6.66513158 19.8,8.40197368 L26.9861842,8.40197368 C26.9644737,6.70855263 25.8355263,4.62434211 23.3822368,4.62434211 Z" id="Shape"></path>
                    <path d="M30.1125,13.8513158 L30.1125,3.95131579 L31.1763158,3.95131579 L31.1763158,5.64473684 C32.0230263,4.5375 33.1519737,3.73421053 34.5197368,3.73421053 L34.5197368,4.90657895 C34.3460526,4.86315789 34.1940789,4.86315789 33.9769737,4.86315789 C32.9782895,4.86315789 31.6105263,5.775 31.1763158,6.62171053 L31.1763158,13.8296053 L30.1125,13.8296053 L30.1125,13.8513158 Z" id="Path"></path>
                    <path d="M42.3355263,13.8513158 L42.3355263,12.6789474 C41.4453947,13.6342105 40.3381579,14.0901316 38.9703947,14.0901316 C37.2769737,14.0901316 35.4967105,12.9177632 35.4967105,10.7901316 C35.4967105,8.64078947 37.2335526,7.51184211 38.9703947,7.51184211 C40.3381579,7.51184211 41.4671053,7.96776316 42.3355263,8.92302632 L42.3355263,6.92565789 C42.3355263,5.44934211 41.1414474,4.64605263 39.6651316,4.64605263 C38.4276316,4.64605263 37.4723684,5.08026316 36.5605263,6.10065789 L35.9743421,5.3625 C36.9947368,4.25526316 38.1453947,3.7125 39.7953947,3.7125 C41.7927632,3.7125 43.3993421,4.66776316 43.3993421,6.88223684 L43.3993421,13.8513158 L42.3355263,13.8513158 L42.3355263,13.8513158 Z M42.3355263,11.8973684 L42.3355263,9.72631579 C41.6407895,8.81447368 40.5335526,8.35855263 39.3394737,8.35855263 C37.6894737,8.35855263 36.6256579,9.40065789 36.6256579,10.8118421 C36.6256579,12.2013158 37.6894737,13.2434211 39.3394737,13.2434211 C40.5335526,13.2651316 41.6190789,12.8092105 42.3355263,11.8973684 Z" id="Shape"></path>
                    <path d="M45.4184211,8.87960526 C45.4184211,5.99210526 47.3289474,3.69078947 50.2381579,3.69078947 C51.9532895,3.69078947 52.9519737,4.36381579 53.7335526,5.3625 L52.9953947,6.01381579 C52.2789474,5.03684211 51.3671053,4.64605263 50.2815789,4.64605263 C47.9585526,4.64605263 46.5473684,6.49144737 46.5473684,8.85789474 C46.5473684,11.2243421 47.9585526,13.0914474 50.2815789,13.0914474 C51.3671053,13.0914474 52.2789474,12.6789474 52.9953947,11.7019737 L53.7335526,12.3532895 C52.9302632,13.3736842 51.9532895,14.0467105 50.2381579,14.0467105 C47.3289474,14.0901316 45.4184211,11.7888158 45.4184211,8.87960526 Z" id="Path"></path>
                    <path d="M56.2736842,11.9407895 L56.2736842,4.88486842 L54.6236842,4.88486842 L54.6236842,3.95131579 L56.2736842,3.95131579 L56.2736842,1.2375 L57.3592105,1.2375 L57.3592105,3.95131579 L59.3782895,3.95131579 L59.3782895,4.88486842 L57.3592105,4.88486842 L57.3592105,11.7671053 C57.3592105,12.5703947 57.6848684,13.1131579 58.3796053,13.1131579 C58.8572368,13.1131579 59.2697368,12.8960526 59.4868421,12.6355263 L59.8993421,13.4605263 C59.5085526,13.8296053 59.0309211,14.0684211 58.2276316,14.0684211 C56.8815789,14.0901316 56.2736842,13.2868421 56.2736842,11.9407895 Z" id="Path"></path>
                    <path d="M60.9848684,1.58486842 C60.9848684,1.12894737 61.3756579,0.781578947 61.8098684,0.781578947 C62.2657895,0.781578947 62.6348684,1.12894737 62.6348684,1.58486842 C62.6348684,2.04078947 62.2657895,2.40986842 61.8098684,2.40986842 C61.3756579,2.38815789 60.9848684,2.01907895 60.9848684,1.58486842 Z M61.2671053,13.8513158 L61.2671053,3.95131579 L62.3309211,3.95131579 L62.3309211,13.8513158 L61.2671053,13.8513158 L61.2671053,13.8513158 Z" id="Shape"></path>
                    <path d="M67.8888158,13.8513158 L63.6986842,3.95131579 L64.8927632,3.95131579 L68.4967105,12.5921053 L72.0572368,3.95131579 L73.2730263,3.95131579 L69.0828947,13.8513158 C69.0828947,13.8513158 67.8888158,13.8513158 67.8888158,13.8513158 Z" id="Path"></path>
                    <path d="M73.6421053,8.87960526 C73.6421053,6.01381579 75.6611842,3.69078947 78.4184211,3.69078947 C81.4361842,3.69078947 83.0861842,6.07894737 83.0861842,8.94473684 L83.0861842,9.22697368 L74.7927632,9.22697368 C74.9013158,11.3763158 76.3342105,13.1565789 78.6572368,13.1565789 C79.9164474,13.1565789 81.0453947,12.6789474 81.8921053,11.7888158 L82.4348684,12.4835526 C81.4578947,13.5039474 80.1986842,14.0901316 78.5703947,14.0901316 C75.7046053,14.0901316 73.6421053,11.9407895 73.6421053,8.87960526 Z M78.375,4.62434211 C76.0302632,4.62434211 74.8796053,6.66513158 74.7927632,8.40197368 L81.9789474,8.40197368 C81.9572368,6.70855263 80.8717105,4.62434211 78.375,4.62434211 Z" id="Shape"></path>
                </g>
            </g>
        </g>
    </g>
</svg>