<?xml version="1.0" encoding="UTF-8"?>
<svg width="85px" height="14px" viewBox="0 0 85 14" version="1.1" xmlns="http://www.w3.org/2000/svg" xmlns:xlink="http://www.w3.org/1999/xlink">
    <title>Logo-Chanel</title>
    <g id="Page-1" stroke="none" stroke-width="1" fill="none" fill-rule="evenodd">
        <g id="Desktop-HD" transform="translate(-87.000000, -839.000000)" fill="#797979" fill-rule="nonzero">
            <g id="Logo-Chanel" transform="translate(87.125000, 839.781250)">
                <path d="M6.43451158,0 C2.90870855,0 0,2.69686043 0,6.48714636 C0,10.277194 2.90870855,12.974293 6.43451158,12.974293 C8.84967725,12.974293 10.9827824,11.6705924 12.0757719,9.66061725 L9.8897892,8.40902236 C9.25517347,9.71331208 7.96822649,10.5065036 6.43451158,10.5065036 C4.23088469,10.5065036 2.55629067,8.86701575 2.55629067,6.48714636 C2.55629067,4.10727696 4.23088469,2.46778915 6.43451158,2.46778915 C7.96822649,2.46778915 9.25517347,3.2612082 9.8897892,4.5657362 L12.0757719,3.31414132 C10.9827824,1.30464334 8.84967725,0 6.43451158,0 Z M15.1602754,0.317207332 L15.1602754,12.6566195 L17.6285307,12.6566195 L17.6285307,7.36843299 L23.7984697,7.36843299 L23.7984697,12.6570857 L26.2662595,12.6570857 L26.2662595,0.317207332 L23.7984697,0.317207332 L23.7984697,4.90064384 L17.6285307,4.90064384 L17.6285307,0.317207332 L15.1602754,0.317207332 Z M34.1992382,0.317207332 L28.7340495,12.6570857 L31.4314761,12.6570857 L32.6476698,9.83668829 L39.0994176,9.83668829 L40.3160766,12.6570857 L43.013038,12.6570857 L37.5487798,0.317207332 L34.1992382,0.317207332 Z M45.4812924,0.317207332 L45.4812924,12.6570857 L47.7725438,12.6570857 L47.7725438,2.94383308 L54.3835937,12.6570857 L56.587277,12.6570857 L56.587277,0.317207332 L54.2955603,0.317207332 L54.2955603,8.49705774 L48.7427978,0.317207332 L45.4812924,0.317207332 L45.4812924,0.317207332 Z M61.3463176,0.317207332 L61.3463176,12.6570857 L70.5136581,12.6575622 L70.5136581,10.3658438 L63.6380343,10.3658438 L63.6380343,7.54544646 L69.2792954,7.54544646 L69.2792954,5.25326249 L63.6380343,5.25326249 L63.6380343,2.60893616 L70.1605826,2.60893616 L70.1605826,0.317207332 L61.3463176,0.317207332 L61.3463176,0.317207332 Z M74.479913,0.317207332 L74.479913,12.6570857 L74.479913,12.6575622 L83.4707158,12.6575622 L83.4707158,10.1897728 L76.9481675,10.1897728 L76.9481675,0.317207332 L74.479913,0.317207332 L74.479913,0.317207332 Z M35.8737764,2.34435317 L38.1128614,7.54497017 L33.6346913,7.54497017 L35.8737764,2.34435317 Z" id="path6"></path>
            </g>
        </g>
    </g>
</svg>