<?xml version="1.0" encoding="UTF-8"?>
<svg width="32px" height="16px" viewBox="0 0 32 16" version="1.1" xmlns="http://www.w3.org/2000/svg" xmlns:xlink="http://www.w3.org/1999/xlink">
    <title>Logo-CNN</title>
    <defs>
    </defs>
    <g id="Native-Video" stroke="none" stroke-width="1" fill="none" fill-rule="evenodd">
        <g transform="translate(-801.000000, -3871.000000)" id="Trusted">
            <g transform="translate(147.000000, 3552.000000)">
                <g id="Logos-Publishers">
                    <g transform="translate(649.000000, 316.000000)">
                        <path d="M15.306142,3.82939462 L15.306142,5.54601914 L12.9028677,5.54601914 L12.8120276,5.54675507 C9.82011608,5.59526436 7.40966918,8.03574597 7.40966918,11.0392176 C7.40966918,14.0730274 9.86905791,16.5324161 12.9028677,16.5324161 L12.9028677,16.5324161 L17.3077262,16.5324161 L17.3257239,16.5322703 C17.9184963,16.5226594 18.3960661,16.039139 18.3960661,15.4440761 L18.3960661,15.4440761 L18.3962136,6.62413042 C18.4010121,6.44726634 18.521975,6.2934566 18.6942546,6.24751537 C18.8698473,6.20069065 19.0550051,6.27758827 19.1457638,6.43503097 L19.1457638,6.43503097 L24.6039968,15.985227 L24.6115453,15.9981197 C24.8606636,16.4170802 25.357004,16.6199704 25.8279496,16.4943849 C26.3037007,16.3675179 26.6350152,15.937043 26.6358633,15.4446675 L26.6358633,15.4446675 L26.6360113,6.62413042 C26.6408098,6.44726634 26.7617727,6.2934566 26.9340523,6.24751537 C27.109645,6.20069065 27.2948028,6.27758827 27.3855615,6.43503097 L27.3855615,6.43503097 L32.8437945,15.985227 L32.851343,15.9981197 C33.1004613,16.4170802 33.5968017,16.6199704 34.0677473,16.4943849 C34.5434984,16.3675179 34.8748129,15.937043 34.8756616,15.4446675 L34.8756616,15.4446675 L34.8756616,3.82939462 L36.5922861,3.82939462 L36.5922861,15.4440761 C36.5907858,16.7148691 35.7351229,17.8258896 34.5068509,18.1518726 C33.2785789,18.4778557 31.9846012,17.9373493 31.353148,16.834542 L28.3524884,11.5851042 L28.3524884,15.4440761 C28.3509881,16.7148691 27.4953252,17.8258896 26.2670532,18.1518726 C25.0387812,18.4778557 23.7448035,17.9373493 23.1133503,16.834542 L20.1126907,11.5851042 L20.1126907,15.4440761 C20.1126907,16.9932152 18.8568653,18.2490406 17.3077262,18.2490406 L12.9028677,18.2490406 C8.92099237,18.2490406 5.69304466,15.0210929 5.69304466,11.0392176 C5.69304466,7.05734233 8.92099237,3.82939462 12.9028677,3.82939462 L15.306142,3.82939462 Z M34.1890118,3.82939462 L34.1888643,15.4543048 C34.1840658,15.6311689 34.0631029,15.7849786 33.8908233,15.8309199 C33.7152306,15.8777446 33.5300728,15.800847 33.4393141,15.6434043 L33.4393141,15.6434043 L27.9810811,6.09320826 L27.9735326,6.08031557 C27.7244143,5.66135508 27.2280739,5.45846485 26.7571283,5.58405033 C26.2813772,5.71091729 25.9500627,6.14139221 25.9492145,6.6337677 L25.9492145,6.6337677 L25.9490665,15.4543048 C25.9442681,15.6311689 25.8233052,15.7849786 25.6510256,15.8309199 C25.4754329,15.8777446 25.2902751,15.800847 25.1995164,15.6434043 L25.1995164,15.6434043 L19.7412834,6.09320826 L19.7337348,6.08031557 C19.4846166,5.66135508 18.9882762,5.45846485 18.5173306,5.58405033 C18.0415795,5.71091729 17.710265,6.14139221 17.7094168,6.6337677 L17.7094168,6.6337677 L17.7092891,15.4542849 C17.7038728,15.6714145 17.5261605,15.8457663 17.3077262,15.8457663 L17.3077262,15.8457663 L12.9028677,15.8457663 L12.8233826,15.8451223 C10.20546,15.8026767 8.09631899,13.6672553 8.09631899,11.0392176 C8.09631899,8.38463409 10.2482841,6.23266895 12.9028677,6.23266895 L12.9028677,6.23266895 L15.306142,6.23266895 L15.306142,7.94929347 L12.9028677,7.94929347 C11.1963497,7.94929347 9.81294352,9.33269963 9.81294352,11.0392176 C9.81294352,12.7457356 11.1963497,14.1291418 12.9028677,14.1291418 L15.5911017,14.1291418 C15.812949,14.1291418 15.9927918,13.949299 15.9927918,13.7274516 L15.9927918,6.63435909 C15.9942921,5.36356612 16.849955,4.25254568 18.078227,3.92656262 C19.306499,3.60057956 20.6004767,4.14108592 21.2319298,5.24389322 L24.2325895,10.493331 L24.2325895,6.63435909 C24.2340898,5.36356612 25.0897527,4.25254568 26.3180247,3.92656262 C27.5462967,3.60057956 28.8402744,4.14108592 29.4717276,5.24389322 L32.4723872,10.493331 L32.4723872,3.82939462 L34.1890118,3.82939462 Z" id="Logo-CNN" fill="#797979" fill-rule="nonzero"></path>
                    </g>
                </g>
            </g>
        </g>
    </g>
</svg>
