<?xml version="1.0" encoding="UTF-8"?>
<svg width="58px" height="20px" viewBox="0 0 58 20" version="1.1" xmlns="http://www.w3.org/2000/svg" xmlns:xlink="http://www.w3.org/1999/xlink">
    <title>Logo-CocaCola</title>
    <g id="Page-1" stroke="none" stroke-width="1" fill="none" fill-rule="evenodd">
        <g id="Desktop-HD" transform="translate(-260.000000, -759.000000)" fill="#797979" fill-rule="nonzero">
            <g id="Logo-CocaCola" transform="translate(260.495145, 759.500000)">
                <path d="M47.3922388,16.1165373 C47.3913881,16.1165373 47.2168433,16.272153 47.2168433,16.272153 C46.9674328,16.4951194 46.710791,16.7338246 46.4009776,16.6144366 C46.3154067,16.5833134 46.2552164,16.4693134 46.2407537,16.3808358 C46.2266597,15.7426343 46.514056,15.1512806 46.7927463,14.5754955 L46.864209,14.4249134 C47.6658955,13.0863493 48.5977463,11.5091224 49.9663134,10.4144955 C50.1969366,10.2481037 50.4472119,10.1082836 50.7113403,10.2173351 C50.7720978,10.2742642 50.8428515,10.3729507 50.8428515,10.4714246 C50.8428515,10.5026896 50.8151455,10.5856373 50.799109,10.6114433 C50.416897,11.2291418 50.0528627,11.8776373 49.6988672,12.5001567 C49.0070687,13.7299104 48.2894075,15.0009254 47.3922104,16.1166791 L47.3922388,16.1165373 Z M39.9768507,12.9619701 C39.924459,12.9984813 38.9999104,12.6870373 38.8212537,11.8309881 C38.6696791,11.0939582 39.177206,10.5180597 39.6682567,10.2277567 C39.8790291,10.0616485 40.1965134,10.0047194 40.429391,10.0873836 C40.6455515,10.2328612 40.7041112,10.4924806 40.7041112,10.7722343 C40.7041112,10.9438015 40.6813679,11.1200478 40.6612903,11.2808388 C40.6612903,11.2808388 40.6574619,11.3121037 40.6568381,11.3172791 C40.5027821,11.8930075 40.2670545,12.4586403 39.9768649,12.9619985 L39.9768507,12.9619701 Z M36.4451194,16.4435075 C36.3508284,16.3034179 36.3195634,16.1502269 36.316444,15.9846149 C36.2983515,14.9672642 37.3929216,13.145391 38.165541,12.1528537 L38.1672425,12.1528537 C38.4910366,12.861809 39.2242097,13.3175254 39.6668246,13.5095672 C39.1171007,14.7341313 37.2317619,17.3566418 36.4453321,16.4435075 L36.4451194,16.4435075 Z M49.788791,16.6241493 C49.6058097,16.7486418 49.3487284,16.6529328 49.4448627,16.3676493 C49.6842769,15.6412537 50.6361343,14.1609552 50.6361343,14.1609552 L53.2873433,9.45859701 L51.4712836,9.45859701 C51.3850037,9.60038806 51.2003918,9.92599701 51.2003918,9.92599701 C51.1163806,9.78604925 50.865141,9.47481791 50.7616903,9.40760896 C50.3180261,9.12721716 49.6670634,9.25979179 49.2180112,9.51395224 C47.2656052,10.655597 45.8411157,12.9112657 44.7175634,14.6700418 C44.7175634,14.6700418 43.5349694,16.6253403 42.8784769,16.7707612 C42.3659873,16.812306 42.418847,16.1219254 42.4410515,15.9610776 C42.6392045,14.7986746 43.0993873,13.6936119 43.563044,12.6922269 C44.5060112,12.0385134 45.5822052,11.1824358 46.5602231,10.2433537 C48.6826933,8.21446567 50.4719545,5.91589104 50.7334172,5.40232388 C50.7334172,5.40232388 50.4503313,5.45946567 50.116059,5.46974552 C48.4831933,7.74747687 45.1417455,11.0580142 44.1287903,11.5505963 C44.577559,10.4712261 47.477044,5.31916343 49.9444918,2.85483507 L50.3327724,2.4811306 C50.9331157,1.89482463 51.5552381,1.29297836 52.0399933,1.19437687 C52.0911799,1.18921567 52.1571127,1.19437687 52.2140418,1.31390672 C52.2356791,1.77041716 52.0657284,2.1077097 51.8707657,2.49162313 L51.5975343,3.05206642 C51.5975343,3.05206642 51.9845672,2.97939851 52.2387134,2.89616716 C52.5336388,2.34125373 52.8602687,1.71845075 52.7398597,0.976656716 C52.6996619,0.737954328 52.5268896,0.55638806 52.3011015,0.514843284 C51.5650642,0.374753731 50.7628955,0.919373134 50.1174627,1.36054179 L50.0913731,1.37599701 C46.7734627,3.97545224 43.9716716,7.72171343 41.5220896,12.8375343 C41.3445672,12.9722358 40.6586388,13.1332537 40.5420299,13.0553254 C40.7839254,12.5573552 41.0884925,11.8878746 41.2409179,11.1615075 C41.267291,10.9539254 41.2918209,10.7412955 41.2918209,10.5337985 C41.2918209,10.0872134 41.1846269,9.66711493 40.7845493,9.37664179 C40.3155045,9.14311194 39.735806,9.25214925 39.3449448,9.42846642 C37.5939672,10.1548619 36.2853776,11.9502201 35.3410493,13.4286754 C34.8331537,14.368041 34.3267328,15.3741052 34.1865299,16.5262425 C34.0877724,17.4288843 34.2888321,18.0100007 34.8020448,18.3006724 C35.3298478,18.5702881 35.9941672,18.2900381 36.2551194,18.1552657 C38.0289821,17.2213731 39.2684627,15.3484269 40.245403,13.6361015 C40.2842537,13.630997 40.8176716,13.6155418 41.2211522,13.511609 C41.2265403,13.511609 41.228809,13.511609 41.2377418,13.5170537 C41.2146299,13.5945425 41.0061261,14.2173597 41.0061261,14.2173597 C40.3869246,16.0331925 40.1005918,17.2681358 40.6854515,17.9997776 C41.5212246,19.0323567 42.9049067,17.9636209 44.0305858,16.552091 C43.7889739,18.2435164 44.6655828,18.5082403 45.3337873,18.3786433 C46.1013873,18.171203 46.9567276,17.3512254 47.3536858,16.9310985 C47.2262157,17.4239075 47.2608836,18.3060463 47.9591336,18.3941552 C48.4377634,18.4826328 48.7959276,18.2223045 49.2103545,17.9991254 C50.6969485,17.1896403 52.476653,14.4923493 52.9386082,13.7124985 L52.3328201,13.7124985 C51.676044,14.7050925 50.8402709,16.0065358 49.788947,16.6243194 L49.788791,16.6241493 Z M26.8864179,6.5518806 L28.5878537,6.5518806 L29.5481194,4.9921791 L27.8463433,4.9921791 L26.8864179,6.5518806 Z M54.065209,2.40846269 C52.7678776,3.14535075 51.4230746,3.62256269 49.7950299,3.45658209 C49.3438507,3.96518657 48.9045821,4.48916119 48.4996836,5.02870448 C50.7845612,5.6098209 53.2068627,4.31790597 54.5578478,3.0883791 C55.9869597,1.84827463 56.7198209,0.286673134 56.7198209,0.286673134 C56.7198209,0.286673134 55.6485896,1.51103881 54.0651522,2.40849104 L54.065209,2.40846269 Z M39.7584925,2.01428358 C39.4879552,5.11695522 37.0761463,6.93840299 36.4794328,7.08331343 C36.117809,7.15583955 35.5007343,6.9951194 36.0515642,5.69296716 C36.8628358,3.93906866 38.2478507,2.45020597 39.7338776,1.68737015 C39.7700343,1.81710896 39.7691127,1.89991493 39.7584642,2.01419851 L39.7584925,2.01428358 Z M35.0589701,9.83320896 C34.8861978,9.45973134 34.4759821,9.22101194 34.0388687,9.24690299 C32.6193134,9.37671269 31.2308388,10.5440642 30.5017493,12.2199776 C30.119197,13.0813582 29.9104239,13.7921 29.7735104,14.9231388 C30.214906,14.4148179 31.1152791,13.5795269 32.1370254,13.122903 C32.1370254,13.122903 32.2760515,12.0385418 32.9849925,11.0734552 C33.2532612,10.6738313 33.7901388,10.030497 34.3929776,10.2016672 C34.9196463,10.378197 34.7345522,11.8361776 34.0345299,13.2470552 C33.5165672,14.284909 32.7239552,15.3228761 31.9219851,16.038694 C31.2129731,16.640597 30.1639179,17.3669358 29.2461045,16.8066343 C28.6680224,16.4643507 28.3731821,15.7481642 28.4354851,14.8246224 C28.711694,12.2045507 29.9043836,9.97338358 31.6110373,7.43107015 C33.3709478,5.07030597 35.3109328,2.64732388 37.9244254,1.3550403 C38.457503,1.08528284 38.9511343,1.02302239 39.3778403,1.18907388 C39.3778403,1.18907388 36.9245716,2.53807388 35.7550791,5.03387985 C35.4576015,5.66697687 35.0438552,6.52282761 35.460494,7.28041716 C35.6782142,7.67465299 36.0648075,7.70584701 36.3760388,7.68508881 C37.8094896,7.35295746 38.7355836,6.01436493 39.4923224,4.78999925 C39.9310239,3.86126791 40.3209493,2.93769776 40.3209493,1.91022313 C40.3209493,1.7857306 40.3144836,1.61977836 40.3039343,1.49511567 C40.9887851,1.13207388 42.3930836,1.77529478 42.3930836,1.77529478 C43.4904896,2.13862015 45.8272627,3.92876045 46.6153373,4.27104403 C46.9998179,3.82491269 47.6316388,3.1504694 47.9873642,2.81314851 L47.4723791,2.49661418 C46.6478642,1.99331269 45.7763313,1.5159306 44.9184955,1.04382313 C42.9703433,-0.0196664179 41.3844955,0.353811194 40.5774209,0.644397761 C40.2602343,0.758468657 39.9703284,0.857084328 39.9703284,0.857084328 C39.371403,0.203370896 38.3891313,0.265475373 37.6653731,0.442005224 C35.0625149,1.18910224 32.6459701,3.01018134 30.0551642,6.17007985 C28.1503433,8.64504254 26.9686567,10.7828261 26.3391045,12.8943784 C25.8536687,14.3159187 25.7061493,16.4068261 26.8909552,17.6469306 C27.8982955,18.6998709 29.2340522,18.4718142 30.1773881,18.093147 C32.2211075,17.0865724 34.0579254,14.9175948 34.9733284,12.4220724 C35.1941679,11.6802216 35.4393104,10.632159 35.059041,9.83302463 L35.0589701,9.83320896 Z M12.4050149,7.42593731 C12.4016119,7.43628806 12.0579104,8.22484478 12.0579104,8.22484478 C12.0082127,8.26631866 11.9296604,8.24563134 11.8396231,8.22484478 L11.6853545,8.19875522 C11.2009396,8.04838582 10.8355157,7.72664776 10.7228769,7.34276269 C10.5674739,6.5955806 11.2057604,6.00930299 11.4869888,5.79667313 C11.7568172,5.60972164 12.1763201,5.51116269 12.4199172,5.70323284 C12.5701448,5.87969179 12.6270739,6.10790448 12.6270739,6.35711642 C12.6271448,6.69429552 12.5230701,7.0730194 12.4050291,7.42593731 L12.4050149,7.42593731 Z M11.666709,8.92523582 C11.666709,8.92523582 11.6511119,8.97209776 11.6433985,8.98741119 C11.6414134,8.98741119 10.8621299,10.2584261 10.8621299,10.2584261 C10.391809,10.8863336 9.80459552,11.6752022 9.07051493,12.0537843 C8.85293657,12.1264522 8.55218358,12.1732433 8.39893582,11.9814 C8.07400746,11.5921836 8.24147687,11.0526119 8.37752537,10.616803 L8.42566343,10.4611164 C8.8157306,9.40278806 9.43464851,8.46866866 10.0370336,7.60204179 C10.0445485,7.59693731 10.0614216,7.59177612 10.0675187,7.59177612 C10.0689366,7.59696567 10.071347,7.59696567 10.0723963,7.60737313 C10.4504112,8.33362687 11.1592246,8.67074925 11.6893246,8.82663433 C11.6925291,8.82663433 11.6959325,8.83179552 11.6959325,8.84223134 C11.696003,8.85768657 11.6873396,8.87860075 11.6667231,8.92510821 L11.666709,8.92523582 Z M21.4151269,8.08994478 C21.763706,7.60751493 22.778306,6.31551493 23.0256463,6.09763881 C23.8575343,5.36577015 24.1900343,5.68780597 24.2188179,5.91593358 C23.4424269,7.30639328 22.5261164,8.89921716 21.664594,10.3313067 C21.6662955,10.3262022 21.3949784,10.7411396 21.3949784,10.7411396 C21.0144679,11.3221425 20.6313485,11.8202261 20.0064187,12.167841 C19.917303,12.1939306 19.7704075,12.2043522 19.6726425,12.1314716 C19.554956,12.0536284 19.5085194,11.9238896 19.5217769,11.7889045 C19.5592097,11.3428299 20.0134515,9.97851642 21.4151127,8.0898597 L21.4151269,8.08994478 Z M12.7757985,4.93537761 C11.7003134,4.22976866 9.53870896,5.57876866 7.8074403,7.89257164 C6.22420149,9.96816567 5.54054179,12.3805418 6.28454776,13.4961537 C7.39131194,14.8087985 9.4459209,12.899497 10.3196373,11.8775239 L10.4323612,11.7580649 C11.0265224,11.1198634 11.4855851,10.3519231 11.9299015,9.61509179 C11.9299015,9.61509179 12.3382597,8.94059179 12.3577701,8.90939776 C12.6101582,8.8628903 12.9141582,8.79022239 13.2567254,8.69160672 C13.2518478,8.70706194 11.9460657,10.9018455 12.0792925,11.9913679 C12.1207664,12.3237261 12.0890761,13.5377978 13.2744493,13.9061142 C14.8542851,14.170909 16.1159418,12.9462455 17.2287179,11.8566664 C17.2287179,11.8566664 17.4183634,11.6752448 17.5256284,11.5716664 C17.4984896,11.6803493 17.4630985,11.8253306 17.4630985,11.8253306 C17.0005761,13.4338082 17.6240313,13.7712709 18.0140418,13.8958201 C19.1926657,14.238444 20.6007358,12.5261187 20.6052731,12.5261187 C20.5687619,13.0654918 20.4619933,13.5117082 21.0305896,13.8697306 C21.5672687,14.0618575 22.1104134,13.7689881 22.5232239,13.4939843 C24.0102716,12.4459216 25.2082358,10.8056261 26.1757612,9.38771567 L25.5585448,9.38771567 C25.5512567,9.38771567 24.0354821,11.5846261 23.0512537,12.0621216 C23.0498358,12.0621216 22.8706119,12.1540731 22.7673881,12.0813201 C22.6396343,11.9722828 22.690041,11.7457007 22.768806,11.5851933 C22.7737687,11.5747007 26.5690896,4.99219328 26.5690896,4.99219328 L24.7771343,4.99219328 C24.7771343,4.99219328 24.5813918,5.30889776 24.5654403,5.32965597 C24.5533881,5.31930522 24.5246754,5.26485746 24.5047537,5.23876791 C23.3945299,3.7030291 20.880291,6.06526791 18.9873806,8.8045291 C18.2586313,9.85789478 17.3308358,11.0439201 16.3687836,11.9001112 C16.3687836,11.9001112 14.9435567,13.2065739 14.3345925,12.2679172 C14.1119806,11.8735112 14.1804657,11.2969321 14.3060216,10.9182933 C15.0150336,8.89998284 16.2367903,7.06838284 17.6270515,5.96297985 C18.0195291,5.65705149 18.4460933,5.56857388 18.6578157,5.69832687 C18.8595134,5.81785672 18.8920545,6.11334925 18.7644425,6.31574179 C18.4406485,6.30539104 18.181256,6.40379403 17.970356,6.62172687 C17.5549082,7.05759254 17.4105649,7.47791791 17.5426575,7.87232388 C18.184347,8.78545821 19.4640679,6.97983433 19.4021619,5.87987612 C19.3800425,5.48547015 19.1696246,5.11199254 18.8556425,4.93021642 C18.3876754,4.6501791 17.6737291,4.72270522 17.2117172,4.94595522 C16.5932246,5.17934328 15.6141575,5.99384776 15.0426545,6.62697313 C14.3232067,7.42094627 13.089341,8.30288657 12.7034425,8.20411493 C12.8298493,7.86670896 13.8720843,5.73434179 12.7756851,4.93554776 L12.7757985,4.93537761 Z M21.7829328,16.4797209 C19.6725149,15.1202284 16.8083358,14.8816791 12.1893507,16.1631866 C7.26523134,17.3203433 5.62329104,18.062109 3.46721642,16.5730194 C2.63887313,15.8415194 2.34187761,14.6637179 2.56366716,12.9672731 C3.07802836,10.2016388 4.46797761,7.5400791 6.93707015,4.58798955 C8.31522239,3.05225075 9.59352537,1.73430299 11.2815478,1.20513881 C12.5752493,0.873120896 12.4543015,1.88984776 12.2977642,2.0352403 C12.1325776,2.0352403 11.8550925,2.06127313 11.6406478,2.20120672 C11.4665993,2.33619179 10.9888343,2.77205746 10.9631701,3.35836343 C10.9261627,4.25590075 11.8550358,4.06907687 12.2556806,3.57629627 C12.6875194,3.02098582 13.3256925,1.95752463 12.8236955,0.966405224 C12.6132776,0.613629104 12.2497254,0.369833582 11.7983194,0.286800746 C10.2526552,0.198464925 8.81305075,0.93526791 7.48446866,1.74985746 C4.57973731,3.76811119 2.25549851,6.56479776 0.940528358,9.62606642 C0.182286567,11.4730933 -0.503414925,14.1188575 0.524456716,16.2723799 C1.31956418,17.7665739 2.97029552,18.5602634 4.93982985,18.3942828 C6.32110149,18.2491597 7.99117313,17.8027306 9.11472537,17.5331858 C10.2380507,17.2632157 15.9881881,15.2865918 17.8776955,18.7267828 C17.8776955,18.7267828 18.5059716,17.507153 20.0760806,17.4811485 C21.3669463,17.362044 23.2292299,17.854853 24.5853194,18.85085 C24.1335164,18.1713873 22.8525761,17.1700022 21.7839537,16.4798201 L21.7829328,16.4797209 Z" id="Shape"></path>
            </g>
        </g>
    </g>
</svg>