<?xml version="1.0" encoding="UTF-8"?>
<svg width="72px" height="13px" viewBox="0 0 72 13" version="1.1" xmlns="http://www.w3.org/2000/svg" xmlns:xlink="http://www.w3.org/1999/xlink">
    <title>Logo-Cosmopolitan</title>
    <defs>

    </defs>
    <g id="Native-Video" stroke="none" stroke-width="1" fill="none" fill-rule="evenodd">
        <g transform="translate(-1026.000000, -3917.000000)" id="Trusted">
            <g transform="translate(147.000000, 3552.000000)">
                <g id="Logos-Publishers">
                    <g transform="translate(649.000000, 316.000000)">
                        <path d="M233.24828,49.0524439 C231.453919,49.0524439 230.025178,50.7599224 230.025178,55.498427 C230.025178,59.5742359 230.826662,61.9437462 233.24828,61.9437462 C235.896571,61.9437462 236.209996,59.3306339 236.209996,57.1709013 L234.293605,57.0833299 C234.258166,58.8779177 234.084499,60.0269124 233.335188,60.0269124 C232.638412,60.0269124 232.394905,59.5744567 232.394905,55.4986478 C232.394905,51.2825554 232.864293,50.9686139 233.335188,50.9686139 C233.892472,50.9686139 234.153624,51.7353208 234.153624,53.7914542 L236.174392,53.7215743 C236.174392,51.456997 235.860906,49.0524439 233.24828,49.0524439 Z M239.688734,49.0526647 C237.686042,49.0526647 236.379167,50.6033347 236.379167,55.4986534 C236.379167,60.3932925 237.686042,61.9439726 239.688734,61.9439726 C241.691766,61.9439726 242.998522,60.3931793 242.998522,55.4986534 C242.998522,54.8214637 242.972612,54.2104957 242.92422,53.6565647 C243.7039,56.2579599 246.862486,56.8860023 246.862486,58.8254693 C246.862486,59.3306712 246.601305,60.0269181 245.851881,60.0269181 C244.876236,60.0269181 244.876215,58.8081926 244.876215,58.1111905 L244.876215,58.1109641 L242.855446,58.1109641 C242.855446,59.8188229 243.343802,61.9437462 245.765194,61.9437462 C247.096311,61.9437462 248.018391,61.2967299 248.49803,60.3188166 L248.49803,61.7000502 L250.170727,61.7000502 L250.170727,52.6065907 L250.205223,52.6065907 L251.720911,61.7000502 L252.974991,61.7000502 L254.508369,52.6065907 L254.543309,52.6065907 L254.543309,61.7000502 L256.563857,61.7000502 L256.563857,55.7363724 C256.606209,60.441743 257.901864,61.9439726 259.871876,61.9439726 C261.676606,61.9439726 262.915579,60.6838844 263.143408,56.855115 L263.143408,61.7000502 L265.407872,61.7000502 L265.407872,56.7352569 L266.3141,56.7352569 C267.970841,56.7352569 268.865278,55.8247668 269.179177,54.3668577 C269.162063,54.7231617 269.15242,55.0986642 269.15242,55.4986478 C269.152419,60.3932869 270.459074,61.9439726 272.461766,61.9439726 C274.465703,61.9439726 275.772217,60.3931736 275.772217,55.4986478 C275.772217,50.603329 274.465703,49.0526647 272.461766,49.0526647 C270.864746,49.0526647 269.711152,50.0409356 269.308986,52.9228196 C269.280663,50.3038719 267.941856,49.2970233 265.407872,49.2970233 L263.143408,49.2970233 L263.143408,54.1419592 C262.915579,50.3126289 261.676606,49.0526647 259.871876,49.0526647 C257.901864,49.0526647 256.606209,50.5549063 256.563857,55.2609232 L256.563857,49.2970237 L253.619612,49.2970237 L252.557038,55.6549932 L252.52254,55.6549932 L251.511714,49.2970237 L248.49803,49.2970237 L248.49803,52.0422441 C248.287405,50.2451898 247.465225,49.0526647 245.678286,49.0526647 C243.782316,49.0526647 242.773494,50.5364402 242.752174,52.3726259 C242.284741,49.9133125 241.180072,49.0526647 239.688734,49.0526647 L239.688734,49.0526647 Z M275.820647,49.297029 L275.820647,61.7000559 L280.97761,61.7000559 L280.97761,59.7836648 L278.085553,59.7836648 L278.085553,49.297029 L275.820647,49.297029 Z M281.340279,49.297029 L281.340279,61.7000559 L283.604743,61.7000559 L283.604743,49.297029 L281.340279,49.297029 Z M283.985544,49.297029 L283.985544,51.2131991 L285.936875,51.2131991 L285.936875,61.7000559 L288.201561,61.7000559 L288.201561,51.2131991 L290.127239,51.2131991 L288.654674,61.7000559 L290.553374,61.7000559 L290.866506,58.9475386 L292.696875,58.9475386 L293.026814,61.7000559 L295.081639,61.7000559 L295.204813,61.7000559 L296.997588,61.7000559 L296.997588,54.1915001 L297.032528,54.1915001 L299.454221,61.7000559 L301.213383,61.7000559 L301.213383,49.297029 L299.402032,49.297029 L299.402032,55.8465057 L299.367314,55.8465057 L297.294356,49.297029 L295.081639,49.297029 L295.081639,60.7038253 L293.671214,49.297029 L290.396365,49.297029 L290.152228,51.0356244 L290.152228,49.297029 L283.985544,49.297029 L283.985544,49.297029 Z M239.688734,50.9686139 C240.211712,50.9686139 240.524861,51.5087842 240.524861,54.1914947 L240.524861,56.8049163 C240.524861,59.4875137 240.211712,60.0269124 239.688734,60.0269124 C239.165757,60.0269124 238.852387,59.4875137 238.852387,56.8049163 L238.852387,54.1914947 C238.852387,51.5087842 239.165757,50.9686139 239.688734,50.9686139 Z M245.625212,50.9686139 C246.531225,50.9686139 246.53122,52.1360354 246.53122,52.8330374 L248.49803,52.8330374 L248.49803,56.7675436 C247.476507,54.6046431 244.772059,53.8112296 244.772059,52.1012883 C244.772059,51.4218359 245.085704,50.9686139 245.625212,50.9686139 L245.625212,50.9686139 Z M259.871876,50.9686139 C260.394062,50.9686139 260.707782,51.5087842 260.707782,54.1914947 L260.707782,56.8049163 C260.707782,59.4875137 260.394062,60.0269124 259.871876,60.0269124 C259.349238,60.0269124 259.035528,59.4875137 259.035528,56.8049163 L259.035528,54.1914947 C259.035528,51.5087842 259.349238,50.9686139 259.871876,50.9686139 Z M272.461986,50.9686139 C272.985417,50.9686139 273.298334,51.5087842 273.298334,54.1914947 L273.298334,56.8049163 C273.298334,59.4875137 272.985417,60.0269124 272.461986,60.0269124 C271.939688,60.0269124 271.626081,59.4875137 271.626081,56.8049163 L271.626081,54.1914947 C271.626081,51.5087842 271.939688,50.9686139 272.461986,50.9686139 Z M265.426226,51.2131938 L265.599379,51.2131938 C266.348577,51.2131938 267.045627,51.2652304 267.045627,53.0597049 C267.045627,54.5576479 266.540292,54.9239073 265.61707,54.9239073 L265.426226,54.9239073 L265.426226,51.2131938 Z M291.807012,51.2131938 L291.842172,51.2131938 L292.50382,57.1361825 L291.094059,57.1361825 L291.807012,51.2131938 L291.807012,51.2131938 Z" id="Logo-Cosmopolitan" fill="#797979" fill-rule="nonzero"></path>
                    </g>
                </g>
            </g>
        </g>
    </g>
</svg>
