<?xml version="1.0" encoding="UTF-8"?>
<svg width="57px" height="32px" viewBox="0 0 57 32" version="1.1" xmlns="http://www.w3.org/2000/svg" xmlns:xlink="http://www.w3.org/1999/xlink">
    <title>Logo-Dior</title>
    <defs>

        <polygon id="path-2" points="0.51316489 31.2175311 55.2507532 31.2175311 55.2507532 0.103533555 0.51316489 0.103533555"></polygon>
        <polygon id="path-4" points="0.388298681 18.2876153 45.3777122 18.2876153 45.3777122 0.209806746 0.388298681 0.209806746"></polygon>
    </defs>
    <g id="Native-Video" stroke="none" stroke-width="1" fill="none" fill-rule="evenodd">
        <g transform="translate(-516.000000, -3861.000000)" id="Trusted">
            <g transform="translate(147.000000, 3552.000000)">
                <g id="Group-2">
                    <g transform="translate(0.000000, 309.000000)">
                        <g id="Logo-Dior" transform="translate(369.248779, 0.000000)">
                            <mask id="mask-3" fill="white">
                                <use xlink:href="#path-2"></use>
                            </mask>
                            <g id="path2463"></g>
                            <g id="g2491" mask="url(#mask-3)">
                                <g transform="translate(4.609481, 5.761851)" id="g2493-Clipped">
                                    <g>
                                        <mask id="mask-5" fill="white">
                                            <use xlink:href="#path-4"></use>
                                        </mask>
                                        <g id="path2466"></g>
                                        <g id="g2493" mask="url(#mask-5)" fill="#797979" fill-rule="nonzero">
                                            <path d="M38.2270642,11.1103526 C38.2129753,11.0258035 38.2129753,10.9522149 38.6341536,10.8206944 C39.0537647,10.6907395 40.0746164,10.3447154 40.6946397,10.0018225 C41.314667,9.65579836 41.4180036,9.60726092 41.5636151,9.70433579 C41.7092266,9.79984464 41.6669557,10.0347025 41.6669557,10.2006691 L41.6669557,11.8822527 C41.8939826,11.5096114 42.6392676,10.2695608 43.2311089,9.90474801 C43.6961294,9.61665544 43.8605276,9.59316954 44.1486201,9.58690665 C44.4946439,9.58064377 45.311953,9.79358176 45.347963,10.6562938 C45.376145,11.3311191 44.8782449,11.6019886 44.5619703,11.5597145 C44.3083246,11.5237028 44.126699,11.2904105 43.9763899,11.0555523 C43.8245175,10.8175628 43.5833975,10.6766481 43.3422736,10.7580656 C43.1011536,10.8410487 41.7499383,11.7178521 41.6732165,12.9641656 C41.6184158,13.8816777 41.6732165,16.7422491 41.6732165,16.7422491 C41.6732165,17.1759536 41.8391819,17.3434858 42.0333333,17.4593493 C42.2259174,17.576778 42.9351883,17.5830413 43.1340333,17.6112241 C43.3360127,17.6394068 43.3281846,17.6863786 43.3281846,17.7490075 C43.3281846,17.8100707 43.3281846,17.8398191 43.1496895,17.8398191 L38.3992945,17.8398191 C38.2474221,17.8398191 38.1863565,17.8100707 38.1863565,17.7208247 C38.1863565,17.5971327 38.3852055,17.6190526 38.5370779,17.5971327 C38.6889543,17.576778 39.4921664,17.6425385 39.7223278,17.2385824 C39.8914276,16.9739757 39.8710738,16.5480997 39.8710738,16.5480997 L39.8475854,11.5237028 C39.8475854,11.1181811 39.7270255,11.0586839 39.6158608,10.9944895 C39.5031289,10.9302946 39.3168057,10.895849 38.9238094,11.0289351 C38.5527341,11.1510611 38.2975252,11.265359 38.2270642,11.1103526" id="path2495"></path>
                                            <path d="M21.6132056,11.1119182 C21.5490112,10.9882262 21.6680059,10.9083747 22.020293,10.8159971 C22.4132889,10.7110938 23.274435,10.4496183 23.9570891,10.0628857 C24.6397432,9.67771824 24.7571724,9.63700971 24.9012187,9.68398112 C25.0468306,9.73251856 25.0327392,9.9877311 25.0327392,10.1944062 L25.0327392,16.6952777 C25.0327392,17.0600904 25.0812766,17.2119652 25.2456772,17.36384 C25.4116437,17.5157152 25.8249939,17.6049612 26.3620358,17.6049612 C26.6047226,17.6049612 26.6798771,17.6331443 26.6798771,17.7364817 C26.6798771,17.8398191 26.6047226,17.8398191 26.5076477,17.8398191 L21.7932636,17.8398191 C21.6476513,17.8398191 21.6132056,17.7771902 21.6132056,17.7161274 C21.6132056,17.6394068 21.6774001,17.5908698 21.8966009,17.5908698 C22.0813562,17.5908698 22.9346737,17.6550642 23.1288231,17.2119652 C23.2039776,17.0428674 23.2399893,16.8064439 23.2399893,16.585677 L23.2399893,11.4281939 C23.2399893,11.0367636 22.9362393,10.8629686 22.585518,10.9475177 C22.1752994,11.0414609 21.6977543,11.2731875 21.6132056,11.1119182" id="path2497"></path>
                                            <path d="M24.0165867,6.61516897 C24.6569663,6.61516897 25.1767855,6.09534976 25.1767855,5.4565358 C25.1767855,4.81615622 24.6569663,4.29790264 24.0165867,4.29790264 C23.3777727,4.29790264 22.8595191,4.81615622 22.8595191,5.4565358 C22.8595191,6.09534976 23.3777727,6.61516897 24.0165867,6.61516897" id="path2499"></path>
                                            <path d="M29.6829292,13.988147 C29.9162215,16.0971722 31.1719291,17.7380473 32.7282555,17.4624805 C34.2877131,17.1869137 35.0690077,15.6979134 34.8811213,13.3133214 C34.6885375,10.8880201 33.4891954,9.67771824 31.8749379,9.82333015 C30.2058797,9.97520534 29.448071,11.8775554 29.6829292,13.988147 M31.2267294,9.45225449 C33.2355489,9.07648157 36.0929887,9.51958057 36.7427628,12.6635473 C37.3909709,15.8075141 35.2271454,17.4812692 33.3498464,17.8899221 C31.514822,18.2876153 28.399038,18.00422 27.8353787,14.6222637 C27.3280856,11.5863316 29.531054,9.76853023 31.2267294,9.45225449" id="path2501"></path>
                                            <path d="M7.443435,17.33096 L8.60833105,17.33096 C12.9422454,17.33096 14.1055758,16.9285699 15.6305877,14.9025278 C17.1555993,12.8764853 17.3372229,9.96737683 17.3372229,8.98410397 C17.3372229,8.0008319 17.0757475,5.53325641 15.5507359,3.4461507 C14.0241583,1.35904538 11.476731,0.817305895 9.24871103,0.817305895 L7.43404088,0.817305895 C7.00346765,0.817305895 6.98154776,1.00832399 6.98154776,1.30894233 L6.98154776,16.9489242 C6.98154776,17.2902515 7.10210814,17.33096 7.443435,17.33096 M0.386733061,17.6973388 C0.386733061,17.5392007 0.591842144,17.5125836 0.782860245,17.5063207 C2.98896031,17.4436919 3.4007449,17.3669717 3.6528258,17.1054962 C3.7906092,16.96145 3.99258745,16.8440212 3.99258745,15.8216054 L3.99258745,1.75517257 C3.99258745,0.491636033 2.45818097,0.692048256 1.37470279,0.580882402 C0.994232611,0.54330511 0.962918201,0.491636033 0.962918201,0.380470179 C0.962918201,0.270869544 1.03494114,0.217635248 1.23378775,0.209806746 L10.1223829,0.209806746 C19.8956104,0.209806746 20.3950749,7.35418904 20.3950749,9.25967077 C20.3950749,13.35403 17.6879443,17.8570421 12.0294306,17.8570421 L0.67169399,17.8570421 C0.532344966,17.8570421 0.386733061,17.8382534 0.386733061,17.6973388" id="path2503"></path>
                                        </g>
                                    </g>
                                </g>
                            </g>
                        </g>
                    </g>
                </g>
            </g>
        </g>
    </g>
</svg>
