<?xml version="1.0" encoding="UTF-8"?>
<svg width="144px" height="26px" viewBox="0 0 144 26" version="1.1" xmlns="http://www.w3.org/2000/svg" xmlns:xlink="http://www.w3.org/1999/xlink">
    <title>Logo-Disqus</title>
    <g id="Page-1" stroke="none" stroke-width="1" fill="none" fill-rule="evenodd">
        <g id="Desktop-HD" transform="translate(-650.000000, -577.000000)" fill="#797979" fill-rule="nonzero">
            <g id="Logo-Disqus" transform="translate(650.471429, 577.000000)">
                <path d="M9.8176,0.52065 L0.28535,0.52065 L0.28535,25.233325 L9.676225,25.233325 C18.573425,25.233325 23.762375,19.9381 23.762375,12.806625 L23.762375,12.73545 C23.763025,5.6043 18.643625,0.52065 9.8176,0.52065 Z M16.737175,12.91225 C16.737175,16.90065 14.018875,19.161025 9.923875,19.161025 L7.134725,19.161025 L7.134725,6.59295 L9.923875,6.59295 C14.018875,6.59295 16.737175,8.88745 16.737175,12.8414 L16.737175,12.91225 L16.737175,12.91225 Z M28.3166,25.232025 L35.20075,25.232025 L35.20075,0.52065 L28.3166,0.52065 L28.3166,25.232025 Z M51.087725,9.840675 C47.662875,9.0636 46.8156,8.5696 46.8156,7.44055 L46.8156,7.36905 C46.8156,6.48635 47.6281,5.78045 49.2869,5.78045 C51.475125,5.78045 53.94675,6.627075 56.2068,8.21665 L59.631,3.379025 C56.947475,1.2259 53.66465,0.09555 49.4637,0.09555 C43.53245,0.09555 39.89635,3.4138 39.89635,8.00345 L39.89635,8.0743 C39.89635,13.1586 43.95625,14.641575 49.21605,15.8405 C52.57005,16.616925 53.3819,17.181775 53.3819,18.206175 L53.3819,18.2767 C53.3819,19.33555 52.39325,19.970925 50.55765,19.970925 C47.6983,19.970925 44.979675,18.947825 42.544125,17.00595 L38.731225,21.5605 C41.767375,24.279125 45.933225,25.6568 50.310975,25.6568 C56.312425,25.6568 60.302125,22.656075 60.302125,17.6072 L60.302125,17.536675 C60.3018,12.91225 56.771,11.07665 51.087725,9.840675 Z M90.27395,12.87715 L90.27395,12.8063 C90.27395,5.71025 84.625775,0.026 76.99965,0.026 C69.3745,0.026 63.65515,5.7811 63.65515,12.87715 L63.65515,12.94735 C63.65515,20.0434 69.30365,25.72765 76.929775,25.72765 C79.7537,25.72765 82.33095,24.91515 84.4493,23.53845 L87.167275,25.974 L90.6269,22.126 L88.085725,19.973525 C89.496875,17.9608 90.27395,15.48885 90.27395,12.87715 Z M83.3196,13.017875 C83.3196,13.86515 83.178225,14.677 82.8958,15.418 L79.542125,12.38185 L76.0825,16.265275 L79.507025,19.196125 C78.706541,19.5002788 77.8572698,19.6557931 77.00095,19.6550278 C73.224125,19.6550278 70.681975,16.513575 70.681975,12.94735 L70.681975,12.87715 C70.681975,9.31125 73.188375,6.20425 76.9301,6.20425 C80.743325,6.20425 83.3209,9.34635 83.3209,12.94735 L83.3209,13.01755 L83.3196,13.017875 Z M110.46815,14.43 C110.46815,17.888975 108.666675,19.512675 105.91295,19.512675 C103.159875,19.512675 101.35905,17.8191 101.35905,14.252875 L101.35905,0.52065 L94.4047,0.52065 L94.4047,14.3949 C94.4047,22.126325 98.81755,25.692875 105.843075,25.692875 C112.8686,25.692875 117.4225,22.197825 117.4225,14.21875 L117.4225,0.52065 L110.46815,0.52065 L110.46815,14.43 L110.46815,14.43 Z M132.85025,9.840675 C129.425725,9.0636 128.578125,8.5696 128.578125,7.44055 L128.578125,7.36905 C128.578125,6.48635 129.390625,5.78045 131.0504,5.78045 C133.237975,5.78045 135.71025,6.627075 137.969325,8.21665 L141.394175,3.38 C138.711625,1.226875 135.4288,0.096525 131.22785,0.096525 C125.2966,0.096525 121.660175,3.414775 121.660175,8.004425 L121.660175,8.075275 C121.660175,13.159575 125.720075,14.6419 130.979875,15.841475 C134.333875,16.61855 135.145725,17.1834 135.145725,18.2078 L135.145725,18.277675 C135.145725,19.336525 134.15675,19.97255 132.32115,19.97255 C129.461475,19.97255 126.74285,18.94815 124.3073,17.006925 L120.495375,21.560825 C123.53185,24.2801 127.697375,25.656475 132.07415,25.656475 C138.07625,25.656475 142.0653,22.65575 142.0653,17.607525 L142.0653,17.53635 C142.06465,12.91225 138.53385,11.07665 132.85025,9.840675 L132.85025,9.840675 Z" id="Shape"></path>
            </g>
        </g>
    </g>
</svg>