<?xml version="1.0" encoding="UTF-8"?>
<svg width="149px" height="33px" viewBox="0 0 149 33" version="1.1" xmlns="http://www.w3.org/2000/svg" xmlns:xlink="http://www.w3.org/1999/xlink">
    <title>Logo-Engadget</title>
    <g id="Page-1" stroke="none" stroke-width="1" fill="none" fill-rule="evenodd">
        <g id="Desktop-HD" transform="translate(-650.000000, -423.000000)" fill="#797979" fill-rule="nonzero">
            <g id="Logo-Engadget" transform="translate(650.471429, 423.000000)">
                <path d="M0,23.4329464 C0,24.9886607 1.26401786,26.2526786 2.91696429,26.2526786 L14.5848214,26.2526786 L14.5848214,23.3357143 L2.91696429,23.3357143 L2.91696429,20.41875 L14.3903571,20.41875 C15.9460714,20.41875 17.5017857,19.1547321 17.5017857,17.5990179 L17.5017857,17.69625 L17.5017857,11.9595536 C17.5017857,10.4038393 16.0433036,8.848125 14.3903571,8.848125 L2.91696429,8.848125 C1.36125,8.848125 0,10.4038393 0,11.9595536 L0,23.4329464 Z M14.5848214,17.5017857 L2.91696429,17.5017857 L2.91696429,11.6678571 L14.5848214,11.6678571 L14.5848214,17.5017857 Z M53.5749107,8.75089286 L42.0042857,8.75089286 C40.4485714,8.75089286 38.8928571,10.3066071 38.8928571,11.8623214 L38.8928571,23.4329464 L38.8928571,23.3357143 C38.8928571,24.8914286 40.4485714,26.2526786 42.0042857,26.2526786 L53.4776786,26.2526786 L53.4776786,29.1696429 L41.8098214,29.1696429 L41.8098214,32.0866071 L53.5749107,32.0866071 C55.130625,32.0866071 56.3946429,30.7253571 56.3946429,29.1696429 L56.3946429,11.8623214 C56.3946429,10.3066071 55.130625,8.75089286 53.5749107,8.75089286 Z M53.4776786,23.3357143 L41.8098214,23.3357143 L41.8098214,11.6678571 L53.4776786,11.6678571 L53.4776786,23.3357143 Z M31.1142857,8.75089286 L22.460625,8.75089286 C20.9049107,8.75089286 19.4464286,10.3066071 19.4464286,11.8623214 L19.4464286,26.2526786 L22.3633929,26.2526786 L22.3633929,11.6678571 L31.1142857,11.6678571 C32.67,11.6678571 34.03125,13.1263393 34.03125,14.7792857 L34.03125,26.2526786 L36.9482143,26.2526786 L36.9482143,14.7792857 C36.9482143,11.570625 34.3229464,8.75089286 31.1142857,8.75089286 Z M72.9241071,23.3357143 L61.25625,23.3357143 L61.25625,14.6820536 C61.25625,13.1263393 62.8119643,11.570625 64.4649107,11.570625 L72.9241071,11.570625 L72.9241071,26.1554464 L75.8410714,26.1554464 L75.8410714,11.8623214 C75.8410714,10.3066071 74.6742857,8.75089286 73.1185714,8.75089286 L64.4649107,8.75089286 C61.25625,8.75089286 58.3392857,11.570625 58.3392857,14.7792857 L58.3392857,23.4329464 C58.3392857,24.9886607 59.9922321,26.2526786 61.5479464,26.2526786 L66.6040179,26.2526786 C69.2292857,26.2526786 71.9517857,25.183125 72.9241071,23.3357143 L72.9241071,26.2526786 M139.041964,0 L136.125,0 L136.125,26.2526786 L139.041964,26.2526786 L139.041964,11.6678571 L147.792857,11.6678571 L147.792857,8.75089286 L139.041964,8.75089286 L139.041964,0 Z M98.2044643,23.4329464 C98.2044643,24.9886607 99.0795536,26.2526786 100.635268,26.2526786 L111.816964,26.2526786 L111.816964,29.1696429 L101.121429,29.1696429 L101.121429,32.0866071 L112.205893,32.0866071 C113.761607,32.0866071 114.733929,30.7253571 114.733929,29.0724107 L114.733929,29.1696429 L114.733929,11.8623214 C114.733929,10.3066071 113.761607,8.75089286 112.205893,8.75089286 L100.635268,8.75089286 C99.0795536,8.75089286 98.2044643,10.3066071 98.2044643,11.8623214 L98.2044643,23.4329464 Z M111.816964,23.3357143 L101.121429,23.3357143 L101.121429,11.6678571 L111.816964,11.6678571 L111.816964,23.3357143 Z M92.3705357,8.75089286 L81.0916071,8.75089286 C79.5358929,8.75089286 77.7857143,10.3066071 77.7857143,11.8623214 L77.7857143,23.4329464 L77.7857143,23.3357143 C77.7857143,24.8914286 79.5358929,26.2526786 81.0916071,26.2526786 L95.2875,26.2526786 L95.2875,0 L92.3705357,0 L92.3705357,8.75089286 Z M92.3705357,23.3357143 L80.7026786,23.3357143 L80.7026786,11.6678571 L92.3705357,11.6678571 L92.3705357,23.3357143 Z M116.678571,23.4329464 C116.678571,24.9886607 118.331518,26.2526786 119.887232,26.2526786 L131.263393,26.2526786 L131.263393,23.3357143 L119.595536,23.3357143 L119.595536,20.41875 L131.457857,20.41875 C133.013571,20.41875 134.180357,19.1547321 134.180357,17.5990179 L134.180357,17.69625 L134.180357,11.9595536 C134.180357,10.4038393 133.013571,8.848125 131.457857,8.848125 L119.887232,8.848125 C118.331518,8.848125 116.678571,10.4038393 116.678571,11.9595536 L116.678571,23.4329464 L116.678571,23.4329464 Z M131.263393,17.5017857 L119.595536,17.5017857 L119.595536,11.6678571 L131.263393,11.6678571 L131.263393,17.5017857 Z" id="Shape"></path>
            </g>
        </g>
    </g>
</svg>