<?xml version="1.0" encoding="UTF-8"?>
<svg width="84px" height="36px" viewBox="0 0 84 36" version="1.1" xmlns="http://www.w3.org/2000/svg" xmlns:xlink="http://www.w3.org/1999/xlink">
    <title>Logo-Global</title>
    <g id="Page-1" stroke="none" stroke-width="1" fill="none" fill-rule="evenodd">
        <g id="Desktop-HD" transform="translate(-491.000000, -850.000000)" fill="#797979">
            <g id="Logo-Global" transform="translate(491.819647, 850.500000)">
                <path d="M32.1309013,7.85104772 C27.5151677,7.85302743 23.7747925,11.604878 23.7761087,16.2314725 C23.7774257,20.858067 27.5199355,24.6077782 32.1356695,24.6071185 C36.7514035,24.606459 40.492847,20.8556782 40.492847,16.2290836 C40.4908723,11.6014423 36.74768,7.85104772 32.1309013,7.85104772 Z M35.1387697,19.2368593 C33.7067195,20.6755558 31.460061,20.8996012 29.7732825,19.7719263 C28.086504,18.6442513 27.4296323,16.4790868 28.2045362,14.6010633 C28.9794402,12.7230399 30.97019,11.6554754 32.9588607,12.0514974 C34.9475313,12.4475195 36.3799728,14.1967752 36.3798383,16.2290836 C36.3822723,17.3583873 35.9356422,18.4421112 35.1387697,19.2404443 L35.1387697,19.2368593 Z M50.3748212,7.85104772 C48.8795588,7.8478958 47.4113287,8.25050318 46.1258942,9.01615753 C46.1258942,6.38838677 46.1258942,4.02590255 46.1258942,2.92173693 C46.1258942,-0.30472103 42.0057225,0.0143398132 42.0057225,0.0143398132 L42.0057225,16.2326685 L42.0057225,16.2326685 C42.0077007,20.857862 45.7485663,24.6064552 50.362903,24.6071125 C54.9772395,24.6077697 58.719168,20.8602425 58.72246,16.2350498 C58.7257475,11.6098571 54.989154,7.85698548 50.3748212,7.85104772 Z M53.379113,19.2368593 C51.9488678,20.6717397 49.7066028,20.8941597 48.0235185,19.7681042 C46.340434,18.6420488 45.6852567,16.481116 46.4586435,14.6067693 C47.2320303,12.7324227 49.2185987,11.666654 51.2035133,12.061207 C53.1884278,12.4557599 54.6189045,14.2007545 54.6202243,16.2290836 C54.6258063,17.359016 54.1786885,18.443923 53.379113,19.2404443 L53.379113,19.2368593 Z M68.5972818,7.84746087 C65.0727427,7.84613967 61.9261218,10.0610606 60.7309842,13.3845861 C59.5358465,16.7081117 60.5490507,20.4259507 63.2639125,22.6788832 C65.9787745,24.9318157 69.8118168,25.235642 72.8462088,23.4384247 L72.8462088,24.4278717 L76.955651,24.4278717 L76.955651,16.039081 L76.955651,16.039081 C76.8564178,11.4841607 73.1425922,7.84442652 68.5972818,7.84746087 L68.5972818,7.84746087 Z M71.5944207,19.2368593 C70.1618718,20.6662147 67.9216672,20.88263 66.2431453,19.7538205 C64.5646233,18.625011 63.9149695,16.4651595 64.6912885,14.5944885 C65.4676075,12.7238174 67.4538255,11.6629931 69.4358547,12.0604509 C71.4178838,12.4579087 72.8440633,14.2030236 72.8426334,16.2290836 C72.8404935,17.3585352 72.3901052,18.4407205 71.590844,19.2368593 L71.5944207,19.2368593 Z M16.5121602,16.3330472 C16.5118953,14.6787774 16.0132591,13.0631431 15.0815451,11.6977026 C16.7875537,10.6222166 16.4585122,8.06972987 16.4585122,8.06972987 L8.26824035,8.06972987 C3.71327392,8.06972987 0.0207440933,11.7709482 0.0207440933,16.3366322 C0.0207440933,20.9023162 3.71327392,24.6035343 8.26824035,24.6035345 L9.34120172,24.6035345 C10.7110443,24.6071933 11.9153911,25.5133792 12.3013364,26.8308263 C12.6872818,28.1482735 12.1629235,29.5632683 11.0125288,30.3087077 C9.86213417,31.054147 8.35963808,30.952525 7.31958028,30.0589333 C6.27952248,29.1653415 5.94956413,27.6925645 6.50858368,26.4390305 L2.81044348,24.7576875 C1.30860083,28.1278927 2.60486543,32.0903087 5.80607145,33.91471 C9.00727747,35.7391113 13.0672661,34.829281 15.1885812,31.8121197 C17.3098963,28.7949585 16.7992893,24.6564792 14.0085837,22.2482202 C15.6067684,20.6969562 16.5099623,18.5629897 16.5121602,16.3330472 L16.5121602,16.3330472 Z M5.30329042,19.3013885 C4.11159298,18.1153583 3.74271423,16.3301138 4.36640888,14.7672083 C4.99010353,13.2043029 6.48553568,12.1665373 8.16452075,12.131482 L8.48640915,12.131482 C10.3487218,12.2348697 11.9183946,13.5602254 12.3363983,15.3822263 C12.754402,17.2042272 11.9199877,19.0837273 10.2898024,19.9921395 C8.65961705,20.9005517 6.6265744,20.6189268 5.30329042,19.3013885 L5.30329042,19.3013885 Z M78.7081545,0.118303459 L78.7081545,24.5820247 L82.8283262,24.5820247 C82.8283262,24.5820247 82.8283262,6.2485736 82.8283262,3.02211563 C82.8283262,-0.204342338 78.7081545,0.118303459 78.7081545,0.118303459 Z M18.0965665,0.118303459 L18.0965665,24.5820247 L22.2167382,24.5820247 L22.2167382,3.02211563 C22.2167382,-0.207927292 18.0965665,0.118303459 18.0965665,0.118303459 Z" id="Shape"></path>
            </g>
        </g>
    </g>
</svg>