<?xml version="1.0" encoding="UTF-8"?>
<svg width="94px" height="20px" viewBox="0 0 94 20" version="1.1" xmlns="http://www.w3.org/2000/svg" xmlns:xlink="http://www.w3.org/1999/xlink">
    <title>Logo-Goodyear</title>
    <g id="Page-1" stroke="none" stroke-width="1" fill="none" fill-rule="evenodd">
        <g id="Desktop-HD" transform="translate(-84.000000, -750.000000)" fill="#797979" fill-rule="nonzero">
            <g id="Logo-Goodyear" transform="translate(84.038462, 750.500000)">
                <g id="Group" transform="translate(46.146171, 9.842688) scale(-1, 1) rotate(-180.000000) translate(-46.146171, -9.842688) translate(0.146171, 0.842688)">
                    <path d="M60.4408908,17.0563631 C60.4274922,17.0429645 60.1930175,17.0094681 59.918347,16.982671 C59.6503759,16.9625732 59.2886149,16.9156782 59.1144336,16.8821819 C58.7660711,16.8151891 54.2574567,16.8486855 53.279362,16.9223775 C52.4352529,16.982671 51.2427814,16.9893703 50.8609225,16.9290768 C50.2110925,16.8285876 49.4674726,16.4869244 49.092313,16.1184641 C48.7908454,15.8303951 48.516175,15.2877536 48.4223851,14.8255034 C48.3352945,14.4034488 48.3888887,13.6732274 48.5228743,13.2578722 C48.636762,12.9229083 48.6702584,12.6415386 48.683657,11.9247158 C48.6970555,11.1944944 48.7305519,10.9332225 48.8511389,10.5647622 C49.0186209,10.0690156 49.2731935,9.71395385 49.4607733,9.71395385 C49.7019473,9.71395385 49.9699184,10.0891134 50.0570091,10.5714615 C50.2110925,11.3351792 50.3651759,11.4557663 50.5996506,10.9868168 C50.6733427,10.8394326 50.7604333,10.7188456 50.7939297,10.7188456 C50.9748102,10.7188456 51.1824879,11.207893 51.2159842,11.7170381 C51.2427814,12.0787992 51.3365713,12.1256941 51.4906547,11.857723 C51.6447381,11.5964511 51.7452272,11.6031504 51.8859121,11.8778208 C52.0399955,12.1792883 52.0801912,12.4003645 52.0801912,12.9363068 C52.0801912,13.4588505 52.147184,13.519144 52.5893363,13.4052563 C52.9243003,13.3181657 53.5138368,13.3650606 53.8354021,13.4923469 C54.0832754,13.5995354 54.1703661,13.733521 53.9894855,13.733521 C53.8421014,13.733521 53.8019058,13.8474087 53.8822971,14.0014921 C53.9358913,14.1019813 54.0229819,14.1354777 54.2306596,14.1354777 C54.4919314,14.1354777 54.9474824,14.2560647 55.0211744,14.3431553 C55.0412723,14.3632531 55.1283629,14.4235466 55.2087542,14.4637423 C55.4030333,14.5642315 55.3628376,14.6178257 55.0747687,14.6513221 C54.7733011,14.6781192 54.5522249,14.8054055 54.5522249,14.9460904 C54.5522249,15.1135723 54.793399,15.2274601 55.0077759,15.1738658 C55.3293413,15.0934745 55.4298304,15.0800759 56.0796604,15.0398803 C57.6539909,14.9460904 58.618687,15.0063839 59.268517,15.2542572 C59.6637745,15.4016413 59.9786405,15.562424 59.9786405,15.6227175 C59.9786405,15.6562139 60.0121369,15.6763117 60.0523326,15.6763117 C60.2466117,15.6763117 60.6217713,16.2524497 60.7557568,16.7682941 L60.8361482,17.0831602 L60.6552677,17.0831602 C60.5547785,17.0831602 60.4542893,17.0697617 60.4408908,17.0563631 Z M52.4955464,15.924185 C52.7367205,15.9308843 52.797014,15.8638915 52.6898255,15.7031088 C52.629532,15.6093189 52.2342746,15.4753334 52.0332962,15.4753334 C51.9462056,15.4753334 51.8725135,15.4485363 51.8725135,15.4083406 C51.8725135,15.3078514 51.6045424,15.1872644 51.3030749,15.153768 C51.1556907,15.1403694 50.9748102,15.0733767 50.9011182,15.0063839 C50.6465456,14.7853077 50.4924622,14.7384127 50.271386,14.8121048 C50.0771069,14.8790976 49.8560307,15.1336702 49.9766177,15.1470687 C50.0034148,15.1470687 50.150799,15.1604673 50.2914838,15.1671666 C50.5058607,15.1872644 50.5996506,15.2408586 50.7939297,15.4686341 C51.0150059,15.7165074 51.0552016,15.7366052 51.2762778,15.7031088 C51.4772561,15.6696124 51.5509482,15.6897103 51.7050316,15.8437937 C51.859115,15.9777793 51.9395063,16.0112756 52.0734919,15.97108 C52.1672818,15.9442829 52.3548616,15.924185 52.4955464,15.924185 Z M49.6483531,13.7536188 C49.7287444,13.733521 49.7957372,13.7000246 49.8024365,13.6732274 C49.8024365,13.6531296 49.815835,13.4722491 49.8359329,13.27797 C49.8560307,12.9698032 49.8426321,12.9229083 49.742143,12.9430061 C49.6818495,12.9564046 49.621556,13.036796 49.6081574,13.1305859 C49.5947588,13.2243758 49.5143675,13.3650606 49.4205776,13.4521513 C49.2262985,13.6330318 49.1928021,13.9077022 49.3803819,13.8340101 C49.4406754,13.807213 49.5612625,13.7670173 49.6483531,13.7536188 Z" id="Shape"></path>
                    <path d="M47.3839969,14.9393911 C47.1428229,14.792007 46.9083482,14.6714199 46.8681525,14.6714199 C46.8212575,14.6714199 46.7810619,14.6446228 46.7810619,14.6178257 C46.7810619,14.5910286 46.566685,14.4436445 46.3054131,14.3029596 C45.8565614,14.0550863 45.4546047,13.8273109 45.1397386,13.6397311 C45.0660466,13.5995354 44.8315718,13.4588505 44.6238942,13.3382635 C44.4095173,13.2176765 44.235336,13.1037888 44.235336,13.0903902 C44.235336,13.0568938 44.3894194,12.7755241 44.4363144,12.7286292 C44.4564122,12.7085313 44.5368036,12.5745458 44.6104956,12.4271616 C45.0794451,11.5495562 45.1196408,11.5026612 45.2804235,11.6500453 C45.3139199,11.6835417 45.4948004,11.7907302 45.6756809,11.8912194 C45.8632607,11.9917085 46.1647282,12.1658898 46.3456088,12.2730782 C46.5331886,12.3802667 46.807859,12.5276508 46.9686417,12.6013429 C47.1227251,12.6750349 47.2500114,12.7621256 47.2500114,12.795622 C47.2500114,12.8358176 47.2701092,12.8559155 47.3036056,12.8492162 C47.3304027,12.8425169 47.4643883,12.8961111 47.6050731,12.9631039 C47.8596457,13.0903902 47.8596457,13.0970895 47.81945,13.398557 C47.7256601,14.0818834 47.7189609,14.5173365 47.8060515,14.8589997 C47.8596457,15.0465795 47.8797435,15.2073622 47.8596457,15.2073622 C47.8395479,15.2006629 47.625171,15.0800759 47.3839969,14.9393911 Z" id="Path"></path>
                    <path d="M4.85697692,13.0233974 C3.8051902,12.7688248 2.70650852,12.2529804 2.09687418,11.7103388 C1.96958788,11.6031504 1.78870736,11.4423677 1.69491746,11.3619764 C1.4336456,11.1409002 0.897703321,10.390581 0.656529294,9.9149322 C0.401956711,9.41248631 0.100489178,8.46788804 0.0401956711,7.99223927 C-0.013398557,7.53668833 -0.013398557,6.38441242 0.0401956711,6.06284706 C0.113887735,5.66758962 0.442152382,5.03115816 0.750319194,4.7095928 C1.08528312,4.35453103 1.51403694,4.10665773 2.10357345,3.91907793 C2.56582367,3.77839308 2.66631285,3.7716938 5.64749179,3.76499453 L8.72246063,3.75829525 L8.80285197,4.14015412 C8.90334115,4.64929929 8.90334115,4.64260001 8.9502361,4.75648775 C8.97703321,4.83687909 9.13111662,5.50010766 9.23830507,5.99585427 C9.24500435,6.03604994 9.28520002,6.19683263 9.33209497,6.36431459 C9.37898992,6.53179655 9.42588487,6.73947419 9.44598271,6.83326408 C9.45938126,6.92705398 9.55987044,7.33570997 9.66035962,7.73766668 C9.76754807,8.14632267 9.84124014,8.48798588 9.8211423,8.50808371 C9.80774375,8.52818155 8.9502361,8.54158011 7.9185472,8.54827938 L6.0494485,8.54827938 L5.96905716,8.28030824 C5.92886149,8.12622484 5.88866581,7.97884071 5.87526726,7.93864504 C5.86856798,7.90514865 5.70778529,7.22852152 5.50680694,6.44470593 L5.15174518,5.01775961 L4.55550939,5.03115816 C3.57071545,5.051256 3.55731689,5.11824879 4.07986062,7.13473162 C4.24734258,7.79796019 4.41482454,8.44779021 4.44162166,8.5750765 C4.46841877,8.70236279 4.58900578,9.18471084 4.70289352,9.64696106 C4.81678125,10.1092113 4.93066899,10.5446644 4.94406754,10.6116572 C5.1450459,11.4825634 5.56710045,11.7974295 6.45810449,11.7572338 C6.94045254,11.737136 7.32901069,11.6098497 7.79796019,11.3217807 C7.97884071,11.2145922 8.13292412,11.1475994 8.14632267,11.1743966 C8.16642051,11.2011937 8.31380464,11.4825634 8.48798588,11.8041287 L8.80285197,12.386966 L8.54827938,12.5477487 C8.15302195,12.7889227 7.80465947,12.916209 6.96724966,13.1238866 C6.53179655,13.2377743 5.52690477,13.1908794 4.85697692,13.0233974 Z" id="Path"></path>
                    <path d="M16.091667,13.1640823 C16.0782684,13.157383 15.9442829,13.1305859 15.7968987,13.1104881 C15.0666774,13.0032996 14.3297567,12.7755241 13.8206116,12.4807559 C13.7268217,12.4271616 13.5995354,12.3668681 13.5392419,12.3467703 C13.4722491,12.3266725 13.4186549,12.2864768 13.4186549,12.2529804 C13.4186549,12.219484 13.3784592,12.1926869 13.3382635,12.1926869 C13.2243758,12.1926869 12.4874552,11.4959619 12.1993862,11.1208023 C11.8041287,10.5982586 11.3753749,9.64696106 11.2279908,8.97703321 C11.0069146,7.9185472 11.0337117,6.61888717 11.3016829,5.99585427 C11.6433461,5.20533941 11.7103388,5.11154951 12.5410494,4.35453103 C12.7554263,4.16025196 13.7268217,3.75829525 14.1823726,3.6779039 C15.1738658,3.51042194 16.8486855,3.75159597 17.7664866,4.20044763 C18.0478563,4.3344332 18.2890303,4.46171949 18.3091282,4.4885166 C18.329226,4.50861444 18.449813,4.60240434 18.5770993,4.68949496 C18.858469,4.89047332 19.3743135,5.43311488 19.6154875,5.78147736 C19.7829695,6.02935066 20.1246327,6.66578212 20.1648283,6.79976769 C20.1715276,6.83996336 20.2720168,7.12133306 20.3792052,7.43619915 C20.493093,7.75106524 20.5935822,8.09942772 20.61368,8.20661618 C20.6337778,8.32050392 20.6672742,8.49468516 20.6940713,8.59517433 C20.8749519,9.43258415 20.8079591,10.4508745 20.5131908,11.1542987 C20.4662959,11.2681865 20.4327995,11.3753749 20.4394987,11.3954728 C20.446198,11.4222699 20.3859045,11.4959619 20.3189117,11.5562554 C20.2452197,11.6232482 20.1849262,11.7036396 20.1849262,11.737136 C20.1849262,11.8644222 19.4949005,12.4539588 19.099643,12.6616364 C18.496708,12.9832018 17.6191025,13.1841801 16.7950912,13.1841801 C16.4199316,13.1908794 16.0983663,13.1774808 16.091667,13.1640823 Z M17.2908378,11.690241 C17.4449213,11.5093605 17.4851169,11.1944944 17.3779285,11.0002153 C17.3444321,10.9399218 17.2975371,10.799237 17.2774393,10.6853492 C17.1970479,10.223099 17.0228667,9.48617838 16.9692725,9.33879425 C16.9357761,9.25170363 16.9223775,9.17801156 16.9424754,9.17801156 C16.9558739,9.17801156 16.9424754,9.12441734 16.908979,9.06412383 C16.8754826,8.99713105 16.8285876,8.82964908 16.8084898,8.68896423 C16.7682941,8.43439165 16.62091,7.83145658 16.332841,6.69927851 C16.2457504,6.35091603 16.1519605,5.94226004 16.1251634,5.79487592 C16.0782684,5.47331055 15.8772901,5.12494806 15.6562139,4.97756394 C15.2408586,4.7095928 14.4972387,5.02445889 14.4905394,5.48000982 C14.4905394,5.56710045 14.6111264,6.1432384 14.7652098,6.75287274 C14.912594,7.36920637 15.0532788,7.92524648 15.0666774,7.99893855 C15.0867752,8.12622484 15.5691233,10.102512 15.7232067,10.7188456 C15.7768009,10.919824 15.8370944,11.1676973 15.8571922,11.2681865 C15.9107865,11.5093605 16.2323518,11.8510237 16.4735259,11.9180165 C16.7548956,11.9917085 17.1099573,11.8912194 17.2908378,11.690241 Z" id="Shape"></path>
                    <path d="M27.011491,13.1707816 C26.9980924,13.157383 26.844009,13.1305859 26.6631285,13.1104881 C26.4889472,13.0903902 26.3214653,13.0501945 26.2879689,13.0300967 C26.2477732,13.0099989 26.0936898,12.9765025 25.9396064,12.9564046 C25.3031749,12.8626147 24.1308012,12.2462811 23.5814604,11.7103388 C23.2263986,11.3552771 22.8378405,10.8327334 22.6435614,10.4441752 C22.4023874,9.94172932 22.1277169,9.1981094 22.1746119,9.15791373 C22.1947097,9.13781589 22.1813112,9.07752239 22.154514,9.03062744 C22.1210177,8.98373249 22.0942205,8.9167397 22.0875213,8.87654403 C22.080822,8.84304764 22.0473256,8.67556568 22.0205285,8.50808371 C21.9468364,8.15302195 21.9401371,6.96724966 22.0071299,6.63228573 C22.0875213,6.18343407 22.2617025,5.72788313 22.4827787,5.38621993 C22.730652,4.98426321 23.1661051,4.4885166 23.2665943,4.4885166 C23.3000907,4.4885166 23.3335871,4.46171949 23.3335871,4.42152382 C23.3335871,4.38802743 23.3737827,4.35453103 23.427377,4.35453103 C23.4809712,4.35453103 23.5345654,4.30763608 23.5613625,4.25404186 C23.5814604,4.20044763 23.621656,4.16025196 23.6484532,4.16695124 C23.6752503,4.17365051 23.836033,4.10665773 24.0035149,4.01956711 C24.5528558,3.71809958 25.0820988,3.62430968 26.0869905,3.65110679 C26.5894364,3.65780607 27.0315888,3.68460318 27.0717845,3.70470102 C27.1052809,3.73149813 27.2593643,3.76499453 27.4134477,3.78509236 C27.7015167,3.81858875 28.7265063,4.18704907 28.887289,4.30763608 C28.9810789,4.38802743 29.202155,4.522013 29.3629377,4.60240434 C29.4768255,4.65599857 30.1266555,5.29912931 30.3343331,5.56710045 C30.8099819,6.17003551 31.3526234,7.46969554 31.5402032,8.44779021 C31.6473917,8.98373249 31.6875874,10.1226098 31.607196,10.3838817 C31.5937975,10.4374759 31.5603011,10.5848601 31.5402032,10.7054471 C31.4732105,11.0940052 31.0980509,11.7438352 30.7362898,12.0921977 C30.0328656,12.7755241 29.1016659,13.1238866 27.8154044,13.1707816 C27.3933498,13.1841801 27.0315888,13.1908794 27.011491,13.1707816 Z M27.9761871,11.8510237 C28.2307597,11.737136 28.3178503,11.5160598 28.2575568,11.1409002 C28.190564,10.6719507 28.1771654,10.631755 28.1369698,10.5178673 C28.0900748,10.3771824 27.8957957,9.58666755 27.8622993,9.37898992 C27.8489008,9.28520002 27.7752087,8.98373249 27.6948174,8.70906207 C27.6211253,8.43439165 27.540734,8.106127 27.5206361,7.97884071 C27.5005383,7.8582537 27.4268462,7.54338761 27.3531542,7.27541647 C27.2794621,7.0141446 27.2124693,6.72607563 27.1923715,6.63228573 C27.1789729,6.53849583 27.0985816,6.2035319 27.0181902,5.87526726 C26.8641068,5.26563291 26.6095343,4.89717259 26.3348638,4.88377404 C26.2678711,4.87707476 26.1606826,4.87037548 26.1003891,4.87037548 C25.8994107,4.8636762 25.5510483,5.08475239 25.4438598,5.29243003 C25.3299721,5.51350622 25.3165735,5.44651343 25.8927115,7.77116308 C26.073592,8.52818155 26.2410739,9.20480868 26.2544725,9.27850074 C26.314766,9.57996828 26.5827371,10.6518528 26.7033242,11.0873059 C26.8373097,11.5361576 27.0047917,11.7974295 27.2191686,11.8778208 C27.3933498,11.9448136 27.8087051,11.9247158 27.9761871,11.8510237 Z" id="Shape"></path>
                    <path d="M34.1931175,12.9296075 C34.1529219,12.9028104 33.724168,11.2882843 33.6169796,10.7791391 C33.603581,10.7188456 33.4561969,10.1159106 33.2820157,9.43928343 C33.1078344,8.7626563 32.953751,8.1396234 32.9403525,8.06593133 C32.9269539,7.98553999 32.7728705,7.38260492 32.6053885,6.72607563 C32.2905224,5.49340838 32.2637253,5.37952065 32.2034318,5.09145167 C32.183334,4.99766177 32.1096419,4.71629207 32.0359499,4.45502021 C31.9689571,4.20044763 31.9086636,3.93247649 31.9086636,3.87218298 C31.9086636,3.75829525 32.0761455,3.75159597 34.9769331,3.77839308 C36.658452,3.79179164 38.1054962,3.81858875 38.1858875,3.83868659 C39.1639822,4.08655989 39.9477978,4.40142598 40.3162581,4.69619424 C40.8388018,5.11824879 41.6226174,6.07624561 41.6226174,6.2973218 C41.6226174,6.3308182 41.6494145,6.36431459 41.6762116,6.36431459 C41.7164073,6.36431459 41.8637914,6.63898501 41.9173857,6.83326408 C41.9240849,6.85336192 41.9910777,7.03424244 42.0714691,7.2352208 C42.1987554,7.576884 42.4399294,8.51478299 42.52702,9.04402599 C42.5806142,9.35219281 42.5873135,10.1628055 42.5337193,10.4508745 C42.4667265,10.8394326 42.2054546,11.5160598 42.0781684,11.6567446 C42.0111756,11.7237374 41.9575813,11.8041287 41.9575813,11.8242266 C41.9575813,11.9582121 41.2005629,12.4740566 40.7517112,12.6482378 C39.9946927,12.9430061 39.880805,12.9497054 37.0135138,12.9564046 C35.4860783,12.9631039 34.2199147,12.9497054 34.1931175,12.9296075 Z M38.7687248,11.7572338 C39.1170872,11.5294583 39.1438844,11.3217807 38.9295074,10.4508745 C38.822319,10.0288199 38.7218298,9.62686323 38.7084313,9.55987044 C38.6950327,9.49287766 38.6615363,9.37229064 38.6347392,9.29859858 C38.6146414,9.22490651 38.5878442,9.09762022 38.5744457,9.02392816 C38.5476486,8.8564462 38.5275507,8.76935558 38.3801666,8.20661618 C38.3198731,7.98553999 38.2528803,7.73096741 38.2394818,7.63717751 C38.2193839,7.54338761 38.1121955,7.1079345 38.005007,6.66578212 C37.8911193,6.22362974 37.7839308,5.80157519 37.7705323,5.73458241 C37.7504344,5.66089034 37.7035395,5.580499 37.6566445,5.54700261 C37.6097496,5.5202055 37.596351,5.49340838 37.6298474,5.49340838 C37.7370359,5.49340838 37.3618763,5.16514373 37.1742965,5.09145167 C36.9733181,5.01775961 36.1091112,4.99766177 36.0421184,5.06465456 C36.0153213,5.09145167 36.0220206,5.1450459 36.0421184,5.18524157 C36.0689155,5.22543724 36.0957126,5.29243003 36.1091112,5.32592642 C36.176104,5.64749179 36.5311657,7.1079345 36.7388434,7.90514865 C36.8058362,8.17981907 36.9130246,8.63537001 36.9733181,8.91004042 C37.0336116,9.18471084 37.1073037,9.45938126 37.1341008,9.51297549 C37.1608979,9.56656972 37.2077929,9.72065312 37.2278907,9.84793942 C37.2747857,10.1226098 37.2747857,10.1360084 37.5159597,11.0873059 C37.6164489,11.4959619 37.7236373,11.8443244 37.7571337,11.8644222 C37.8777207,11.9515129 38.5878442,11.8711215 38.7687248,11.7572338 Z" id="Shape"></path>
                    <path d="M52.9778945,12.9296075 C52.9644959,12.8961111 52.9711952,12.8291184 53.0314887,12.5946436 C53.0448873,12.5410494 53.1252786,12.2797775 53.20567,12.0118064 C53.2860613,11.7505345 53.3664526,11.4892627 53.3731519,11.4423677 C53.3798512,11.3954728 53.4401447,11.1877951 53.5004382,10.9868168 C53.6612209,10.4776716 54.2842538,8.31380464 54.3311488,8.106127 C54.3981415,7.81135875 54.3914423,7.79796019 54.0162827,6.49830016 C53.8621993,5.96235788 53.7215144,5.45991199 53.7081159,5.37952065 C53.6947173,5.29912931 53.6545216,5.15844446 53.6210252,5.07805311 C53.5875288,4.99096249 53.5607317,4.91057115 53.5607317,4.89047332 C53.5607317,4.87037548 53.5138368,4.68279568 53.446844,4.47511805 C53.3865505,4.26744041 53.326257,4.01956711 53.3061591,3.92577721 L53.279362,3.76499453 L55.3628376,3.7716938 L57.4530125,3.78509236 L57.5401032,4.08655989 C57.5936974,4.25404186 57.6472916,4.46171949 57.6673895,4.55550939 C57.7142844,4.78328486 57.7678786,5.03785744 57.801375,5.15844446 C57.9018642,5.5202055 58.2636252,6.92035471 58.3172195,7.18162657 C58.3574151,7.35580781 58.4378065,7.55008689 58.4981,7.61707967 C58.5583935,7.68407246 58.739274,7.9185472 58.906756,8.1396234 C59.0742379,8.36069959 59.2484192,8.56837722 59.2886149,8.59517433 C59.3355098,8.62197145 59.3757055,8.68896423 59.3757055,8.7291599 C59.3757055,8.77605485 59.4292997,8.86314547 59.4962925,8.9167397 C59.556586,8.97703321 59.7307672,9.18471084 59.8781514,9.37898992 C60.0255355,9.573269 60.1796189,9.7608488 60.2131153,9.80774375 C60.253311,9.84793942 60.4140936,10.0623163 60.5815756,10.2833925 C60.7490576,10.5044687 60.9232388,10.7255449 60.9701338,10.7724399 C61.0170287,10.8260341 61.1376157,10.9734182 61.2381049,11.1074038 C61.3385941,11.2480886 61.432384,11.3686756 61.4524818,11.3887735 C61.4792789,11.4088713 61.5797681,11.5428569 61.6936558,11.690241 C61.8008443,11.8376251 61.9549277,12.0319042 62.0420183,12.1256941 C62.1291089,12.219484 62.249696,12.3735674 62.3099895,12.4807559 C62.370283,12.5812451 62.443975,12.6616364 62.4707721,12.6616364 C62.4975693,12.6616364 62.5243664,12.7085313 62.5243664,12.7621256 C62.5243664,12.8157198 62.5578628,12.8626147 62.5913592,12.8626147 C62.6315548,12.8626147 62.6583519,12.8827126 62.6583519,12.916209 C62.6583519,12.9497054 60.9299381,12.9765025 60.615072,12.9363068 C60.5748763,12.9363068 60.4341915,12.7889227 60.3002059,12.6080422 C60.1662203,12.4338609 59.9987384,12.2261833 59.9317456,12.1524912 C59.8647528,12.0720999 59.724068,11.8979186 59.6101802,11.7572338 C59.2819156,11.3485778 58.4110094,10.2900918 58.3373173,10.2097005 C58.3038209,10.1695048 58.2234296,10.0690156 58.1698353,9.98862427 C58.1162411,9.9149322 58.0492483,9.84793942 58.0224512,9.84793942 C57.9956541,9.84793942 57.8348714,10.2900918 57.6673895,10.8394326 C57.4999075,11.3820742 57.2989291,12.0185057 57.2252371,12.2529804 C57.1046501,12.6214407 57.0577551,12.7822234 57.0376573,12.9296075 C57.030958,12.9497054 56.1265554,12.9631039 55.0144752,12.9631039 C53.9090942,12.9631039 52.9912931,12.9497054 52.9778945,12.9296075 Z" id="Path"></path>
                    <path d="M63.4756639,12.9296075 C63.4488668,12.9095097 63.3416784,12.5477487 63.2411892,12.1256941 C63.1340007,11.7036396 63.0067144,11.1743966 62.9464209,10.9533204 C62.8928267,10.7322442 62.8392325,10.5245665 62.8258339,10.4843709 C62.8191346,10.4508745 62.7923375,10.343686 62.7722397,10.2498961 C62.7521418,10.1561062 62.5779606,9.46608054 62.3970801,8.70906207 C62.2095003,7.9520436 62.0420183,7.26201791 62.0286198,7.16822801 C62.0085219,7.07443811 61.8678371,6.51839799 61.720453,5.92886149 C61.5730688,5.33932498 61.3921883,4.60910362 61.3251955,4.31433536 L61.2046085,3.76499453 L64.8356175,3.76499453 L68.4733257,3.76499453 L68.5068221,3.90567937 C68.5269199,3.98607072 68.6207098,4.35453103 68.7144997,4.72299135 C68.8082896,5.09145167 68.888681,5.41301704 68.888681,5.44651343 C68.888681,5.47331055 68.1651589,5.49340838 67.2808541,5.49340838 L65.6797266,5.49340838 L65.7199222,5.71448457 C65.7400201,5.82837231 65.8137121,6.10304273 65.8807049,6.31072036 C65.9476977,6.52509727 66.0213898,6.80646697 66.0414876,6.94715182 C66.0682847,7.08783667 66.1151797,7.2955143 66.1486761,7.40940204 L66.2156688,7.62377895 L67.0329808,7.62377895 C67.4818325,7.63047823 67.9574813,7.63047823 68.0847675,7.63047823 L68.3259416,7.63717751 L68.5135214,8.42769237 C68.6207098,8.8564462 68.7144997,9.24500435 68.7345976,9.28520002 C68.7479961,9.33209497 68.4264307,9.35219281 67.7096079,9.35219281 C67.13347,9.34549353 66.6578212,9.35889208 66.6444227,9.37898992 C66.6377234,9.39908776 66.6980169,9.68715673 66.7851075,10.0154214 C66.8788974,10.3503853 66.9860859,10.7590413 67.0262815,10.9265233 L67.1066729,11.2346901 L68.553717,11.2413893 C69.3442319,11.2413893 70.0744533,11.2480886 70.1749424,11.2480886 C70.3290258,11.2547879 70.355823,11.2882843 70.3960186,11.5428569 C70.4228157,11.6969403 70.5032071,12.0185057 70.5768992,12.2529804 C70.8314717,13.0501945 71.2602256,12.9564046 67.1267707,12.9631039 C65.137085,12.9631039 63.4957618,12.9497054 63.4756639,12.9296075 Z" id="Path"></path>
                    <path d="M74.589767,12.9296075 C74.5361728,12.8961111 74.1141182,12.2060855 74.1141182,12.1591905 C74.1141182,12.1457919 74.0337269,12.0051071 73.9332377,11.8443244 C73.6585673,11.4222699 73.5982738,11.3217807 73.4039947,10.9868168 C73.1695199,10.5781608 72.9886394,10.2632947 72.6938712,9.77424735 C72.5531863,9.54647188 72.4392986,9.33209497 72.4392986,9.30529786 C72.4392986,9.27180146 72.4125015,9.24500435 72.3723058,9.24500435 C72.3388094,9.24500435 72.3120123,9.22490651 72.3187116,9.1981094 C72.3254108,9.16461301 72.2852152,9.07082311 72.2249217,8.97703321 C72.0038455,8.62867073 71.0994429,7.09453595 71.0994429,7.06103955 C71.0994429,7.04094172 71.0190515,6.90025687 70.9185624,6.74617346 C70.8113739,6.59209006 70.6974862,6.40451026 70.6505912,6.3308182 C70.3893194,5.90206437 70.1146489,5.43311488 70.0275583,5.27903147 C69.9739641,5.17854229 69.7528879,4.80338269 69.5452103,4.45502021 C69.3308333,4.09995845 69.1566521,3.8051902 69.1566521,3.79179164 C69.1566521,3.77839308 69.5519095,3.7716938 70.0275583,3.76499453 L70.9051638,3.75829525 L71.1530371,4.16695124 C71.2870227,4.38802743 71.5013996,4.72969063 71.6219866,4.91727043 L71.8430628,5.25893363 L73.410694,5.25893363 C74.2682016,5.25893363 74.9917237,5.2388358 75.0185208,5.21873796 C75.0386186,5.19194085 75.072115,4.92396971 75.0922129,4.60910362 C75.1123107,4.30093681 75.1324085,3.98607072 75.1458071,3.91907793 C75.1659049,3.79179164 75.239597,3.78509236 77.1287935,3.7716938 L79.0916821,3.76499453 L79.0447872,4.2406433 C78.991193,4.89717259 78.944298,5.3326257 78.9108016,5.65419107 C78.8505081,6.17003551 78.8036132,6.66578212 78.7701168,7.24861935 C78.7433197,7.576884 78.7165225,7.89175009 78.7098233,7.9520436 C78.6964247,8.01903638 78.6629283,8.31380464 78.6361312,8.60187361 C78.6093341,8.88994259 78.582537,9.17801156 78.5691384,9.23830507 C78.5423413,9.37898992 78.4552507,10.3838817 78.4284536,10.8528312 C78.4083557,11.2949836 78.3480622,11.857723 78.294468,12.2261833 C78.2743702,12.3735674 78.2542723,12.5946436 78.2542723,12.7152306 C78.2542723,12.8291184 78.2341745,12.9363068 78.2140767,12.9363068 C78.0599933,12.9631039 74.6299627,12.9564046 74.589767,12.9296075 Z M74.6165641,9.64026178 C74.6299627,9.51297549 74.6567598,9.24500435 74.6835569,9.04402599 C74.7036547,8.84304764 74.7371511,8.49468516 74.7505497,8.27360897 C74.830941,7.21512296 74.8510388,6.98734749 74.8845352,6.81986553 L74.9180316,6.63228573 L73.7858536,6.63228573 C72.8010596,6.63228573 72.6469762,6.64568429 72.6804726,6.73277491 C72.7072697,6.78636914 72.7541647,6.83326408 72.7943603,6.83326408 C72.834556,6.83326408 72.8412553,6.85336192 72.8211575,6.88015903 C72.7943603,6.90025687 72.8144582,6.96724966 72.8613531,7.02754316 C73.0154365,7.20842368 73.5111831,8.09272845 73.5111831,8.17981907 C73.5111831,8.22671402 73.531281,8.24681185 73.5513788,8.22001474 C73.5781759,8.1999169 73.6719658,8.32720319 73.772455,8.50808371 C74.134216,9.19141012 74.5495713,9.90153364 74.5696691,9.88143581 C74.5830677,9.87473653 74.6031655,9.7608488 74.6165641,9.64026178 Z" id="Shape"></path>
                    <path d="M82.3006366,12.4941544 C82.2269445,12.2395818 82.1465531,11.9180165 82.119756,11.7907302 C82.0929589,11.6634439 82.0192669,11.3619764 81.9455748,11.1275016 C81.8718827,10.8930269 81.7981907,10.6049579 81.7847921,10.4910702 C81.7646943,10.3771824 81.6910022,10.0757149 81.6173101,9.81444302 C81.5436181,9.55987044 81.4766253,9.27180146 81.4565275,9.17801156 C81.4364296,9.08422167 81.3627376,8.80285197 81.2823462,8.54158011 C81.2086542,8.28700752 81.1349621,7.99893855 81.1215635,7.90514865 C81.108165,7.81135875 80.9674801,7.25531863 80.8133967,6.66578212 C80.6593133,6.07624561 80.5052299,5.47331055 80.4717335,5.32592642 C80.4382371,5.17854229 80.4047407,4.99096249 80.3846429,4.91727043 C80.3712443,4.83687909 80.3109508,4.64260001 80.2573566,4.48181733 C80.2037624,4.32103464 80.1434689,4.09995845 80.1367696,3.98607072 L80.1099725,3.78509236 L82.1331546,3.77839308 L84.1496374,3.76499453 L84.1831338,3.94587505 C84.2032316,4.03966494 84.2702244,4.31433536 84.3305179,4.55550939 C84.3975107,4.79668342 84.4846013,5.15844446 84.5314963,5.35942281 C84.5850905,5.56040117 84.6587826,5.86856798 84.6989783,6.0494485 L84.7793696,6.36431459 L85.0674386,6.36431459 L85.3622068,6.36431459 L85.4358989,5.98245571 C85.4760946,5.7680788 85.5698845,5.33932498 85.6435765,5.02445889 C85.7239679,4.7095928 85.7976599,4.34783176 85.8110585,4.22054546 C85.871352,3.72479885 85.6904715,3.76499453 87.9012334,3.7716938 C89.8507234,3.78509236 89.8909191,3.78509236 89.8775206,3.91907793 C89.8507234,4.17365051 89.7971292,4.45502021 89.6631436,4.99096249 C89.5894516,5.28573075 89.5157595,5.62069467 89.502361,5.72788313 C89.4822631,5.84177086 89.4152703,6.12983984 89.3549768,6.37771315 L89.2410891,6.82656481 L89.4286689,6.99404677 C89.5358573,7.08783667 89.6430458,7.16822801 89.6631436,7.16822801 C89.7167379,7.16822801 90.4469592,7.89844937 90.6144412,8.11282628 C90.8355174,8.40089526 91.1503835,9.07082311 91.2374741,9.44598271 C91.4116553,10.1695048 91.331264,11.1475994 91.0498943,11.690241 C90.9092094,11.9582121 90.4067636,12.4472595 90.1588902,12.5611472 C89.9177162,12.6616364 89.7167379,12.7420277 89.622948,12.7621256 C89.5894516,12.7755241 89.4219696,12.8157198 89.2544876,12.8626147 C89.0334115,12.9296075 88.1156103,12.9497054 85.6904715,12.9564046 L82.4346221,12.9631039 L82.3006366,12.4941544 Z M87.0638236,11.7438352 C87.3585918,11.522759 87.4054868,11.3083821 87.2715012,10.7657406 C87.2045084,10.4977694 87.1509142,10.2364976 87.1442149,10.1829033 C87.1375156,10.1293091 87.0839214,9.90823292 87.0169286,9.70055529 C86.9566351,9.48617838 86.8762438,9.15791373 86.8427474,8.97033393 C86.7154611,8.30710536 86.3135044,7.99893855 85.5899823,8.00563782 C85.2885148,8.00563782 85.2014241,8.02573566 85.2081234,8.106127 C85.2282213,8.30710536 86.0857289,11.7438352 86.1460224,11.8644222 C86.1929174,11.9582121 86.9097402,11.8644222 87.0638236,11.7438352 Z" id="Shape"></path>
                    <path d="M47.81945,12.4338609 C47.6184717,12.2998754 46.7140691,11.8041287 46.4326994,11.6701432 C46.1245326,11.5294583 46.111134,11.4557663 46.399203,11.449067 C46.5130907,11.4423677 46.6738734,11.4289691 46.7475655,11.4222699 C46.8212575,11.4155706 47.1227251,11.3887735 47.410794,11.3619764 C47.7055623,11.3351792 47.9668342,11.3016829 48.0003306,11.281585 C48.0271277,11.2614872 48.0539248,11.5026612 48.0472255,11.8175273 C48.0472255,12.1323934 48.0606241,12.4204624 48.0874212,12.4539588 C48.1477147,12.5544479 47.9735334,12.5477487 47.81945,12.4338609 Z" id="Path"></path>
                    <path d="M45.5952896,10.6652514 C45.5885903,10.5178673 45.5349961,10.223099 45.4814018,10.0087221 C45.3742134,9.60006611 45.3809127,9.51967477 45.5215975,9.62686323 C45.5684925,9.6670589 46.0307427,9.9149322 46.5465871,10.1829033 C47.0624316,10.4508745 47.5112832,10.6920485 47.5514789,10.7255449 C47.5849753,10.7590413 47.5045839,10.7858384 47.3505005,10.7925377 C47.2031164,10.7925377 47.0222359,10.8059362 46.9485438,10.8193348 C46.8748518,10.8327334 46.5398878,10.8662298 46.2116232,10.8863276 L45.6019888,10.9265233 L45.5952896,10.6652514 Z" id="Path"></path>
                    <path d="M47.81945,10.223099 C47.1495222,9.85463869 46.3188116,9.41248631 45.9972463,9.25170363 C45.8029672,9.16461301 45.6421845,9.06412383 45.6421845,9.03732672 C45.6421845,9.0105296 45.9570506,8.36069959 46.3322102,7.59028256 C46.7140691,6.82656481 47.095928,6.0494485 47.1897179,5.8618687 L47.3438013,5.52690477 L47.6921637,5.8618687 C47.8797435,6.0494485 48.2415046,6.35091603 48.4826786,6.53179655 C48.7305519,6.71937635 48.9717259,6.90025687 49.0186209,6.94715182 C49.0655158,6.98734749 49.3133891,7.16152873 49.5679617,7.32901069 C49.8225343,7.49649266 50.0637083,7.65727534 50.0972047,7.69077173 C50.1374004,7.72426813 50.1976939,7.7644638 50.2378896,7.77786236 C50.5192593,7.89844937 51.0016073,8.22671402 51.0016073,8.30040608 C51.0016073,8.34730103 50.9413138,8.50138444 50.874321,8.63537001 C50.8073283,8.76935558 50.6666434,9.04402599 50.5661542,9.24500435 C50.4656651,9.44598271 50.3584766,9.64026178 50.3316795,9.6670589 C50.3048824,9.70055529 50.1574982,9.54647188 50.0034148,9.31869641 C49.4942697,8.5750765 49.2597949,8.43439165 49.0052223,8.70906207 C48.9047332,8.81625053 48.4089865,9.73405168 48.3553923,9.9149322 C48.2817003,10.1427077 48.1678125,10.3838817 48.1343161,10.3771824 C48.107519,10.3771824 47.9668342,10.3101896 47.81945,10.223099 Z" id="Path"></path>
                    <path d="M44.6506913,7.78456163 C44.4497129,7.31561214 44.2219375,6.7662713 44.1348469,6.56529294 C43.873575,5.94226004 43.4850168,4.87707476 43.3912269,4.50191516 C43.2103464,3.82528803 42.7480962,3.00797605 42.2590489,2.50553016 C42.1518604,2.39164243 41.997777,2.21746119 41.9240849,2.11027273 C41.8503929,2.00978355 41.756603,1.89589582 41.7164073,1.84900087 C41.6226174,1.74851169 41.4216391,1.22596797 41.4216391,1.08528312 C41.4216391,1.01829033 41.4752333,0.904402599 41.5355268,0.824011257 C41.6427152,0.696724966 41.6628131,0.696724966 41.87719,0.783815586 C42.1049655,0.877605485 43.0964587,1.46044272 43.1634515,1.53413478 C43.1835493,1.55423262 43.3175349,1.66142107 43.464919,1.77530881 C43.6123031,1.88249726 43.7663865,2.00308428 43.8065822,2.04327995 C43.8467779,2.07677634 43.994162,2.20406263 44.1348469,2.31125109 C44.4631115,2.57252295 45.3608148,3.42333132 45.8029672,3.87888226 C45.990547,4.07316134 46.2384203,4.3344332 46.3456088,4.44832093 C46.4594965,4.56220867 46.6269785,4.75648775 46.7207684,4.88377404 L46.8949496,5.10485023 L46.4661958,5.9556586 C46.2250218,6.41790882 45.8967571,7.047641 45.7359744,7.35580781 C45.4010105,7.98553999 45.3675141,8.03913422 45.2000321,8.39419598 C45.1330394,8.52818155 45.0593473,8.64206928 45.0392495,8.64206928 C45.0191516,8.64206928 44.8449704,8.25351113 44.6506913,7.78456163 Z" id="Path"></path>
                    <path d="M50.6599441,7.44289843 C50.3785744,7.27541647 50.0637083,7.07443811 49.9632192,7.00074605 C49.3200884,6.52509727 48.804244,6.12983984 48.6769577,6.00255355 C48.5965663,5.92886149 48.4156858,5.77477808 48.2883995,5.66089034 C48.0539248,5.47331055 47.5581782,4.97086466 47.0557323,4.4282231 C46.4393987,3.76499453 45.3943112,2.71990708 45.0325502,2.39834171 C44.8047747,2.20406263 44.5836985,2.01648283 44.5435028,1.97628716 C44.2688324,1.72841386 43.8333793,1.40684849 43.7730858,1.40684849 C43.7328901,1.40684849 43.6993938,1.38005137 43.6993938,1.34655498 C43.6993938,1.27286292 42.406433,0.482348053 42.1920561,0.428753825 C42.0982662,0.408655989 42.0245741,0.368460318 42.0245741,0.334963926 C42.0245741,0.241174027 42.2791467,0 42.3796359,0 C42.5337193,0 43.8132815,0.703424244 43.9673649,0.870906207 C43.9874627,0.891004042 44.1214483,0.984793942 44.2688324,1.08528312 C44.4162166,1.1857723 44.6305935,1.34655498 44.7377819,1.44034488 C44.8516697,1.53413478 45.0593473,1.70831602 45.2067314,1.82890303 C45.5416953,2.09687418 48.0606241,4.62250218 48.0003306,4.62250218 C47.9735334,4.62250218 48.0539248,4.68949496 48.1678125,4.76318702 C48.2883995,4.84357837 48.3754902,4.92396971 48.3553923,4.95076682 C48.3419938,4.98426321 48.4022873,5.04455672 48.4893779,5.09145167 C48.5831678,5.13834662 48.6568599,5.20533941 48.6568599,5.23213652 C48.6568599,5.38621993 50.8408246,7.00074605 51.3231727,7.2017244 C51.4370604,7.25531863 51.5375496,7.30891286 51.5375496,7.32901069 C51.5375496,7.40940204 51.2963756,7.73766668 51.2360821,7.74436596 C51.1958864,7.75106524 50.9413138,7.61707967 50.6599441,7.44289843 Z" id="Path"></path>
                </g>
            </g>
        </g>
    </g>
</svg>