<?xml version="1.0" encoding="UTF-8"?>
<svg width="144px" height="18px" viewBox="0 0 144 18" version="1.1" xmlns="http://www.w3.org/2000/svg" xmlns:xlink="http://www.w3.org/1999/xlink">
    <title>Logo-Hearst</title>
    <g id="Page-1" stroke="none" stroke-width="1" fill="none" fill-rule="evenodd">
        <g id="Desktop-HD" transform="translate(-460.000000, -731.000000)" fill="#797979" fill-rule="nonzero">
            <g id="Logo-Hearst" transform="translate(460.279855, 731.000000)">
                <polyline id="path3596" points="0.500000276 0.757982186 6.8752652 0.757982186 6.8752652 6.47076411 9.85608838 6.47076411 9.85608838 0.757982186 16.2313487 0.757982186 16.2313487 17.6807865 9.85608838 17.6807865 9.85608838 11.3579102 6.8752652 11.3579102 6.8752652 17.6807865 0.500000276 17.6807865"></polyline>
                <polyline id="path3602" points="27.9885044 0.757982186 40.6545236 0.757982186 40.6545236 5.10238503 34.382462 5.10238503 34.382462 6.93824075 40.2099977 6.93824075 40.2099977 11.2858053 34.382462 11.2858053 34.382462 13.2832944 40.8666304 13.2832944 40.8666304 17.6807865 27.9885044 17.6807865"></polyline>
                <path d="M61.1080366,10.869439 L58.1036485,10.869439 L59.6598872,4.18603803 L61.1080366,10.869439 Z M50.0648792,17.7097194 L56.4872921,17.7097194 L57.1122168,14.9991192 L62.0312074,14.9991192 L62.6179416,17.7097194 L69.600271,17.7097194 L64.264391,0.758391615 L55.6608147,0.758391615" id="path3608"></path>
                <path d="M85.2343301,7.74097128 L85.2343301,4.54624433 C85.5073736,4.519404 85.7495507,4.519404 85.9592237,4.519404 C87.3919286,4.519404 88.0241775,4.96945717 88.0241775,6.02248514 C88.0241775,7.10401389 87.2285893,7.75612014 85.701602,7.75612014 C85.5594393,7.75612014 85.3919829,7.75612014 85.2343301,7.74019792 M78.8582509,17.6801041 L85.2343301,17.6801041 L85.2343301,11.5473848 C85.4399543,11.5291879 85.6512196,11.5291879 85.8194493,11.5291879 C87.3455949,11.5291879 87.5593395,12.2510108 87.8153234,14.074197 L87.9795498,15.3308475 C88.0778127,16.0891095 88.2615325,16.8608599 88.4736393,17.680923 L94.9374728,17.680923 C94.6571278,16.4274569 94.4442021,15.4227642 94.3491237,14.6692334 L94.137813,12.8595356 C93.8346992,10.4230935 93.2910233,9.38671559 91.0139627,9.00162511 C93.2235813,8.41370819 94.3491009,7.1039684 94.3491009,5.05814398 C94.3491009,1.67485235 92.1655037,0.758118662 87.5114363,0.758118662 L78.8582509,0.758118662" id="path3614"></path>
                <path d="M110.321348,12.2511245 L110.321348,12.3866909 C110.321348,13.5458747 110.836569,14.0743789 111.936908,14.0743789 C112.929159,14.0743789 113.518327,13.5862944 113.518327,12.8597176 C113.518327,12.3177477 113.28104,11.900972 112.853574,11.6886377 C111.986472,11.2647197 110.45787,11.024658 108.463611,10.3899752 C105.735542,9.52157686 104.46049,8.18490576 104.46049,5.81263016 C104.46049,2.49985126 107.147115,0.499996589 112.081551,0.499996589 C116.568207,0.499996589 118.940346,2.16468835 118.940346,5.15103881 L118.940346,5.50282908 L113.324099,5.50282908 C113.253358,4.49179031 112.789385,4.00213628 111.846698,4.00213628 C110.978777,4.00213628 110.437558,4.49258642 110.437558,5.12963479 C110.437558,6.30863033 111.611845,6.26109111 113.751565,6.85219247 C117.681558,7.89807819 119.557151,8.98040306 119.557151,12.0554858 C119.557151,15.6352805 116.690922,17.9615864 111.797134,17.9615864 C106.838315,17.9615864 104.203687,16.0892915 104.203687,12.8597176 C104.203687,12.6734275 104.203687,12.4706693 104.233029,12.2511928" id="path3620"></path>
                <polyline id="path3626" points="142.316999 5.27243444 138.247231 5.27243444 138.247231 17.6804908 131.718367 17.6804908 131.718367 5.27243444 127.62342 5.27243444 127.62342 0.757686487 142.316999 0.757686487"></polyline>
            </g>
        </g>
    </g>
</svg>