<?xml version="1.0" encoding="UTF-8"?>
<svg width="89px" height="20px" viewBox="0 0 89 20" version="1.1" xmlns="http://www.w3.org/2000/svg" xmlns:xlink="http://www.w3.org/1999/xlink">
    <title>Logo-HSBC</title>
    <g id="Page-1" stroke="none" stroke-width="1" fill="none" fill-rule="evenodd">
        <g id="Desktop-HD" transform="translate(-84.000000, -792.000000)" fill-rule="nonzero">
            <g id="Group" transform="translate(84.038462, 792.281250)">
                <polygon id="Path" fill="#797979" points="51.148 9.956 46.056 9.956 46.056 14.972 43.472 14.972 43.472 3.192 46.056 3.192 46.056 7.98 51.148 7.98 51.148 3.192 53.732 3.192 53.732 14.972 51.148 14.972"></polygon>
                <path d="M59.888,15.2 C57.38,15.2 55.252,14.212 55.176,11.4 L57.76,11.4 C57.76,12.692 58.52,13.376 59.964,13.376 C61.028,13.376 62.168,12.844 62.168,11.704 C62.168,10.792 61.332,10.488 60.04,10.108 L59.204,9.88 C57.38,9.348 55.48,8.588 55.48,6.536 C55.48,3.876 57.912,3.04 60.192,3.04 C62.472,3.04 64.448,3.876 64.448,6.46 L61.864,6.46 C61.788,5.396 61.18,4.788 59.964,4.788 C59.052,4.788 58.064,5.32 58.064,6.308 C58.064,7.144 58.824,7.448 60.496,7.98 L61.484,8.284 C63.536,8.892 64.752,9.652 64.752,11.552 C64.752,14.212 62.168,15.2 59.888,15.2 Z" id="Path" fill="#797979"></path>
                <path d="M66.196,3.192 L70.3,3.192 C71.592,3.192 72.124,3.192 72.58,3.344 C74.024,3.648 75.088,4.636 75.088,6.156 C75.088,7.676 74.1,8.436 72.732,8.816 C74.328,9.12 75.468,9.956 75.468,11.704 C75.468,14.364 72.808,14.972 70.756,14.972 L66.12,14.972 L66.12,3.192 L66.196,3.192 Z M70.3,8.132 C71.44,8.132 72.58,7.904 72.58,6.536 C72.58,5.32 71.516,5.016 70.452,5.016 L68.628,5.016 L68.628,8.132 L70.3,8.132 Z M70.604,13.224 C71.82,13.224 72.96,12.92 72.96,11.476 C72.96,10.108 71.972,9.728 70.756,9.728 L68.704,9.728 L68.704,13.148 L70.604,13.148 L70.604,13.224 Z" id="Shape" fill="#797979"></path>
                <path d="M82.232,15.2 C78.432,15.2 76.684,12.768 76.684,9.196 C76.684,5.624 78.584,2.964 82.308,2.964 C84.664,2.964 86.944,4.028 87.02,6.688 L84.36,6.688 C84.208,5.548 83.448,4.864 82.308,4.864 C80.028,4.864 79.344,7.372 79.344,9.196 C79.344,11.096 80.028,13.224 82.232,13.224 C83.372,13.224 84.208,12.616 84.436,11.4 L87.096,11.4 C86.792,14.212 84.664,15.2 82.232,15.2 Z" id="Path" fill="#797979"></path>
                <g>
                    <rect id="Rectangle" fill="#FFFFFF" x="8.9984" y="0.2432" width="17.9968" height="17.9968"></rect>
                    <polygon id="Path" fill="#797979" points="27.04384 18.24 36.04224 9.2416 27.04384 0.2432 27.04384 0.2432"></polygon>
                    <polygon id="Path" fill="#797979" points="8.9984 18.24 0 9.2416 8.9984 0.2432 8.9984 0.2432"></polygon>
                    <polygon id="Path" fill="#797979" points="27.04384 0.2432 17.9968 9.2416 8.9984 0.2432 8.9984 0.2432"></polygon>
                    <polygon id="Path" fill="#797979" points="8.9984 18.24 17.9968 9.2416 27.04384 18.24 27.04384 18.24"></polygon>
                </g>
            </g>
        </g>
    </g>
</svg>