<?xml version="1.0" encoding="UTF-8"?>
<svg width="86px" height="11px" viewBox="0 0 86 11" version="1.1" xmlns="http://www.w3.org/2000/svg" xmlns:xlink="http://www.w3.org/1999/xlink">
    <title>Logo-Huff</title>
    <defs>
    </defs>
    <g id="Native-Video" stroke="none" stroke-width="1" fill="none" fill-rule="evenodd">
        <g transform="translate(-886.000000, -3918.000000)" id="Trusted">
            <g transform="translate(147.000000, 3552.000000)">
                <g id="Logos-Publishers">
                    <g transform="translate(649.000000, 316.000000)">
                        <path d="M148.266137,50.2818318 C150.952939,50.2818318 152.548594,51.7953576 152.536925,54.341366 C152.536925,57.9902537 150.53056,60.1608138 147.174991,60.1608138 C144.499922,60.1608138 142.904267,58.6355553 142.904267,56.1012797 C142.904267,52.452392 144.910569,50.2818318 148.266137,50.2818318 Z M111.131959,50.469556 L110.24027,55.3738487 C110.146407,55.8548918 110.099476,56.2420728 110.099476,56.5588572 C110.099476,57.3801503 110.463192,57.779064 111.214088,57.779064 C112.363899,57.779064 112.563356,56.9695037 112.844942,55.4207797 L112.844942,55.4207797 L113.724899,50.469556 L116.810614,50.469556 L115.778131,56.3711331 C115.297088,59.1283312 113.971286,60.1490811 110.897304,60.1490811 C109.430709,60.1490811 106.990296,59.7267018 106.990296,56.9343055 C106.990296,56.5588572 107.025494,56.1599435 107.107623,55.7492969 L107.107623,55.7492969 L108.046244,50.4812887 L108.046244,50.469556 L111.131959,50.469556 Z M157.781404,50.2818318 C159.76424,50.2818318 160.91405,50.9623318 161.230835,52.2998662 L161.230835,52.2998662 L158.508835,53.0390299 C158.368042,52.6753144 158.004326,52.4289265 157.570214,52.4289265 C156.983576,52.4289265 156.784119,52.792642 156.784119,53.0976937 C156.784119,53.5552712 157.183033,53.6843316 158.156852,53.9893833 C159.811171,54.4938919 160.620731,55.4325125 160.608998,56.8639089 C160.608998,59.7267018 157.957395,60.1490811 156.373473,60.1490811 C154.296775,60.1490811 152.970973,59.3512536 152.677654,57.9433226 L152.677654,57.9433226 L155.364456,57.2158917 C155.540447,57.7086675 156.056688,57.9902537 156.537731,57.9902537 C157.065706,57.9902537 157.370757,57.732133 157.370757,57.3214865 C157.370757,56.8052451 156.83105,56.664452 156.36174,56.5353917 C154.578361,56.0426159 153.757068,55.0922625 153.757068,53.5435385 C153.757068,52.7809092 154.050387,50.2818318 157.781404,50.2818318 Z M100.537279,50.4930215 L99.9271755,53.8837885 L102.602244,53.8837885 L103.212348,50.4930215 L106.298063,50.4930215 L104.643744,59.961357 L101.558029,59.961357 L102.179865,56.4180641 L99.5047962,56.4180641 L98.88296,59.961357 L95.7972449,59.961357 L97.4515637,50.4930215 L100.537279,50.4930215 Z M138.715673,50.4812887 C140.980095,50.4812887 142.270698,51.5489697 142.270698,53.4144782 C142.270698,56.0660814 140.780638,57.5209434 138.093836,57.5209434 L138.093836,57.5209434 L136.638974,57.5209434 L136.204862,59.961357 L133.119147,59.961357 L134.773466,50.4812887 Z M170.347187,50.4930215 L169.901343,53.0272971 L167.578257,53.0272971 L166.35805,59.961357 L163.272334,59.961357 L164.469076,53.0272971 L162.005197,53.0272971 L162.451041,50.4930215 L170.347187,50.4930215 Z M95.7385811,50.4930215 L94.0725295,59.961357 L90.6348315,59.961357 L90.6348315,50.4930215 L95.7385811,50.4930215 Z M175.12242,50.4930215 L175.12242,59.961357 L170.01867,59.961357 L171.672989,50.4930215 L175.12242,50.4930215 Z M125.281665,50.4812887 L124.83582,53.0272971 L121.210398,53.0272971 L120.917079,54.7872108 L123.510019,54.7872108 L123.087639,57.1689606 L120.4947,57.1689606 L120.001924,59.961357 L116.916209,59.961357 L118.570528,50.4812887 L125.281665,50.4812887 Z M133.377268,50.4812887 L132.931423,53.0272971 L129.306001,53.0272971 L129.012682,54.7872108 L131.605621,54.7872108 L131.183242,57.1689606 L128.57857,57.1689606 L128.097527,59.961357 L125.011812,59.961357 L126.66613,50.4812887 L133.377268,50.4812887 Z M148.090146,52.745711 C146.834741,52.745711 146.435827,53.8837885 146.201172,55.1274608 C146.130775,55.4911763 146.095577,55.8079607 146.095577,56.1716762 C146.095577,57.1337624 146.564887,57.7086675 147.362715,57.7086675 C148.61812,57.7086675 149.017034,56.5588572 149.251689,55.3269177 C149.322085,54.9632022 149.357284,54.6464177 149.357284,54.2827022 C149.357284,53.3206161 148.887973,52.745711 148.090146,52.745711 Z M138.28156,52.9569006 L137.448535,52.9569006 L137.037888,55.1861246 L137.929578,55.1861246 C138.797802,55.1861246 139.325776,54.7050815 139.325776,53.9189867 C139.325776,53.2971506 138.96206,52.9569006 138.28156,52.9569006 L138.28156,52.9569006 Z" id="Logo-Huff" fill="#797979" fill-rule="nonzero"></path>
                    </g>
                </g>
            </g>
        </g>
    </g>
</svg>
