<?xml version="1.0" encoding="UTF-8"?>
<svg width="54px" height="26px" viewBox="0 0 54 26" version="1.1" xmlns="http://www.w3.org/2000/svg" xmlns:xlink="http://www.w3.org/1999/xlink">
    <title>Logo-Levis</title>
    <g id="Page-1" stroke="none" stroke-width="1" fill="none" fill-rule="evenodd">
        <g id="Desktop-HD" transform="translate(-96.000000, -562.000000)" fill-rule="nonzero">
            <g id="Logo-Levis" transform="translate(96.238214, 562.281250)">
                <path d="M0.353077509,0.405705365 L5.30846211,23.8323673 L5.68523753,23.6374956 C10.9557954,20.869215 16.2183303,21.0345341 19.7001364,21.6618666 C23.4893803,22.3401118 26.0554633,23.6922119 26.0864085,23.7015759 L26.2236515,23.7794062 L26.365193,23.7115236 C32.5858553,20.9449982 37.723181,21.1044652 40.9365168,21.7233121 C44.416603,22.3977535 46.4586407,23.7434165 46.4798424,23.7589244 L46.8715177,24.0184601 L46.9723731,23.5543983 L52.0549733,0.405705365 L0.353077509,0.405705365 Z" id="path3455" fill="#797979"></path>
                <path d="M36.161929,5.6713285 L36.161929,7.44065618 L37.0825108,7.44065618 L36.6266937,8.76464807 L37.0421191,8.76464807 L38.048598,7.54828317 L38.0488546,7.54828317 L38.0488546,5.6713285 L36.161929,5.6713285 Z M18.5466239,6.74862183 C15.7991719,6.74862183 14.1579456,8.28327447 14.1579456,10.8499546 C14.1579456,13.4175124 15.7348796,14.9553782 18.7112597,14.9553782 C21.4180282,14.9553782 22.6544326,13.9266256 22.9478297,12.167811 L20.5281377,12.167811 C20.3934719,12.8481041 19.7597363,13.082769 18.9311158,13.082769 C17.9621018,13.082769 17.3514776,12.413676 17.3514776,11.3211106 L22.8977234,11.3211106 C22.9215076,11.1941226 22.9340247,11.0258067 22.9340247,10.8499546 C22.9340247,8.6250303 21.4771633,6.74862183 18.5466239,6.74862183 Z M42.2527005,6.77265248 C39.8123997,6.77265248 38.2503035,7.75357871 38.2503035,9.42753878 C38.2503035,12.5557167 42.8895161,11.4955439 42.8895161,12.602154 C42.8895161,13.0202783 42.5516566,13.2384577 41.8935176,13.2384577 C41.1479893,13.2384577 40.6180986,12.8989287 40.6180986,12.2271209 L38.1846028,12.2271209 L38.1846028,12.271859 C38.1846028,13.6903794 39.1738368,14.8618109 41.8367646,14.8618109 C44.8415127,14.8618109 45.9910043,13.6698426 45.9915278,12.1366221 C45.9915278,8.95314285 41.140128,10.1499342 41.140128,8.92979558 C41.140128,8.6790381 41.4529442,8.3944723 42.2580697,8.3944723 C43.0491545,8.3944723 43.5138041,8.76534205 43.5138041,9.13635775 L45.7417606,9.13635775 C45.7417606,7.8503843 44.4242457,6.77265248 42.2527005,6.77265248 Z M32.4596595,6.92527334 L32.4596595,14.6874603 L35.3655915,14.6874603 L35.3655915,6.92527334 L32.4596595,6.92527334 Z M22.1305287,6.94035642 L25.9434926,14.7040769 L28.3325064,14.7040769 L32.0235272,6.94035642 L29.6230094,6.94035642 L27.5752831,11.4231134 L27.5221087,11.4231134 L25.4761716,6.94035642 L22.1305287,6.94035642 Z M6.72221818,7.0075914 L6.72221818,14.6910388 L14.018107,14.6910388 L14.018107,12.7292102 L9.62687084,12.7292102 L9.62687084,7.0075914 L6.72221818,7.0075914 Z M18.5691214,8.41006677 C19.3960206,8.41006677 19.6755577,9.08963167 19.6755577,9.94138784 L17.4578264,9.94138784 C17.4578264,9.17887438 17.747378,8.41006677 18.5691214,8.41006677 Z" id="path3457" fill="#FFFFFF"></path>
            </g>
        </g>
    </g>
</svg>