<?xml version="1.0" encoding="UTF-8"?>
<svg width="96px" height="19px" viewBox="0 0 96 19" version="1.1" xmlns="http://www.w3.org/2000/svg" xmlns:xlink="http://www.w3.org/1999/xlink">
    <title>Logo-Lufthansa</title>
    <defs>
    </defs>
    <g id="Native-Video" stroke="none" stroke-width="1" fill="none" fill-rule="evenodd">
        <g transform="translate(-276.000000, -3913.000000)" id="Trusted">
            <g transform="translate(147.000000, 3552.000000)">
                <g id="Group-2">
                    <g transform="translate(0.000000, 309.000000)">
                        <g id="Logo-Lufthansa" transform="translate(129.337611, 52.812982)" fill="#797979" fill-rule="nonzero">
                            <path d="M94.9558797,8.916943 C94.9558797,6.63717156 93.626995,5.83358612 91.2157855,5.83358612 C88.771943,5.83358612 87.5908129,6.76860967 87.4924609,8.52398836 L89.9036705,8.52398836 C89.9367566,8.06440819 90.1991796,7.71994968 91.2157855,7.71994968 C92.1177229,7.71994968 92.5446701,8.01500559 92.5446701,8.4582693 C92.5446701,8.85213041 92.2981103,8.99943175 91.6912288,9.06560404 L90.1166909,9.22876859 C87.9842208,9.45901191 87.0165643,10.3441796 87.0165643,11.9518037 C87.0165643,13.4443062 87.9352714,14.5928034 89.887354,14.5928034 C91.2153322,14.5928034 92.0035077,14.1667626 92.6919715,13.3133213 L92.6919715,14.3466968 L94.9558797,14.3466968 L94.9558797,8.916943 Z M90.4285165,12.7064398 C89.7885488,12.7064398 89.4114574,12.4109307 89.4114574,11.8534518 C89.4114574,11.427411 89.6743336,11.0661828 90.510552,10.9515144 L91.9377886,10.7543572 C92.1834419,10.7217243 92.4463181,10.6727749 92.5936195,10.6233723 L92.5936195,11.1319018 C92.5936195,12.0338393 91.7406314,12.7064398 90.4285165,12.7064398 Z M82.604776,7.75303583 C83.4409944,7.75303583 83.7034173,8.04809174 83.7854529,8.52398836 L86.1966624,8.52398836 C86.0815408,6.73552353 84.868231,5.83358612 82.604776,5.83358612 C80.1604803,5.83358612 78.9956667,6.99839976 78.9956667,8.57293773 C78.9956667,10.213648 80.0453586,10.9188815 81.8664564,11.1645348 L82.7357609,11.2796564 C83.5887489,11.3947781 83.916891,11.5910288 83.916891,12.0175228 C83.916891,12.477103 83.5230299,12.7064398 82.5553734,12.7064398 C81.6035802,12.7064398 81.1775394,12.4109307 81.1118203,11.8045024 L78.6679778,11.8045024 C78.7169272,13.4610759 79.7176698,14.5928034 82.5553734,14.5928034 C85.1632869,14.5928034 86.3938196,13.5594279 86.3938196,11.8203656 C86.3938196,10.0985263 85.3436744,9.44224222 83.2442904,9.16350277 L82.3745327,9.04883435 C81.6697524,8.95002914 81.4725953,8.75332521 81.4725953,8.39255024 C81.472142,8.03177528 81.7844209,7.75303583 82.604776,7.75303583 Z M78.0189455,14.3466968 L78.0189455,9.50796128 C78.0189455,6.78492613 76.9203042,5.83358612 74.7710644,5.83358612 C73.4430862,5.83358612 72.7378527,6.39106502 72.3933942,7.03103267 L72.3933942,6.07923942 L70.0637669,6.07923942 L70.0637669,14.3462436 L72.5406955,14.3462436 L72.5406955,9.62308294 C72.5406955,8.52444159 73.0981744,8.03222852 74.0336512,8.03222852 C75.0670267,8.03222852 75.5429234,8.52444159 75.5429234,9.62308294 L75.5429234,14.3471501 L78.0189455,14.3466968 Z M69.0444417,14.3466968 L69.0444417,8.916943 C69.0444417,6.63717156 67.715557,5.83358612 65.3043475,5.83358612 C62.860505,5.83358612 61.6798281,6.76860967 61.5810229,8.52398836 L63.9922325,8.52398836 C64.0248654,8.06440819 64.2877416,7.71994968 65.3043475,7.71994968 C66.2062849,7.71994968 66.6332321,8.01500559 66.6332321,8.4582693 C66.6332321,8.85213041 66.3871256,8.99943175 65.7802441,9.06560404 L64.2057061,9.22876859 C62.073236,9.45855868 61.1055795,10.3441796 61.1055795,11.9518037 C61.1055795,13.4443062 62.0238334,14.5928034 63.9754628,14.5928034 C65.3043475,14.5928034 66.0920697,14.1667626 66.7805335,13.3133213 L66.7805335,14.3466968 L69.0444417,14.3466968 Z M64.5170785,12.7064398 C63.8775641,12.7064398 63.5000194,12.4109307 63.5000194,11.8534518 C63.5000194,11.427411 63.7624424,11.0661828 64.599114,10.9515144 L66.0263506,10.7543572 C66.2724572,10.721271 66.5348802,10.6727749 66.6826347,10.6233723 L66.6826347,11.1319018 C66.6826347,12.0338393 65.8291934,12.7064398 64.5170785,12.7064398 Z M60.3672599,14.3466968 L60.3672599,9.50796128 C60.3672599,6.78492613 59.2681653,5.83358612 57.1687814,5.83358612 C56.0039678,5.83358612 55.3313672,6.2763966 54.9053264,6.8832781 L54.9053264,2.88121412 L52.4116281,2.88121412 L52.4116281,14.3466968 L54.8885567,14.3466968 L54.8885567,9.62217647 C54.8885567,8.52353512 55.4460356,8.03132205 56.3810592,8.03132205 C57.4144347,8.03132205 57.8903313,8.52353512 57.8903313,9.62217647 L57.8903313,14.3462436 L60.3672599,14.3466968 Z M51.6850926,14.3630133 L51.6850926,12.3782978 C51.6850926,12.3782978 51.274915,12.4277004 50.9798591,12.4277004 C50.257856,12.4277004 49.7982758,12.1979103 49.7982758,11.3127426 L49.7982758,8.0970411 L51.6850926,8.0970411 L51.6850926,6.07969266 L49.7982758,6.07969266 L49.7982758,3.66848311 L47.3218004,3.66848311 L47.3218004,6.07969266 L46.0754045,6.07969266 L46.0754045,8.0970411 L47.3218004,8.0970411 L47.3218004,11.591482 C47.3218004,13.5920608 48.519247,14.4939982 50.5035093,14.4939982 C51.1112972,14.4939982 51.6850926,14.3630133 51.6850926,14.3630133 Z M45.4354369,8.0970411 L45.4354369,6.07969266 L43.6143391,6.07969266 L43.6143391,5.75155061 C43.6143391,5.03000068 44.0249699,4.76757769 44.7959224,4.76757769 C45.0914316,4.76757769 45.4354369,4.8002106 45.4354369,4.8002106 L45.4354369,2.79917861 C45.4354369,2.79917861 45.0257125,2.70082664 44.3857449,2.70082664 C42.4010293,2.70082664 41.138317,3.76683507 41.138317,5.76786706 L41.138317,6.07969266 L39.8919211,6.07969266 L39.8919211,8.0970411 L41.138317,8.0970411 L41.138317,14.3466968 L43.6143391,14.3466968 L43.6143391,8.0970411 L45.4354369,8.0970411 Z M39.2351837,14.3466968 L39.2351837,6.07969266 L36.7587083,6.07969266 L36.7587083,10.8037598 C36.7587083,11.9028544 36.2012294,12.3946142 35.2988388,12.3946142 C34.2980962,12.3946142 33.8221996,11.9024011 33.8221996,10.8037598 L33.8221996,6.07969266 L31.3457242,6.07969266 L31.3457242,10.9184282 C31.3457242,13.6410101 32.4448188,14.5923501 34.5605192,14.5923501 C35.8567709,14.5923501 36.5615512,14.0348712 36.9060097,13.3949036 L36.9060097,14.3462436 L39.2351837,14.3466968 Z M23.1933884,14.3466968 L30.7882453,14.3466968 L30.7882453,12.033386 L25.8507045,12.033386 L25.8507045,2.86489767 L23.1933884,2.86489767 L23.1933884,14.3466968 Z M17.2229254,8.61146269 C17.2229254,3.84071236 13.382213,0 8.61146269,0 C3.85793529,0 0,3.84071236 0,8.61146269 C0,13.3649901 3.85793529,17.2229254 8.61146269,17.2229254 C13.382213,17.2229254 17.2229254,13.3649901 17.2229254,8.61146269 Z M8.61146269,16.6029001 C4.21961672,16.6029001 0.620025314,13.0037619 0.620025314,8.61146269 C0.620025314,4.20239379 4.21961672,0.620025314 8.61146269,0.620025314 C13.0205316,0.620025314 16.6029001,4.20239379 16.6029001,8.61146269 C16.6029001,13.0033087 13.0205316,16.6029001 8.61146269,16.6029001 Z M10.9193347,8.11199785 L11.1432327,7.7330935 L11.5049142,7.7330935 C12.7966336,7.7330935 13.7611174,7.8019852 14.6394866,7.95699153 L15.0356139,7.57808717 C14.0539071,7.40585791 12.8655253,7.30252036 11.6599205,7.30252036 L11.3671308,7.30252036 L11.5565829,6.94083893 L11.8838185,6.94083893 C13.1410921,6.94083893 14.2778051,7.04417648 15.3800724,7.25085158 L15.7934226,6.8547243 C14.5533719,6.61360335 13.2272067,6.4934961 11.7977039,6.4934961 C11.1881928,6.49544286 10.5790618,6.52417546 9.97207379,6.57961073 C9.28315678,8.06032908 8.18088956,8.92192858 6.94083893,8.90470566 C6.45859702,8.8870295 5.85534139,8.68080763 5.08076299,8.26700418 L4.35740012,7.85365397 L4.58129815,7.64697887 L6.25192191,8.37034173 L6.61360335,8.09477493 L3.23790997,6.56193457 L2.72122221,6.95806185 L1.51561743,6.45859702 L1.53284036,6.95806185 C3.15179534,7.69864764 3.82348943,8.11199785 5.52855905,9.33482556 C7.75031642,10.9193347 9.73095284,11.780481 12.4866209,12.3316146 L13.2099838,11.6426976 L13.0377545,11.6426976 C11.2121244,11.6426976 9.57594651,11.0398952 8.62868562,10.0237426 C9.42094018,9.54150066 10.4021937,9.31805587 11.763258,9.31805587 C12.1249395,9.31805587 12.6416272,9.35204848 13.1238691,9.40371726 L13.5372193,9.00758997 C12.8914536,8.92884865 12.2415756,8.88859073 11.5910288,8.8870295 C11.1541916,8.88634015 10.7175101,8.90357758 10.2820865,8.93869827 L10.5920991,8.55979391 C10.9591278,8.53802134 11.3266944,8.52653489 11.6943663,8.52534806 C12.6071814,8.52534806 13.2099838,8.55979391 13.8989008,8.66313147 L14.2950281,8.28422711 C13.5716652,8.16411986 12.5727355,8.09477493 11.6599205,8.09477493 C11.4704683,8.09477493 11.2293473,8.09477493 10.9193347,8.11199785 Z" id="Shape"></path>
                        </g>
                    </g>
                </g>
            </g>
        </g>
    </g>
</svg>
