<?xml version="1.0" encoding="UTF-8"?>
<svg width="90px" height="20px" viewBox="0 0 90 20" version="1.1" xmlns="http://www.w3.org/2000/svg" xmlns:xlink="http://www.w3.org/1999/xlink">
    <title>Logo-Microsoft</title>
    <g id="Page-1" stroke="none" stroke-width="1" fill="none" fill-rule="evenodd">
        <g id="Desktop-HD" transform="translate(-87.000000, -706.000000)" fill-rule="nonzero">
            <g id="Logo-Microsoft" transform="translate(87.125000, 706.281250)">
                <path d="M31.4057665,10.9448802 L30.8754627,12.4474074 L30.8312708,12.4474074 C30.7428868,12.1086023 30.5808496,11.5930292 30.3156977,10.9743415 L27.4726804,3.82997151 L24.6885857,3.82997151 L24.6885857,15.2167715 L26.5299181,15.2167715 L26.5299181,8.19024679 C26.5299181,7.748327 26.5299181,7.24748457 26.5151875,6.62879686 C26.5004568,6.319453 26.4709955,6.08376245 26.4562648,5.90699453 L26.5004568,5.90699453 C26.5888408,6.34891432 26.6919554,6.67298884 26.7656087,6.87921807 L30.1831217,15.1873101 L31.4794198,15.1873101 L34.8674715,6.80556477 C34.9411248,6.6140662 35.0147781,6.23106905 35.0884314,5.90699453 L35.1326234,5.90699453 C35.0884314,6.74664214 35.0589701,7.49790578 35.0442394,7.95455623 L35.0442394,15.1725795 L37.0034172,15.1725795 L37.0034172,3.80051019 L34.3224371,3.80051019 L31.4057665,10.9448802 L31.4057665,10.9448802 Z M38.8594803,7.01179401 L40.7744661,7.01179401 L40.7744661,15.1725795 L38.8594803,15.1725795 L38.8594803,7.01179401 Z M39.8317038,3.56481964 C39.5076293,3.56481964 39.2424775,3.68266492 39.0215176,3.88889415 C38.8005577,4.09512339 38.6827124,4.36027526 38.6827124,4.68434978 C38.6827124,4.99369363 38.8005577,5.25884551 39.0215176,5.46507474 C39.2424775,5.67130398 39.5076293,5.7744186 39.8317038,5.7744186 C40.1557784,5.7744186 40.4356609,5.65657332 40.6418901,5.46507474 C40.86285,5.25884551 40.9806953,4.99369363 40.9806953,4.68434978 C40.9806953,4.37500592 40.86285,4.10985405 40.6418901,3.88889415 C40.4503916,3.68266492 40.170509,3.56481964 39.8317038,3.56481964 M47.5653002,6.93814071 C47.2117644,6.86448742 46.8434979,6.82029544 46.489962,6.82029544 C45.6208531,6.82029544 44.8253975,7.01179401 44.1625178,7.39479116 C43.4996381,7.77778832 42.9693344,8.30809207 42.6305292,8.97097175 C42.2769934,9.6485821 42.1002254,10.4293071 42.1002254,11.3278773 C42.1002254,12.1086023 42.2769934,12.8009433 42.6157985,13.4343616 C42.9546037,14.0530494 43.4259848,14.5538918 44.0594032,14.892697 C44.6633602,15.2315021 45.3704319,15.40827 46.1658875,15.40827 C47.0791884,15.40827 47.8599134,15.2167715 48.4786011,14.8632356 L48.4933318,14.848505 L48.4933318,13.0808258 L48.4196785,13.1397485 C48.1397959,13.3459777 47.8157214,13.5227456 47.4916469,13.6258602 C47.1528417,13.7437055 46.8434979,13.8026281 46.578346,13.8026281 C45.8123517,13.8026281 45.2083946,13.5816682 44.7812055,13.0955565 C44.3392857,12.6241754 44.1183258,11.9760263 44.1183258,11.16584 C44.1183258,10.3261924 44.3392857,9.66331276 44.7959362,9.17720099 C45.2525866,8.69108922 45.8565437,8.440668 46.5930767,8.440668 C47.2117644,8.440668 47.8451827,8.64689724 48.4196785,9.05935571 L48.4933318,9.11827835 L48.4933318,7.24748457 L48.4786011,7.23275391 C48.2281799,7.12963929 47.9482973,7.01179401 47.5653002,6.93814071 M53.8847532,6.87921808 C53.4133721,6.87921808 52.9714523,7.02652467 52.5884552,7.33586853 C52.2643806,7.6010204 52.0434207,7.98401755 51.8519222,8.440668 L51.8371915,8.440668 L51.8371915,7.01179401 L49.9222057,7.01179401 L49.9222057,15.1725795 L51.8371915,15.1725795 L51.8371915,11.0038028 C51.8371915,10.2967311 51.9844981,9.70750474 52.3085726,9.28031561 C52.6326471,8.83839582 53.0451056,8.61743592 53.545948,8.61743592 C53.7227159,8.61743592 53.8994839,8.6616279 54.1204438,8.69108922 C54.326673,8.75001186 54.4739796,8.8089345 54.5770942,8.8825878 L54.6507475,8.94151043 L54.6507475,7.02652467 L54.6065555,7.01179401 C54.4739796,6.92341006 54.2088277,6.87921808 53.8847532,6.87921808 M59.0994067,6.8350261 C57.7589167,6.8350261 56.6835785,7.23275391 55.9323149,8.01347887 C55.1663206,8.79420384 54.7980541,9.869542 54.7980541,11.2247627 C54.7980541,12.4915994 55.1810513,13.5227456 55.9175842,14.2740092 C56.6541172,15.0105422 57.6558021,15.3935394 58.9079082,15.3935394 C60.2189369,15.3935394 61.2648137,14.9958116 62.0160774,14.200356 C62.7820717,13.4049003 63.1503382,12.3442928 63.1503382,11.0332641 C63.1503382,9.73696606 62.7968023,8.70581988 62.075,7.95455624 C61.382659,7.20329259 60.3662435,6.8350261 59.0994067,6.8350261 M60.6313954,13.1102871 C60.2778595,13.5669376 59.7180944,13.7878975 59.0257534,13.7878975 C58.3334124,13.7878975 57.7736474,13.5669376 57.3759196,13.0808258 C56.9781917,12.6241754 56.7866932,11.9612957 56.7866932,11.1216481 C56.7866932,10.2525392 56.9929224,9.58965946 57.3759196,9.11827835 C57.7736474,8.64689724 58.3186818,8.41120669 59.0110228,8.41120669 C59.6886331,8.41120669 60.2189369,8.63216658 60.601934,9.08881703 C60.9849312,9.54546748 61.1911604,10.2083472 61.1911604,11.0774561 C61.1616991,11.9612957 60.9996618,12.6536367 60.6313954,13.1102871 M67.4222295,10.3998457 C66.8182724,10.1494245 66.4352753,9.95792596 66.2585074,9.7958887 C66.1112008,9.6485821 66.0375475,9.44235287 66.0375475,9.17720099 C66.0375475,8.9562411 66.1259314,8.7352812 66.3468913,8.5879746 C66.5678512,8.44066801 66.8182724,8.36701471 67.1865389,8.36701471 C67.5106134,8.36701471 67.8494186,8.42593735 68.1734931,8.51432131 C68.4975676,8.60270526 68.7921808,8.7352812 69.0278714,8.91204912 L69.1015247,8.97097176 L69.1015247,7.17383127 L69.0573327,7.15910061 C68.8363728,7.07071665 68.5417596,6.9823327 68.1882238,6.9086794 C67.8346879,6.84975676 67.5106134,6.82029544 67.2454616,6.82029544 C66.3321607,6.82029544 65.580897,7.04125534 64.9916706,7.52736711 C64.4024442,7.98401756 64.1225617,8.60270526 64.1225617,9.32450759 C64.1225617,9.70750474 64.1814843,10.0463099 64.3140603,10.3261924 C64.4466362,10.606075 64.6381348,10.8712269 64.9032867,11.0921868 C65.1684385,11.298416 65.5514357,11.5341065 66.0817394,11.7550664 C66.5236592,11.946565 66.8624644,12.0938716 67.0686936,12.2117169 C67.2749229,12.3295622 67.4074988,12.4621381 67.5106134,12.5652527 C67.5842667,12.683098 67.6284587,12.8304046 67.6284587,13.0219032 C67.6284587,13.5669376 67.2160002,13.8320895 66.3763526,13.8320895 C66.0522781,13.8320895 65.7134729,13.7731668 65.3157451,13.6405909 C64.9180173,13.5080149 64.5497508,13.3165164 64.240407,13.0955565 L64.1667537,13.0366338 L64.1667537,14.9074276 L64.2109457,14.9221583 C64.4908282,15.0547342 64.8296334,15.1431182 65.2420918,15.2462328 C65.6545503,15.3198861 66.0228168,15.3788087 66.3468913,15.3788087 C67.3338455,15.3788087 68.1440318,15.1578488 68.7185275,14.6717371 C69.3077539,14.200356 69.6170978,13.5963989 69.6170978,12.8156739 C69.6170978,12.2706395 69.4697912,11.7845278 69.1457167,11.4162613 C68.7185275,11.0627254 68.1882238,10.6944589 67.4222295,10.3998457 M74.669714,6.8350261 C73.329224,6.8350261 72.2538859,7.23275391 71.5026222,8.01347888 C70.7513586,8.79420384 70.3683614,9.869542 70.3683614,11.2247627 C70.3683614,12.4915994 70.7513586,13.5227456 71.4878916,14.2740093 C72.2244245,15.0105422 73.2261094,15.3935394 74.4782155,15.3935394 C75.7892442,15.3935394 76.835121,14.9958116 77.5863847,14.200356 C78.352379,13.4049003 78.7206455,12.3442928 78.7206455,11.0332641 C78.7206455,9.73696606 78.3671096,8.70581988 77.6453073,7.95455624 C76.9529663,7.20329259 75.9365508,6.8350261 74.669714,6.8350261 M76.186972,13.1102871 C75.8334362,13.5669376 75.2736711,13.7878975 74.5813301,13.7878975 C73.8742584,13.7878975 73.329224,13.5669376 72.9314962,13.0808258 C72.5337684,12.6241754 72.3422698,11.9612957 72.3422698,11.1216481 C72.3422698,10.2525392 72.5484991,9.58965947 72.9314962,9.11827836 C73.329224,8.64689725 73.8742584,8.41120669 74.5665994,8.41120669 C75.2294791,8.41120669 75.7745135,8.63216659 76.1575107,9.08881704 C76.5405078,9.54546749 76.7467371,10.2083472 76.7467371,11.0774561 C76.7467371,11.9612957 76.5552385,12.6536367 76.186972,13.1102871 M88.958454,8.58797461 L88.958454,7.01179402 L87.0287375,7.01179402 L87.0287375,4.59596583 L86.9698149,4.61069649 L85.1432131,5.1557309 L85.0990211,5.17046156 L85.0990211,7.01179402 L82.2118118,7.01179402 L82.2118118,5.98064784 C82.2118118,5.50926673 82.3296571,5.14100024 82.5358863,4.90530968 C82.7421156,4.66961913 83.0514594,4.55177385 83.4344566,4.55177385 C83.6996084,4.55177385 83.979491,4.61069649 84.2888348,4.74327242 L84.3624881,4.7874644 L84.3624881,3.12289986 L84.3182962,3.1081692 C84.0531443,3.01978524 83.6996084,2.9608626 83.242958,2.9608626 C82.6684623,2.9608626 82.1676198,3.09343854 81.7109694,3.31439843 C81.2543189,3.56481965 80.9155138,3.90362482 80.6650925,4.36027527 C80.4146713,4.80219506 80.2820954,5.30303749 80.2820954,5.87753322 L80.2820954,7.01179402 L78.9416054,7.01179402 L78.9416054,8.57324395 L80.2820954,8.57324395 L80.2820954,15.1725795 L82.2118118,15.1725795 L82.2118118,8.58797461 L85.0990211,8.58797461 L85.0990211,12.7862126 C85.0990211,14.5096998 85.9092074,15.3788087 87.52958,15.3788087 C87.7947318,15.3788087 88.0746144,15.3346168 88.3397663,15.2904248 C88.6196488,15.2315021 88.825878,15.1578488 88.9437233,15.0989262 L88.958454,15.0841955 L88.958454,13.5080149 L88.8848007,13.5669376 C88.7669554,13.6405909 88.6638408,13.6995135 88.4870729,13.7437055 C88.3397663,13.7878975 88.2071903,13.8026281 88.1040757,13.8026281 C87.7210785,13.8026281 87.4559267,13.7142442 87.2644281,13.4932843 C87.0876602,13.2870551 86.9992762,12.9482499 86.9992762,12.4474074 L86.9992762,8.58797461 L88.958454,8.58797461 L88.958454,8.58797461 Z" id="Shape" fill="#797979"></path>
                <polygon id="Path" fill="#797979" points="3.21853655e-13 3.23296945e-13 9.0298944 3.23296945e-13 9.0298944 9.0298944 3.21853655e-13 9.0298944"></polygon>
                <polygon id="Path" fill="#898989" points="9.97265662 3.23296945e-13 19.002551 3.23296945e-13 19.002551 9.0298944 9.97265662 9.0298944"></polygon>
                <polygon id="Path" fill="#8B8B8B" points="3.21853655e-13 9.97265662 9.0298944 9.97265662 9.0298944 19.002551 3.21853655e-13 19.002551"></polygon>
                <polygon id="Path" fill="#A9A9A9" points="9.97265662 9.97265662 19.002551 9.97265662 19.002551 19.002551 9.97265662 19.002551"></polygon>
            </g>
        </g>
    </g>
</svg>