<?xml version="1.0" encoding="UTF-8"?>
<svg width="45px" height="19px" viewBox="0 0 45 19" version="1.1" xmlns="http://www.w3.org/2000/svg" xmlns:xlink="http://www.w3.org/1999/xlink">
    <title>Logo-Msn</title>
    <defs>
    </defs>
    <g id="Native-Video" stroke="none" stroke-width="1" fill="none" fill-rule="evenodd">
        <g transform="translate(-796.000000, -3914.000000)" id="Trusted">
            <g transform="translate(147.000000, 3552.000000)">
                <g id="Logos-Publishers">
                    <g transform="translate(649.000000, 316.000000)">
                        <path d="M4.89099872,46 C6.14647362,46 9.1229438,47.3810931 9.1229438,52.6806585 C9.1229438,58.3831893 6.14734526,64.9576652 2.39211961,64.9576652 C1.28469965,64.9576652 0.340815421,64.2625914 0.340815421,62.6870669 C0.340815421,60.2548729 2.43386639,58.4078315 3.38350677,57.8854596 C3.38350677,57.8854596 4.71216628,58.6508576 6.09056888,59.1433943 C3.35180403,57.4105972 1.6017508,54.2534503 1.6017508,50.7492958 C1.6017508,47.4744558 3.33033292,46 4.89099872,46 Z M13.6004073,51.2753933 C14.2364703,51.2753933 14.3886471,51.7272697 14.3886471,52.2639243 C14.3886471,54.4808449 12.3808172,57.2487292 10.7058851,59.0156537 C10.7727157,61.7225146 9.01288154,64.3007387 7.90827903,64.3007387 C7.46689299,64.3007387 7.1781872,63.9771432 7.1781872,63.1506823 C7.1781872,62.5025951 7.40966234,61.6826407 7.6563002,61.0056366 C8.71183136,58.3065476 9.50697265,56.339946 10.3569924,54.6157247 C11.238399,52.9514197 12.6279633,51.2753933 13.6004073,51.2753933 Z M33.9137457,52.8647977 C34.8829605,52.8647977 35.5737988,53.2140314 35.6563676,53.2576856 L35.6646734,53.262148 L35.6646734,54.5478844 C35.6646734,54.5478844 34.8932076,53.9890085 33.8459056,53.9890085 C32.9490694,53.9890085 32.4147976,54.4745014 32.4147976,55.1455255 C32.4147976,56.9309951 36.037795,56.2878349 36.037795,58.978505 C36.037795,60.2200771 35.1419694,61.3577626 33.102892,61.3577626 C31.8385087,61.3577626 31.1541868,60.9170743 31.0780534,60.8652286 L31.0709124,60.8602668 L31.0709124,59.4711546 C31.0709124,59.4711546 31.9807124,60.2206291 33.1933461,60.2206291 C34.0404575,60.2206291 34.6955254,59.9319088 34.6955254,59.1351836 C34.6955254,57.4016039 31.0838342,57.9219929 31.0838342,55.2618231 C31.0838342,53.953684 32.1701734,52.8647977 33.9137457,52.8647977 Z M26.9822811,52.8795714 C28.7641624,52.8795714 29.6551335,53.9787642 29.6551335,56.1771295 L29.6551335,61.1669608 L28.3582539,61.1669608 L28.3582539,56.517164 C28.3582418,55.6209497 28.2198578,54.97251 27.9430939,54.5718406 C27.6663098,54.1711875 27.2010662,53.9708569 26.547363,53.9708488 C25.9938068,53.9708569 25.5232957,54.2239069 25.1358214,54.7299989 C24.7483268,55.2361031 24.5545877,55.8423706 24.5545958,56.5487972 L24.5545958,61.1669608 L23.2577122,61.1669608 L23.2577122,56.3590097 C23.2577082,54.7669078 22.6435334,53.9708569 21.415192,53.9708488 C20.8458253,53.9708569 20.37663,54.2094082 20.007602,54.6865067 C19.638566,55.1636174 19.454054,55.7843796 19.454054,56.5487972 L19.454054,61.1669608 L18.1571745,61.1669608 L18.1571745,53.0693589 L19.454054,53.0693589 L19.454054,54.3504239 L19.4856752,54.3504239 C20.0603053,53.369861 20.8985326,52.8795714 22.0003571,52.8795714 C22.553901,52.8795714 23.0362752,53.0337821 23.4474876,53.3421752 C23.8586879,53.6505886 24.1407354,54.0552055 24.2936263,54.556026 C24.89461,53.438395 25.7908283,52.8795714 26.9822811,52.8795714 Z M41.4941148,52.8795714 C42.3797819,52.8795714 43.0572192,53.1655787 43.5264226,53.737569 C43.9956098,54.3095715 44.2302297,55.1359398 44.2302297,56.216666 L44.2302297,61.1669608 L42.9333462,61.1669608 L42.9333462,56.5487972 C42.9333421,54.8301703 42.3059885,53.9708569 41.0512894,53.9708488 C40.4028415,53.9708569 39.8664321,54.2146797 39.4420489,54.7023213 C39.0176577,55.1899751 38.8054681,55.8054657 38.8054681,56.5487972 L38.8054681,61.1669608 L37.5085886,61.1669608 L37.5085886,53.0693589 L38.8054681,53.0693589 L38.8054681,54.4136864 L38.8370892,54.4136864 C39.4486242,53.3909512 40.3342953,52.8795714 41.4941148,52.8795714 Z" id="Logo-Msn" fill="#797979" fill-rule="nonzero"></path>
                    </g>
                </g>
            </g>
        </g>
    </g>
</svg>
