<?xml version="1.0" encoding="UTF-8"?>
<svg width="89px" height="17px" viewBox="0 0 89 17" version="1.1" xmlns="http://www.w3.org/2000/svg" xmlns:xlink="http://www.w3.org/1999/xlink">
    <title>Logo-Nespresso</title>
    <defs>

    </defs>
    <g id="Native-Video" stroke="none" stroke-width="1" fill="none" fill-rule="evenodd">
        <g transform="translate(-147.000000, -3871.000000)" id="Trusted">
            <g transform="translate(147.000000, 3552.000000)">
                <g id="Group-2">
                    <g transform="translate(0.000000, 309.000000)">
                        <g id="Logo-Nespresso" transform="translate(0.000000, 10.000000)" fill="#797979" fill-rule="nonzero">
                            <path d="M80.5280202,2.53751101 L80.484644,2.53751101 L80.4412677,2.53751101 C79.2050444,2.53751101 75.1493644,2.92789731 75.1276763,8.00291933 C75.1276763,13.2948226 79.5737426,13.5550802 80.4629558,13.5550802 L80.5063321,13.5550802 C81.0702234,13.5550802 83.0004668,13.4466395 84.388507,12.0802874 C85.3644728,11.1260098 85.8416116,9.73796959 85.8416116,8.00291933 C85.8199235,2.92789731 81.7642435,2.53751101 80.5280202,2.53751101 Z M82.1112536,11.4079555 C81.8076198,11.668213 81.3087928,11.9718468 80.5497083,11.9718468 L80.3978914,11.9718468 C79.638807,11.9718468 79.13998,11.668213 78.8363462,11.4079555 C78.0772617,10.7356235 77.6868754,9.5210883 77.6868754,7.80772617 C77.7085635,4.44606629 79.3785494,3.94723934 80.3762033,3.94723934 L80.5280202,3.94723934 C81.5256741,3.94723934 83.19566,4.44606629 83.2173481,7.80772617 C83.2607244,9.5210883 82.8703381,10.7356235 82.1112536,11.4079555 Z" id="Shape"></path>
                            <path d="M16.4396012,15.2033779 C15.4636354,14.8346797 14.032219,13.7719614 13.186382,12.7743075 C12.1453518,11.5814605 9.62952895,8.24148874 9.60784082,8.21980061 C9.26083077,7.76434992 8.87044446,7.24383484 8.45837002,6.70163163 C7.35227548,5.18346265 6.09436404,3.49178865 4.8364526,2.47244662 L4.8364526,13.533392 L6.35462158,13.533392 L6.35462158,7.80772617 L6.37630971,7.85110243 C6.78838414,8.37161751 7.22214671,8.93550884 7.65590927,9.49940018 C8.37161751,10.4103016 9.08732574,11.3645792 9.69459333,12.0585993 C10.1066678,12.5357381 11.1910742,13.6852089 11.494708,13.9454665 C12.8827482,15.2684423 15.1383135,16.1142793 17.3721907,16.1142793 C18.3481565,16.1142793 19.280746,15.9624624 20.1482711,15.6805167 L20.1482711,15.6154523 C19.8012611,15.6805167 19.4108748,15.723893 19.0204885,15.723893 C18.1746515,15.6805167 17.2854382,15.5286998 16.4396012,15.2033779 Z" id="Path"></path>
                            <path d="M6.87513666,3.33997175 C7.91616681,4.51113068 10.5187422,7.85110243 10.5621185,7.89447869 C10.9091285,8.34992938 11.2995148,8.87044446 11.7115893,9.41264766 C12.8176838,10.9308166 14.0755952,12.6224906 15.3118185,13.6418327 L15.3118185,2.53751101 L13.8153377,2.53751101 L13.8153377,8.28486499 L13.7719614,8.24148874 C13.359887,7.72097366 12.9261244,7.15708232 12.4923619,6.59319099 C11.7766536,5.6822896 11.0609454,4.72801196 10.4536778,4.03399186 C10.0416034,3.55685303 8.87044446,2.40738224 8.56681066,2.1471247 C7.17877045,0.824148874 4.92320511,0 2.6893279,0 C1.71336213,0 0.86752513,0.151816898 0,0.455450693 L0,0.520515078 C0.347010052,0.433762565 0.737396361,0.412074437 1.1494708,0.412074437 C1.9953078,0.412074437 2.81945667,0.585579463 3.64360555,0.910901387 C4.61957132,1.25791144 6.05098778,2.32062972 6.87513666,3.33997175 Z" id="Path"></path>
                            <path d="M65.5198355,8.17642435 C64.2836122,7.11370607 62.9172601,6.85344853 61.8762299,6.1377403 C61.1605217,5.55216083 61.1822098,4.77138822 61.5725961,4.38100191 C62.4618094,3.40503614 64.2402359,3.79542244 64.6956866,3.90386309 C65.2378898,4.03399186 65.5198355,4.18580875 66.0186624,4.42437816 L66.0186624,3.18815485 C63.8498496,2.53751101 60.3797491,1.93024341 59.0350851,4.1424325 C58.5362582,5.05333388 58.4061294,6.70163163 59.859234,7.6775974 C61.3123386,8.8270682 63.8281615,9.36927141 64.1101071,10.323549 C64.3053003,10.8440641 64.088419,11.3428911 63.7414089,11.6899011 C62.4618094,12.9044363 60.2496203,12.16704 58.9266445,11.5597724 L58.9266445,12.8827482 C60.3797491,13.533392 62.2015518,13.7068971 63.8281615,13.359887 C64.934256,13.0779413 66.1921674,12.1019756 66.3656725,10.8657523 C66.5608656,9.62952895 66.3222962,8.84875633 65.5198355,8.17642435 Z" id="Path"></path>
                            <path d="M73.5444429,8.17642435 C72.3082196,7.11370607 70.9418675,6.85344853 69.9008374,6.1377403 C69.1851291,5.55216083 69.2068173,4.77138822 69.5972036,4.38100191 C70.4864168,3.40503614 72.2648433,3.79542244 72.720294,3.90386309 C73.2624972,4.03399186 73.5444429,4.18580875 74.0432699,4.42437816 L74.0432699,3.18815485 C71.874457,2.53751101 68.4043565,1.93024341 67.0596926,4.1424325 C66.5608656,5.05333388 66.4307368,6.70163163 67.8838414,7.6775974 C69.336946,8.8270682 71.8527689,9.36927141 72.1347146,10.323549 C72.3299077,10.8440641 72.1130265,11.3428911 71.7660164,11.6899011 C70.4647287,12.9044363 68.2742277,12.16704 66.9512519,11.5597724 L66.9512519,12.8827482 C68.4043565,13.533392 70.2261593,13.7068971 71.8527689,13.359887 C72.9588635,13.0779413 74.2167749,12.1019756 74.411968,10.8657523 C74.5637849,9.62952895 74.3252155,8.84875633 73.5444429,8.17642435 Z" id="Path"></path>
                            <polygon id="Path" points="51.1406064 13.2514464 58.1024956 13.2514464 58.1024956 11.9935349 53.5479887 11.9935349 53.5479887 8.5234344 57.1915942 8.5234344 57.1915942 7.30889922 53.5479887 7.30889922 53.5479887 4.09905624 58.1024956 4.09905624 58.1024956 2.8411448 51.1406064 2.8411448"></polygon>
                            <path d="M31.1441522,8.17642435 C29.9079289,7.11370607 28.5415768,6.85344853 27.5005466,6.1377403 C26.7848384,5.55216083 26.8065265,4.77138822 27.1969128,4.38100191 C28.0861261,3.40503614 29.8645526,3.79542244 30.3200033,3.90386309 C30.8622065,4.03399186 31.1441522,4.18580875 31.6429791,4.42437816 L31.6429791,3.18815485 C29.4741663,2.53751101 26.0040658,1.93024341 24.6594018,4.1424325 C24.1605749,5.05333388 24.0304461,6.70163163 25.4835507,7.6775974 C26.9366553,8.8270682 29.4524782,9.36927141 29.7344238,10.323549 C29.929617,10.8440641 29.7127357,11.3428911 29.3657257,11.6899011 C28.0861261,12.9044363 25.873937,12.16704 24.5509612,11.5597724 L24.5509612,12.8827482 C26.0040658,13.533392 27.8258686,13.7068971 29.4524782,13.359887 C30.5585727,13.0779413 31.8164842,12.1019756 32.0116773,10.8657523 C32.1634942,9.62952895 31.9249248,8.84875633 31.1441522,8.17642435 Z" id="Path"></path>
                            <polygon id="Path" points="16.7866113 13.2514464 23.7701886 13.2514464 23.7701886 11.9935349 19.1939935 11.9935349 19.1939935 8.5234344 22.8375991 8.5234344 22.8375991 7.30889922 19.1939935 7.30889922 19.1939935 4.09905624 23.7701886 4.09905624 23.7701886 2.8411448 16.7866113 2.8411448"></polygon>
                            <path d="M37.6505907,2.73270416 L33.0743956,2.73270416 L33.0743956,13.3815751 L35.503466,13.3815751 C35.503466,13.3815751 35.503466,13.1430057 35.503466,12.7309313 L35.4600897,9.47771205 C35.4600897,9.47771205 39.1036952,9.71628146 40.2097898,8.24148874 C41.0122505,7.30889922 41.0773149,5.85579463 40.7303049,4.6846357 C40.2748542,3.36165988 38.9952546,2.75439229 37.6505907,2.73270416 Z M38.1711057,7.5257805 C37.5204619,8.24148874 36.4143673,8.1330481 35.4600897,8.06798371 L35.4600897,4.09905624 C35.4600897,4.09905624 37.4120212,3.66529368 38.2361701,4.74970009 C38.6916208,5.33527955 38.7133089,6.78838414 38.1711057,7.5257805 Z" id="Shape"></path>
                            <path d="M48.7982886,8.21980061 C49.5790612,7.30889922 49.6441256,5.87748276 49.3188037,4.72801196 C48.8850411,3.44841239 47.6271297,2.8411448 46.3041538,2.81945667 L41.8147113,2.81945667 L41.8147113,13.2514464 L44.2004054,13.2514464 L44.1787173,9.41264766 C44.1787173,9.41264766 44.6124798,9.45602392 45.3281881,9.41264766 L47.6271297,13.2731345 L50.2513932,13.2731345 L47.6054415,8.9788851 C48.0392041,8.80538007 48.538031,8.56681066 48.7982886,8.21980061 Z M46.8680452,7.5257805 C46.2174013,8.21980061 45.1329949,8.1330481 44.2220935,8.06798371 L44.2220935,4.16412063 C44.2220935,4.16412063 46.1306488,3.73035806 46.9331095,4.79307634 C47.3885602,5.37865581 47.4102484,6.81007227 46.8680452,7.5257805 Z" id="Shape"></path>
                            <path d="M87.1862756,10.9308166 C86.4271911,10.9308166 85.8199235,11.5163961 85.8199235,12.2537925 C85.8199235,12.9911888 86.4271911,13.5767683 87.1862756,13.5767683 C87.9019838,13.5767683 88.5092514,13.012877 88.5092514,12.2537925 C88.5092514,11.5163961 87.9019838,10.9308166 87.1862756,10.9308166 Z M87.1862756,13.4249514 C86.5139436,13.4249514 85.9500523,12.9261244 85.9500523,12.2537925 C85.9500523,11.6031486 86.4922555,11.0826335 87.1862756,11.0826335 C87.8369194,11.0826335 88.3791226,11.6248367 88.3791226,12.2537925 C88.3791226,12.9261244 87.8369194,13.4249514 87.1862756,13.4249514 Z" id="Shape"></path>
                            <path d="M87.5549738,12.2537925 C87.59835,12.2104162 87.7935432,12.1453518 87.7935432,11.8850943 C87.7935432,11.6248367 87.6200382,11.4730198 87.3164044,11.4730198 L86.6006961,11.4730198 L86.6006961,12.9478126 L86.8392655,12.9478126 L86.8392655,12.3622331 L87.25134,12.3622331 C87.4899094,12.3622331 87.5549738,12.4706737 87.5549738,12.7309313 C87.5549738,12.8393719 87.5549738,12.9044363 87.59835,12.9695007 L87.8802957,12.9695007 C87.8152313,12.9044363 87.8152313,12.7309313 87.8152313,12.5574263 C87.7935432,12.3188568 87.6634144,12.2537925 87.5549738,12.2537925 Z M87.2947162,12.1453518 L86.8609537,12.1453518 L86.8609537,11.668213 L87.2947162,11.668213 C87.424845,11.668213 87.5766619,11.6899011 87.5766619,11.9067824 C87.5549738,12.0585993 87.4682213,12.1453518 87.2947162,12.1453518 Z" id="Shape"></path>
                        </g>
                    </g>
                </g>
            </g>
        </g>
    </g>
</svg>
