<?xml version="1.0" encoding="UTF-8"?>
<svg width="52px" height="14px" viewBox="0 0 52 14" version="1.1" xmlns="http://www.w3.org/2000/svg" xmlns:xlink="http://www.w3.org/1999/xlink">
    <title>Logo-Nikon</title>
    <defs>

    </defs>
    <g id="Native-Video" stroke="none" stroke-width="1" fill="none" fill-rule="evenodd">
        <g transform="translate(-426.000000, -3872.000000)" id="Trusted">
            <g transform="translate(147.000000, 3552.000000)">
                <g id="Group-2">
                    <g transform="translate(0.000000, 309.000000)">
                        <g id="Logo-Nikon" transform="translate(279.058407, 11.500000)" fill="#797979" fill-rule="nonzero">
                            <path d="M38.3041938,6.3200544 C37.9593275,5.43852181 37.1256114,4.75840606 36.2344621,4.53802291 C33.7915483,3.88649019 30.6968347,4.14534022 29.0104361,6.18595459 C28.0332706,7.44093644 27.4586716,9.32848471 28.1866038,10.9189832 C28.5413539,11.8483323 29.527869,12.5188313 30.4572181,12.691398 C32.5077163,12.9595976 35.1517798,13.0747311 36.7999786,11.5705159 C38.3421264,10.2866839 38.8598264,8.14055276 38.3041938,6.3200544 Z M33.2457995,10.0948838 C33.0157996,10.1809 32.6420832,10.2193669 32.4313168,10.0564169 C31.9424669,9.78795018 32.1051498,9.18450105 32.1625829,8.7819345 C32.3925828,8.03450172 32.6514328,6.98066958 33.5807819,6.83695305 C33.8861127,6.8073015 34.2705143,6.94246983 34.3952646,7.29695279 C34.4812808,8.37963508 34.1703402,9.48074943 33.2457995,10.0948838 L33.2457995,10.0948838 Z M11.0199588,0.173100945 L9.29536045,5.17513056 L7.98428107,0.173100945 L4.50035743,0.173100945 L0.222787327,12.3844643 L4.29333084,12.3844643 L5.91481654,7.72783523 L7.12224906,12.3844643 L10.8131993,12.3844643 L15.0905023,0.173100945 L11.0199588,0.173100945 Z M17.7698271,3.81623472 C18.4884097,3.71071794 19.2451921,3.4809852 19.6381419,2.77175216 C19.9255749,2.20650278 19.8203253,1.5261199 19.4754591,1.02818756 C18.9198264,0.443704736 18.1531602,0.386271553 17.3389446,0.434088017 C16.5915118,0.539604797 15.8347295,0.913054057 15.5665299,1.68906987 C15.4420468,2.17765263 15.4706298,2.77175216 15.7965297,3.16443486 C16.2752286,3.74918481 17.0515116,3.83520102 17.7698271,3.81623472 Z M14.804672,4.63419011 L12.0796678,12.3956839 L15.9431847,12.3956839 L18.6681889,4.63419011 L14.804672,4.63419011 L14.804672,4.63419011 Z" id="Shape"></path>
                            <path d="M29.7474508,4.62323773 L25.2631212,4.62323773 L23.0208229,7.24459509 L25.4698807,0.173100945 L21.5374439,0.173100945 L17.260141,12.3844643 L21.1925777,12.3844643 L22.2963634,9.31459389 L22.9174431,12.3844643 L27.0224466,12.3844643 L26.3321798,8.6590542 L29.7474508,4.62323773 L29.7474508,4.62323773 Z M47.4053499,4.53054324 C45.6810188,4.53054324 44.5425061,5.28946266 43.9561533,5.80689558 L44.4043993,4.63392298 L40.3341229,4.63392298 L37.6085844,12.3954167 L41.6791279,12.3954167 L42.9902073,8.67000658 C43.1966996,8.08365384 43.5415659,7.8074403 44.1281857,7.8074403 C44.7148056,7.8074403 44.8529124,8.39379303 44.6800786,8.87676604 L43.4384533,12.3954167 L47.37089,12.3954167 L49.1302154,7.3589272 C49.6134555,5.97919513 49.1302154,4.53054324 47.4053499,4.53054324 Z M49.3901339,10.7696525 C49.174831,10.7689474 48.9680762,10.8538511 48.8154079,11.0056676 C48.6627397,11.157484 48.5766806,11.3637606 48.5761839,11.5790641 C48.5757591,11.7950916 48.6613686,12.0023978 48.8140984,12.1551777 C48.9668282,12.3079576 49.1741063,12.3936352 49.3901339,12.3932808 C49.6055741,12.3929977 49.8120428,12.3069786 49.9639555,12.1542139 C50.1158683,12.0014491 50.2007312,11.7945025 50.1998157,11.5790641 C50.1998157,11.3643497 50.114495,11.1584333 49.9626439,11.0066323 C49.8107928,10.8548314 49.6048483,10.7695861 49.3901339,10.7696525 L49.3901339,10.7696525 Z M49.3901339,12.2955102 C49.200251,12.2957246 49.0181146,12.2202426 48.8840477,12.0857746 C48.7499808,11.9513066 48.6750433,11.7689455 48.6758193,11.5790641 C48.6759666,11.3898818 48.7513461,11.2085237 48.8853435,11.0749773 C49.019341,10.9414308 49.2009522,10.8666632 49.3901339,10.8671573 C49.7832035,10.8673073 50.1017796,11.1859945 50.1017796,11.5790641 C50.1026943,11.768526 50.0281688,11.950564 49.8946493,12.0849857 C49.7611297,12.2194074 49.5795977,12.295157 49.3901339,12.2955102 L49.3901339,12.2955102 Z" id="Shape"></path>
                            <path d="M50.0885429,11.3914565 C50.0885429,11.3069702 50.0405697,11.2180682 49.9461108,11.1759722 C49.8516519,11.1315212 49.7449207,11.1268112 49.6389334,11.1268112 L49.0885429,11.1268112 L49.0885429,12.1268112 L49.2425035,12.1268112 L49.2425035,11.6655218 L49.526624,11.6655218 L49.8877248,12.1268112 L50.0706924,12.1268112 L49.6895098,11.6655218 C49.9133849,11.6608118 50.0885429,11.5881006 50.0885429,11.3914565 L50.0885429,11.3914565 Z M49.4786508,11.5680829 L49.2425035,11.5680829 L49.2425035,11.2145357 L49.6036043,11.2145357 C49.7597962,11.2145357 49.9319791,11.2330814 49.9319791,11.3879239 C49.9316072,11.5913387 49.656412,11.5680829 49.4786508,11.5680829 L49.4786508,11.5680829 Z" id="Shape"></path>
                        </g>
                    </g>
                </g>
            </g>
        </g>
    </g>
</svg>
