<?xml version="1.0" encoding="UTF-8"?>
<svg width="85px" height="22px" viewBox="0 0 85 22" version="1.1" xmlns="http://www.w3.org/2000/svg" xmlns:xlink="http://www.w3.org/1999/xlink">
    <title>Logo-Paypal</title>
    <g id="Page-1" stroke="none" stroke-width="1" fill="none" fill-rule="evenodd">
        <g id="Desktop-HD" transform="translate(-89.000000, -659.000000)" fill="#797979" fill-rule="nonzero">
            <g id="Logo-Paypal" transform="translate(89.968750, 659.437500)">
                <g id="Group" transform="translate(24.159472, 4.299567)">
                    <path d="M39.6436466,0.195527932 L35.0879481,0.195527932 C34.7765366,0.195527932 34.5113967,0.422176541 34.462873,0.7299027 L32.6206108,12.4110075 C32.5843716,12.6415462 32.7622918,12.8499729 32.9956969,12.8499729 L35.3332282,12.8499729 C35.5510729,12.8499729 35.736978,12.6915031 35.7707603,12.4759105 L36.2932601,9.1644249 C36.3417838,8.85669874 36.6069238,8.63005013 36.91854,8.63005013 L38.3601234,8.63005013 C41.3606071,8.63005013 43.0923089,7.17782016 43.5449919,4.29977184 C43.7487095,3.04102239 43.5531815,2.05191721 42.9637314,1.35948217 C42.3159299,0.598049309 41.1677408,0.195527932 39.6436466,0.195527932 Z M40.1694222,4.4617222 C39.9204568,6.09699089 38.6717397,6.09699089 37.4635613,6.09699089 L36.7764496,6.09699089 L37.2584106,3.04388877 C37.2876886,2.85921212 37.4467725,2.7232639 37.6334966,2.7232639 L37.9485934,2.7232639 C38.7708345,2.7232639 39.5476229,2.7232639 39.9478921,3.19171198 C40.1876442,3.47220754 40.2599179,3.88762762 40.1694222,4.4617222 Z" id="Shape"></path>
                    <path d="M7.15202276,0.195527932 L2.59652905,0.195527932 C2.28511754,0.195527932 2.01997757,0.422176541 1.97124914,0.7299027 L0.128987013,12.4110075 C0.0927478047,12.6415462 0.270872727,12.8499729 0.504277799,12.8499729 L2.67944927,12.8499729 C2.99086077,12.8499729 3.25600074,12.623529 3.30472917,12.3158028 L3.80184102,9.1644249 C3.85036471,8.85669874 4.11550468,8.63005013 4.42691618,8.63005013 L5.86849961,8.63005013 C8.86918796,8.63005013 10.6008898,7.17782016 11.0535728,4.29977184 C11.2572904,3.04102239 11.0617624,2.05191721 10.472517,1.35948217 C9.82430608,0.598049309 8.67591218,0.195527932 7.15202276,0.195527932 Z M7.67779839,4.4617222 C7.42883298,6.09699089 6.17991111,6.09699089 4.97214224,6.09699089 L4.28482573,6.09699089 L4.76678672,3.04388877 C4.79606473,2.85921212 4.95494397,2.7232639 5.14187277,2.7232639 L5.45696961,2.7232639 C6.27921064,2.7232639 7.05599909,2.7232639 7.45626832,3.19171198 C7.69581563,3.47220754 7.76829404,3.88762762 7.67779839,4.4617222 Z" id="Shape"></path>
                    <path d="M20.7679328,4.40951317 L18.5868238,4.40951317 C18.399895,4.40951317 18.240811,4.54546139 18.211533,4.73013803 L18.1157141,5.34006234 L17.9631819,5.11914649 C17.490639,4.4334679 16.4378592,4.2043624 15.3865127,4.2043624 C12.9767077,4.2043624 10.9178293,6.03065471 10.5171506,8.59196825 C10.3085192,9.86975865 10.6045751,11.0910404 11.3291546,11.9433784 C11.9947685,12.7265139 12.9447681,13.052462 14.0765779,13.052462 C16.0189586,13.052462 17.096512,11.8043591 17.096512,11.8043591 L16.9990551,12.4108028 C16.9624064,12.6413415 17.1405314,12.8499729 17.3741412,12.8499729 L19.3386338,12.8499729 C19.6500454,12.8499729 19.9149806,12.623529 19.963709,12.3160076 L21.1430188,4.8484785 C21.1794628,4.61773506 21.0013379,4.40951317 20.7679328,4.40951317 Z M17.7279341,8.65543805 C17.5172553,9.90169829 16.5277407,10.7384759 15.2657154,10.7384759 C14.6330648,10.7384759 14.1265348,10.5349631 13.8009962,10.14964 C13.4783239,9.76779749 13.3569123,9.22359514 13.459283,8.61756092 C13.6556298,7.38235671 14.6611143,6.51855321 15.903894,6.51855321 C16.5232364,6.51855321 17.0262857,6.72390872 17.3581713,7.11291717 C17.6923091,7.50458726 17.8235483,8.05227021 17.7279341,8.65543805 Z" id="Shape"></path>
                    <path d="M53.2595566,4.40951317 L51.0784477,4.40951317 C50.8915189,4.40951317 50.7324349,4.54546139 50.7033616,4.73013803 L50.607338,5.34006234 L50.4548057,5.11914649 C49.9822628,4.4334679 48.9294831,4.2043624 47.8781365,4.2043624 C45.4681268,4.2043624 43.4094531,6.03065471 43.0089792,8.59196825 C42.8003478,9.86975865 43.0964037,11.0910404 43.8209831,11.9433784 C44.4865971,12.7265139 45.4365967,13.052462 46.5684065,13.052462 C48.5107871,13.052462 49.5883405,11.8043591 49.5883405,11.8043591 L49.4908837,12.4108028 C49.454235,12.6413415 49.6323599,12.8499729 49.8659697,12.8499729 L51.8304624,12.8499729 C52.1418739,12.8499729 52.4068092,12.623529 52.4555376,12.3160076 L53.6348474,4.8484785 C53.6712914,4.61773506 53.4929617,4.40951317 53.2595566,4.40951317 Z M50.2197627,8.65543805 C50.0090839,9.90169829 49.019774,10.7384759 47.7577487,10.7384759 C47.1248933,10.7384759 46.6185681,10.5349631 46.2928247,10.14964 C45.9703572,9.76779749 45.8487409,9.22359514 45.9511115,8.61756092 C46.1476632,7.38235671 47.1527382,6.51855321 48.3955178,6.51855321 C49.0148602,6.51855321 49.5179095,6.72390872 49.8499999,7.11291717 C50.183933,7.50458726 50.3151721,8.05227021 50.2197627,8.65543805 Z" id="Shape"></path>
                    <path d="M32.3861821,4.40951317 L30.1936076,4.40951317 C29.9839525,4.40951317 29.7878103,4.51372649 29.6698794,4.68714236 L26.645441,9.14149388 L25.3635558,4.86096772 C25.2832972,4.59316611 25.0367887,4.40930843 24.7573168,4.40930843 L22.6020053,4.40930843 C22.3417791,4.40930843 22.1587404,4.66523504 22.2424796,4.91174356 L24.6567889,11.9982491 L22.3860032,15.2020408 C22.2076736,15.4536679 22.3876411,15.8015233 22.6959815,15.8015233 L24.8863039,15.8015233 C25.0939115,15.8015233 25.288211,15.6997669 25.4065515,15.5290127 L32.6982078,5.00551507 C32.8726474,4.75388802 32.692475,4.40951317 32.3861821,4.40951317 Z" id="Path"></path>
                    <path d="M55.8309025,0.516357535 L53.9610003,12.4112123 C53.9247611,12.6415462 54.102886,12.8499729 54.3360863,12.8499729 L56.2166351,12.8499729 C56.5280466,12.8499729 56.7931866,12.623529 56.841915,12.3158028 L58.6854056,0.634698 C58.7218495,0.404159307 58.5437246,0.195732443 58.3103195,0.195732443 L56.2061933,0.195732443 C56.0190597,0.195527932 55.8599758,0.331680891 55.8309025,0.516357535 Z" id="Path"></path>
                </g>
                <g id="Group" transform="translate(0.000000, -0.000000)">
                    <path d="M15.3517067,5.10706675 C15.5969868,3.54325277 15.3500688,2.47941703 14.5042825,1.51549503 C13.5731191,0.454525665 11.8909647,4.96491737e-13 9.73872422,4.96491737e-13 L3.49124848,4.96491737e-13 C3.05146419,4.96491737e-13 2.67678763,0.320010637 2.60840404,0.754676397 L0.00675646259,17.2510917 C-0.04442886,17.5766303 0.207198186,17.8708435 0.536422181,17.8708435 L4.39333861,17.8708435 L4.12717493,19.5589355 C4.08233659,19.8437306 4.30222874,20.1010904 4.59050447,20.1010904 L7.84159142,20.1010904 C8.22630031,20.1010904 8.55388637,19.8212091 8.61387557,19.4410045 L8.64581521,19.2755735 L9.25819641,15.3920407 L9.29771148,15.1774719 C9.35770068,14.797472 9.68528675,14.5171812 10.0699956,14.5171812 L10.5562562,14.5171812 C13.7057915,14.5171812 16.1719003,13.2377529 16.8923849,9.53725879 C17.1935593,7.99105257 17.0377512,6.70036347 16.2415123,5.79295007 C16.0009413,5.51900623 15.7012001,5.29215288 15.3517067,5.10706675 L15.3517067,5.10706675" id="Path" opacity="0.68"></path>
                    <path d="M15.3517067,5.10706675 C15.5969868,3.54325277 15.3500688,2.47941703 14.5042825,1.51549503 C13.5731191,0.454525665 11.8909647,4.84945417e-13 9.73872422,4.84945417e-13 L3.49124848,4.84945417e-13 C3.05146419,4.84945417e-13 2.67678763,0.320010637 2.60840404,0.754676397 L0.00675646259,17.2510917 C-0.04442886,17.5766303 0.207198186,17.8708435 0.536422181,17.8708435 L4.39333861,17.8708435 L5.3621744,11.7271716 L5.33207743,11.9198332 C5.40066576,11.4853722 5.77186172,11.1651568 6.21185075,11.1651568 L8.04510427,11.1651568 C11.6452751,11.1651568 14.4643579,9.70248501 15.2878274,5.47252995 C15.3123964,5.34763777 15.3330752,5.22622618 15.3517067,5.10706675" id="Path" opacity="0.7"></path>
                    <path d="M6.40307912,5.12774562 C6.44423212,4.86649573 6.61211998,4.65233634 6.83794962,4.54423294 C6.94052501,4.49509503 7.05538487,4.4676597 7.17556801,4.4676597 L12.0727749,4.4676597 C12.6530118,4.4676597 13.1939382,4.50574158 13.6883885,4.58538594 C13.8296599,4.60811222 13.9672461,4.63431911 14.1009422,4.6640066 C14.2344335,4.69369408 14.3642395,4.72665743 14.4897459,4.76351086 C14.5526014,4.78173284 14.6142286,4.80118326 14.6750367,4.82124791 C14.9178599,4.90191598 15.144099,4.99691593 15.3521162,5.10727149 C15.5973962,3.54345751 15.3504783,2.47962177 14.504692,1.51569977 C13.5731191,0.454525665 11.8909647,4.84945417e-13 9.73872422,4.84945417e-13 L3.49124848,4.84945417e-13 C3.05146419,4.84945417e-13 2.67678763,0.320010637 2.60840404,0.754676397 L0.00675646259,17.2510917 C-0.04442886,17.5766303 0.207198186,17.8708435 0.536422181,17.8708435 L4.39333861,17.8708435 L5.3621744,11.7271716 L6.40307912,5.12774562 Z" id="Path"></path>
                </g>
            </g>
        </g>
    </g>
</svg>