<?xml version="1.0" encoding="UTF-8"?>
<svg width="64px" height="13px" viewBox="0 0 64 13" version="1.1" xmlns="http://www.w3.org/2000/svg" xmlns:xlink="http://www.w3.org/1999/xlink">
    <title>Logo-Rolex</title>
    <defs>

    </defs>
    <g id="Native-Video" stroke="none" stroke-width="1" fill="none" fill-rule="evenodd">
        <g transform="translate(-420.000000, -3916.000000)" id="Trusted">
            <g transform="translate(147.000000, 3552.000000)">
                <g id="Group-2">
                    <g transform="translate(0.000000, 309.000000)">
                        <g id="Logo-Rolex" transform="translate(273.058407, 55.812982)" fill="#797979" fill-rule="nonzero">
                            <path d="M19.4576313,0.123279887 C16.2523543,0.123279887 13.7251166,2.71215751 13.7251166,5.79415469 C13.7251166,8.87615186 16.3139942,11.4650295 19.4576313,11.4650295 C22.6629084,11.4650295 25.1901461,8.87615186 25.1901461,5.79415469 C25.1901461,2.71215751 22.6629084,0.123279887 19.4576313,0.123279887 Z M21.8615891,9.06107169 C21.6766693,9.30763146 21.4301095,9.55419124 21.1835497,9.73911107 C20.7520701,10.0473108 20.2589506,10.2938706 19.765831,10.2938706 C19.6425511,10.2938706 19.5809112,10.2938706 19.4576313,10.2938706 C19.3343514,10.2938706 19.2727115,10.2938706 19.1494316,10.2938706 C18.656312,10.2938706 18.1631925,10.0473108 17.7317129,9.73911107 C17.4851531,9.55419124 17.2385933,9.30763146 17.0536735,9.06107169 C16.4372741,8.25975242 16.0674344,7.0885935 16.0674344,5.79415469 C16.0674344,4.56135582 16.3756341,3.51347678 16.9303936,2.65051757 C17.2385933,2.09575808 17.670073,1.66427847 18.2864724,1.4177187 C18.2864724,1.4177187 18.2864724,1.4177187 18.2864724,1.4177187 C18.2864724,1.4177187 18.3481123,1.4177187 18.3481123,1.35607876 C18.4097523,1.29443881 18.4713922,1.29443881 18.5946721,1.29443881 C18.8412319,1.23279887 19.1494316,1.17115893 19.3959914,1.17115893 C19.7041911,1.17115893 19.9507509,1.23279887 20.1973106,1.29443881 C20.2589506,1.29443881 20.3822305,1.35607876 20.4438704,1.35607876 C20.4438704,1.35607876 20.5055104,1.35607876 20.5055104,1.4177187 C20.5055104,1.4177187 20.5055104,1.4177187 20.5055104,1.4177187 C21.0602698,1.66427847 21.5533894,2.09575808 21.8615891,2.65051757 C22.4163486,3.45183683 22.7245483,4.56135582 22.7245483,5.79415469 C22.8478282,7.0885935 22.4779885,8.25975242 21.8615891,9.06107169 Z" id="Shape"></path>
                            <path d="M36.5935356,6.96531361 L35.7922163,6.96531361 L35.7922163,8.56795214 C35.7922163,9.55419124 34.9908971,10.2938706 34.004658,10.2938706 C34.004658,10.2938706 34.004658,10.2938706 34.004658,10.2938706 L34.004658,10.2938706 L31.5390602,10.2938706 L30.6144611,10.2938706 L30.6144611,1.29443881 L32.1554597,1.29443881 L32.1554597,0.493119548 L30.6144611,0.493119548 L30.6144611,0.493119548 L30.4295412,0.493119548 L26.6078648,0.493119548 L26.6078648,1.29443881 L28.1488633,1.29443881 L28.1488633,10.2938706 L26.6078648,10.2938706 L26.6078648,11.0951898 L35.7922163,11.0951898 L36.4702557,11.0951898 L36.5318957,11.0951898 L36.5935356,11.0951898 L36.5935356,11.0951898 L36.5935356,11.0951898 L36.5935356,8.5063122 L36.5935356,8.5063122 L36.5935356,6.96531361 L36.5935356,6.96531361 Z" id="Path"></path>
                            <path d="M48.7982444,0.554759491 L48.7982444,0.554759491 L48.7366045,0.554759491 L46.2710067,0.554759491 L38.319454,0.554759491 L38.319454,1.35607876 L39.8604526,1.35607876 L39.8604526,10.3555105 L38.319454,10.3555105 L38.319454,11.1568298 L38.319454,11.1568298 L46.2710067,11.1568298 L48.0585651,11.1568298 L48.7366045,11.1568298 L48.7982444,11.1568298 L48.7982444,11.1568298 L48.8598843,11.1568298 L48.8598843,8.56795214 L48.8598843,7.39679322 L48.0585651,7.39679322 L48.0585651,8.62959208 L48.0585651,8.62959208 C48.0585651,9.61583118 47.2572458,10.3555105 46.2710067,10.3555105 C46.2710067,10.3555105 46.2710067,10.3555105 46.2710067,10.3555105 L46.2710067,10.3555105 L43.4355693,10.3555105 L43.4355693,10.3555105 L42.3260503,10.3555105 L42.2644104,10.3555105 L42.2644104,6.04071446 L42.2644104,5.85579463 L43.0657297,5.85579463 C43.0657297,5.85579463 43.0657297,5.85579463 43.0657297,5.85579463 L43.5588492,5.85579463 L43.5588492,5.85579463 C44.2985285,5.85579463 44.853288,6.47219406 44.853288,7.15023344 C44.853288,7.15023344 44.853288,7.15023344 44.853288,7.15023344 L44.853288,7.15023344 L44.853288,7.58171305 L44.853288,7.58171305 L44.853288,7.76663288 L45.5929673,7.76663288 L45.5929673,7.70499293 L45.5929673,5.85579463 L45.5929673,5.85579463 L45.5929673,5.17775525 L45.5929673,5.17775525 L45.5929673,3.39019689 L45.5929673,3.32855695 L44.853288,3.32855695 L44.853288,3.82167649 L44.853288,3.82167649 C44.853288,3.82167649 44.853288,3.82167649 44.853288,3.82167649 C44.853288,4.56135582 44.2985285,5.05447536 43.5588492,5.05447536 L43.5588492,5.05447536 L43.0657297,5.05447536 L42.5726101,5.05447536 L42.2644104,5.05447536 L42.2644104,1.23279887 L42.3260503,1.23279887 L44.6067282,1.23279887 C44.6067282,1.23279887 44.6067282,1.23279887 44.6683682,1.23279887 L46.2710067,1.23279887 C47.2572458,1.23279887 47.9969251,2.03411813 48.0585651,2.95871729 L48.0585651,2.95871729 L48.0585651,4.06823627 L48.8598843,4.06823627 L48.8598843,3.02035723 L48.7982444,0.554759491 L48.7982444,0.554759491 L48.7982444,0.554759491 Z" id="Path"></path>
                            <path d="M62.5439518,10.3555105 C61.8042725,10.3555105 61.6193526,10.1089507 61.0029532,9.43091135 L57.4894764,5.05447536 L59.8317943,2.28067791 L59.8317943,2.28067791 C60.4481937,1.54099859 60.6331135,1.29443881 61.4344328,1.29443881 L61.9275524,1.29443881 L62.0508322,1.29443881 L62.0508322,0.493119548 L61.9275524,0.493119548 L59.5852345,0.493119548 L59.4619546,0.493119548 L57.7976761,0.493119548 L57.7360362,0.493119548 L57.7360362,1.29443881 L57.8593161,1.29443881 L58.7222753,1.29443881 L58.7222753,1.29443881 C58.7222753,1.29443881 58.7222753,1.29443881 58.7222753,1.29443881 C58.9071951,1.29443881 59.092115,1.47935864 59.092115,1.66427847 C59.092115,1.72591842 59.092115,1.78755836 59.030475,1.8491983 L56.9963569,4.31479604 L55.2704385,2.34231785 L54.9622387,1.91083825 C54.9005988,1.8491983 54.9005988,1.78755836 54.9005988,1.66427847 C54.9005988,1.47935864 55.0855186,1.29443881 55.2704385,1.29443881 L56.1950376,1.29443881 L56.1950376,0.493119548 L54.5307591,0.493119548 L52.1268013,0.493119548 L50.8323625,0.493119548 L50.8323625,1.29443881 L51.0789223,1.29443881 C51.7569617,1.35607876 51.9418815,1.54099859 52.496641,2.15739802 L55.5786382,6.04071446 L52.8048407,9.36927141 L52.8048407,9.36927141 C52.1884413,10.1089507 52.0035215,10.3555105 51.2022022,10.3555105 L50.7090826,10.3555105 L50.5241628,10.3555105 L50.5241628,11.1568298 L50.7090826,11.1568298 L53.3596002,11.1568298 L53.54452,11.1568298 L54.9622387,11.1568298 L55.1471586,11.1568298 L55.1471586,10.3555105 L54.9622387,10.3555105 L53.9759997,10.3555105 L53.9759997,10.3555105 C53.9759997,10.3555105 53.9759997,10.3555105 53.9759997,10.3555105 C53.7910798,10.3555105 53.60616,10.1705907 53.60616,9.98567084 C53.60616,9.9240309 53.6677999,9.80075101 53.6677999,9.73911107 L56.1333977,6.78039378 L58.1675158,9.36927141 L58.4757155,9.73911107 C58.5373555,9.80075101 58.5373555,9.86239095 58.5373555,9.98567084 C58.5373555,10.1705907 58.3524356,10.3555105 58.1675158,10.3555105 C58.1675158,10.3555105 58.1675158,10.3555105 58.1675158,10.3555105 L58.1675158,10.3555105 L57.1812767,10.3555105 L57.1812767,11.1568298 L57.1812767,11.1568298 L57.1812767,11.1568298 L62.9137915,11.1568298 L62.9137915,10.3555105 L62.5439518,10.3555105 L62.5439518,10.3555105 Z" id="Path"></path>
                            <path d="M11.8759183,10.2938706 L11.1978789,8.25975242 C10.8896792,7.33515327 10.6431194,6.96531361 10.1499998,6.47219406 C9.84180013,6.16399435 9.34868058,6.04071446 8.97884092,5.91743457 C10.2732797,5.73251474 11.2595188,4.56135582 11.2595188,3.20527706 C11.2595188,1.72591842 10.02672,0.493119548 8.54736132,0.493119548 C8.54736132,0.493119548 8.48572137,0.493119548 8.48572137,0.493119548 L8.48572137,0.493119548 L4.35584516,0.493119548 L1.89024742,0.493119548 L0.410888781,0.493119548 L0.410888781,1.29443881 L1.89024742,1.29443881 L1.89024742,10.2938706 L0.349248838,10.2938706 L0.349248838,11.0951898 L4.29420522,11.0951898 L4.29420522,11.0951898 L5.83520381,11.0951898 L5.83520381,10.2938706 L4.35584516,10.2938706 L4.35584516,5.97907452 L5.52700409,5.97907452 C5.58864403,5.97907452 5.58864403,5.97907452 5.65028398,5.97907452 L5.89684375,5.97907452 C6.26668341,5.97907452 6.57488313,6.04071446 6.88308284,6.1023544 C7.12964262,6.16399435 7.43784234,6.28727423 7.62276217,6.41055412 C7.86932194,6.59547395 8.17752166,6.84203372 8.42408143,7.21187339 C8.48572137,7.33515327 8.54736132,7.45843316 8.60900126,7.5200731 C9.04048087,8.38303231 9.34868058,9.55419124 9.6568803,11.0335499 L11.5060786,11.0335499 L11.5060786,11.0335499 L13.1703571,11.0335499 L13.1703571,10.2322306 L11.8759183,10.2938706 L11.8759183,10.2938706 Z M6.94472279,5.17775525 L4.35584516,5.17775525 L4.35584516,1.29443881 L6.94472279,1.29443881 C8.05424177,1.35607876 8.91720098,2.09575808 8.91720098,3.20527706 C8.91720098,4.31479604 8.05424177,5.11611531 6.94472279,5.17775525 Z" id="Shape"></path>
                        </g>
                    </g>
                </g>
            </g>
        </g>
    </g>
</svg>
