<?xml version="1.0" encoding="UTF-8"?>
<svg width="80px" height="15px" viewBox="0 0 80 15" version="1.1" xmlns="http://www.w3.org/2000/svg" xmlns:xlink="http://www.w3.org/1999/xlink">
    <title>Logo-RollingSTones</title>
    <defs>

    </defs>
    <g id="Native-Video" stroke="none" stroke-width="1" fill="none" fill-rule="evenodd">
        <g transform="translate(-889.000000, -3871.000000)" id="Trusted">
            <g transform="translate(147.000000, 3552.000000)">
                <g id="Logos-Publishers">
                    <g transform="translate(649.000000, 316.000000)">
                        <path d="M102.629818,6.85293281 C102.629818,5.72655396 101.860774,5.01577007 100.847033,5.01577007 C100.610105,5.01577007 100.008075,5.0235382 99.7983351,5.04684259 L99.0953193,9.40476352 C99.2234934,9.41641572 99.4448851,9.40476352 99.5614071,9.40476352 C101.231555,9.40476352 102.629818,8.31722532 102.629818,6.85293281 Z M115.097667,4.16127577 L113.69552,12.717871 C113.637259,13.0674368 113.633375,13.2072632 114.29755,13.2072632 L114.130535,14.3025695 L112.976968,14.3025695 C113.61007,14.5938744 114.227637,15.04831 114.227637,15.646456 C114.227637,16.7922552 113.101258,17.7050104 110.149368,17.7050104 C104.684489,17.7050104 101.076192,14.9162518 99.8371757,10.7253456 L98.8700435,10.7253456 L98.4505645,13.3626258 C98.3728832,13.8675542 98.3806513,14.0306849 99.2778703,14.0889459 L99.8954367,14.1316706 L99.6429725,15.4211802 C98.7496375,15.3668033 97.763085,15.3201945 96.7804166,15.3240786 C95.8870816,15.3240786 94.9471379,15.3706874 94.061571,15.4211802 L94.2713106,14.1316706 C94.5043545,14.1200184 94.6636011,14.1200184 94.8150797,14.1044822 C94.9552175,14.0924121 95.0934239,14.0637278 95.2267905,14.0190327 C95.4753707,13.9413514 95.6773421,13.7821048 95.731719,13.4597274 L97.0639533,5.42359689 C96.6843619,5.49041953 96.312282,5.59449783 95.9531107,5.73432209 C95.6579218,5.85084404 95.3355444,6.11884453 95.3355444,6.33635217 C95.3355444,6.42956973 95.3549647,6.4994829 95.3938053,6.56162794 C95.4442982,6.63930924 95.5064432,6.70922241 95.5064432,6.81409216 C95.5064432,6.8878894 95.4753707,6.93061411 95.4365301,6.98110696 C95.2423268,7.21415086 94.8073115,7.40058598 94.3994847,7.40058598 C94.1440438,7.40060498 93.8992311,7.29834068 93.719705,7.11662533 C93.540179,6.93490999 93.4408896,6.6888757 93.4439336,6.43345379 C93.4439336,4.93032064 95.3238922,4.32829056 96.5279523,4.0913626 C97.8814513,3.84384996 99.2536475,3.71260771 100.629525,3.69907203 C103.406631,3.69907203 105.422461,4.56521853 105.422461,6.75583119 C105.422461,8.55803735 104.05527,9.72325685 102.590978,10.2204172 C103.705704,13.6966554 106.428434,16.306747 109.924093,16.306747 C111.252443,16.306747 111.718531,15.7396735 111.718531,15.1842522 C111.725982,14.9509166 111.637641,14.7246922 111.474037,14.5581541 C111.310434,14.391616 111.085815,14.2992671 110.852384,14.3025695 L110.300847,14.3025695 L110.510586,13.2072632 C110.898993,13.2072632 111.32624,13.1723066 111.392269,12.7722479 L112.390474,6.60046859 C112.40601,6.49171477 112.363285,6.44510599 112.250647,6.44510599 L111.322356,6.44510599 L111.504907,5.46632161 L114.985029,4.04863788 L115.097667,4.16515983 L115.097667,4.16127577 Z M165.396309,13.2072632 L165.186569,14.3025695 L161.442331,14.3025695 L161.624882,13.2072632 C162.199723,13.2072632 162.281289,13.1567703 162.355086,12.6634941 L162.762913,9.96795295 C162.832826,9.50574921 162.553173,9.35038661 162.285173,9.35038661 C161.741404,9.35038661 161.178214,9.9174601 161.081113,10.569983 L160.743199,12.7567116 C160.692706,13.0674368 160.743199,13.2072632 161.387954,13.2072632 L161.217055,14.3025695 L157.418439,14.3025695 L157.612643,13.2072632 C158.300122,13.2072632 158.416644,13.1062775 158.482673,12.6867985 L158.933225,9.90969197 C158.964297,9.71548872 158.933225,9.68830027 158.777862,9.68830027 L157.950556,9.68830027 L158.121455,8.73282028 L161.512244,7.2762959 L161.61323,7.37339752 L161.457867,8.22789183 C162.079317,7.6763546 162.766797,7.28794809 163.547494,7.28794809 C164.522394,7.28794809 165.174917,8.20458744 165.174917,9.18337182 C165.174917,9.41253165 165.155497,9.59896677 165.105004,9.92522823 L164.654452,12.65961 C164.576771,13.1179297 164.658337,13.2033791 165.400193,13.2033791 L165.396309,13.2072632 Z M151.670023,7.61420956 L151.025268,8.9852845 C150.779496,8.88599151 150.51739,8.83330695 150.252339,8.8299219 L149.483295,8.8299219 L148.96283,12.0148552 C148.869612,12.5858128 148.978366,12.6867985 149.273555,12.6867985 C149.592048,12.6867985 149.91831,12.5236677 150.504804,11.9876667 L151.009732,12.9819874 C150.314485,13.7199597 149.428918,14.4967727 148.302539,14.4967727 C147.106247,14.4967727 146.578014,13.8131773 146.578014,12.7295232 C146.578014,12.5003633 146.616855,12.1896381 146.647927,11.9721305 L147.152856,8.8299219 L146.271173,8.84545816 L146.480912,7.64139801 L147.31987,7.65305021 L147.517958,6.37907688 L149.83286,5.43913315 L149.988223,5.59449575 L149.661962,7.62586175 L151.670023,7.61032549 L151.670023,7.61420956 Z M147.055754,4.17681203 C146.759,5.20478723 146.520399,6.24866554 146.341086,7.30348435 L144.993315,7.30348435 C145.117606,6.85681688 145.156446,6.5771642 145.16033,6.3324681 C145.171982,5.74985835 144.507807,5.38087218 143.521255,5.38087218 C142.511398,5.38087218 141.835571,5.89745282 141.823918,6.54609168 C141.812266,7.15977395 142.04531,7.41612224 142.822123,7.96377541 L144.16601,8.91537133 C145.416679,9.80093815 146.170187,10.628244 146.146883,12.0575799 C146.104158,14.4307436 144.092212,15.6309197 141.517077,15.6309197 C140.915047,15.6309197 140.414003,15.5338181 140.002292,15.4367165 C139.652726,15.351267 139.314812,15.2425132 138.94971,15.2425132 C138.675129,15.2483676 138.406004,15.3203121 138.165129,15.4522527 L137.95539,15.3357308 C137.785368,14.1848162 137.57811,13.0397112 137.333939,11.9022173 L138.739971,11.5643037 C139.108957,13.3043648 139.916842,14.1044822 141.668556,14.1044822 C142.818239,14.1044822 143.435805,13.5451768 143.451342,12.6479578 C143.466878,11.7856954 143.02021,11.4283614 142.204557,10.8923604 C141.839455,10.6593165 141.478237,10.4262726 141.136439,10.1932287 C140.795809,9.97169344 140.477159,9.71807349 140.184843,9.43583604 C139.564088,8.80219982 139.238465,7.9366922 139.287624,7.05102013 C139.318696,5.18666893 140.988844,3.86608683 143.253254,3.86608683 C144.200966,3.86608683 144.938939,4.10301479 145.793433,4.14962357 C146.07697,4.16127577 146.55471,4.09913073 146.857667,4.02144943 L147.05187,4.17681203 L147.055754,4.17681203 Z M122.823072,5.31095901 C122.823072,6.19264176 121.867592,6.9655707 120.873272,6.9655707 C120.368343,6.9655707 119.78185,6.75194712 119.78185,6.04116323 C119.78185,4.98469755 120.853851,4.27391365 121.743302,4.27391365 C122.329796,4.27391365 122.823072,4.66620422 122.823072,5.31095901 Z M122.597797,7.37339752 L121.743302,12.5625084 C121.646201,13.1451181 121.634549,13.2072632 122.473507,13.2072632 L122.302608,14.3025695 L118.391354,14.3025695 L118.558369,13.2072632 C119.203124,13.2072632 119.389559,13.0519006 119.443936,12.7023347 L119.878951,9.86696726 C119.902256,9.70383653 119.90614,9.68830027 119.739125,9.68830027 L118.841906,9.68830027 L119.008921,8.73282028 L122.500695,7.2762959 L122.597797,7.37339752 L122.597797,7.37339752 Z M119.121558,4.11855105 L117.746599,12.5197837 C117.645614,13.1451181 117.711643,13.2072632 118.336977,13.2072632 L118.166078,14.2986854 L114.351927,14.2986854 L114.522825,13.2072632 C115.190885,13.2072632 115.357899,13.079089 115.431697,12.6052331 L116.387177,6.67038176 C116.418249,6.47617851 116.394945,6.44899005 116.24735,6.44899005 L115.361784,6.44899005 L115.532682,5.4779738 L119.024457,4.02533349 L119.121558,4.12243512 L119.121558,4.11855105 Z M169.843563,9.42029978 C169.824143,8.79884938 169.571679,8.62018239 169.210461,8.62018239 C168.79875,8.62018239 168.212256,9.12511084 167.990864,10.2514897 L169.843563,9.42029978 L169.843563,9.42029978 Z M172.073017,9.75821344 L167.808313,11.7196663 C167.897647,12.4498705 168.305474,12.9392627 168.973533,12.9392627 C169.672664,12.9392627 169.913477,12.5469721 169.913477,12.3644211 C169.914058,12.2851043 169.889592,12.2076272 169.843563,12.1430293 C169.789186,12.065348 169.746462,12.0187393 169.746462,11.9177536 C169.742306,11.8559585 169.761738,11.7948865 169.800839,11.7468547 C170.048462,11.4839857 170.395227,11.3373857 170.756319,11.342912 C171.253479,11.342912 171.696262,11.7157822 171.696262,12.2828557 C171.696262,13.5141043 170.488318,14.512309 168.596778,14.512309 C166.732427,14.512309 165.400193,13.3820461 165.400193,11.2419263 C165.400193,9.32708222 167.109182,7.26075964 169.241533,7.26075964 C171.028203,7.26075964 171.805016,8.15797866 172.073017,9.75821344 L172.073017,9.75821344 Z M155.410378,9.74267718 C155.410378,8.96974824 155.157914,8.62018239 154.699594,8.62018239 C154.031535,8.62018239 153.309099,10.0339821 153.309099,12.0420437 C153.309099,12.8110885 153.569331,13.1490022 154.023767,13.1490022 C154.730666,13.1490022 155.414262,11.5176949 155.414262,9.74267718 M157.837918,10.3058666 C157.837918,12.4110298 156.323133,14.5239612 153.915013,14.5239612 C152.081734,14.5239612 150.912631,13.4558433 150.912631,11.3273757 C150.912631,9.15618336 152.551706,7.23357118 154.812232,7.23357118 C156.571713,7.23357118 157.841802,8.34441378 157.841802,10.3019825 M134.238339,15.3823396 C134.238339,15.2230929 134.090745,15.1143391 133.748947,15.1143391 C133.356657,15.1143391 132.960482,15.168716 132.556539,15.168716 C131.942002,15.1918706 131.330811,15.0680346 130.773753,14.8074979 C130.501869,15.0211215 130.338738,15.2658176 130.338738,15.6192675 C130.338738,16.0737031 130.933,16.4465734 131.589407,16.4465734 C133.325584,16.4465734 134.238339,15.8134708 134.238339,15.3823396 M134.63063,9.25328499 C134.63063,8.86487849 134.479151,8.52308077 134.164542,8.52308077 C133.449874,8.52308077 133.143033,9.84754693 133.143033,10.6398962 C133.143033,11.1914334 133.259555,11.4244773 133.636309,11.4244773 C134.265528,11.4244773 134.63063,9.97960514 134.63063,9.24940092 M139.007971,8.10360175 C139.007971,8.55026922 138.611797,9.09792239 138.231158,9.09792239 C138.106868,9.09792239 138.064143,9.00858889 137.998114,8.91537133 C137.9559,8.85673657 137.896004,8.81317579 137.827216,8.79108125 C137.773803,8.77098872 137.717266,8.76047023 137.660201,8.76000873 C137.252374,8.76000873 136.961069,9.22221247 136.961069,9.63003929 L136.972721,9.90969197 C136.966282,10.3519158 136.840108,10.7841267 136.607619,11.1603609 C135.987032,12.1333464 134.914637,12.7244072 133.760599,12.7295232 C133.328469,12.7448378 132.897067,12.6830211 132.486626,12.5469721 C132.416393,12.623769 132.375181,12.7226794 132.370104,12.8266248 C132.370104,13.1140456 132.599264,13.1761906 132.94883,13.1761906 C133.67515,13.1761906 134.323789,13.0674368 134.995732,13.0674368 C136.145415,13.0674368 136.972721,13.6345103 136.972721,14.6948601 C136.972721,16.5786316 134.098513,17.7244308 131.418508,17.7244308 C129.826042,17.7244308 128.291836,17.2661111 128.291836,15.9144565 C128.291836,15.2463973 128.680242,14.7259326 129.554157,14.3025695 L126.38476,14.3025695 L126.567311,13.2072632 C127.204298,13.1917269 127.266443,13.1451181 127.324704,12.7411754 L127.744183,9.94076449 C127.79856,9.59508271 127.565516,9.35038661 127.270327,9.35038661 C126.71879,9.35038661 126.1556,9.97183701 126.077919,10.4728814 L125.712817,12.7877841 C125.666208,13.075205 125.728353,13.2072632 126.330383,13.2072632 L126.159484,14.3025695 L122.527883,14.3025695 L122.710435,13.2072632 C123.339653,13.2072632 123.359073,13.1140456 123.409566,12.7877841 L123.875654,9.89803978 C123.906727,9.70383653 123.875654,9.68830027 123.735828,9.68830027 L122.834725,9.68830027 L123.017276,8.71728402 L126.497398,7.2762959 L126.5945,7.37339752 L126.454673,8.21623963 C127.153805,7.61032549 127.868473,7.2762959 128.501575,7.2762959 C129.612418,7.2762959 130.156187,8.31334126 130.156187,9.26493718 C130.156187,9.36980694 130.128999,9.63003929 130.117346,9.73102498 L129.639606,12.717871 C129.581346,13.079089 129.83381,13.1839588 130.183376,13.2072632 C130.358159,12.543088 130.851435,12.1974063 131.434045,11.9604783 C130.989862,11.5048494 130.751305,10.8874075 130.773753,10.2514897 C130.773753,8.35995004 132.478858,7.20638273 134.211151,7.20638273 C134.999616,7.20638273 135.978401,7.47049915 136.52217,8.297805 C136.91446,7.61032549 137.47765,7.20638273 138.064143,7.20638273 C138.588492,7.20638273 139.004087,7.54041232 139.004087,8.09971768 M108.840438,9.74267718 C108.840438,8.96974824 108.58409,8.62018239 108.12577,8.62018239 C107.457711,8.62018239 106.739159,10.0339821 106.739159,12.0420437 C106.739159,12.8110885 106.999392,13.1528863 107.453827,13.1528863 C108.160727,13.1528863 108.840438,11.5215789 108.840438,9.74267718 M111.267979,10.3058666 C111.267979,12.4110298 109.753194,14.5239612 107.341189,14.5239612 C105.511795,14.5239612 104.338807,13.4558433 104.338807,11.3273757 C104.338807,9.15618336 105.977882,7.23357118 108.238408,7.23357118 C110.001774,7.23357118 111.267979,8.34441378 111.267979,10.3019825" id="Logo-RollingSTones" fill="#797979" fill-rule="nonzero"></path>
                    </g>
                </g>
            </g>
        </g>
    </g>
</svg>
