<?xml version="1.0" encoding="UTF-8"?>
<svg width="67px" height="11px" viewBox="0 0 67 11" version="1.1" xmlns="http://www.w3.org/2000/svg" xmlns:xlink="http://www.w3.org/1999/xlink">
    <title>Logo-Samsung</title>
    <g id="Page-1" stroke="none" stroke-width="1" fill="none" fill-rule="evenodd">
        <g id="Desktop-HD" transform="translate(-256.000000, -726.000000)" fill="#797979" fill-rule="nonzero">
            <g id="Logo-Samsung" transform="translate(256.745145, 726.781250)">
                <path d="M4.585625,6.99 C4.6825,7.216875 4.650625,7.508125 4.601875,7.68625 C4.520625,7.99375 4.310625,8.3175 3.695625,8.3175 C3.11375,8.3175 2.758125,7.9775 2.758125,7.475625 L2.758125,6.569375 L0.25,6.569375 L0.25,7.281875 C0.25,9.36875 1.88375,10 3.6475,10 C5.33,10 6.72125,9.4175 6.9475,7.864375 C7.060625,7.055 6.98,6.5375 6.93125,6.326875 C6.54375,4.36875 3,3.78625 2.725,2.701875 C2.676875,2.508125 2.693125,2.314375 2.70875,2.216875 C2.77375,1.925625 2.98375,1.585625 3.56625,1.585625 C4.11625,1.585625 4.44,1.925625 4.44,2.426875 L4.44,3.01 L6.77,3.01 L6.77,2.34625 C6.77,0.3075 4.941875,0 3.615,0 C1.94875,0 0.605625,0.55 0.346875,2.07125 C0.2825,2.491875 0.265625,2.864375 0.363125,3.33375 C0.78375,5.22625 4.100625,5.776875 4.585625,6.99 L4.585625,6.99 Z M34.919375,6.974375 C35.01625,7.200625 34.98375,7.491875 34.935625,7.65375 C34.854375,7.96125 34.644375,8.26875 34.029375,8.26875 C33.446875,8.26875 33.1075,7.92875 33.1075,7.426875 L33.1075,6.5375 L30.6325,6.5375 L30.6325,7.249375 C30.6325,9.304375 32.25,9.935 33.996875,9.935 C35.66375,9.935 37.03875,9.36875 37.265625,7.815625 C37.378125,7.0225 37.296875,6.48875 37.24875,6.294375 C36.860625,4.3525 33.35,3.78625 33.09125,2.7025 C33.0425,2.508125 33.05875,2.31375 33.075,2.216875 C33.14,1.925625 33.33375,1.601875 33.91625,1.601875 C34.45,1.601875 34.77375,1.941875 34.77375,2.443125 L34.77375,3.01 L37.086875,3.01 L37.086875,2.3625 C37.086875,0.35625 35.275,0.0325 33.965,0.0325 C32.330625,0.0325 30.988125,0.5825 30.729375,2.0875 C30.664375,2.491875 30.648125,2.864375 30.745625,3.333125 C31.16625,5.226875 34.45,5.776875 34.919375,6.974375 L34.919375,6.974375 Z M54.284375,7.799375 L54.155,0.29125 L56.468125,0.29125 L56.468125,9.514375 L53.135625,9.514375 L50.79,1.76375 L50.919375,9.514375 L48.621875,9.514375 L48.621875,0.29125 L52.084375,0.29125 L54.284375,7.799375 L54.284375,7.799375 Z M12.334375,0.970625 L11.040625,9.611875 L8.516875,9.611875 L10.231875,0.29125 L14.389375,0.29125 L16.104375,9.611875 L13.596875,9.611875 L12.334375,0.970625 L12.334375,0.970625 Z M25.956875,0.970625 L24.33875,9.6125 L21.976875,9.6125 L20.375625,0.970625 L20.310625,9.611875 L17.98125,9.611875 L18.175,0.29125 L21.976875,0.29125 L23.158125,7.5725 L24.339375,0.29125 L28.140625,0.29125 L28.35125,9.611875 L26.02125,9.611875 L25.956875,0.970625 L25.956875,0.970625 Z M42.749375,8.220625 C43.39625,8.220625 43.606875,7.766875 43.639375,7.540625 C43.655625,7.443125 43.655625,7.2975 43.655625,7.184375 L43.655625,0.275 L46.0175,0.275 L46.0175,6.975 C46.0175,7.1525 46.00125,7.4925 46.00125,7.589375 C45.839375,9.3375 44.46375,9.90375 42.749375,9.90375 C41.034375,9.90375 39.659375,9.3375 39.4975,7.589375 C39.48125,7.4925 39.465,7.1525 39.48125,6.975 L39.48125,0.275 L41.84375,0.275 L41.84375,7.184375 C41.84375,7.2975 41.84375,7.443125 41.859375,7.540625 C41.908125,7.783125 42.1025,8.22 42.749375,8.22 L42.749375,8.220625 Z M62.2275,8.123125 C62.906875,8.123125 63.13375,7.685625 63.181875,7.443125 C63.198125,7.330625 63.214375,7.200625 63.198125,7.086875 L63.198125,5.728125 L62.24375,5.728125 L62.24375,4.36875 L65.54375,4.36875 L65.54375,6.876875 C65.54375,7.055 65.54375,7.184375 65.511875,7.491875 C65.35,9.19125 63.8775,9.789375 62.2275,9.789375 C60.5775,9.789375 59.105,9.19125 58.94375,7.491875 C58.91125,7.184375 58.91125,7.055 58.91125,6.876875 L58.91125,2.945 C58.91125,2.783125 58.9275,2.491875 58.94375,2.33 C59.15375,0.5825 60.56125,0.0325 62.2275,0.0325 C63.8775,0.0325 65.33375,0.5825 65.495625,2.33 C65.528125,2.62125 65.511875,2.945 65.511875,2.945 L65.511875,3.2525 L63.149375,3.2525 L63.149375,2.734375 C63.149375,2.734375 63.149375,2.508125 63.1175,2.378125 C63.06875,2.168125 62.89125,1.69875 62.179375,1.69875 C61.499375,1.69875 61.305625,2.151875 61.256875,2.37875 C61.224375,2.508125 61.224375,2.67 61.224375,2.815625 L61.224375,7.0875 C61.224375,7.200625 61.224375,7.33 61.240625,7.44375 C61.305625,7.7025 61.548125,8.123125 62.228125,8.123125 L62.2275,8.123125 Z" id="Shape"></path>
            </g>
        </g>
    </g>
</svg>