<?xml version="1.0" encoding="UTF-8"?>
<svg width="81px" height="12px" viewBox="0 0 81 12" version="1.1" xmlns="http://www.w3.org/2000/svg" xmlns:xlink="http://www.w3.org/1999/xlink">
    <title>Logo-Sephora</title>
    <defs>

    </defs>
    <g id="Native-Video" stroke="none" stroke-width="1" fill="none" fill-rule="evenodd">
        <g transform="translate(-152.000000, -3917.000000)" id="Trusted">
            <g transform="translate(147.000000, 3552.000000)">
                <g id="Group-2">
                    <g transform="translate(0.000000, 309.000000)">
                        <g id="Logo-Sephora" transform="translate(5.388889, 56.312982)">
                            <path d="M64.5939192,2.94909476 C64.4190403,1.35133722 62.4158816,1.47057286 62.0343275,1.47057286 L61.2314742,1.47057286 L61.2314742,4.76942549 C61.5732831,4.78532357 61.8356015,4.78532357 62.1774103,4.78532357 C62.5828115,4.78532357 64.8005943,4.84096687 64.5939192,2.94909476 L64.5939192,2.94909476 Z M50.1902542,1.4228786 C47.908879,1.4228786 46.6211342,3.10807561 46.6211342,5.16687761 C46.6211342,7.2415777 47.908879,8.91087662 50.1902542,8.91087662 C52.4716294,8.91087662 53.7593743,7.22567962 53.7593743,5.16687761 C53.7593743,3.09217753 52.4557313,1.4228786 50.1902542,1.4228786 Z M24.2525286,1.52621616 L23.394032,1.52621616 L23.394032,5.04764198 L24.4035604,5.04764198 C25.3097513,5.04764198 27.1698272,4.96020251 27.0664897,3.17961699 C27.0028973,1.35928626 24.6499807,1.52621616 24.2525286,1.52621616 Z M75.0628082,1.8521269 L73.5206939,6.67719569 L76.6923619,6.6612976 L75.0787063,1.8521269" id="Shape"></path>
                            <path d="M39.2205756,4.15734922 L34.2285769,4.15734922 L34.2285769,0.325910742 L32.7182589,0.325910742 L32.7182589,10.0555387 L34.2285769,10.0555387 L34.2285769,5.4450941 L39.2205756,5.4450941 L39.2205756,10.0555387 L40.7149956,10.0555387 L40.7149956,0.325910742 L39.2205756,0.325910742 M24.4909999,0.294114572 C23.942516,0.278216487 22.82965,0.278216487 21.8439687,0.278216487 L21.8439687,10.0475897 L23.3701849,10.0475897 L23.3701849,6.3433359 C23.7517389,6.3433359 24.5386941,6.31153973 25.1746175,6.29564165 C26.0649103,6.27974356 28.3860307,5.83459718 28.3701326,3.15576987 C28.3939797,0.135133722 25.0474329,0.294114572 24.4909999,0.294114572 L24.4909999,0.294114572 Z M24.4115095,5.04764198 L23.4019811,5.04764198 L23.4019811,1.52621616 L24.2604777,1.52621616 C24.6579298,1.52621616 27.0028973,1.35133722 27.0744387,3.17166795 C27.1698272,4.96020251 25.3177003,5.04764198 24.4115095,5.04764198 Z M10.4052966,0.278216487 L10.4211947,10.0475897 L16.5499064,10.0475897 L16.5499064,8.7757429 L11.9474109,8.7757429 L11.9474109,5.46099219 L15.2065183,5.46099219 C15.2065183,5.1827757 15.1906202,4.77737453 15.2065183,4.24478869 L11.9474109,4.24478869 L11.9474109,1.58185945 L16.5499064,1.58185945 C16.5340084,0.810802333 16.5499064,0.278216487 16.5499064,0.278216487 L10.4052966,0.278216487 L10.4052966,0.278216487 Z M1.49441999,2.66292923 C1.49441999,1.06517169 3.60886529,1.00157935 4.85686496,2.02700583 C5.28611325,0.794904248 5.31790942,0.707464781 5.31790942,0.707464781 C1.67724796,-1.04132457 0.015898085,1.2718468 0.015898085,2.7503687 C0.015898085,6.2876926 5.03174389,5.53253357 4.30838103,8.02058387 C4.05401167,8.92677471 2.44035604,9.44346247 0.580280101,8.31469844 C0.445146379,8.69625248 0.22257319,9.15729694 0,9.6183414 C2.45625413,10.9060863 5.64382016,10.286061 5.74715772,7.63108078 C5.89024048,4.29248294 1.49441999,4.53095422 1.49441999,2.66292923 Z M65.9134603,3.02063614 C65.6908871,0.119235637 62.876926,0.341808827 62.2569007,0.310012657 C61.740213,0.294114572 60.6432451,0.278216487 59.697309,0.278216487 L59.697309,10.0316916 L61.2235252,10.0316916 L61.2235252,5.92998569 C61.740213,5.92998569 61.9071429,5.92998569 62.686149,5.89818952 L65.4683139,10.0316916 L67.3204408,10.0316916 L64.2441613,5.64382016 C65.0708618,5.34175655 66.0326959,4.63429177 65.9134603,3.02063614 Z M62.1694613,4.78532357 C61.8276524,4.78532357 61.565334,4.78532357 61.2235252,4.76942549 L61.2235252,1.47057286 L62.0263785,1.47057286 C62.4079325,1.47057286 64.4110912,1.35133722 64.5859702,2.94909476 C64.8005943,4.84096687 62.5828115,4.78532357 62.1694613,4.78532357 L62.1694613,4.78532357 Z M75.9848971,0.294114572 L74.2202097,0.294114572 L71.0246946,10.0634878 L72.5350127,10.0634878 C73.0119552,8.29880035 73.1709361,7.79801068 73.1709361,7.79801068 L77.1216102,7.78211259 C77.5826546,9.08575556 77.9244635,10.0793859 77.9244635,10.0793859 L79.4904248,10.0793859 L75.9848971,0.294114572 L75.9848971,0.294114572 Z M73.5206939,6.67719569 L75.0628082,1.8521269 L75.0787063,1.8521269 L76.6923619,6.6612976 L73.5206939,6.67719569 Z M50.1902542,0.015898085 C47.0821786,0.015898085 45.0551728,2.31317136 45.0551728,5.16687761 C45.0551728,8.02058387 47.0821786,10.3178571 50.1902542,10.3178571 C53.2983298,10.3178571 55.3253357,8.02058387 55.3253357,5.16687761 C55.3253357,2.31317136 53.2983298,0.015898085 50.1902542,0.015898085 L50.1902542,0.015898085 Z M50.1902542,8.91087662 C47.908879,8.91087662 46.6211342,7.24952674 46.6211342,5.16687761 C46.6211342,3.10807561 47.908879,1.4228786 50.1902542,1.4228786 C52.4557313,1.4228786 53.7593743,3.08422848 53.7593743,5.16687761 C53.7593743,7.22567962 52.4716294,8.91087662 50.1902542,8.91087662 Z" id="Shape" fill="#797979" fill-rule="nonzero"></path>
                        </g>
                    </g>
                </g>
            </g>
        </g>
    </g>
</svg>
