<?xml version="1.0" encoding="UTF-8"?>
<svg width="141px" height="27px" viewBox="0 0 141 27" version="1.1" xmlns="http://www.w3.org/2000/svg" xmlns:xlink="http://www.w3.org/1999/xlink">
    <title>Logo-Sheknows</title>
    <g id="Page-1" stroke="none" stroke-width="1" fill="none" fill-rule="evenodd">
        <g id="Desktop-HD" transform="translate(-652.000000, -651.000000)" fill="#797979" fill-rule="nonzero">
            <g id="Logo-Sheknows" transform="translate(652.150000, 651.000000)">
                <path d="M134.960959,17.3190405 L132.48973,16.7115405 C131.271811,16.4254865 129.91123,15.746473 129.91123,14.1735405 C129.91123,12.600973 131.236054,11.4928784 133.170203,11.4928784 C134.817568,11.4928784 136.286149,12.4937027 136.393419,13.9947568 L138.613622,13.9947568 C138.506351,10.9922838 135.927851,9.45547297 133.134446,9.45547297 C129.946986,9.45547297 127.619149,11.4213649 127.619149,14.1377838 C127.619149,16.9260811 129.517176,18.1414459 131.88077,18.7131892 L134.280486,19.2849324 C135.999365,19.7140135 136.9305,20.6075676 136.9305,21.9659595 C136.9305,23.6457973 135.462284,24.8254054 133.062932,24.8254054 C130.627459,24.8254054 129.338027,23.3958649 129.087365,22.0013514 L126.974432,22.0013514 C127.260851,25.182973 130.161892,26.8628108 133.062568,26.8628108 C136.536446,26.8628108 139.222581,24.9684324 139.222581,22.0017162 C139.222581,20.0715811 138.219932,18.1056892 134.960959,17.3190405 M125.145,9.81267568 L120.274419,23.0382973 L115.368081,9.81267568 L113.004486,9.81267568 L108.133541,23.0740541 L103.227203,9.81267568 L100.756338,9.81267568 L107.167014,26.5052432 L109.172311,26.5052432 L114.150527,12.8509054 L119.343284,26.5056081 L121.348946,26.5056081 L127.580473,9.81304054 L125.145,9.81267568 Z M93.1671486,24.6823784 C89.6217568,24.6823784 86.7207162,22.0732297 86.7207162,18.1053243 C86.7207162,14.1735405 89.6213919,11.6359054 93.1671486,11.6359054 C96.6771486,11.6359054 99.6493378,14.1735405 99.6493378,18.1053243 C99.6493378,22.0732297 96.6767838,24.6823784 93.1671486,24.6823784 M93.1671486,9.45547297 C88.4038378,9.45547297 84.4286351,12.8151486 84.4286351,18.1053243 C84.4286351,23.3958649 88.4038378,26.8628108 93.1671486,26.8628108 C97.9304595,26.8628108 101.941419,23.3958649 101.941419,18.1053243 C101.941419,12.8151486 97.9304595,9.45547297 93.1671486,9.45547297 M76.1060676,9.45547297 C74.0292568,9.45547297 71.3073649,10.4205405 70.3047162,12.8151486 L70.3047162,9.81267568 L68.0126351,9.81267568 L68.0126351,26.5052432 L70.3047162,26.5052432 L70.3047162,17.2478919 C70.3762297,13.2088378 73.2053919,11.7074189 75.891527,11.7074189 C78.5772973,11.7074189 80.6187162,13.6736757 80.6187162,16.8906892 L80.6187162,26.505973 L82.9107973,26.505973 L82.9107973,16.7830541 C82.9107973,12.1718919 80.1531486,9.45547297 76.1060676,9.45547297 M64.8718784,9.91337838 L61.6986486,9.91337838 L55.4594595,16.3437568 L55.4594595,0.465567568 L53.1772297,0.465567568 L53.1772297,26.6895 L55.4594595,26.6895 L55.4594595,18.0681081 L63.873973,26.6898649 L66.9760541,26.6898649 L57.7413243,17.2062973 L64.8718784,9.91337838 Z" id="Shape"></path>
                <path d="M46.4053378,10.6347162 C47.4138243,10.6347162 48.1617973,11.4844865 48.1617973,12.6122838 C48.1617973,15.7388108 44.5193514,17.6463243 41.4081486,18.2841081 C42.0776757,14.5311081 43.8268378,10.6347162 46.4053378,10.6347162 M51.4554324,12.8056622 C51.4554324,11.1623108 49.7963919,9.74116216 46.1794865,9.74116216 C41.1115135,9.74116216 35.3911622,14.2140405 35.3911622,19.5852162 C35.3911622,23.5706351 38.1513649,26.8270541 43.0474865,26.8270541 C46.5691622,26.8270541 49.8314189,24.5743784 51.0876486,21.6386757 L50.2688919,21.2234595 C48.9882162,23.9271081 46.0302568,25.790473 43.8655135,25.790473 C42.5760811,25.790473 41.723027,25.1472162 41.3297027,23.4673784 C41.0578784,22.3592838 41.0531351,20.8221081 41.2403108,19.178027 C44.8356892,18.4782162 51.4554324,16.4477432 51.4554324,12.806027 M31.0967027,25.4332703 C30.7384054,25.4332703 30.3421622,25.2544865 30.2202973,24.6823784 C29.9769324,23.538527 30.4574595,22.4307973 32.2963784,18.2841081 C33.7660541,14.9240676 33.9448378,13.7448243 33.7394189,12.7797568 C33.242473,10.2775135 31.5885405,9.74116216 29.367973,9.74116216 C26.7537162,9.74116216 23.6819189,12.1361351 21.902473,15.8891351 L21.7590811,15.8891351 L24.3514459,8.38277027 C25.1307973,5.98816216 25.5168243,4.7727973 25.2355135,3.45016216 C24.8192027,1.66305405 23.3666757,0.0547297297 20.5729054,0.0547297297 C18.2450676,0.0547297297 16.5210811,1.37736486 15.7647162,3.87960811 L16.6002568,4.27256757 C17.3310811,1.98486486 18.6960405,1.16245946 19.4837838,1.16245946 C20.0927432,1.16245946 20.4324324,1.41275676 20.5619595,2.02062162 C20.7141081,2.73539189 20.4331622,3.77197297 19.3425811,7.0605 L13.0884324,26.4698514 C13.7382568,26.3268243 14.8616757,26.2195541 15.8285676,26.2195541 C16.6166757,26.2195541 18.0794189,26.3625811 18.6391216,26.4698514 L20.1981892,21.6799054 C21.6649459,16.9618378 23.6144189,14.1735405 25.3135946,12.5652162 C26.2330541,11.6712973 27.4473243,10.8138649 28.4503378,10.8138649 C28.9159054,10.8138649 29.1198649,11.0995541 29.1884595,11.4213649 C29.4146757,12.3149189 28.1442162,14.4242027 26.7777973,17.4263108 C25.4883649,20.2861216 24.8706486,22.4307973 25.1672838,23.8245811 C25.5606081,25.5047838 26.8091757,26.8274189 29.3519189,26.8274189 C32.3602297,26.8274189 34.2206757,24.9684324 35.0959865,23.3601081 L34.3016757,22.8237568 C33.4978784,24.4324459 32.0993514,25.4332703 31.0967027,25.4332703" id="Shape"></path>
                <path d="M10.1811892,17.2117703 C9.34528378,15.6392027 7.98251351,13.7805811 7.73914865,12.6363649 C7.51074324,11.5643919 7.93471622,10.5274459 9.6182027,10.5274459 C10.7638784,10.5274459 11.2622838,10.8492568 11.3991081,11.4928784 C11.5439595,12.1718919 11.1674189,12.4221892 11.3783108,13.2442297 C11.5607432,14.102027 12.4703514,14.6741351 13.4372432,14.6741351 C14.547527,14.6741351 15.0528649,13.8520946 14.8018378,12.6724865 C14.4063243,10.8135 12.3514054,9.74116216 9.52224324,9.74116216 C5.69006757,9.74116216 3.14732432,12.600973 3.78656757,15.6034459 C4.104,16.9260811 4.74360811,18.2487162 5.66416216,19.7140135 C6.78904054,21.4653649 7.73367568,22.5380676 8.03031081,23.9318514 C8.20325676,24.5751081 8.30031081,26.0407703 5.90095946,26.0407703 C4.61152703,26.0407703 3.4155,25.469027 3.3012973,24.9326757 C3.17177027,24.3251757 3.86318919,24.0391216 3.62712162,22.931027 C3.44468919,22.0732297 2.74013514,21.2869459 1.55833784,21.2869459 C0.376175676,21.2869459 -0.177689189,22.2162568 0.0503513514,23.2885946 C0.514459459,25.469027 3.52532432,26.8270541 6.10382432,26.8270541 C10.8671351,26.8270541 12.8976081,24.2536622 12.3597973,21.8944459 C11.9949324,20.1788514 11.3542297,19.3564459 10.1815541,17.2117703" id="Path"></path>
            </g>
        </g>
    </g>
</svg>