<?xml version="1.0" encoding="UTF-8"?>
<svg width="58px" height="10px" viewBox="0 0 58 10" version="1.1" xmlns="http://www.w3.org/2000/svg" xmlns:xlink="http://www.w3.org/1999/xlink">
    <title>Logo-Sony</title>
    <g id="Page-1" stroke="none" stroke-width="1" fill="none" fill-rule="evenodd">
        <g id="Desktop-HD" transform="translate(-262.000000, -648.000000)" fill="#797979" fill-rule="nonzero">
            <g id="Logo-Sony" transform="translate(262.935850, 648.000000)">
                <path d="M20.1609091,9.96329545 C18.1109091,9.96329545 16.2079545,9.34852273 14.9377273,8.20840909 C13.9780682,7.34704545 13.5169318,6.17704545 13.5169318,4.97284091 C13.5169318,3.78329545 13.9979545,2.60522727 14.9376136,1.74840909 C16.1172727,0.673295455 18.2,0 20.1609091,0 C22.3309091,0 24.0677273,0.546590909 25.3954545,1.75136364 C26.3401136,2.60863636 26.7968182,3.78147727 26.7968182,4.97295455 C26.7968182,6.12784091 26.3121591,7.35772727 25.3954545,8.20840909 C24.1590909,9.35590909 22.2161364,9.96329545 20.1609091,9.96329545 L20.1609091,8.64920455 C21.2489773,8.64920455 22.2582955,8.27352273 22.9631818,7.57215909 C23.6631818,6.87556818 23.9893182,6.01931818 23.9893182,4.97284091 C23.9893182,3.97034091 23.6375,3.03306818 22.9631818,2.36829545 C22.2677273,1.68329545 21.2343182,1.29784091 20.1609091,1.29784091 C19.0842045,1.29784091 18.0501136,1.67931818 17.3540909,2.36829545 C16.6834091,3.03284091 16.3306818,3.97284091 16.3306818,4.97284091 C16.3306818,5.96977273 16.6875,6.90920455 17.3540909,7.57227273 C18.0506818,8.26522727 19.0811364,8.64931818 20.1609091,8.64931818 L20.1609091,9.96340909 L20.1609091,9.96329545 Z M5.1775,0.00477272727 C4.08090909,0.00477272727 2.83511364,0.209886364 1.77659091,0.682613636 C0.799659091,1.11852273 -2.31531021e-07,1.82352273 -2.31531021e-07,2.99227273 C-0.000454545455,4.04488636 0.668522727,4.66136364 0.650340909,4.64431818 C0.934886364,4.90625 1.39295455,5.35227273 2.59056818,5.61420455 C3.12579545,5.73125 4.27011364,5.91102273 5.40965909,6.03011364 C6.54079545,6.14943182 7.65397727,6.26284091 8.10738636,6.37761364 C8.46761364,6.46931818 9.07272727,6.59420455 9.07272727,7.27306818 C9.07272727,7.94920455 8.43522727,8.15556818 8.32443182,8.20034091 C8.21375,8.24409091 7.44897727,8.595 6.07420455,8.595 C5.05920455,8.595 3.83897727,8.28977273 3.39420455,8.13068182 C2.88147727,7.94818182 2.34363636,7.70681818 1.84193182,7.09397727 C1.71715909,6.94204545 1.52034091,6.52420455 1.52034091,6.11045455 L0.276136364,6.11045455 L0.276136364,9.59681818 L1.65909091,9.59681818 L1.65909091,9.12579545 C1.65909091,9.07215909 1.72613636,8.85159091 1.95829545,8.95647727 C2.24715909,9.08772727 3.09511364,9.42534091 3.98170455,9.61045455 C4.70863636,9.7625 5.17738636,9.87147727 6.08113636,9.87147727 C7.55568182,9.87147727 8.34784091,9.63125 8.89545455,9.47488636 C9.41136364,9.32715909 10.0488636,9.06193182 10.5667045,8.64897727 C10.8471591,8.42568182 11.4621591,7.85329545 11.4621591,6.81431818 C11.4621591,5.81704545 10.9269318,5.19806818 10.7386364,5.00977273 C10.4821591,4.75318182 10.1688636,4.55431818 9.84238636,4.40102273 C9.55795455,4.26715909 9.10909091,4.10636364 8.74181818,4.01647727 C8.02897727,3.84147727 6.41715909,3.62556818 5.64636364,3.54488636 C4.83806818,3.46045455 3.43590909,3.34431818 2.87590909,3.17102273 C2.70613636,3.11840909 2.36,2.95352273 2.36,2.55170455 C2.36,2.26590909 2.51829545,2.02363636 2.83113636,1.82784091 C3.32772727,1.51670455 4.33079545,1.32329545 5.37636364,1.32329545 C6.6125,1.31875 7.65931818,1.60136364 8.32522727,1.89909091 C8.55170455,2.00022727 8.81670455,2.14545455 9.02715909,2.31727273 C9.26465909,2.51090909 9.59806818,2.91329545 9.71863636,3.47454545 L10.8356818,3.47454545 L10.8356818,0.439772727 L9.58840909,0.439772727 L9.58840909,0.7925 C9.58840909,0.906363636 9.47079545,1.05431818 9.24840909,0.932045455 C8.69022727,0.639204545 7.11204545,0.00738636364 5.17727273,0.00477272727 M32.5109091,0.55625 L38.5952273,6.04715909 L38.5327273,2.35022727 C38.5265909,1.86545455 38.4372727,1.66306818 37.9129545,1.66306818 L36.7689773,1.66306818 L36.7689773,0.557159091 L41.97125,0.557159091 L41.97125,1.66306818 L40.8553409,1.66306818 C40.3205682,1.66306818 40.2868182,1.83409091 40.2803409,2.35022727 L40.3746591,9.41420455 L38.5930682,9.41420455 L31.5851136,3.15965909 L31.5865909,7.59852273 C31.5927273,8.08102273 31.6153409,8.30829545 32.1125,8.30829545 L33.3619318,8.30829545 L33.3619318,9.41375 L28.2528409,9.41375 L28.2528409,8.30840909 L29.4471591,8.30840909 C29.8932955,8.30840909 29.8755682,7.88306818 29.8755682,7.57340909 L29.8755682,2.39227273 C29.8755682,2.05784091 29.8286364,1.66386364 29.1281818,1.66386364 L28.1590909,1.66386364 L28.1590909,0.55625 L32.5109091,0.55625 Z M47.9159091,8.30625 C47.9647727,8.30625 48.1818182,8.3 48.2238636,8.28715909 C48.3439773,8.24965909 48.4254545,8.16397727 48.4631818,8.07465909 C48.4790909,8.03715909 48.4870455,7.87125 48.4870455,7.83522727 L48.4879545,6.0875 C48.4879545,6.04545455 48.4848864,6.02727273 48.4135227,5.93363636 C48.3351136,5.83136364 45.2265909,2.30863636 45.0843182,2.15352273 C44.9076136,1.96090909 44.5973864,1.66318182 44.1260227,1.66318182 L43.045,1.66318182 L43.045,0.556818182 L49.1457955,0.556818182 L49.1457955,1.66181818 L48.4103409,1.66181818 C48.2402273,1.66181818 48.1271591,1.82318182 48.2725,2.0025 C48.2725,2.0025 50.3251136,4.45784091 50.3445455,4.48352273 C50.3636364,4.50965909 50.38,4.51590909 50.4061364,4.49204545 C50.4318182,4.46761364 52.5102273,2.025 52.5265909,2.00568182 C52.6254545,1.88727273 52.5584091,1.66306818 52.3453409,1.66306818 L51.5909091,1.66306818 L51.5909091,0.556818182 L56.5909091,0.556818182 L56.5909091,1.66306818 L55.4738636,1.66306818 C55.0686364,1.66306818 54.90375,1.73806818 54.5988636,2.08272727 C54.4594318,2.24045455 51.3177273,5.82647727 51.2322727,5.92363636 C51.1875,5.97443182 51.1913636,6.04522727 51.1913636,6.08727273 L51.1913636,7.83477273 C51.1913636,7.87022727 51.1993182,8.03636364 51.2152273,8.07363636 C51.2530682,8.16340909 51.335,8.24909091 51.455,8.28613636 C51.4970455,8.29909091 51.7111364,8.30545455 51.7598864,8.30545455 L52.9025,8.30545455 L52.9025,9.41159091 L46.8331818,9.41159091 L46.8331818,8.30534091 L47.9161364,8.30625 L47.9159091,8.30625 Z" id="path4258"></path>
            </g>
        </g>
    </g>
</svg>