<?xml version="1.0" encoding="UTF-8"?>
<svg width="69px" height="13px" viewBox="0 0 69 13" version="1.1" xmlns="http://www.w3.org/2000/svg" xmlns:xlink="http://www.w3.org/1999/xlink">
    <title>Logo-Techradar</title>
    <defs>

    </defs>
    <g id="Native-Video" stroke="none" stroke-width="1" fill="none" fill-rule="evenodd">
        <g transform="translate(-1141.000000, -3917.000000)" id="Trusted">
            <g transform="translate(147.000000, 3552.000000)">
                <g id="Logos-Publishers">
                    <g transform="translate(649.000000, 316.000000)">
                        <path d="M386.953839,52.5644781 C388.924288,52.5644781 390.830689,52.9973827 390.830689,55.35598 L390.830689,55.35598 L390.830689,58.997472 C390.830689,59.7035465 390.830689,60.4736692 391.15093,61.1311286 L391.15093,61.1311286 L388.411902,61.1311286 C388.315443,60.8745497 388.283805,60.6175849 388.251395,60.3451868 C387.546864,61.0828995 386.505501,61.3718884 385.512366,61.3718884 C383.926593,61.3718884 382.67688,60.5697416 382.67688,58.8531705 C382.67688,56.1419218 385.624258,56.3502717 387.51484,55.9655962 C387.979383,55.8691379 388.235576,55.7086314 388.235576,55.1954734 C388.235576,54.5696523 387.482816,54.3292783 386.921814,54.3292783 C386.169054,54.3292783 385.688692,54.6657247 385.56021,55.3717991 L385.56021,55.3717991 L383.013326,55.3717991 C383.016013,55.3110312 383.020141,55.2514573 383.025667,55.193058 C382.676425,55.0981559 382.358016,55.0349669 381.992026,55.0349669 C380.646626,55.0349669 379.941709,55.9655962 379.941709,57.008117 L379.941709,57.008117 L379.941709,61.1311286 L377.218114,61.1311286 L377.218114,52.8052379 L379.861456,52.8052379 L379.861456,54.2648442 L379.89348,54.2648442 C380.293975,53.2061184 381.223061,52.6447313 382.392521,52.6447313 C382.60087,52.6447313 382.825039,52.6605505 383.033389,52.7087796 L383.033389,52.7087796 L383.032443,55.1281173 C383.141284,54.1745926 383.630331,53.5418494 384.310882,53.1420701 C385.047823,52.7249846 386.008934,52.5644781 386.953839,52.5644781 Z M399.531995,49.6622421 L399.531995,61.1307428 L396.936882,61.1307428 L396.936882,60.1669319 L396.904858,60.1669319 C396.376267,60.9540313 395.575277,61.3718884 394.614167,61.3718884 C392.00285,61.3718884 390.897824,59.1232536 390.897824,56.7777747 C390.897824,54.6093931 392.051079,52.5536748 394.405818,52.5536748 C395.431362,52.5536748 396.216146,52.9391219 396.776761,53.6938113 L396.776761,53.6938113 L396.808786,53.6938113 L396.808786,49.6622421 L399.531995,49.6622421 Z M403.843293,52.5644781 C405.813742,52.5644781 407.719758,52.9973827 407.719758,55.35598 L407.719758,55.35598 L407.719758,58.997472 C407.719758,59.7035465 407.719758,60.4736692 408.039999,61.1311286 L408.039999,61.1311286 L405.30097,61.1311286 C405.204898,60.8745497 405.172874,60.6175849 405.14085,60.3451868 C404.435933,61.0828995 403.394569,61.3718884 402.401435,61.3718884 C400.815662,61.3718884 399.566334,60.5697416 399.566334,58.8531705 C399.566334,56.1419218 402.513713,56.3502717 404.403909,55.9655962 C404.868452,55.8691379 405.124645,55.7086314 405.124645,55.1954734 C405.124645,54.5696523 404.371884,54.3292783 403.811269,54.3292783 C403.058509,54.3292783 402.577761,54.6657247 402.449664,55.3717991 L402.449664,55.3717991 L399.902395,55.3717991 C399.950624,54.2810492 400.463396,53.5749748 401.200337,53.1420701 C401.936892,52.7249846 402.898388,52.5644781 403.843293,52.5644781 Z M364.489868,52.5471156 C366.55639,52.5471156 368.398743,53.6370939 368.590888,55.8328696 L368.590888,55.8328696 L365.947546,55.8328696 C365.931726,55.1275668 365.307063,54.6309997 364.618351,54.6309997 C363.096625,54.6309997 362.855866,55.9293279 362.855866,57.0829686 C362.855866,58.1571277 363.320794,59.2629252 364.474049,59.2629252 C365.418954,59.2629252 365.899702,58.7181289 366.027799,57.8365005 L366.027799,57.8365005 L368.671141,57.8365005 C368.430767,60.0643003 366.700692,61.3468093 364.489868,61.3468093 C361.991214,61.3468093 360.133042,59.6313957 360.133042,57.0829686 C360.133042,54.4384691 361.814888,52.5471156 364.489868,52.5471156 Z M355.642331,52.5938014 C358.621734,52.5938014 360.111435,54.8212154 359.983339,57.6219773 L359.983339,57.6219773 L353.880232,57.6219773 C353.928461,58.7516964 354.585149,59.4994408 355.738404,59.4994408 C356.395092,59.4994408 357.03596,59.1973335 357.292153,58.5923474 L357.292153,58.5923474 L359.839423,58.5923474 C359.34247,60.501835 357.564552,61.3294468 355.70638,61.3294468 C352.998989,61.3294468 351.157023,59.7062473 351.157023,56.9375095 C351.157023,54.4076024 353.19152,52.5938014 355.642331,52.5938014 Z M349.926987,50.2714724 L349.926987,52.7878754 L351.608833,52.7878754 L351.608833,54.5507465 L349.926987,54.5507465 L349.926987,58.3334534 C349.926987,58.990527 350.311277,59.1348286 350.904302,59.1348286 C351.128471,59.1348286 351.368459,59.1028044 351.608833,59.1028044 L351.608833,59.1028044 L351.608833,61.1060495 C351.112266,61.1222545 350.615699,61.1863028 350.119132,61.1863028 C347.796417,61.1863028 347.203777,60.5130241 347.203777,58.2532001 L347.203777,58.2532001 L347.203777,54.5507465 L345.825968,54.5507465 L345.825968,52.7878754 L347.203777,52.7878754 L347.203777,50.2714724 L349.926987,50.2714724 Z M413.290415,52.6447313 C413.498765,52.6447313 413.722934,52.6605505 413.931283,52.7087796 L413.931283,52.7087796 L413.931283,55.1954734 C413.578632,55.0990152 413.258391,55.0349669 412.88992,55.0349669 C411.54452,55.0349669 410.839603,55.9655962 410.839603,57.008117 L410.839603,57.008117 L410.839603,61.1311286 L408.116008,61.1311286 L408.116008,52.8052379 L410.75935,52.8052379 L410.75935,54.2648442 L410.791374,54.2648442 C411.191869,53.2061184 412.120955,52.6447313 413.290415,52.6447313 Z M413.925882,58.4688808 L413.925882,61.1311286 L411.289099,61.1311286 L411.289099,58.4688808 L413.925882,58.4688808 Z M371.452997,49.6622421 L371.452997,53.925697 L371.484635,53.925697 C371.901335,53.0760927 373.022566,52.5471156 374.0157,52.5471156 C376.787139,52.5471156 377.011308,54.5669515 377.011308,55.7688213 L377.011308,55.7688213 L377.011308,61.1060495 L374.288098,61.1060495 L374.288536,56.9565367 C374.295367,55.8612466 374.36102,54.7911204 372.926493,54.7911204 C371.901335,54.7911204 371.452997,55.6565439 371.452997,56.5701965 L371.452997,56.5701965 L371.452997,61.1060495 L368.729402,61.1060495 L368.729402,49.6622421 L371.452997,49.6622421 Z M388.203552,57.2326718 C387.818876,57.4734316 387.114345,57.5216607 386.52132,57.6817814 C385.912861,57.8264688 385.400089,58.0830478 385.400089,58.7408931 C385.400089,59.4145575 385.929066,59.6873415 386.537525,59.6873415 C387.835081,59.6873415 388.2676,58.9492429 388.203552,57.2326718 Z M405.092621,57.2326718 C404.708331,57.4734316 404.003414,57.5216607 403.410774,57.6817814 C402.80193,57.8264688 402.289544,58.0830478 402.289544,58.7408931 C402.289544,59.4145575 402.818135,59.6873415 403.426594,59.6873415 C404.72415,59.6873415 405.156669,58.9492429 405.092621,57.2326718 Z M395.28706,54.6414172 C394.037347,54.6414172 393.621033,55.8139638 393.621033,56.8742329 C393.621033,58.0147553 394.037347,59.2837601 395.28706,59.2837601 C396.616641,59.2837601 396.904858,58.0147553 396.904858,56.9544862 C396.904858,55.7499155 396.472339,54.6414172 395.28706,54.6414172 Z M355.642331,54.4238074 C354.681221,54.4238074 354.040353,55.1078894 353.880232,56.1102835 L353.880232,56.1102835 L357.260129,56.1102835 C357.212286,55.187371 356.555212,54.4238074 355.642331,54.4238074 Z" id="Logo-Techradar" fill="#797979" fill-rule="nonzero"></path>
                    </g>
                </g>
            </g>
        </g>
    </g>
</svg>
