<?xml version="1.0" encoding="UTF-8"?>
<svg width="58px" height="19px" viewBox="0 0 58 19" version="1.1" xmlns="http://www.w3.org/2000/svg" xmlns:xlink="http://www.w3.org/1999/xlink">
    <title>Logo-The guardian</title>
    <defs>

    </defs>
    <g id="Native-Video" stroke="none" stroke-width="1" fill="none" fill-rule="evenodd">
        <g transform="translate(-1251.000000, -3868.000000)" id="Trusted">
            <g transform="translate(147.000000, 3552.000000)">
                <g id="Logos-Publishers">
                    <g transform="translate(649.000000, 316.000000)">
                        <path d="M468.241441,9.80046731 L469.209867,9.29688599 L469.209867,1.60758653 L468.473863,1.60758653 L466.672592,4.00928208 L466.478906,4.00928208 L466.575749,1.33642736 L474.419997,1.33642736 L474.536208,4.00928208 L474.323154,4.00928208 L472.541251,1.60758653 L471.785879,1.60758653 L471.785879,9.27751747 L472.754305,9.80046731 L472.754305,10.052258 L468.26081,10.052258 L468.26081,9.80046731 L468.241441,9.80046731 Z M475.407791,9.45183409 L475.407791,0.949057111 L474.671787,0.658529424 L474.671787,0.484212812 L477.422116,2.27373675e-13 L477.712644,2.27373675e-13 L477.712644,4.02865059 L477.770749,3.95117654 C478.431374,3.39177043 479.268059,3.08315722 480.133708,3.07959348 C481.334556,3.07959348 481.876874,3.75749142 481.876874,5.01644473 L481.876874,9.4712026 L482.516035,9.80046731 L482.516035,10.052258 L478.93286,10.052258 L478.93286,9.80046731 L479.591389,9.45183409 L479.591389,5.01644473 C479.591389,4.31917828 479.281493,4.04801911 478.700438,4.04801911 C478.358108,4.04078227 478.023473,4.15005067 477.751381,4.35791531 L477.751381,9.4712026 L478.390542,9.81983582 L478.390542,10.052258 L474.807367,10.052258 L474.807367,9.81983582 L475.407791,9.45183409 Z M484.782151,6.85645341 C484.859625,8.25098631 485.479417,9.33562301 486.990161,9.33562301 C487.706796,9.33562301 488.210377,9.0063583 488.69459,8.75456764 L488.69459,9.04509532 C488.041952,9.82131511 487.074467,10.2623745 486.060473,10.2459431 C483.736251,10.2459431 482.57414,8.96762127 482.57414,6.74024234 C482.57414,4.55160043 483.852462,3.19580456 485.944262,3.19580456 C487.91985,3.19580456 488.946381,4.16423018 488.946381,6.75961085 L488.946381,6.8370849 L484.782151,6.85645341 Z M484.743414,6.5271887 L486.777108,6.39160911 C486.777108,4.64844299 486.48658,3.48633224 485.886156,3.48633224 C485.246995,3.48633224 484.743414,4.84212812 484.743414,6.50782019 M455.303275,13.4611162 C455.303275,9.76173028 457.763076,8.42530292 460.494036,8.42530292 C461.656147,8.42530292 462.740784,8.61898805 463.360576,8.87077871 L463.418682,11.4661594 L463.147522,11.4661594 L461.539936,8.94825276 C461.21948,8.82396773 460.875768,8.77108895 460.532773,8.79330466 C459.080135,8.79330466 458.344131,10.4783652 458.3635,13.228694 C458.382868,16.5213411 458.944555,18.0127166 460.300351,18.0127166 C460.571374,18.0199017 460.841174,17.9738384 461.09446,17.877137 L461.09446,14.3520677 L460.222877,13.8484864 L460.222877,13.5385902 L464.48395,13.5385902 L464.48395,13.8678549 L463.612367,14.3520677 L463.612367,17.8384 C462.573631,18.2047466 461.479245,18.3882364 460.377825,18.3807183 C457.278863,18.3807183 455.303275,16.9280799 455.303275,13.4611162 M464.425844,11.71795 L464.425844,11.5242649 L467.311753,11.0206836 L467.621649,11.0400521 L467.621649,16.6569207 C467.621649,17.3541872 467.950913,17.5478723 468.493232,17.5478723 C468.852329,17.5571572 469.195536,17.3998539 469.42292,17.121765 L469.42292,12.0859518 L468.64818,11.7373186 L468.64818,11.5048964 L471.495351,11.0206836 L471.76651,11.0594206 L471.76651,17.5091353 L472.541251,17.8190315 L472.541251,18.0320851 L469.713448,18.3807183 L469.442289,18.3613498 L469.442289,17.5091353 L469.364815,17.5091353 C468.783695,18.0603231 468.015801,18.3716316 467.21491,18.3807183 C465.839746,18.3807183 465.181216,17.5672408 465.181216,16.3470245 L465.181216,12.0859518 L464.425844,11.71795 Z M482.729088,11.0013151 L482.961511,11.0206836 L482.961511,13.1124829 L483.038985,13.1124829 C483.348881,11.5823705 484.00741,11.0206836 484.840256,11.0206836 C484.959147,11.0170893 485.077591,11.0368298 485.18889,11.0787891 L485.18889,13.2093255 C484.998228,13.1667705 484.803147,13.1472624 484.607834,13.15122 C484.074771,13.1385763 483.545548,13.2444209 483.058353,13.4611162 L483.058353,17.5672408 L483.716883,17.9352425 L483.716883,18.1870332 L479.97876,18.1870332 L479.97876,17.9352425 L480.656658,17.5672408 L480.656658,11.9503722 L479.881917,11.71795 L479.881917,11.5242649 L482.729088,11.0013151 Z M489.914807,11.1756317 L489.914807,8.98698979 L489.140066,8.6964621 L489.140066,8.52214549 L492.045343,7.99919565 L492.297134,8.03793267 L492.297134,17.4897668 L493.110611,17.7802944 L493.110611,17.9933481 L490.244071,18.3807183 L490.031018,18.3613498 L490.031018,17.5866093 L489.953544,17.5866093 C489.461372,18.1074833 488.771887,18.3959412 488.055429,18.3807183 C486.505948,18.3807183 485.363206,17.1992391 485.363206,14.7588065 C485.363206,12.2021629 486.699633,10.9432095 488.69459,10.9432095 C489.113478,10.9299327 489.530131,11.0092952 489.914807,11.1756317 M489.914807,17.2186076 L489.914807,11.601739 C489.700118,11.4184808 489.421473,11.3279211 489.140066,11.3499483 C488.365326,11.3693168 487.881113,12.5507961 487.881113,14.6232269 C487.881113,16.4826041 488.229746,17.5285038 489.236909,17.4897668 C489.486253,17.4926502 489.727802,17.402932 489.914807,17.2379761 M496.267679,11.0206836 L496.519469,11.0206836 L496.519469,17.6059778 L497.177999,17.9546111 L497.177999,18.1870332 L493.459244,18.1870332 L493.459244,17.9352425 L494.117774,17.5672408 L494.117774,12.0665833 L493.343033,11.7373186 L493.343033,11.5242649 L496.267679,11.0206836 Z M496.538838,9.23878045 C496.53381,9.57098919 496.395631,9.88727398 496.155298,10.1166823 C495.914966,10.3460907 495.592599,10.4694175 495.260516,10.4589967 C494.824575,10.4589967 494.421748,10.2264248 494.203778,9.8488886 C493.985807,9.47135236 493.985807,9.00620853 494.203778,8.62867229 C494.421748,8.25113606 494.824575,8.01856415 495.260516,8.01856416 C495.948468,8.00765583 496.517754,8.55106498 496.538838,9.23878045 M505.506459,17.5866093 L505.506459,11.9891092 L504.731719,11.71795 L504.731719,11.4467909 L507.57889,10.9044725 L507.869418,10.9432095 L507.869418,11.7760556 L507.946892,11.7760556 C508.620752,11.1956595 509.478634,10.8730956 510.367956,10.8657355 C511.60754,10.8657355 512.169227,11.4467909 512.169227,12.7638497 L512.169227,17.5672408 L512.827757,17.9352425 L512.827757,18.1870332 L509.109002,18.1870332 L509.109002,17.9352425 L509.7869,17.5672408 L509.7869,12.9187978 C509.7869,12.1827943 509.477004,11.8922667 508.87658,11.8922667 C508.525807,11.8892367 508.184386,12.0053199 507.908155,12.2215314 L507.908155,17.5672408 L508.547316,17.9352425 L508.547316,18.1870332 L504.84793,18.1870332 L504.84793,17.9352425 L505.506459,17.5866093 Z M501.380966,14.1002771 L501.380966,13.15122 C501.380966,11.7373186 501.090438,11.2918428 500.218855,11.2918428 C500.115675,11.2848314 500.012139,11.2848314 499.908959,11.2918428 L498.359478,13.4223791 L498.146424,13.4223791 L498.146424,11.4855279 C498.987786,11.1926866 499.870433,11.0357716 500.761174,11.0206836 C502.659288,11.0206836 503.763293,11.5436334 503.763293,13.15122 L503.763293,17.7028204 L504.441191,17.8965055 L504.441191,18.0708221 C504.009384,18.2885762 503.53005,18.3950949 503.046658,18.3807183 C502.097601,18.3807183 501.652125,18.0708221 501.439071,17.5672408 L501.380966,17.5672408 C500.993596,18.1095592 500.41254,18.4000868 499.521589,18.4000868 C498.398215,18.4000868 497.623475,17.7028204 497.623475,16.4826041 C497.623475,15.3204934 498.359478,14.6619639 499.850853,14.3908048 L501.380966,14.1002771 Z M501.380966,17.2379761 L501.380966,14.4101733 L500.916122,14.4489103 C500.16075,14.5070158 499.908959,14.9718601 499.908959,16.0371283 C499.908959,17.1798706 500.276961,17.4703982 500.799911,17.4703982 C501.022737,17.484334 501.238762,17.3907232 501.380966,17.2186076 M476.550533,14.0615401 L476.550533,13.15122 C476.550533,11.7373186 476.240637,11.2724743 475.369054,11.2724743 C475.271482,11.2791572 475.17444,11.2920961 475.078526,11.3112113 L473.509677,13.3836421 L473.315991,13.3836421 L473.315991,11.4467909 C474.152262,11.1625555 475.028185,11.0122107 475.911372,11.0013151 C477.809486,11.0013151 478.913491,11.5242649 478.913491,13.1318515 L478.913491,17.6834519 L479.591389,17.877137 L479.591389,18.0514536 C479.159582,18.2692076 478.680248,18.3757264 478.196857,18.3613498 C477.247799,18.3613498 476.802324,18.0514536 476.58927,17.5478723 L476.531164,17.5478723 C476.143794,18.0901906 475.562739,18.3807183 474.691156,18.3807183 C473.548414,18.3807183 472.793042,17.6834519 472.793042,16.4632356 C472.793042,15.3011249 473.509677,14.6425954 475.001052,14.3714363 L476.550533,14.0615401 Z M476.550533,17.2186076 L476.550533,14.4101733 L476.06632,14.4489103 C475.330317,14.5070158 475.059158,14.9718601 475.059158,16.0371283 C475.059158,17.1798706 475.446528,17.4703982 475.950109,17.4703982 C476.172935,17.484334 476.38896,17.3907232 476.531164,17.2186076" id="Logo-The-guardian" fill="#797979" fill-rule="nonzero"></path>
                    </g>
                </g>
            </g>
        </g>
    </g>
</svg>
