<?xml version="1.0" encoding="UTF-8"?>
<svg width="91px" height="29px" viewBox="0 0 91 29" version="1.1" xmlns="http://www.w3.org/2000/svg" xmlns:xlink="http://www.w3.org/1999/xlink">
    <title>Logo-Total</title>
    <g id="Page-1" stroke="none" stroke-width="1" fill="none" fill-rule="evenodd">
        <g id="Desktop-HD" transform="translate(-243.000000, -548.000000)" fill="#797979" fill-rule="nonzero">
            <g id="Logo-Total" transform="translate(243.495145, 548.781250)">
                <g id="g12" transform="translate(33.194974, 10.483205)">
                    <path d="M16.7338678,10.9792207 C13.0755962,10.9792207 10.9732705,9.40303855 10.9732705,6.66139594 C10.9732705,3.94823403 13.0755962,2.37804779 16.7338678,2.37804779 C20.3958869,2.37804779 22.4877197,3.94823403 22.4877197,6.66139594 C22.4877197,9.40303855 20.3958869,10.9792207 16.7338678,10.9792207 M16.7338678,4.36794968 C14.733473,4.36794968 13.7201595,5.13393075 13.7201595,6.66139594 C13.7201595,8.20684893 14.733473,8.98107442 16.7338678,8.98107442 C18.7335131,8.98107442 19.7543216,8.20684893 19.7543216,6.66139594 C19.7543216,5.13393075 18.7335131,4.36794968 16.7338678,4.36794968" id="path2" transform="translate(16.730495, 6.678634) scale(-1, 1) rotate(-180.000000) translate(-16.730495, -6.678634) "></path>
                    <path d="M23.2372118,10.8608011 L23.2372118,9.02604405 L26.7058619,9.02604405 L26.7058619,3.33140201 C26.7058619,2.78727064 27.5333013,2.58940469 28.2325776,2.58940469 C28.9348518,2.58940469 29.7637902,2.77827674 29.7637902,3.33140201 L29.7637902,9.02604405 L33.2264444,9.02604405 L33.2264444,10.8608011 L23.2372118,10.8608011 Z" id="path4" transform="translate(28.231828, 6.725103) scale(-1, 1) rotate(-180.000000) translate(-28.231828, -6.725103) "></path>
                    <path d="M51.6819404,4.39857 C50.8342624,4.39857 50.2511574,4.54247251 49.9318737,4.80329581 C49.5189035,5.15555716 49.4731845,5.67495528 49.4611926,6.07293566 L49.4611926,10.0917131 C49.4611926,10.6268505 48.6757248,10.8029812 48.0004322,10.8029812 C47.3221418,10.8029812 46.5299285,10.6268505 46.5299285,10.1014565 L46.5299285,6.20784426 C46.5299285,4.72010217 47.0051066,3.67830796 47.9569617,3.11019284 C49.1306665,2.42890439 51.261473,2.45438713 53.3113343,2.48136885 L55.8671028,2.48136885 L55.8738482,2.85011903 L55.8738482,4.39857 L51.6819404,4.39857 Z" id="path6" transform="translate(51.201888, 6.636983) scale(-1, 1) rotate(-180.000000) translate(-51.201888, -6.636983) "></path>
                    <path d="M4.30661167,2.71157615 C4.30661167,1.25980968 5.52678579,0.271229413 7.59838159,0.102593659 L7.59838159,8.85141657 L12.2467325,8.85141657 L12.2467325,10.8750456 L0.132689391,10.8750456 L0.132689391,8.85141657 L4.30661167,8.85141657 L4.30661167,2.71157615 Z" id="path8" transform="translate(6.189711, 5.488820) scale(-1, 1) rotate(-180.000000) translate(-6.189711, -5.488820) "></path>
                    <path d="M45.3457286,2.46124082 L45.2722783,2.7917669 C44.5909876,6.15548807 40.7685772,9.99888428 39.9748649,10.5669994 C39.7192881,10.7416311 39.4464729,10.7866006 39.0927126,10.794845 C38.7314573,10.7866006 38.4496557,10.7416311 38.1963273,10.5669994 C37.407112,9.99888428 33.5794551,6.15548807 32.9079101,2.7917669 L32.8322114,2.46124082 L35.5393774,2.46124082 L35.5880944,2.69808037 C35.6982697,3.17625642 35.8736509,3.69190708 36.1097409,4.22404657 L42.0607018,4.22404657 C42.2945434,3.69190708 42.4759205,3.17625642 42.5763525,2.69808037 L42.6340634,2.46124082 L45.3457286,2.46124082 Z M37.0668425,5.95087669 C37.6349577,6.81654022 38.32524,7.65971899 39.0927126,8.40921123 C39.8511987,7.65971899 40.5339861,6.81654022 41.1065982,5.95087669 L37.0668425,5.95087669 Z" id="path10" transform="translate(39.088970, 6.628043) scale(-1, 1) rotate(-180.000000) translate(-39.088970, -6.628043) "></path>
                </g>
                <path d="M25.6042217,15.6013981 C25.5862344,15.5436871 25.5644994,15.486726 25.5412662,15.4275154 C23.5393712,17.7127179 18.6249512,19.1914665 14.2044458,18.8616898 C11.5992095,18.6683202 6.77622696,17.3214825 4.34337427,15.8314921 C6.91263408,18.2928254 9.92259504,20.1673056 13.3290373,21.177621 C17.3762965,22.3790565 21.6956196,22.298111 24.1292221,21.0299708 C25.9145129,19.825536 26.3177398,17.6782415 25.6042217,15.6013981" id="path14"></path>
                <path d="M20.0366937,1.23288239 C28.0075438,5.9374459 23.2640073,20.7444138 16.9210556,25.5006917 C11.0180533,29.9256933 4.74180485,27.8863254 3.38072754,23.8075883 C4.57092004,25.5741419 6.93032254,26.2172063 9.02665158,25.5141829 C14.852456,23.1787648 17.8519237,12.6266637 18.2401612,8.96014687 C18.5002354,5.80628475 18.087265,3.68896917 16.9930062,2.3526234 C15.7383558,1.02677278 13.8159081,0.38445816 11.0030625,1.26736008 C12.9390014,-0.321563187 17.0806973,-0.508187225 20.0366937,1.23288239" id="path16"></path>
                <path d="M24.4971475,20.8193637 C24.5263779,20.8036244 24.561604,20.7811396 24.5923327,20.7601531 C24.5945808,20.7564108 24.6035731,20.752655 24.6088217,20.7489127 C24.7707129,20.641736 24.9341023,20.5210667 25.0862487,20.3831613 C25.1529533,20.3194533 25.2249052,20.2534985 25.2931094,20.17855 C28.3945079,17.032929 29.0525617,8.28410706 21.4152346,4.1401636 C18.6953281,2.66516398 12.369612,0.600312583 6.06413446,3.78490552 C3.97979562,4.83569302 1.8287535,7.02495917 0.6685399,9.99819504 C1.52520927,8.58764994 3.00395658,7.62979821 5.91873235,7.21682917 C8.82826081,6.85332456 12.8365456,7.30527013 16.757891,8.68883225 C19.2874271,9.61895052 21.3350402,10.7724203 22.9322073,12.0772864 C24.2528125,13.2090198 25.1012381,14.2822925 25.5411908,15.4290163 C25.564424,15.4874758 25.5846608,15.5436885 25.6041477,15.6013994 C26.3176644,17.6782415 25.9144375,19.8255373 24.1306463,21.0299708 C24.1291521,21.0329727 24.1321406,21.0277227 24.1306463,21.0299708 C24.2115906,20.987999 24.2940344,20.9430294 24.3839737,20.8890662 C24.395214,20.8823219 24.4072083,20.8748265 24.41845,20.8665813 C24.4416846,20.8538333 24.4686669,20.8396004 24.4971475,20.8193637" id="path18"></path>
                <path d="M1.65502158,15.0317838 C1.80267177,15.2641273 2.13169869,15.659109 2.34830158,15.9101896 C3.88176196,12.3096283 12.2715783,9.96971379 14.7456535,9.99669542 C9.18741735,8.20765763 3.73785946,9.06207898 1.54559542,10.9620415 C0.7496349,11.8479411 0.503051823,13.1775405 1.65502158,15.0317838" id="path20"></path>
                <path d="M18.0153885,23.2004998 C13.5514131,22.9509188 7.04282062,21.2278365 2.43269465,16.0053748 C2.40946004,15.9753946 2.38172927,15.944666 2.349501,15.9101896 C2.13214831,15.659109 1.80312004,15.2656256 1.65472138,15.0317838 C0.502751631,13.1775405 0.750834323,11.8479411 1.54604504,10.9612917 C1.40289235,11.0924529 1.22451221,11.2550928 1.02364855,11.5151664 C-0.156801831,13.0411329 -0.298454908,15.5182044 0.506499323,18.1421773 C2.26480773,23.842066 9.94485504,27.2702433 16.18288,26.327381 C20.1649323,25.7270381 22.6607419,23.4860567 23.6987881,22.5694269 C21.4435658,23.2109931 19.775945,23.2979344 18.0153885,23.2004998" id="path22"></path>
            </g>
        </g>
    </g>
</svg>