<?xml version="1.0" encoding="UTF-8"?>
<svg width="88px" height="16px" viewBox="0 0 88 16" version="1.1" xmlns="http://www.w3.org/2000/svg" xmlns:xlink="http://www.w3.org/1999/xlink">
    <title>Logo-Toyota</title>
    <defs>

    </defs>
    <g id="Native-Video" stroke="none" stroke-width="1" fill="none" fill-rule="evenodd">
        <g transform="translate(-605.000000, -3871.000000)" id="Trusted">
            <g transform="translate(147.000000, 3552.000000)">
                <g id="Group-2">
                    <g transform="translate(0.000000, 309.000000)">
                        <g id="Logo-Toyota" transform="translate(458.171053, 10.500000)" fill="#797979" fill-rule="nonzero">
                            <path d="M10.2682992,13.54701 C9.11935707,12.8274936 8.27329709,10.344134 8.27329709,7.39388809 C8.27329709,7.285618 8.27375392,7.17871841 8.27649494,7.07227566 L8.27786545,7.07364617 C5.08275557,6.57158358 2.77390723,5.19559402 2.71497541,3.56880159 L2.70538185,3.58753186 C1.92327889,4.5592217 1.47695028,5.68258103 1.47695028,6.87949094 C1.47695028,10.4016953 5.343152,13.2875273 10.2472848,13.5428985 L10.2682992,13.54701 Z M0,7.13668951 C0,3.19556671 4.90458959,0 10.9549235,0 C17.0052574,0 21.909847,3.19556671 21.909847,7.13668951 C21.909847,11.0778123 17.0052574,14.273379 10.9549235,14.273379 C4.90458959,14.273379 0,11.0778123 0,7.13668951 Z M10.9549235,1.02970799 C12.1230527,1.02970799 13.1162138,2.80131738 13.4844235,5.27371295 L13.485794,5.27005827 C15.7580955,4.91646733 17.3492547,4.10010168 17.3492547,3.1507968 C17.3492547,1.8762248 14.4862645,0.844689471 10.9549235,0.844689471 C7.42358242,0.844689471 4.5605922,1.87668164 4.5605922,3.1507968 C4.5605922,4.10010168 6.1512946,4.91601049 8.42405292,5.27005827 L8.42542342,5.27371295 C8.79363311,2.80177422 9.78725107,1.02970799 10.9549235,1.02970799 Z M11.6621054,13.5428985 C16.5662381,13.2875273 20.4328967,10.4016953 20.4328967,6.87949094 C20.4328967,5.68258103 19.9861112,4.5592217 19.2044651,3.58753186 L19.1948715,3.56880159 C19.1359397,5.19559402 16.8275482,6.57158358 13.6319815,7.07364617 L13.633352,7.07227566 C13.6356362,7.17871841 13.6365499,7.285618 13.6365499,7.39388809 C13.6365499,10.344134 12.7895762,12.8274936 11.6415477,13.54701 L11.6621054,13.5428985 Z M10.9549235,5.45736096 C11.4784574,5.45736096 11.9869156,5.434976 12.4734458,5.39203344 L12.472989,5.39249027 C12.230866,3.80772674 11.6424614,2.6893926 10.9549235,2.6893926 C10.2673855,2.6893926 9.67943781,3.80772674 9.43685798,5.39249027 L9.43640114,5.39203344 C9.92293131,5.434976 10.4313896,5.45736096 10.9549235,5.45736096 Z M10.9549235,11.3258742 C11.8343325,11.3258742 12.5515647,9.4957898 12.589939,7.20064653 L12.5945073,7.20201704 C12.0645777,7.25089847 11.5163747,7.27693812 10.9549235,7.27693812 C10.3934722,7.27693812 9.84526922,7.25135531 9.31533964,7.20201704 L9.32036484,7.20064653 C9.35828221,9.49624663 10.0755145,11.3258742 10.9549235,11.3258742 Z" id="Shape"></path>
                            <path d="M55.8993472,7.13668951 C55.8993472,4.12431398 58.3415916,1.6825264 61.3535103,1.6825264 C64.3667995,1.6825264 66.8085871,4.12477081 66.8085871,7.13668951 C66.8085871,10.1495219 64.3663427,12.5908526 61.3535103,12.5908526 C58.3415916,12.5908526 55.8993472,10.1490651 55.8993472,7.13668951 Z M61.3535103,10.5908253 C63.0360367,10.5908253 64.3996917,9.04397915 64.3996917,7.13623268 C64.3996917,5.22894304 63.0360367,3.68164005 61.3535103,3.68164005 C59.6718976,3.68164005 58.3086995,5.2284862 58.3086995,7.13623268 C58.3086995,9.04397915 59.6723544,10.5908253 61.3535103,10.5908253 Z" id="Shape"></path>
                            <polygon id="Path" points="72.9977991 3.95482788 72.9977991 12.3432476 70.6999148 12.3432476 70.6999148 3.95482788 70.707681 3.95482788 67.4938409 3.95482788 67.4938409 2.05804547 76.203873 2.05804547 76.203873 3.95437104 73.0060221 3.95437104 72.9977991 3.95437104"></polygon>
                            <path d="M78.9837191,10.0293741 L78.9814349,10.0316582 L78.0997418,12.3437044 L75.4158312,12.3437044 L79.6589225,2.0585023 L81.0897324,2.0585023 L82.5191717,2.0585023 L86.7627198,12.3437044 L84.0783524,12.3437044 L83.1966593,10.0316582 L83.1943751,10.0293741 L81.0897324,10.0293741 L78.9837191,10.0293741 Z M81.0897324,8.29339786 L82.5356178,8.29339786 L82.5347041,8.2938547 L81.0993259,4.52952737 L81.0792251,4.52952737 L79.6429332,8.2938547 L79.6424764,8.29339786 L81.0897324,8.29339786 Z" id="Shape"></path>
                            <polygon id="Path" points="30.634041 3.95482788 30.634041 12.3432476 28.3356999 12.3432476 28.3356999 3.95482788 28.3434661 3.95482788 25.1291691 3.95482788 25.1291691 2.05804547 33.8396581 2.05804547 33.8396581 3.95437104 30.6418072 3.95437104 30.634041 3.95437104"></polygon>
                            <path d="M34.4280627,7.13668951 C34.4280627,4.12431398 36.8703071,1.6825264 39.8831395,1.6825264 C42.895515,1.6825264 45.3377594,4.12477081 45.3377594,7.13668951 C45.3377594,10.1495219 42.895515,12.5908526 39.8831395,12.5908526 C36.8703071,12.5908526 34.4280627,10.1490651 34.4280627,7.13668951 Z M39.8831395,10.5908253 C41.5647522,10.5908253 42.928864,9.04397915 42.928864,7.13623268 C42.928864,5.22894304 41.565209,3.68164005 39.8831395,3.68164005 C38.2010699,3.68164005 36.8374149,5.2284862 36.8374149,7.13623268 C36.8374149,9.04397915 38.2010699,10.5908253 39.8831395,10.5908253 Z" id="Shape"></path>
                            <polygon id="Path" points="50.6183249 12.3432476 51.7837131 12.3432476 51.7837131 8.48618259 51.7837131 8.43775799 55.7929045 2.05804547 53.1094507 2.05804547 50.6183249 6.38108303 48.1276559 2.05804547 45.4432885 2.05804547 49.4529367 8.43775799 49.4529367 8.48572575 49.4529367 12.3427908 50.6183249 12.3427908"></polygon>
                        </g>
                    </g>
                </g>
            </g>
        </g>
    </g>
</svg>
