<?xml version="1.0" encoding="UTF-8"?>
<svg width="109px" height="17px" viewBox="0 0 109 17" version="1.1" xmlns="http://www.w3.org/2000/svg" xmlns:xlink="http://www.w3.org/1999/xlink">
    <title>Logo-TurkishAirlines</title>
    <g id="Page-1" stroke="none" stroke-width="1" fill="none" fill-rule="evenodd">
        <g id="Desktop-HD" transform="translate(-233.000000, -797.000000)" fill-rule="nonzero">
            <g id="Logo-TurkishAirlines" transform="translate(233.495145, 797.000000)">
                <path d="M6.30704472,8.7252251 C7.01548655,6.06369852 6.20749427,3.27470456 4.27495064,1.79672207 C1.64239313,3.46327103 0.124379889,6.59674136 0.67269764,9.86136601 C0.85336338,10.9406189 1.24471786,11.9324369 1.79566932,12.8015282 C3.85409958,12.2284545 5.66391698,11.1434074 6.30704472,8.7252251 M9.86031218,16.4058882 C14.2052439,15.6763775 17.1348723,11.5626776 16.4048357,7.21932758 C15.7975246,3.60390589 12.8499879,0.96924163 9.37414745,0.605276572 C8.67255418,0.531535468 7.94778447,0.551550843 7.21669341,0.673750388 C6.35023601,0.819125708 5.54224412,1.10092211 4.80641328,1.4912232 C8.63568329,2.79012016 10.6946401,4.76427487 10.8373827,6.78741472 C10.9074365,8.03627317 10.3269884,8.93960187 9.56429466,9.6759598 L14.9789986,9.29777294 C15.1322749,9.28724187 15.1802068,9.46579681 14.9948006,9.51899558 L2.07957261,13.2218528 C3.39427116,15.032724 5.43584631,16.2373371 7.70338538,16.4743617 C8.40497864,16.5481035 9.12974836,16.5291409 9.86031218,16.4058882 M9.4241869,0.129646414 C13.6774686,0.57261973 16.9947646,4.16697186 16.9963454,8.53718545 C16.9979225,13.2071039 13.2128987,16.9947639 8.54245431,16.9963448 C3.87200807,16.9979246 0.0848756921,13.2134253 0.0832949972,8.54297956 C0.0817152916,3.87253426 3.86621423,0.0848750625 8.5366602,0.0832948622 C8.83583839,0.0832948622 9.13238315,0.0996232834 9.4241869,0.129646414" id="path10" fill="#FFFFFF"></path>
                <path d="M0.67269764,9.86189189 C0.85336338,10.9406189 1.24471786,11.9324369 1.79566932,12.8015282 C3.85409958,12.2284545 5.66391698,11.1434074 6.30757141,8.7252251 C7.01548655,6.06369852 6.20749427,3.27470456 4.27442381,1.79672207 C1.64239313,3.46327103 0.124379889,6.59726805 0.67269764,9.86189189 M16.4048357,7.21880035 C17.1348723,11.5626776 14.2052439,15.6763775 9.86031218,16.4058882 C9.12974836,16.5291409 8.40497864,16.5481035 7.70285815,16.4743617 C5.436373,16.2373371 3.39374433,15.032724 2.07957261,13.2218528 L14.9948006,9.51899558 C15.1802068,9.46527093 15.1322749,9.28723783 14.9789986,9.29777294 L9.56429466,9.6759598 C10.3269884,8.93960187 10.9074365,8.03627317 10.8373827,6.78741472 C10.6946401,4.76427487 8.63568329,2.79012016 4.80641328,1.4912232 C5.54224412,1.10092211 6.35023601,0.819125708 7.21669341,0.673750388 C7.94778447,0.551550843 8.67255418,0.531535468 9.37414745,0.605276572 C12.8499879,0.96924163 15.7975246,3.60390589 16.4048357,7.21880035" id="path12" fill="#797979"></path>
                <polygon id="path14" fill="#797979" points="60.7964535 11.8565889 60.7964535 9.07602308 58.0085132 9.07602308 58.0085132 11.8565889 56.4783847 11.8565889 56.4783847 5.23358437 58.0085132 5.23358437 58.0085132 7.87193585 60.7964535 7.87193585 60.7964535 5.23358437 62.3381701 5.23358437 62.3381701 11.8565889"></polygon>
                <path d="M27.8162708,5.23358437 L27.8162708,9.37994093 C27.8162708,9.83818956 27.8836913,10.2348119 28.0169532,10.5571652 C28.1491592,10.876885 28.3408868,11.1428802 28.5868662,11.3472491 C28.8349518,11.5537242 29.1346573,11.7059461 29.4764991,11.7997023 C29.8241364,11.895566 30.216545,11.944551 30.6426624,11.944551 C31.0682539,11.944551 31.4569745,11.895566 31.7972374,11.7997023 C32.1322333,11.7059461 32.4177158,11.5542501 32.6468401,11.3493553 C32.8754385,11.1449878 33.0550506,10.8789926 33.1804095,10.5587455 C33.3068228,10.2374453 33.3700294,9.840823 33.3700294,9.37994093 L33.3700294,5.23358437 L31.9383996,5.23358437 L31.9383996,9.33569694 C31.9383996,9.75338678 31.8346355,10.0910162 31.6302666,10.338576 C31.4211581,10.5908754 31.0887969,10.718869 30.6426624,10.718869 C30.2039036,10.718869 29.8741745,10.5914026 29.6613794,10.3396291 C29.4527968,10.0925965 29.3469265,9.75496712 29.3469265,9.33569694 L29.3469265,5.23358437 L27.8162708,5.23358437 Z" id="path16" fill="#797979"></path>
                <path d="M23.4023397,11.857642 L23.4023397,6.47032803 L21.6030567,6.47032803 L21.6030567,5.23358437 L26.742812,5.23358437 L26.742812,5.82667347 C26.742812,6.18168428 26.4546948,6.47032803 26.0996844,6.47032803 L24.932994,6.47032803 L24.932994,11.857642 L23.4023397,11.857642 Z" id="path18" fill="#797979"></path>
                <polygon id="path20" fill="#797979" points="47.9986856 5.23305754 49.5293399 5.23305754 49.5293399 11.8560617 47.9986856 11.8560617"></polygon>
                <path d="M42.9015939,8.7678901 L42.9532137,8.8337302 L44.9084064,11.3530419 C45.1570193,11.6738162 45.5325714,11.8581693 45.9386743,11.8581693 L47.1575091,11.8581693 L44.3564016,8.2954198 L44.3153169,8.24274826 L44.3564016,8.19060259 L46.6592303,5.23095065 L45.0664224,5.23095065 L42.9547941,8.08578539 L42.9015939,8.15478616 L42.9010546,8.03522006 L42.9010546,5.23095065 L41.3704003,5.23095065 L41.3704003,11.8544814 L42.9010546,11.8544814 L42.9010546,8.88587587 L42.9015939,8.7678901 Z" id="path22" fill="#797979"></path>
                <path d="M36.3144067,8.26487025 L37.2066745,8.26487025 C37.5279746,8.26487025 37.772901,8.17638093 37.9340776,8.00309017 C38.0936739,7.83137841 38.1747901,7.6080482 38.1747901,7.33994679 C38.1747901,7.0649968 38.0957815,6.83903356 37.9403989,6.66732206 C37.7823816,6.4924503 37.5358763,6.40448766 37.2066745,6.40448766 L36.3144067,6.40448766 L36.3144067,8.26487025 Z M39.3751895,11.8555358 C38.9216819,11.8555358 38.49451,11.6148233 38.2601188,11.2271558 L37.0692001,9.26090206 L36.3144067,9.26090206 L36.3144067,11.8555358 L34.7848055,11.8555358 L34.7848055,5.23358437 L37.5121726,5.23358437 C38.2127141,5.23358437 38.7615583,5.41635686 39.1429045,5.77716165 C39.5231989,6.1369128 39.7159782,6.62992475 39.7159782,7.24197545 C39.7159782,7.55274187 39.633283,7.86772207 39.4700001,8.17796126 C39.3088221,8.48293357 39.0233397,8.73259954 38.6203961,8.91958609 L38.5319068,8.96067075 L40.3901826,11.8555358 L39.3751895,11.8555358 Z" id="path24" fill="#797979"></path>
                <path d="M50.7855715,11.575319 L50.7855715,10.3053916 C51.2727907,10.5297763 51.9006435,10.7536324 52.5495652,10.7536324 C53.2964569,10.7536324 53.6751697,10.4976464 53.6751697,10.0067407 C53.6751697,9.43050626 53.1668829,9.36677372 52.1492564,8.92906675 C51.4566165,8.61988066 50.7966338,8.13951004 50.7966338,7.03023347 C50.7966338,5.73923765 51.7816033,5.13087351 53.1452868,5.13087351 C53.8700565,5.13087351 54.4873756,5.30153149 54.8334326,5.42952502 L54.8334326,6.66732206 C54.4873756,6.50719852 53.8700565,6.31494496 53.253266,6.31494496 C52.582221,6.31494496 52.2682952,6.56039743 52.2682952,6.98704259 C52.2682952,7.43528333 52.6475352,7.57433799 53.329114,7.8303253 C54.2055797,8.26750369 55.2232063,8.45975712 55.2232063,9.95354189 C55.2232063,11.2445381 54.1950446,11.9487648 52.8203001,11.9487648 C51.9759643,11.9487648 51.3054464,11.7991764 50.7855715,11.575319" id="path26" fill="#797979"></path>
                <path d="M98.0620478,11.8560617 L98.0620478,5.23253085 L102.209458,5.23253085 L102.209458,5.83352082 C102.209458,6.18431786 101.923974,6.46927452 101.573705,6.46927452 L99.5927021,6.46927452 L99.5927021,7.89405784 L101.817051,7.89405784 L101.817051,8.99964786 L99.5927021,8.99964786 L99.5927021,10.6198459 L102.209458,10.6198459 L102.209458,11.8560617 L98.0620478,11.8560617 Z" id="path28" fill="#797979"></path>
                <path d="M82.9303731,11.8555358 L82.9303731,5.23253085 L83.6741041,5.23253085 C84.1075973,5.23253085 84.4605015,5.58543478 84.4605015,6.01892703 L84.4605015,10.6625096 L86.903438,10.6625096 L86.903438,11.8555358 L82.9303731,11.8555358 Z" id="path30" fill="#797979"></path>
                <polygon id="path32" fill="#797979" points="73.4562212 11.8544814 73.4562212 5.23569125 74.9868755 5.23569125 74.9863361 11.8544814"></polygon>
                <path d="M77.9201918,8.26381715 L78.8124595,8.26381715 C79.1337597,8.26381715 79.3781587,8.17585505 79.5398626,8.00256295 C79.6994589,7.8303253 79.7805738,7.60752098 79.7805738,7.33889233 C79.7805738,7.06447092 79.7015665,6.83798005 79.5456567,6.66626868 C79.3881666,6.49192361 79.1411341,6.40343428 78.8124595,6.40343428 L77.9201918,6.40343428 L77.9201918,8.26381715 Z M80.9809745,11.8544814 C80.5274669,11.8544814 80.0997678,11.6137702 79.8653766,11.2266285 L78.6749851,9.26037483 L77.9201918,9.26037483 L77.9201918,11.8544814 L76.3905906,11.8544814 L76.3905906,5.23305754 L79.1174318,5.23305754 C79.8184978,5.23305754 80.3668161,5.41583017 80.7486895,5.77663483 C81.1289826,6.13638611 81.3217632,6.62939806 81.3217632,7.24144957 C81.3217632,7.55221599 81.239068,7.86719484 81.0752579,8.17743403 C80.9146072,8.48188046 80.6285975,8.73154644 80.2261811,8.91905886 L80.1376918,8.96014352 L81.9959676,11.8544814 L80.9809745,11.8544814 Z" id="path34" fill="#797979"></path>
                <path d="M68.1958466,9.44262171 L68.7968364,7.76869763 C68.930097,7.39209245 69.0638848,6.99441704 69.1529013,6.70155897 L69.1750233,6.70155897 C69.2529789,7.00495081 69.3867653,7.38155733 69.5200258,7.76869763 L70.0988937,9.44262171 L68.1958466,9.44262171 Z M70.0867796,5.23200417 L68.3291072,5.23200417 L65.8313916,11.8555358 L66.933821,11.8555358 C67.2140365,11.8555358 67.461069,11.6769768 67.5485052,11.4115089 L67.8050184,10.6340663 L70.4913022,10.6340663 L70.8842366,11.8555358 L72.5423587,11.8555358 L70.0867796,5.23200417 Z" id="path36" fill="#797979"></path>
                <path d="M103.438828,11.575319 L103.438828,10.3059189 C103.925518,10.5297763 104.553371,10.7536324 105.20282,10.7536324 C105.949712,10.7536324 106.328426,10.4976464 106.328426,10.0067407 C106.328426,9.43050626 105.819612,9.36677372 104.802511,8.92959398 C104.109871,8.61988066 103.449362,8.14003727 103.449362,7.03023347 C103.449362,5.73923765 104.434332,5.13087351 105.798016,5.13087351 C106.523313,5.13087351 107.140105,5.30153149 107.486687,5.42952502 L107.486687,6.66732206 C107.140105,6.50772521 106.523313,6.31547165 105.906521,6.31547165 C105.235477,6.31547165 104.92155,6.56092425 104.92155,6.98756982 C104.92155,7.43528333 105.300264,7.57433799 105.981842,7.8303253 C106.858835,8.26750369 107.875935,8.45975712 107.875935,9.95354189 C107.875935,11.2445381 106.847774,11.9487648 105.473555,11.9487648 C104.629219,11.9487648 103.958175,11.7991764 103.438828,11.575319" id="path38" fill="#797979"></path>
                <path d="M90.8201447,5.23358437 L91.7687705,5.23358437 C92.2191188,5.23358437 92.6378631,5.46586881 92.8759409,5.84826904 L94.7231557,8.81582199 C94.9317384,9.14554973 95.1735027,9.58114914 95.3167711,9.88928212 L95.3494282,9.88928212 C95.3273062,9.59168426 95.3167711,9.17715374 95.3167711,8.87955587 L95.3167711,5.23358437 L96.6578068,5.23358437 L96.6578068,11.8560617 L94.9796689,11.8560617 L92.7331997,8.27329781 C92.5240911,7.94409729 92.3044475,7.55063566 92.1501181,7.2530378 L92.128522,7.2530378 C92.1395789,7.54010054 92.1611791,7.8803634 92.1611791,8.19903015 L92.1611791,11.8560617 L90.8201447,11.8560617 L90.8201447,5.23358437 Z" id="path40" fill="#797979"></path>
                <polygon id="path42" fill="#797979" points="87.8884088 11.8544814 87.8884088 5.23569125 89.4185372 5.23569125 89.4185372 11.8544814"></polygon>
            </g>
        </g>
    </g>
</svg>