<?xml version="1.0" encoding="UTF-8"?>
<svg width="84px" height="36px" viewBox="0 0 84 36" version="1.1" xmlns="http://www.w3.org/2000/svg" xmlns:xlink="http://www.w3.org/1999/xlink">
    <title>Logo-verizonMedia</title>
    <g id="Page-1" stroke="none" stroke-width="1" fill="none" fill-rule="evenodd">
        <g id="Desktop-HD" transform="translate(-490.000000, -426.000000)" fill="#797979" fill-rule="nonzero">
            <g id="Logo-verizonMedia" transform="translate(490.779855, 426.000000)">
                <g id="Group">
                    <polygon id="Path" points="80.1934852 0 75.7243189 9.58288838 74.034861 5.94705239 72.2095216 5.94705239 74.9829977 11.8940228 76.4580137 11.8940228 82.0045558 0.00164009112 82.0045558 0"></polygon>
                    <path d="M60.9771116,17.7949886 L64.5871162,17.7949886 L64.5871162,11.1998542 C64.5871162,9.69589066 65.465959,8.63163554 66.761467,8.63163554 C68.0112984,8.63163554 68.6595444,9.51056036 68.6595444,10.7603918 L68.6595444,17.7949886 L72.269959,17.7949886 L72.269959,10.0658132 C72.269959,7.45142597 70.6964556,5.59992711 68.1508702,5.59992711 C66.5303781,5.59992711 65.3972392,6.2945877 64.5411936,7.5672164 L64.4715718,7.5672164 L64.4715718,5.94672437 L60.9771116,5.94672437 L60.9771116,17.7949886 L60.9771116,17.7949886 Z M53.8957722,5.62247836 C50.1234806,5.62247836 47.6016765,8.3304328 47.6016765,11.8941868 C47.6016765,15.4346515 50.1234806,18.1656492 53.8957722,18.1656492 C57.6671617,18.1656492 60.1899499,15.4346515 60.1899499,11.8941868 C60.1899499,8.33051481 57.6674077,5.62247836 53.8957722,5.62247836 M53.8725649,15.5044374 C52.1597358,15.5044374 51.2580137,14.0693576 51.2580137,11.8943508 C51.2580137,9.69589066 52.1597358,8.2836082 53.8725649,8.2836082 C55.5851481,8.2836082 56.5345148,9.69597267 56.5345148,11.8943508 C56.5345148,14.0693576 55.5851481,15.5044374 53.8725649,15.5044374 M37.3270797,17.7949886 L47.4630068,17.7949886 L47.4630068,14.9483645 L41.723508,14.9483645 L41.723508,14.8795626 L47.2087107,8.72430068 L47.2087107,5.94672437 L37.3270797,5.94672437 L37.3270797,8.79318451 L42.8808383,8.79318451 L42.8808383,8.86280638 L37.3270797,15.0649749 L37.3270797,17.7949886 L37.3270797,17.7949886 Z M32.6986606,17.7949886 L36.3314624,17.7949886 L36.3314624,5.94672437 L32.6986606,5.94672437 L32.6986606,17.7949886 Z M24.2750706,17.7949886 L27.8849932,17.7949886 L27.8849932,12.3571845 C27.8849932,9.88154897 29.3656674,8.79318451 31.6330934,9.09397722 L31.7027153,9.09397722 L31.7027153,5.97042369 C31.517631,5.90080182 31.3095854,5.87759453 30.9625421,5.87759453 C29.5512437,5.87759453 28.602369,6.52567654 27.792328,7.91384966 L27.7226241,7.91384966 L27.7226241,5.94672437 L24.2750706,5.94672437 L24.2750706,17.7949886 Z M17.6333576,15.5269886 C16.0367289,15.5269886 15.065139,14.4858588 14.8796446,12.8890661 L23.418861,12.8890661 C23.4418223,10.3437267 22.7712711,8.30747153 21.3589066,7.03476082 C20.3641093,6.10901139 19.04482,5.5997631 17.3789795,5.5997631 C13.8152255,5.5997631 11.3388519,8.30747153 11.3388519,11.8476082 C11.3388519,15.4112802 13.6998451,18.1421959 17.6103144,18.1421959 C19.0915626,18.1421959 20.2714442,17.748574 21.2435262,17.0773667 C22.28482,16.3606469 23.0253212,15.318861 23.2338588,14.2778132 L19.7621959,14.2778132 C19.4153986,15.0648929 18.6976948,15.5269886 17.6333576,15.5269886 M17.4481913,8.19209112 C18.72082,8.19209112 19.6004829,9.1404738 19.7391526,10.5288929 L14.9026059,10.5288929 C15.1804374,9.11710251 15.9440638,8.19209112 17.4481913,8.19209112 M4.11908884,17.7949886 L7.91425968,17.7949886 L12.0333485,5.94672437 L8.40038269,5.94672437 L6.08646014,13.5602733 L6.03938952,13.5602733 L3.72563098,5.94672437 L0,5.94672437 L4.11908884,17.7949886 Z M32.6986606,1.73464237 L36.3314624,1.73464237 L36.3314624,4.95110706 L32.6986606,4.95110706 L32.6986606,1.73464237 Z" id="Shape"></path>
                </g>
                <path d="M2.29104328,23.6993166 L5.90490205,23.6993166 L5.90490205,25.3904146 L5.97444191,25.3904146 C6.7157631,24.1626424 7.85087016,23.3518633 9.5651754,23.3518633 C11.1172756,23.3518633 12.2987153,24.1627244 12.9010387,25.4368292 L12.9473713,25.4368292 C13.8740228,24.0005194 15.1481276,23.3518633 16.6770205,23.3518633 C19.3643098,23.3518633 20.7078724,25.181959 20.7078724,27.846123 L20.7078724,35.5602916 L16.9318907,35.5602916 L16.9318907,28.5179043 C16.9318907,27.2437175 16.3990251,26.5023964 15.263836,26.5023964 C14.0592711,26.5023964 13.3874077,27.4985057 13.3874077,28.9116902 L13.3874077,35.5602916 L9.61134396,35.5602916 L9.61134396,28.5179043 C9.61134396,27.2437175 9.07856036,26.5023964 7.9433713,26.5023964 C6.76193166,26.5023964 6.06694305,27.4985057 6.06694305,28.9116902 L6.06694305,35.5602916 L2.29104328,35.5602916 L2.29104328,23.6993166 Z M21.5184055,29.6065968 C21.5184055,26.0621959 23.9971572,23.3518633 27.6110159,23.3518633 C29.3021139,23.3518633 30.6458405,23.9078542 31.6651572,24.8345057 C33.0782597,26.1317358 33.7731663,28.1935763 33.750123,30.6027882 L25.2249294,30.6027882 C25.4565103,32.201221 26.3369112,33.1974123 27.8890114,33.1974123 C28.8851207,33.1974123 29.5338588,32.7572938 29.8581868,32.0159727 L33.5415034,32.0159727 C33.2867153,33.0816219 32.5916446,34.1009385 31.5492027,34.8190524 C30.5530934,35.514123 29.3484465,35.9079089 27.8426788,35.9079089 C23.9276993,35.9079089 21.5184055,33.1973303 21.5184055,29.6065968 Z M29.9276446,28.3556993 C29.7886469,26.9425968 28.908328,26.0390706 27.6805558,26.0390706 C26.244246,26.0390706 25.5029248,26.9425968 25.2481367,28.3556993 L29.9276446,28.3556993 Z M48.3442278,19.4992893 L52.1202916,19.4992893 L52.1202916,22.7352711 L48.3442278,22.7352711 L48.3442278,19.4992893 Z M48.3442278,23.6993166 L52.1202916,23.6993166 L52.1202916,35.5602916 L48.3442278,35.5602916 L48.3442278,23.6993166 Z M53.0237358,32.2475535 C53.0237358,29.6298041 55.1087016,28.8421503 57.564246,28.5179043 C59.7881276,28.2398269 60.5757813,28.008246 60.5757813,27.197385 C60.5757813,26.4329385 60.0893303,25.9231982 58.9543052,25.9231982 C57.7496583,25.9231982 57.1473349,26.4560638 57.0314624,27.4522551 L53.5566014,27.4522551 C53.6493485,25.2514169 55.3403645,23.3749066 58.9310979,23.3749066 C60.714861,23.3749066 61.919508,23.6992346 62.7767016,24.3478907 C63.7960182,25.0892118 64.2824692,26.2475262 64.2824692,27.7300866 L64.2824692,33.7069066 C64.2824692,34.6567654 64.3751344,35.189549 64.6993804,35.3980866 L64.6993804,35.5602096 L61.0391891,35.5602096 C60.8538588,35.3054214 60.7380683,34.8420137 60.6453212,34.2396902 L60.5990706,34.2396902 C59.904082,35.2357995 58.8615581,35.8613303 57.077877,35.8613303 C54.7148337,35.8614943 53.0237358,34.5872255 53.0237358,32.2475535 Z M60.6684465,31.3209021 L60.6684465,29.9077995 C60.1819134,30.1625877 59.4870068,30.348 58.7225604,30.5333303 C57.2631253,30.8576583 56.6608018,31.2282369 56.6608018,32.1317631 C56.6608018,33.0815399 57.3557084,33.4522005 58.2822779,33.4522005 C59.6954624,33.4522005 60.6684465,32.5950888 60.6684465,31.3209021 Z M43.1088929,19.4992893 L43.1088929,25.0430433 L43.0393531,25.0430433 C42.3443645,24.0469339 41.3945877,23.3518633 39.726615,23.3518633 C36.6688292,23.3518633 34.5375308,25.9231982 34.5375308,29.6298861 C34.5375308,33.5912802 36.6918724,35.9310342 39.726615,35.9310342 C41.2787973,35.9310342 42.5065695,35.189713 43.2246834,33.9618588 L43.2710159,33.9618588 L43.2710159,35.5602916 L46.8848747,35.5602916 L46.8848747,19.4992893 L43.1088929,19.4992893 Z M40.6996811,32.9425421 C39.240246,32.9425421 38.3600091,31.6453121 38.3600091,29.5834715 C38.3600091,27.5912528 39.240246,26.2013576 40.7460957,26.2013576 C42.390861,26.2013576 43.2017221,27.6375854 43.2017221,29.6298861 C43.2016401,31.5758542 42.2749886,32.9425421 40.6996811,32.9425421 Z" id="Shape"></path>
            </g>
        </g>
    </g>
</svg>