<?xml version="1.0" encoding="UTF-8"?>
<svg width="50px" height="14px" viewBox="0 0 50 14" version="1.1" xmlns="http://www.w3.org/2000/svg" xmlns:xlink="http://www.w3.org/1999/xlink">
    <title>Logo-Vogue logo</title>
    <defs>

    </defs>
    <g id="Native-Video" stroke="none" stroke-width="1" fill="none" fill-rule="evenodd">
        <g transform="translate(-1254.000000, -3917.000000)" id="Trusted">
            <g transform="translate(147.000000, 3552.000000)">
                <g id="Logos-Publishers">
                    <g transform="translate(649.000000, 316.000000)">
                        <path d="M493.213935,49.9921631 L493.213935,50.128123 L492.010156,50.128123 L492.036893,60.0799937 C492.303376,61.2195687 492.77717,62.084248 494.395856,62.0971214 C496.014541,62.1099949 497.114972,61.1395681 497.523929,59.8133675 L497.523929,50.128123 L496.14604,50.128123 L496.146035,49.9961683 L507.423701,49.9961683 L507.447165,54.3532432 L507.33878,54.3532432 C507.129609,51.5400421 506.044125,50.4768548 504.145717,50.1666855 C503.492471,50.059955 502.807162,50.1390758 501.940804,50.1323413 L501.940804,55.6931175 C502.695228,55.7513977 503.498838,55.703715 504.04039,55.2385814 C504.532846,54.8156118 504.672047,53.8383705 504.708251,53.4413596 L504.803602,53.4413596 L504.803602,58.2830681 L504.70041,58.2830681 C504.670605,58.2830681 504.630991,57.0680569 504.04039,56.4916161 C503.445915,55.9113995 502.688912,55.7687424 501.940804,55.9069788 L501.940804,61.847098 C502.997522,61.847098 503.839844,61.936608 504.571339,61.7360632 C506.794914,61.1264522 507.57769,59.2505217 507.571695,57.3690383 L507.695349,57.3690383 L507.695349,61.987729 L498.849419,61.987729 L498.849419,61.847098 L499.84962,61.847098 L499.84962,50.128123 L497.688603,50.128123 L497.688603,59.8133675 C497.443672,60.7400643 496.548462,62.2731639 494.254249,62.2627522 C492.121146,62.2529688 490.005508,61.2912986 490.000905,59.2045987 L489.980872,50.128123 L488.776394,50.128123 L488.776394,49.9921631 L493.213935,49.9921631 Z M487.605418,49.6622421 L487.605418,53.9761354 L487.521929,53.9761354 C487.521929,53.7922324 486.723028,49.7875479 483.731557,49.7875479 C481.521959,49.7875479 481.308501,53.6728306 481.308501,55.7904032 C481.308501,57.9079758 481.372869,62.1000479 483.951371,62.1000479 C485.200469,62.1000479 486.125061,61.5535596 486.364752,60.4479906 L486.364752,57.086354 L485.316292,57.086354 L485.316292,56.9431587 L489.380305,56.9431587 L489.380305,57.086354 L488.377927,57.086354 L488.377927,62.0010441 L488.296304,62.0010441 C488.296304,62.0010441 488.133353,61.2919203 487.306442,61.2942841 C486.249566,61.2973054 485.252842,62.2155171 484.037848,62.2044416 C480.824639,62.1747823 479.077101,58.957285 479.064181,55.7904032 C479.051358,52.6235216 481.585975,49.8182713 483.731557,49.6790898 C484.506569,49.6241832 485.502789,49.9790893 486.084392,50.2319107 C486.506721,50.4154972 487.368837,50.1497624 487.521929,49.6622421 L487.605418,49.6622421 Z M472.80268,49.7169135 C475.67372,49.6964885 478.116198,52.8043773 478.116198,55.7117152 C478.116198,58.3437815 476.300647,62.1901873 472.80268,62.201811 C469.304713,62.2133783 467.583224,58.6405982 467.583224,55.7117152 C467.583224,52.928479 469.931645,49.7375412 472.80268,49.7169135 Z M462.868479,49.9996974 L462.868479,50.1419396 L461.7564,50.1419396 L464.923745,58.7434533 C465.914179,55.6941916 466.681459,53.4401789 467.714009,50.1419396 L466.614027,50.1419396 L466.614027,49.9996974 L468.954562,49.9996974 L468.954562,50.1419396 L467.888704,50.1419396 L464.039134,62.142712 L459.701088,50.1419396 L458.435683,50.1419396 L458.435683,49.9996974 L462.868479,49.9996974 Z M472.80268,49.8261828 C470.399735,49.8261828 469.795227,52.8063689 469.795227,55.7117152 C469.795227,60.3497146 470.533456,62.0715009 472.80268,62.0755146 C475.071905,62.0795169 475.853901,59.9758143 475.853901,55.7117152 C475.853901,52.4800524 475.205626,49.8261828 472.80268,49.8261828 Z" id="Logo-Vogue-logo" fill="#797979" fill-rule="nonzero"></path>
                    </g>
                </g>
            </g>
        </g>
    </g>
</svg>
