<svg xmlns="http://www.w3.org/2000/svg" width="350" height="350"><path d="M115.5 106.7h18.2c6.1.2 12.3-2.5 16.3-7.2 8.1-9.1 8.1-24.5 0-33.7-3.8-4.5-9.5-7.2-15.4-7.2-6.3 0-12.7-.1-19 .1-.3 16 0 32-.1 48zm7.5-40.6c3.9-.2 7.8-.1 11.6-.1 5.4 0 10.1 3.6 12.4 8.4 3.8 7.5 1.8 17.4-4.9 22.6-5 3.6-13.3 1.8-19.2 2.3 0-11-.1-22.1.1-33.2zm-56.4 40.6c1.9-4.4 4.1-8.7 5.9-13.1h15.8c2.1 4.3 4 8.7 5.9 13 2.7.1 5.4.1 8.1 0C95 90.7 88 74.6 80.4 58.8 73 74.7 65.8 90.7 58.6 106.6c2.6.1 5.3.1 8 .1zm13.8-31.8c1.8 4.2 3.7 8.3 5.4 12.6-3.6.1-7.2.1-10.8 0 1.8-4.2 3.7-8.4 5.4-12.6zM192.5 199c4.6.6 9.4.5 13.8-1.1 3.3-1.2 6.3-3.7 7.7-7 1.5-3.1 1.7-7 1.7-10.4 0-9.7 0-19.4.1-29.2-2.5-.2-4.9-.4-7.4-.5-.2 10.2 0 20.4-.1 30.6-.3 3-.3 6.2-2.8 8.4-2.9 2.7-7.4 2.6-11.1 2.3-3.7-.4-7.2-2.7-7.9-6.6-.8-4.9-.4-10.2-.5-15.2-.2-6.4.4-12.7.3-19.1-2.6-.1-5.2-.1-7.8 0v30.1c0 4.2.6 8.3 3.2 11.8 2.4 3.5 6.7 5.2 10.8 5.9zm-97.6-47.9c-1 .8-1.7 1.8-2.5 2.8-4 5.8-8 11.7-12 17.5-4.5-6.8-9.2-13.3-13.7-20-2.7-.2-5.3-.4-8-.4 4.3 7.1 9.4 13.7 14.1 20.5 1.5 2.4 4.3 5.1 4.1 8.1v19.7h7c.8-7.1.1-14.4.4-21.5 0-.6.2-1.2.6-1.8 5.6-8.3 11.9-16.3 17.2-24.9-2.4-.1-4.8-.3-7.2 0zm29.8 45.7c10.9 5.4 24.9 1.7 31.6-8.5 6.2-9.2 5-22.5-3.2-30.1-6.4-6.5-16-8.6-24.8-6.1-8.1 2.4-14.5 8.9-16.7 17.1-2.9 11.1 2.9 22.8 13.1 27.6zm-4.6-28.9c2.6-5.5 8-8.7 14-9.5h3.2c5.8.8 11 4 13.8 9.2 3.7 7.1 1.7 16.2-4.8 20.9-6.7 5.3-16.8 4.7-22.8-1.4-5.2-4.9-6.7-12.8-3.4-19.2zm-43.9 75.8c-2.5 0-4.9-.1-7.4.1-.2 1.9-.2 3.8-.2 5.7.1 14.2-.1 28.3.1 42.5 7.8 0 15.7-.1 23.5 0 .3-2.4.4-4.7.5-7.1-5.5-.1-11 0-16.5 0v-41.2zm139.2 0c-3.4 0-6.7-.1-10.1 0-6.4 6.4-12.6 13-18.8 19.6-.2-6.6-.1-13.2-.1-19.7H179c-.1 16-.1 32.1 0 48.2h7.4c.1-7.2-.1-14.3.1-21.5 6.1 7.1 12.1 14.5 18.3 21.5 3.4-.1 6.8-.1 10.2-.1-7.2-8.6-15.1-16.8-22-25.6 7.6-7.3 15-14.8 22.4-22.4zm-76 14c-.1-4.7.2-9.5-.3-14.1-2.4 0-4.7 0-7.1.1 0 16.1-.1 32.2 0 48.3 2.5 0 4.9-.1 7.4-.5 0-11.3.1-22.6 0-33.8zm125 34.1v-7h-18.6c.1-4.6 0-9.1 0-13.7 6.2 0 12.4.1 18.6 0v-6.6c-6.2-.1-12.4 0-18.5 0v-13.7c6.2-.1 12.4 0 18.6 0v-7h-25.8c0 16.1-.1 32.2 0 48.3 8.5-.3 17.1-.2 25.7-.3zm27.5-6.9c-2.4 0-4.8-.1-7.1-.1v7c2.2 0 4.4 0 6.6.1.3-2.3.5-4.7.5-7z"/></svg>