<?xml version="1.0" encoding="UTF-8"?>
<svg width="88px" height="24px" viewBox="0 0 88 24" version="1.1" xmlns="http://www.w3.org/2000/svg" xmlns:xlink="http://www.w3.org/1999/xlink">
    <title>Logo-Criteo</title>
    <defs>
        <linearGradient x1="-359.919623%" y1="50.0403984%" x2="1879.42496%" y2="50.0403984%" id="linearGradient-1">
            <stop stop-color="#F68C21" offset="0%"></stop>
            <stop stop-color="#F16324" offset="100%"></stop>
        </linearGradient>
        <linearGradient x1="-1983.97103%" y1="49.9993863%" x2="255.370684%" y2="49.9993863%" id="linearGradient-2">
            <stop stop-color="#F68C21" offset="0%"></stop>
            <stop stop-color="#F16324" offset="100%"></stop>
        </linearGradient>
        <linearGradient x1="-41.2110271%" y1="49.9862562%" x2="125.836062%" y2="49.9862562%" id="linearGradient-3">
            <stop stop-color="#F68C21" offset="0%"></stop>
            <stop stop-color="#F16324" offset="100%"></stop>
        </linearGradient>
    </defs>
    <g id="Native-Display" stroke="none" stroke-width="1" fill="none" fill-rule="evenodd">
        <g transform="translate(-508.000000, -3299.000000)" id="Display-vs-Banner">
            <g transform="translate(0.000000, 1124.000000)">
                <g id="Most-streamlined" transform="translate(0.000000, 1732.000000)">
                    <g id="Logos" transform="translate(332.500000, 443.000000)">
                        <g id="First-line" transform="translate(176.640673, 0.000000)">
                            <g id="Logo-Criteo">
                                <path d="M17.2990099,23.373977 L14.967353,23.373977 L14.967353,9.48266012 L17.2990099,9.48266012 L17.2990099,11.1872426 C18.124805,10.0096381 19.5070183,9.33251555 21.1262245,9.33251555 C21.4043304,9.33290491 21.6821261,9.35109684 21.9579076,9.38697976 L22.1286603,9.41053185 L22.1286603,11.8967493 L21.8813634,11.8349251 C21.4713803,11.7460692 21.0525506,11.7045813 20.6331026,11.7112766 C18.6753351,11.7112766 17.3063699,13.1538421 17.3063699,15.220538 L17.2990099,23.373977 Z" id="Path" fill="#2C2F33"></path>
                                <path d="M44.350057,23.350425 C46.6463857,23.350425 48.303864,22.6365022 49.7258214,21.0379041 L49.8479979,20.9010076 L48.3583282,19.3657058 L48.2111277,19.5129063 C47.1571716,20.6316306 46.18712,21.2793131 44.3456409,21.2793131 C41.7593271,21.2793131 40.0679926,19.6159467 39.892824,16.9236485 L50.3808639,16.9236485 L50.394112,16.7381758 C50.4191361,16.3510383 50.4191361,15.9226847 50.4191361,15.9035486 C50.4191361,14.0105494 49.8303338,12.2794708 48.7675458,11.029738 C47.6429335,9.70493297 46.0958556,9.00867432 44.2941207,9.00867432 C40.3197056,9.00867432 37.5508631,12.0336458 37.5508631,16.3687024 L37.5508631,16.4717427 C37.5552791,20.5859984 40.2858495,23.350425 44.350057,23.350425 Z M40.0385525,14.8672566 C40.2711294,12.8358889 42.1391045,11.2181547 44.3073688,11.2181547 C46.3181285,11.2181547 47.9653027,12.8373609 48.0653991,14.8672566 L40.0385525,14.8672566 Z" id="Shape" fill="#2C2F33"></path>
                                <rect id="Rectangle" fill="#2C2F33" fill-rule="nonzero" x="24.3911329" y="9.48266012" width="2.33165688" height="13.8927889"></rect>
                                <path d="M34.7098922,23.5432577 C33.9959695,23.5432577 32.9434855,23.4696574 32.1088583,22.832279 C31.1991589,22.1433804 30.7369491,20.9348638 30.7369491,19.2435293 L30.7369491,6.25602383 L33.068606,6.25602383 L33.068606,9.47235609 L36.1009375,9.47235609 L36.1009375,11.6715325 L33.068606,11.6715325 L33.068606,19.2435293 C33.068606,20.992272 33.6868483,21.3426093 34.6878121,21.3426093 C35.0852584,21.3518953 35.4827529,21.3262822 35.8757207,21.266065 L36.1053535,21.2292649 L36.1053535,23.371033 L35.958153,23.4078332 C35.5496341,23.5065409 35.1300749,23.5520591 34.7098922,23.5432577 Z" id="Path" fill="#2C2F33"></path>
                                <path d="M59.0274249,23.5432577 C60.9098552,23.5558413 62.7188294,22.8135892 64.049908,21.4824498 C65.4142283,20.0945772 66.1673137,18.219018 66.141628,16.273022 C66.1673137,14.327026 65.4142283,12.4514668 64.049908,11.0635941 C61.2634592,8.32175953 56.7928626,8.32175953 54.0064137,11.0635941 C52.6424924,12.451616 51.8899243,14.3272066 51.9161658,16.273022 C51.8883383,18.2223072 52.6421671,20.101578 54.0093577,21.4912819 C55.3409047,22.8179511 57.147828,23.5568338 59.0274249,23.5432577 Z M59.0274249,11.2107947 C60.321704,11.1946401 61.5639297,11.7197046 62.4542539,12.6592482 C63.3286253,13.5895558 63.8114431,14.8775607 63.8114431,16.283326 C63.8114431,17.6890914 63.3286253,18.9756243 62.4542539,19.9059318 C61.554205,20.8284206 60.3199313,21.348598 59.0311049,21.348598 C57.7422784,21.348598 56.5080048,20.8284206 55.6079558,19.9059318 C54.7335845,18.9756243 54.2507667,17.6890914 54.2507667,16.283326 C54.2507667,14.8775607 54.7335845,13.5895558 55.6079558,12.6592482 C56.4964295,11.7214448 57.7356599,11.196519 59.0274249,11.2107947 Z" id="Shape" fill="#2C2F33"></path>
                                <path d="M7.16130728,23.5432577 C5.267287,23.5575455 3.44579252,22.8158084 2.100552,21.4824498 C0.732273822,20.0982993 -0.0242943096,18.2235797 4.73796349e-16,16.277438 C-0.0258117439,14.32971 0.730895198,12.4530556 2.100552,11.0680102 C3.44588416,9.73479037 5.26731833,8.99307779 7.16130728,9.00720231 C9.19267502,9.00720231 10.9546657,9.71523701 12.2559187,11.0562341 L12.3810392,11.1857706 L10.9546657,12.8785771 L10.8074652,12.7181285 C9.86243757,11.7318847 8.60681679,11.2107947 7.16130728,11.2107947 C5.85745607,11.1940029 4.60497782,11.7184449 3.7020941,12.6592482 C2.81889074,13.5895558 2.33165688,14.8760887 2.33165688,16.281854 C2.33165688,17.6876194 2.81889074,18.9726803 3.7020941,19.9029878 C4.6062429,20.841083 5.85855731,21.3627918 7.16130728,21.3440813 C8.60681679,21.3440813 9.86538158,20.8229913 10.8015771,19.8382196 L10.9487777,19.676299 L12.3751511,21.3661614 L12.2500307,21.4956979 C10.9546657,22.835223 9.19414703,23.5432577 7.16130728,23.5432577 Z" id="Path" fill="#2C2F33"></path>
                                <path d="M25.5584334,3.73447823 C24.831361,3.73984619 24.1729179,3.30592115 23.8910894,2.63567069 C23.6092609,1.96542023 23.7597626,1.19134814 24.2721976,0.675525152 C24.7846326,0.15970216 25.5576961,0.00410282971 26.2297891,0.281508445 C26.9018822,0.55891406 27.3401368,1.21448349 27.3395608,1.9415754 C27.3403866,2.92751939 26.5443614,3.72880757 25.5584334,3.73447823 Z" id="Path" fill="url(#linearGradient-1)"></path>
                                <path d="M83.8424954,23.5432577 C83.1156911,23.5486236 82.4574363,23.1150163 82.1754369,22.4451285 C81.8934375,21.7752407 82.0433997,21.0014022 82.5552227,20.4853493 C83.0670457,19.9692964 83.8396237,19.8129703 84.5118098,20.0894468 C85.1839958,20.3659232 85.6230061,21.020587 85.6236278,21.7474108 C85.6260718,22.7345028 84.8295741,23.5375831 83.8424954,23.5432577 Z" id="Path" fill="url(#linearGradient-2)"></path>
                                <path d="M78.7699641,20.9024796 L74.030106,20.9024796 C72.8047278,20.901667 71.8117933,19.9080737 71.8117936,18.6826952 L71.8117936,4.73249803 C71.8109812,2.72724687 70.1856069,1.10187253 68.1803557,1.10106019 L30.6604048,1.10106019 L30.6604048,2.72026636 L67.978691,2.72026636 C69.2038311,2.72026636 70.1970034,3.71343868 70.1970034,4.93857881 L70.1970034,18.888776 C70.1970033,20.8946019 71.8226154,22.5208731 73.8284413,22.5216858 L78.7699641,22.5216858 L78.7699641,20.9024796 Z" id="Path" fill="url(#linearGradient-3)"></path>
                            </g>
                        </g>
                    </g>
                </g>
            </g>
        </g>
    </g>
</svg>