<?xml version="1.0" encoding="UTF-8"?>
<svg width="126px" height="21px" viewBox="0 0 126 21" version="1.1" xmlns="http://www.w3.org/2000/svg" xmlns:xlink="http://www.w3.org/1999/xlink">
    <title>Logo-MediaMath</title>
    <g id="Native-Display" stroke="none" stroke-width="1" fill="none" fill-rule="evenodd">
        <g transform="translate(-332.000000, -3367.000000)" fill="#000000" fill-rule="nonzero" id="Display-vs-Banner">
            <g transform="translate(0.000000, 1124.000000)">
                <g id="Most-streamlined" transform="translate(0.000000, 1732.000000)">
                    <g id="Logos" transform="translate(332.500000, 443.000000)">
                        <g id="Second-line" transform="translate(0.000000, 62.082544)">
                            <g id="Logo-MediaMath" transform="translate(0.000000, 6.810301)">
                                <polygon id="Path" points="9.79409445 13.8749671 9.73579627 13.8749671 3.90597815 0.116596363 0.233192725 0.116596363 0.233192725 18.3056289 2.74001452 18.3056289 2.74001452 3.38129451 2.7983127 3.38129451 8.91962173 18.3056289 10.5519708 18.3056289 16.731578 3.38129451 16.7898762 3.38129451 16.7898762 18.3056289 19.2383998 18.3056289 19.2383998 0.116596363 15.5656144 0.116596363"></polygon>
                                <path d="M28.0997234,5.82981813 C24.426938,5.82981813 21.8035198,8.56983265 21.8035198,12.2426181 C21.8035198,15.8571053 24.1937452,18.655418 28.0997234,18.655418 C30.4316506,18.655418 32.2388942,17.8392435 33.5214542,16.1485962 L31.7725088,14.807738 C30.8980361,15.9154035 29.8486688,16.6149817 28.4495125,16.6149817 C26.2924798,16.6149817 24.3103416,15.2158253 24.3103416,13.0587926 L34.104436,13.0587926 L34.104436,12.2426181 C34.0461379,9.09451628 32.3554906,5.82981813 28.0997234,5.82981813 Z M24.2520434,11.251549 C24.2520434,9.61919991 25.7677961,7.69535993 28.0414252,7.69535993 C30.3733524,7.69535993 31.5393161,9.21111264 31.5393161,11.251549 L24.2520434,11.251549 Z" id="Shape"></path>
                                <path d="M46.0555632,0.116596363 L46.0555632,7.87025447 L45.997265,7.87025447 C45.1810905,6.58769448 43.4904432,5.82981813 41.7414978,5.82981813 C38.0104142,5.82981813 35.5618906,8.56983265 35.5618906,12.2426181 C35.5618906,15.8571053 37.952116,18.3639271 41.7414978,18.3639271 C43.3738469,18.3639271 45.997265,18.3639271 45.997265,18.3639271 L46.0555632,18.3639271 L48.3874905,18.3639271 L48.3874905,0.116596363 L46.0555632,0.116596363 Z M42.0329887,16.4983853 C39.5844651,16.4983853 38.0104142,14.7494399 38.0104142,12.2426181 C38.0104142,9.79409445 39.5261669,7.98685083 42.0329887,7.98685083 C44.4815123,7.98685083 46.0555632,9.73579627 46.0555632,12.2426181 C46.0555632,14.6911417 44.5398105,16.4983853 42.0329887,16.4983853 Z" id="Shape"></path>
                                <rect id="Rectangle" x="51.4189959" y="6.12130903" width="2.33192725" height="12.1843199"></rect>
                                <path d="M61.6211776,5.82981813 C59.9305303,5.82981813 58.0649885,6.41279994 56.7824286,7.63706175 L58.1815849,9.09451628 C59.0560576,8.45323628 59.8722322,7.69535993 61.6794758,7.69535993 C63.6616139,7.69535993 64.5943848,8.97791992 64.5943848,10.2604799 L64.5943848,10.7851635 L62.9037376,10.7851635 C59.172654,10.7851635 56.1994467,11.8345308 56.1994467,14.9826326 C56.1994467,17.372858 58.1815849,18.3056289 60.3969158,18.3056289 C62.2624576,18.3056289 64.652683,18.3056289 64.652683,18.3056289 L64.7692794,18.3056289 L66.6931194,18.3056289 C66.6931194,18.3056289 66.6931194,16.9647708 66.6931194,16.090298 L66.6931194,9.91069082 C66.7514176,7.81195629 65.2356648,5.82981813 61.6211776,5.82981813 Z M64.5943848,13.2336871 C64.5943848,14.8660362 63.7199121,16.7898762 61.096494,16.7898762 C59.5224431,16.7898762 58.4730758,16.2068944 58.4730758,14.807738 C58.4730758,12.8255999 61.1547922,12.4758108 63.3118249,12.4758108 L64.5360867,12.4758108 L64.5360867,13.2336871 L64.5943848,13.2336871 Z" id="Shape"></path>
                                <path d="M96.1919991,5.82981813 C94.5013518,5.82981813 92.63581,6.41279994 91.3532501,7.63706175 L92.7524064,9.09451628 C93.6268791,8.45323628 94.4430537,7.69535993 96.2502973,7.69535993 C98.2324354,7.69535993 99.1652063,8.97791992 99.1652063,10.2604799 L99.1652063,10.7851635 L97.4745591,10.7851635 C93.7434755,10.7851635 90.7702682,11.8345308 90.7702682,14.9826326 C90.7702682,17.372858 92.6941082,18.3056289 94.9677373,18.3056289 C96.8332791,18.3056289 99.2235045,18.3056289 99.2235045,18.3056289 L99.3401009,18.3056289 L101.322239,18.3056289 C101.322239,18.3056289 101.322239,16.9647708 101.322239,16.090298 L101.322239,9.91069082 C101.263941,7.81195629 99.8064863,5.82981813 96.1919991,5.82981813 Z M99.1069082,13.2336871 C99.1069082,14.8660362 98.2324354,16.7898762 95.6090173,16.7898762 C94.0349664,16.7898762 92.9855991,16.2068944 92.9855991,14.807738 C92.9855991,12.8255999 95.6673155,12.4758108 97.8243482,12.4758108 L99.04861,12.4758108 L99.04861,13.2336871 L99.1069082,13.2336871 Z" id="Shape"></path>
                                <polygon id="Path" points="79.4604211 13.8749671 79.3438247 13.8749671 73.5723048 0.116596363 69.8995193 0.116596363 69.8995193 18.3056289 72.348043 18.3056289 72.348043 3.38129451 72.4063411 3.38129451 78.5276502 18.3056289 80.2182974 18.3056289 86.3396065 3.38129451 86.3979046 3.38129451 86.3979046 18.3056289 88.8464283 18.3056289 88.8464283 0.116596363 85.1736428 0.116596363"></polygon>
                                <path d="M108.02653,13.6417744 L108.02653,8.16174538 L111.349526,8.16174538 L111.349526,6.17960721 L108.02653,6.17960721 L108.02653,2.74001452 L105.694603,2.74001452 L105.694603,6.17960721 L103.012886,6.17960721 L103.012886,8.16174538 L105.694603,8.16174538 L105.694603,14.5162471 C105.694603,16.4983853 105.752901,18.655418 109.30909,18.655418 C109.775475,18.655418 110.824843,18.5388216 111.407824,18.2473307 L111.407824,16.1485962 C110.941439,16.4400871 110.300159,16.4983853 109.775475,16.4983853 C108.02653,16.4983853 108.02653,15.0409308 108.02653,13.6417744 Z" id="Path"></path>
                                <path d="M120.094253,5.82981813 C118.228712,5.82981813 116.071679,5.82981813 116.071679,5.82981813 L116.013381,0.116596363 L113.681453,0.116596363 L113.681453,18.3056289 L116.013381,18.3056289 L116.013381,12.0677235 C116.013381,9.26941082 117.470835,7.98685083 119.394675,7.98685083 C120.85213,7.98685083 122.192988,8.86132355 122.192988,11.1349526 L122.192988,18.3639271 L124.524915,18.3639271 L124.524915,10.4936726 C124.524915,7.22897448 122.426181,5.82981813 120.094253,5.82981813 Z" id="Path"></path>
                                <rect id="Rectangle" x="51.4189959" y="1.8655418" width="2.33192725" height="2.33192725"></rect>
                            </g>
                        </g>
                    </g>
                </g>
            </g>
        </g>
    </g>
</svg>