<?xml version="1.0" encoding="UTF-8"?>
<svg width="56px" height="37px" viewBox="0 0 56 37" version="1.1" xmlns="http://www.w3.org/2000/svg" xmlns:xlink="http://www.w3.org/1999/xlink">
    <title>Icon-Native Display</title>
    <g id="Native-Display" stroke="none" stroke-width="1" fill="none" fill-rule="evenodd">
        <g transform="translate(-462.000000, -207.000000)" fill="#111111" id="Title">
            <g transform="translate(262.500000, 164.400000)">
                <g transform="translate(199.500000, 0.000000)">
                    <path d="M21.1074807,52.5260204 C22.159099,52.5260204 23.0604861,52.9730454 23.6614108,53.7180871 L23.6614108,53.7180871 L30.3466983,61.7645372 C30.4218139,61.9135456 30.5720451,62.0625539 30.7222762,62.2115622 C31.1729698,62.6585872 31.6987789,62.8820997 32.3748192,62.8820997 C33.0508595,62.8820997 33.6517842,62.5840831 34.1024778,62.1370581 C34.1775934,62.0625539 34.252709,61.9135456 34.3278245,61.8390414 L34.3278245,61.8390414 L36.1305987,59.6784205 C36.5812922,59.1568913 37.3324481,58.7843705 38.083604,58.7843705 C38.9098755,58.7843705 39.5859158,59.1568913 40.0366094,59.6784205 L40.0366094,59.6784205 L53.7076467,76.1438416 L54.0081091,76.3673541 C54.2334558,76.6653708 54.3085714,76.9633875 54.3085714,77.3359083 C54.3085714,78.2299583 53.5574155,78.975 52.6560285,78.975 L52.6560285,78.975 L2.1783521,78.975 L2.02292883,78.9695685 C0.893435333,78.8903554 -3.55271368e-15,77.9546168 -3.55271368e-15,76.8143791 C-3.55271368e-15,76.3673541 0.15023118,75.9948333 0.375577949,75.6223124 L0.375577949,75.6223124 L0.676040308,75.2497916 L18.5535507,53.7180871 C19.1544754,52.9730454 20.0558625,52.5260204 21.1074807,52.5260204 Z M50.16,42.975 C53.2598043,42.975 55.8171429,45.4659142 55.8171429,48.4852041 C55.8171429,51.504494 53.2598043,53.9954082 50.16,53.9954082 C47.0601957,53.9954082 44.5028571,51.504494 44.5028571,48.4852041 C44.5028571,45.4659142 47.0601957,42.975 50.16,42.975 Z" id="Icon-Native-Display"></path>
                </g>
            </g>
        </g>
    </g>
</svg>