<?xml version="1.0" encoding="UTF-8"?>
<svg width="31px" height="32px" viewBox="0 0 31 32" version="1.1" xmlns="http://www.w3.org/2000/svg" xmlns:xlink="http://www.w3.org/1999/xlink">
    <title>Icon-Native Social</title>
    <g id="Native-Social" stroke="none" stroke-width="1" fill="none" fill-rule="evenodd">
        <g transform="translate(-518.000000, -221.000000)" fill="#111111" id="Native-social">
            <g transform="translate(181.000000, 177.400000)">
                <g id="Title" transform="translate(301.000000, 0.100000)">
                    <path d="M60.7057339,44 C63.3886885,44 65.5636529,46.1749644 65.5636529,48.8579191 C65.5636529,51.5408737 63.3886885,53.7158381 60.7057339,53.7158381 C59.4622461,53.7158381 58.3278803,53.248632 57.4686,52.4801836 L46.3388501,58.1742991 C46.4293345,58.544888 46.4773069,58.9321421 46.4773069,59.3306007 C46.4773069,59.7707758 46.4187637,60.1972773 46.3090388,60.602744 L58.1732154,66.8438283 C59.0215558,66.1200085 60.1220705,65.6830411 61.3246444,65.6830411 C64.007599,65.6830411 66.1825635,67.8580056 66.1825635,70.5409602 C66.1825635,73.2239148 64.007599,75.3988792 61.3246444,75.3988792 C58.6416898,75.3988792 56.4667254,73.2239148 56.4667254,70.5409602 C56.4667254,70.1501797 56.5128668,69.7701761 56.5999988,69.4061004 L44.6564954,63.1223108 C43.8246814,63.7894438 42.7686392,64.1885197 41.6193879,64.1885197 C38.9364333,64.1885197 36.7614688,62.0135553 36.7614688,59.3306007 C36.7614688,56.6476461 38.9364333,54.4726816 41.6193879,54.4726816 C42.8125446,54.4726816 43.9052343,54.9028322 44.7508409,55.6165173 L55.9563334,49.883781 C55.885242,49.5530772 55.8478148,49.2098689 55.8478148,48.8579191 C55.8478148,46.1749644 58.0227793,44 60.7057339,44 Z" id="Icon-Native-Social"></path>
                </g>
            </g>
        </g>
    </g>
</svg>