<svg width="19px" height="21px" viewBox="0 0 19 21" version="1.1" xmlns="http://www.w3.org/2000/svg" xmlns:xlink="http://www.w3.org/1999/xlink">
    <title>Icon-Redirect</title>
    <defs>
        <filter id="filter-1">
            <feColorMatrix in="SourceGraphic" type="matrix" values="0 0 0 0 0.066667 0 0 0 0 0.066667 0 0 0 0 0.066667 0 0 0 1.000000 0"></feColorMatrix>
        </filter>
    </defs>
    <g id="Native-Stories" stroke="none" stroke-width="1" fill="none" fill-rule="evenodd">
        <g id="Native-Stories-New-Version" transform="translate(-294.000000, -5401.000000)">
            <g id="One-product,-4-mobile-experiences" transform="translate(245.000000, 4773.500000)">
                <g id="Redirect" transform="translate(49.533800, 618.000000)" filter="url(#filter-1)">
                    <g id="Icon-Redirect" transform="translate(0.000000, 11.455575)" fill="#111111">
                        <path d="M1.5,1.5 L14.8486122,1.5 C14.9473247,1.5 15.0438285,1.52921901 15.1259623,1.58397485 L17.3759623,3.08397485 C17.6057266,3.23715108 17.6678136,3.54758575 17.5146373,3.7773501 C17.4780199,3.83227624 17.4308884,3.87940772 17.3759623,3.91602515 L15.1259623,5.41602515 C15.0438285,5.47078099 14.9473247,5.5 14.8486122,5.5 L1.5,5.5 C1.22385763,5.5 1,5.27614237 1,5 L1,2 C1,1.72385763 1.22385763,1.5 1.5,1.5 Z" id="Rectangle"></path>
                        <path d="M0.5,7 L13.8486122,7 C13.9473247,7 14.0438285,7.02921901 14.1259623,7.08397485 L16.3759623,8.58397485 C16.6057266,8.73715108 16.6678136,9.04758575 16.5146373,9.2773501 C16.4780199,9.33227624 16.4308884,9.37940772 16.3759623,9.41602515 L14.1259623,10.9160251 C14.0438285,10.970781 13.9473247,11 13.8486122,11 L0.5,11 C0.223857625,11 3.38176876e-17,10.7761424 0,10.5 L0,7.5 C-3.38176876e-17,7.22385763 0.223857625,7 0.5,7 Z" id="Rectangle-Copy" transform="translate(8.500000, 9.000000) scale(-1, 1) translate(-8.500000, -9.000000) "></path>
                        <path d="M8.5,-1 C9.01283584,-1 9.43550716,-0.61395981 9.49327227,-0.116621125 L9.5,0 L9.5,17 C9.5,17.5522847 9.05228475,18 8.5,18 C7.98716416,18 7.56449284,17.6139598 7.50672773,17.1166211 L7.5,17 L7.5,0 C7.5,-0.55228475 7.94771525,-1 8.5,-1 Z" id="Line-3" fill-rule="nonzero"></path>
                    </g>
                </g>
            </g>
        </g>
    </g>
</svg>
