<svg width="23px" height="19px" viewBox="0 0 23 19" version="1.1" xmlns="http://www.w3.org/2000/svg" xmlns:xlink="http://www.w3.org/1999/xlink">
    <title>Shooper icon</title>
    <defs>
        <filter id="filter-1">
            <feColorMatrix in="SourceGraphic" type="matrix" values="0 0 0 0 0.066667 0 0 0 0 0.066667 0 0 0 0 0.066667 0 0 0 1.000000 0"></feColorMatrix>
        </filter>
    </defs>
    <g id="Native-Stories" stroke="none" stroke-width="1" fill="none" fill-rule="evenodd">
        <g transform="translate(-548.000000, -4388.000000)" id="One-product,-4-mobile-experiences">
            <g transform="translate(245.000000, 3761.000000)">
                <g id="Mobile-experiences">
                    <g id="Group-13" transform="translate(49.533800, 618.000000)">
                        <g filter="url(#filter-1)" id="Icon-Shopper">
                            <g transform="translate(254.000000, 0.000000)">
                                <g id="Shooper-icon" transform="translate(-0.000000, 9.955575)" fill="#000000" fill-rule="nonzero">
                                    <path d="M6.64,12.0001562 L17.4801562,12.0001562 C17.7485938,12.0001562 17.9840625,11.8226562 18.0567188,11.5648438 L20.456875,3.16468752 C20.5084375,2.98359376 20.473125,2.78906248 20.3595312,2.63859376 C20.2457812,2.48859376 20.0689062,2.4 19.8801562,2.4 L5.25484376,2.4 L4.82593752,0.47 C4.765,0.19515624 4.52125,-1.13686838e-15 4.24,-1.13686838e-15 L0.6,-1.13686838e-15 C0.26843752,-1.13686838e-15 -2.27373675e-15,0.26843752 -2.27373675e-15,0.6 C-2.27373675e-15,0.93171876 0.26843752,1.2 0.6,1.2 L3.75843752,1.2 L5.92515624,10.95 C5.28765624,11.2271875 4.84,11.8617188 4.84,12.6001562 C4.84,13.5926562 5.6475,14.4001562 6.64,14.4001562 L17.4801562,14.4001562 C17.811875,14.4001562 18.0801562,14.131875 18.0801562,13.8001562 C18.0801562,13.4685938 17.811875,13.2001562 17.4801562,13.2001562 L6.64,13.2001562 C6.30953124,13.2001562 6.04,12.93125 6.04,12.6001562 C6.04,12.2690625 6.30953124,12.0001562 6.64,12.0001562 Z" id="Path"></path>
                                    <path d="M6.04,16.2001562 C6.04,17.1928125 6.8475,18.0001562 7.84015624,18.0001562 C8.83265624,18.0001562 9.64015624,17.1928125 9.64015624,16.2001562 C9.64015624,15.2076562 8.83265624,14.4001562 7.84015624,14.4001562 C6.8475,14.4001562 6.04,15.2076562 6.04,16.2001562 Z" id="Path"></path>
                                    <path d="M14.4801562,16.2001562 C14.4801562,17.1928125 15.2876562,18.0001562 16.2801562,18.0001562 C17.2728125,18.0001562 18.0801562,17.1928125 18.0801562,16.2001562 C18.0801562,15.2076562 17.2728125,14.4001562 16.2801562,14.4001562 C15.2876562,14.4001562 14.4801562,15.2076562 14.4801562,16.2001562 Z" id="Path"></path>
                                </g>
                            </g>
                        </g>
                    </g>
                </g>
            </g>
        </g>
    </g>
</svg>
