<?xml version="1.0" encoding="UTF-8"?>
<svg width="204px" height="28px" viewBox="0 0 204 28" version="1.1" xmlns="http://www.w3.org/2000/svg" xmlns:xlink="http://www.w3.org/1999/xlink">
    <title>Logo-The-trade-desk</title>
    <g id="Native-Display" stroke="none" stroke-width="1" fill="none" fill-rule="evenodd">
        <g transform="translate(-643.000000, -3364.000000)" fill-rule="nonzero" id="Display-vs-Banner">
            <g transform="translate(0.000000, 1124.000000)">
                <g id="Most-streamlined" transform="translate(0.000000, 1732.000000)">
                    <g id="Logos" transform="translate(332.500000, 443.000000)">
                        <g id="Second-line" transform="translate(0.000000, 62.082544)">
                            <g id="Logo-The-trade-desk" transform="translate(311.153947, 3.445716)">
                                <g id="Group">
                                    <g transform="translate(29.589543, 0.986318)" fill="#000000">
                                        <path d="M7.44709606,21.3255778 C4.436656,21.3255778 2.94544169,19.6069186 2.94544169,16.7392974 L2.94544169,9.16861564 L0.221132514,9.16861564 L0.221132514,6.21360666 L2.94544169,6.21360666 L2.94544169,2.43028776 L6.53051066,1.54062885 L6.53051066,6.21360666 L10.2877908,6.21360666 L10.2877908,9.16861564 L6.53041203,9.16861564 L6.53041203,16.4220975 C6.53041203,17.5704676 7.04655229,18.0583005 8.19255527,18.0583005 C8.938409,18.0583005 9.54154251,18.0293028 10.5170111,17.9138049 L10.5170111,20.9259217 C9.51274202,21.1829562 8.50936064,21.3255778 7.44709606,21.3255778" id="Path"></path>
                                        <path d="M21.2397681,21.1263416 L21.2397681,11.9210349 C21.2397681,10.2012907 20.6673091,9.14011105 18.7752551,9.14011105 C16.621531,9.14011105 15.7060305,11.4336951 15.7060305,13.2689372 L15.7060305,21.1263416 L12.121652,21.1263416 L12.121652,0.423820881 L15.7060305,0.423820881 L15.7060305,7.79151833 C16.5672835,6.52972161 18.2291308,5.84146885 19.7765653,5.84146885 C22.9605973,5.84146885 24.8256262,8.10694286 24.8256262,11.1768579 L24.8256262,21.1263416 L21.2397681,21.1263416 Z" id="Path"></path>
                                        <path d="M40.2216569,14.788952 L30.2436687,14.788952 C30.2158545,15.9351522 30.6158065,17.0253296 31.3312816,17.7128919 C31.8464355,18.2007249 32.5649683,18.6321404 33.5404369,18.6321404 C34.5723228,18.6321404 35.2027774,18.4307342 35.721482,17.9134104 C36.0340462,17.5983804 36.2934479,17.197738 36.4366613,16.6520082 L39.8766429,16.6520082 C39.7907346,17.5423575 39.1894751,18.7187391 38.6149448,19.4060056 C37.3562056,20.8961349 35.4898946,21.4981835 33.59932,21.4981835 C31.5628691,21.4981835 30.0693863,20.7822152 28.8950759,19.6625469 C27.4045521,18.229624 26.6009987,16.1361638 26.6009987,13.7003527 C26.6009987,11.318 27.3176574,9.19810655 28.7520598,7.7334242 C29.8702486,6.58821027 31.4749882,5.84186338 33.5109459,5.84186338 C35.721482,5.84186338 37.7269626,6.73112776 38.9582821,8.59418399 C40.0493472,10.2289076 40.3070721,11.9209363 40.2504574,13.7850774 C40.250556,13.7850774 40.2216569,14.4749083 40.2216569,14.788952 M35.7490003,9.57103342 C35.2607729,9.05380822 34.5148205,8.70938594 33.4816523,8.70938594 C32.392264,8.70938594 31.505564,9.16822112 30.9865634,9.85746019 C30.4737767,10.5161234 30.24357,11.2050666 30.2156572,12.1787598 L36.6662761,12.1787598 C36.6390537,11.0615573 36.3218539,10.2007975 35.7490003,9.57103342" id="Shape"></path>
                                    </g>
                                    <polygon id="Path" fill="#000000" points="77.3524889 5.22196246 77.3524889 22.1123637 73.6539933 22.1123637 73.6539933 5.22196246 67.6326201 5.22196246 67.6326201 1.78138909 83.3735662 1.78138909 83.3735662 5.22196246"></polygon>
                                    <g transform="translate(81.864401, 0.986318)" fill="#000000">
                                        <path d="M7.64120346,9.39734281 C5.12017444,9.39734281 3.79969179,11.2045734 3.79969179,13.6135567 L3.79969179,21.1263416 L0.188978545,21.1263416 L0.188978545,6.21390256 L3.22723277,6.21390256 L3.5420655,8.45175966 C4.22972647,6.73152229 6.00687439,6.01515947 7.75749036,6.01515947 C8.12982544,6.01515947 8.50363999,6.04376269 8.8757778,6.10047598 L8.8757778,9.54124661 C8.47434634,9.45494378 8.04431166,9.39734281 7.64120346,9.39734281" id="Path"></path>
                                        <path d="M21.003545,21.3551674 C19.4558146,21.3551674 18.5960411,20.379896 18.4804447,19.2629894 C17.7921919,20.4661989 16.0716586,21.4983807 13.9498912,21.4983807 C10.395694,21.4983807 8.55897243,19.2629894 8.55897243,16.8246139 C8.55897243,13.9858918 10.7674373,12.352549 13.6053703,12.1521292 L17.9947816,11.8340416 L17.9947816,10.9179494 C17.9947816,9.51195297 17.5047788,8.56765203 15.4694128,8.56765203 C13.8061846,8.56765203 12.8317024,9.31182903 12.7455968,10.6883345 L9.27642021,10.6883345 C9.47565646,7.33090779 12.1426606,5.84206064 15.4695115,5.84206064 C18.0228917,5.84206064 20.2019643,6.64551535 21.0611459,8.88159708 C21.4333824,9.82856107 21.4922656,10.8894448 21.4922656,11.8926289 L21.4922656,17.4268597 C21.4922656,18.1148166 21.7210914,18.3738237 22.3243235,18.3738237 C22.552163,18.3738237 22.7825669,18.3156309 22.7825669,18.3156309 L22.7825669,20.9529468 C22.1796306,21.2128417 21.8648965,21.3551674 21.003545,21.3551674 M17.9948803,14.5013416 L14.2077147,14.788952 C13.1181291,14.8748603 12.0580345,15.5353975 12.0580345,16.7391987 C12.0580345,17.8856949 13.0610213,18.602255 14.1789142,18.602255 C16.4166727,18.602255 17.9948803,17.3984537 17.9948803,15.1901862 L17.9948803,14.5013416 Z" id="Shape"></path>
                                        <path d="M34.1364689,21.1263416 L33.9083335,19.4923084 C33.0176883,20.868518 31.354756,21.4702707 29.7211173,21.4702707 C28.229114,21.4702707 26.9970054,20.9516646 26.079631,20.2098548 C24.3003132,18.7464547 23.4408356,16.5094852 23.4408356,13.7003527 C23.4408356,10.7738483 24.3293109,8.50985379 26.1070506,7.0456646 C27.024721,6.3014876 28.229114,5.84186338 29.7498192,5.84186338 C31.6428595,5.84186338 33.0177869,6.47300832 33.6497209,7.24608443 L33.6497209,0.423327722 L37.2324227,0.423327722 L37.2324227,21.1263416 L34.1364689,21.1263416 L34.1364689,21.1263416 Z M30.4385651,8.85417744 C29.3210667,8.85417744 28.5443412,9.36824642 28.0297791,10.0285864 C27.2836295,11.004055 27.0840973,12.352549 27.0840973,13.6441326 C27.0840973,14.9319681 27.2836295,16.3078818 28.0297791,17.2831531 C28.5443412,17.9415205 29.3210667,18.458647 30.4385651,18.458647 C33.2476977,18.458647 33.8220307,15.7911498 33.8220307,13.6441326 C33.8220307,11.4900139 33.2476977,8.85417744 30.4385651,8.85417744" id="Shape"></path>
                                        <path d="M52.86083,14.788952 L42.88225,14.788952 C42.8536467,15.9351522 43.2551768,17.0253296 43.9721314,17.7128919 C44.4858059,18.2007249 45.20424,18.6321404 46.1786236,18.6321404 C47.2117918,18.6321404 47.8415559,18.4307342 48.3588797,17.9134104 C48.673318,17.5983804 48.9323251,17.197738 49.0739604,16.6520082 L52.5169009,16.6520082 C52.4297104,17.5423575 51.82707,18.7187391 51.2558932,19.4060056 C49.9938992,20.8961349 48.1301526,21.4981835 46.2362246,21.4981835 C44.2012531,21.4981835 42.7098416,20.7822152 41.5338545,19.6625469 C40.0424429,18.229624 39.2405663,16.1361638 39.2405663,13.7003527 C39.2405663,11.318 39.9559428,9.19810655 41.3913315,7.7334242 C42.5095204,6.58821027 44.1142599,5.84186338 46.150119,5.84186338 C48.359077,5.84186338 50.3663329,6.73112776 51.5987374,8.59418399 C52.6885202,10.2289076 52.9453575,11.9209363 52.8890387,13.7850774 C52.8888414,13.7850774 52.86083,14.4749083 52.86083,14.788952 M48.3881734,9.57103342 C47.9000446,9.05380822 47.1544867,8.70938594 46.1207268,8.70938594 C45.0321275,8.70938594 44.1437508,9.16822112 43.6282023,9.85746019 C43.1107799,10.5161234 42.8823486,11.2050666 42.8537454,12.1787598 L49.3043643,12.1787598 C49.2753665,11.0615573 48.9603365,10.2007975 48.3881734,9.57103342" id="Shape"></path>
                                        <path d="M68.5733702,18.9466772 C67.2254679,20.3527723 65.1899047,21.1254539 62.8664352,21.1254539 L54.9535997,21.1254539 L54.9535997,0.795958694 L62.8664352,0.795958694 C65.1899047,0.795958694 67.2254679,1.56864028 68.5733702,2.97473534 C70.6652523,5.12550055 70.953553,8.13722282 70.953553,10.9476376 C70.953553,13.7576578 70.6653509,16.7950243 68.5733702,18.9466772 M65.734155,5.26831941 C65.0470858,4.58055981 64.0426195,4.12093559 62.8665338,4.12093559 L58.6521939,4.12093559 L58.6521939,17.7991948 L62.8665338,17.7991948 C64.0426195,17.7991948 65.0471845,17.3412473 65.734155,16.6520082 C67.1679656,15.2181976 67.1962729,12.8105952 67.1962729,10.9475389 C67.1962729,9.08152376 67.1679656,6.70124232 65.734155,5.26831941" id="Shape"></path>
                                        <path d="M85.5757186,14.788952 L75.5968427,14.788952 C75.5678449,15.9351522 75.9688819,17.0253296 76.6879077,17.7128919 C77.2037521,18.2007249 77.9184382,18.6321404 78.8949917,18.6321404 C79.9272722,18.6321404 80.557924,18.4307342 81.0746561,17.9134104 C81.3902778,17.5983804 81.6465233,17.197738 81.791512,16.6520082 L85.2312964,16.6520082 C85.1460785,17.5423575 84.5433395,18.7187391 83.9690065,19.4060056 C82.7085906,20.8961349 80.8442522,21.4981835 78.9512119,21.4981835 C76.9143664,21.4981835 75.4251247,20.7822152 74.247165,19.6625469 C72.7573316,18.229624 71.9547645,16.1361638 71.9547645,13.7003527 C71.9547645,11.318 72.6723109,9.19810655 74.1045434,7.7334242 C75.2230281,6.58821027 76.8302334,5.84186338 78.8651063,5.84186338 C81.0743602,5.84186338 83.0803339,6.73112776 84.3143164,8.59418399 C85.4029157,10.2289076 85.6619228,11.9209363 85.6043219,13.7850774 C85.6046178,13.7850774 85.5757186,14.4749083 85.5757186,14.788952 M81.1036538,9.57103342 C80.6152291,9.05380822 79.8687836,8.70938594 78.8383771,8.70938594 C77.7484956,8.70938594 76.857949,9.16822112 76.3424005,9.85746019 C75.8262603,10.5161234 75.5968427,11.2050666 75.5679436,12.1787598 L82.0198447,12.1787598 C81.9921291,11.0615573 81.675521,10.2007975 81.1036538,9.57103342" id="Shape"></path>
                                    </g>
                                    <polygon id="Path" fill="#000000" points="182.895231 1.41013896 182.895231 22.1126596 186.478919 22.1126596 186.478919 18.1847465 188.858707 15.6047357 193.04474 22.1126596 197.202366 22.1126596 191.296195 12.9661375 196.629611 7.19992475 192.128549 7.19992475 186.478919 13.2522684 186.478919 1.41013896"></polygon>
                                    <path d="M176.902263,13.2799839 C175.438567,13.0511581 175.065641,13.0229494 173.718626,12.8488643 C172.914875,12.7349446 171.998389,12.4200132 171.998389,11.360609 C171.998389,10.5839821 172.515417,10.0402249 173.145575,9.78033012 C173.691305,9.55387149 174.178152,9.55387149 174.692418,9.55387149 C175.438567,9.55387149 176.214997,9.81070871 176.64296,10.2416311 C176.988172,10.614558 177.245897,11.073689 177.245897,11.6463453 L180.656486,11.6463453 C180.656486,10.5574501 180.143502,9.43817637 179.338765,8.57603574 C178.24987,7.40182406 176.442738,6.82778693 174.664702,6.82778693 C172.801646,6.82778693 171.224228,7.37410852 170.135036,8.31702861 C169.245969,9.09414863 168.6166,10.1546378 168.6166,11.6754417 C168.6166,13.5670025 169.991527,15.2305266 172.028669,15.661449 C173.346094,15.9478757 174.836223,16.0334881 176.155522,16.2342039 C177.075757,16.3783049 177.648216,16.9527366 177.648216,17.8103402 C177.648216,19.4443733 175.812481,19.7051558 174.607792,19.7051558 C173.576498,19.7051558 172.914974,19.500988 172.343699,19.0446186 C171.959232,18.7333366 171.670339,18.1808012 171.578809,17.6238274 L168.205009,17.6238274 C168.308079,18.8898653 168.968913,19.9980923 169.76211,20.7644615 C170.995204,21.9379827 172.68674,22.4846002 174.580668,22.4846002 C176.616231,22.4846002 178.478992,21.9706298 179.683385,20.7644615 C180.45725,19.9908922 180.97408,18.9278386 180.97408,17.495902 C180.97408,15.1443224 179.255027,13.6532067 176.902263,13.2799839" id="Path" fill="#000000"></path>
                                    <polygon id="Path" fill="#0099FA" points="5.87569409 0.458835173 5.87569409 4.31159087 9.81603483 4.31159087 9.81603483 14.3667092 13.6085265 14.3667092 13.6085265 4.25132684 13.6085265 0.458835173"></polygon>
                                    <g transform="translate(0.000000, 1.972636)" fill="#0099FA" id="Path">
                                        <path d="M3.79406977,11.4996798 C3.79406977,8.50038514 5.46075007,5.89048886 7.91845747,4.5467291 L7.91845747,4.54633457 L2.29092101,4.54633457 C0.851685665,6.49086068 0,8.89481374 0,11.4996798 C0,16.6680852 3.34815537,21.053354 7.99282585,22.6081859 L7.99282585,18.491886 C5.49467941,17.1593702 3.79406977,14.5289585 3.79406977,11.4996798"></path>
                                        <path d="M15.5069915,0.418198867 L15.5069915,4.54594005 C17.9651921,5.89039023 19.633845,8.49989198 19.633845,11.5002716 C19.633845,15.8727183 16.0866507,19.419025 11.7128231,19.419025 C11.0604724,19.419025 10.4266644,19.3396264 9.820276,19.1911855 L9.820276,23.0599195 C10.4368234,23.1592418 11.0682643,23.2127988 11.7128231,23.2127988 C18.181393,23.2127988 23.4259422,17.9687428 23.4259422,11.5003702 C23.4259422,6.35879269 20.1133929,1.99463106 15.5069915,0.418198867"></path>
                                    </g>
                                </g>
                                <path d="M199.444765,9.25453359 C198.308049,9.25453359 197.462064,8.3805554 197.462064,7.27454637 C197.462064,6.16853735 198.308049,5.28913072 199.444765,5.28913072 C200.581482,5.28913072 201.427467,6.1632481 201.427467,7.26911794 C201.427467,8.37526615 200.581482,9.25453359 199.444765,9.25453359 Z M199.444765,5.63446276 C198.472683,5.63446276 197.830438,6.3302769 197.830438,7.27454637 C197.830438,8.21867665 198.472542,8.90920154 199.444765,8.90920154 C200.416989,8.90920154 201.059518,8.21338741 201.059518,7.26911794 C201.059376,6.32512684 200.416847,5.63446276 199.444765,5.63446276 Z M199.889648,8.27268263 L199.538134,7.51200565 L199.126264,7.51200565 L199.126264,8.27268263 L198.758173,8.27268263 L198.758173,6.2065364 L199.532183,6.2065364 C199.933286,6.2065364 200.279416,6.43299961 200.279416,6.85391218 C200.279416,7.12366369 200.158277,7.33954841 199.900699,7.45271042 L200.290608,8.27282182 L199.889648,8.27282182 L199.889648,8.27268263 Z M199.532325,6.54073319 L199.12088,6.54073319 L199.12088,7.17753048 L199.532325,7.17753048 C199.752358,7.17753048 199.895032,7.08037539 199.895032,6.85377299 C199.895032,6.64331671 199.730397,6.54073319 199.532325,6.54073319 Z" id="Shape" fill="#231F20"></path>
                            </g>
                        </g>
                    </g>
                </g>
            </g>
        </g>
    </g>
</svg>