<?xml version="1.0" encoding="UTF-8"?>
<svg width="19px" height="19px" viewBox="0 0 19 19" version="1.1" xmlns="http://www.w3.org/2000/svg" xmlns:xlink="http://www.w3.org/1999/xlink">
    <title>instagram</title>
    <g id="Homepage" stroke="none" stroke-width="1" fill="none" fill-rule="evenodd">
        <g transform="translate(-1310.000000, -5848.000000)" id="Footer">
            <g transform="translate(-1.000000, 5198.000000)">
                <polygon id="Rectangle-Copy-28" fill="none" points="1 350 738 350 1445 350 1445 822 1 822"></polygon>
                <g id="Reseaux" transform="translate(1152.000000, 640.000000)" fill="#7B7B7B" fill-rule="nonzero">
                    <g id="instagram" transform="translate(159.000000, 10.000000)">
                        <path d="M18.1366146,5.34213655 C18.0940472,4.37667514 17.9379206,3.71292909 17.7142686,3.13778423 C17.483545,2.52728206 17.1285858,1.98070028 16.6635338,1.52632473 C16.2091582,1.06487772 15.6589714,0.706313441 15.0555407,0.479194973 C14.477068,0.25554293 13.8167884,0.0994163093 12.851327,0.0568489229 C11.8786555,0.0106764995 11.5698687,0 9.10290197,0 C6.63593525,0 6.32714844,0.0106764995 5.35808199,0.0532438859 C4.39262058,0.0958112722 3.72887453,0.252076504 3.15386828,0.475589936 C2.5432275,0.706313441 1.99664572,1.06127268 1.54227017,1.52632473 C1.08082316,1.98070028 0.722397496,2.5308871 0.495140416,3.1343178 C0.271488373,3.71292909 0.115361753,4.3730701 0.0727943663,5.33853151 C0.0266219429,6.31120299 0.0159454434,6.61998981 0.0159454434,9.08695652 C0.0159454434,11.5539232 0.0266219429,11.86271 0.0691893293,12.8317765 C0.111756716,13.7972379 0.268021948,14.460984 0.491673991,15.0361288 C0.722397496,15.646631 1.08082316,16.1932128 1.54227017,16.6475883 C1.99664572,17.1090353 2.54683254,17.4675996 3.15026325,17.6947181 C3.72887453,17.9183701 4.38901555,18.0744967 5.35461557,18.1170641 C6.3235434,18.1597701 6.63246883,18.170308 9.09943554,18.170308 C11.5664023,18.170308 11.8751891,18.1597701 12.8442555,18.1170641 C13.8097169,18.0744967 14.473463,17.9183701 15.0484692,17.6947181 C16.2696122,17.2225946 17.2350736,16.2571332 17.7071971,15.0361288 C17.9307105,14.4575175 18.0869758,13.7972379 18.1295431,12.8317765 C18.1721105,11.86271 18.182787,11.5539232 18.182787,9.08695652 C18.182787,6.61998981 18.179182,6.31120299 18.1366146,5.34213655 Z M16.5003357,12.7607846 C16.4612347,13.6481827 16.3121796,14.1273777 16.1879438,14.446841 C15.8826234,15.2384279 15.2543733,15.866678 14.4627865,16.1719984 C14.1433232,16.2962341 13.6606618,16.4452893 12.7767301,16.4842516 C11.8183401,16.5269576 11.5309063,16.5374955 9.106507,16.5374955 C6.68210768,16.5374955 6.39106882,16.5269576 5.4361453,16.4842516 C4.5487472,16.4452893 4.06955223,16.2962341 3.75008892,16.1719984 C3.35616733,16.0264096 2.99760305,15.7956861 2.7065642,15.4939708 C2.40484885,15.1993269 2.17412534,14.8443677 2.02853661,14.4504461 C1.90430087,14.1309828 1.75524572,13.6481827 1.71628337,12.7643897 C1.67357737,11.8059997 1.66303948,11.5184273 1.66303948,9.09402798 C1.66303948,6.66962866 1.67357737,6.3785898 1.71628337,5.4238049 C1.75524572,4.5364068 1.90430087,4.05721183 2.02853661,3.73774851 C2.17412534,3.34368831 2.40484885,2.98526265 2.71016924,2.69408518 C3.00467451,2.39236983 3.35963375,2.16164632 3.75369395,2.0161962 C4.07315727,1.89196047 4.55595728,1.74290531 5.43975034,1.70380435 C6.39814029,1.66123696 6.68571271,1.65056046 9.10997343,1.65056046 C11.5379778,1.65056046 11.8254116,1.66123696 12.7803351,1.70380435 C13.6677332,1.74290531 14.1469282,1.89196047 14.4663915,2.0161962 C14.8603131,2.16164632 15.2188774,2.39236983 15.5099162,2.69408518 C15.8116316,2.98872907 16.0423551,3.34368831 16.1879438,3.73774851 C16.3121796,4.05721183 16.4612347,4.53987322 16.5003357,5.4238049 C16.5429031,6.38219484 16.5535796,6.66962866 16.5535796,9.09402798 C16.5535796,11.5184273 16.5429031,11.8023947 16.5003357,12.7607846 Z" id="Shape"></path>
                        <path d="M9.10290197,4.41924253 C6.52598106,4.41924253 4.43518797,6.509897 4.43518797,9.08695652 C4.43518797,11.664016 6.52598106,13.7546705 9.10290197,13.7546705 C11.6799615,13.7546705 13.770616,11.664016 13.770616,9.08695652 C13.770616,6.509897 11.6799615,4.41924253 9.10290197,4.41924253 Z M9.10290197,12.1147866 C7.43112712,12.1147866 6.07507193,10.75887 6.07507193,9.08695652 C6.07507193,7.41504306 7.43112712,6.05912649 9.10290197,6.05912649 C10.7748154,6.05912649 12.130732,7.41504306 12.130732,9.08695652 C12.130732,10.75887 10.7748154,12.1147866 9.10290197,12.1147866 L9.10290197,12.1147866 Z" id="Shape"></path>
                        <path d="M15.0450028,4.23469145 C15.0450028,4.83645828 14.5570725,5.32438859 13.955167,5.32438859 C13.3534002,5.32438859 12.8654699,4.83645828 12.8654699,4.23469145 C12.8654699,3.63278596 13.3534002,3.1449943 13.955167,3.1449943 C14.5570725,3.1449943 15.0450028,3.63278596 15.0450028,4.23469145 L15.0450028,4.23469145 Z" id="Path"></path>
                    </g>
                </g>
            </g>
        </g>
    </g>
</svg>
