<?xml version="1.0" encoding="UTF-8"?>
<svg width="18px" height="18px" viewBox="0 0 18 18" version="1.1" xmlns="http://www.w3.org/2000/svg" xmlns:xlink="http://www.w3.org/1999/xlink">
    <title>linkedin</title>
    <g id="Homepage" stroke="none" stroke-width="1" fill="none" fill-rule="evenodd">
        <g transform="translate(-1211.000000, -5846.000000)" id="Footer">
            <g transform="translate(-1.000000, 5198.000000)">
                <polygon id="Rectangle-Copy-28" fill="none" points="1 350 738 350 1445 350 1445 822 1 822"></polygon>
                <g id="Reseaux" transform="translate(1152.000000, 640.000000)" fill="#7B7B7B" fill-rule="nonzero">
                    <g id="linkedin" transform="translate(60.706298, 8.935058)">
                        <path d="M16.2997215,16.3037975 L16.2997215,16.3031181 L16.3037975,16.3031181 L16.3037975,10.3237004 C16.3037975,7.39852743 15.6740633,5.14520675 12.2543418,5.14520675 C10.6103755,5.14520675 9.5071519,6.04735021 9.05675949,6.90262025 L9.00920675,6.90262025 L9.00920675,5.41829536 L5.76678903,5.41829536 L5.76678903,16.3031181 L9.14303376,16.3031181 L9.14303376,10.9133544 C9.14303376,9.49424473 9.41204641,8.12200844 11.1694599,8.12200844 C12.9010591,8.12200844 12.9268734,9.74151899 12.9268734,11.004384 L12.9268734,16.3037975 L16.2997215,16.3037975 Z" id="Path"></path>
                        <polygon id="Path" points="0.269012658 5.41897468 3.64933333 5.41897468 3.64933333 16.3037975 0.269012658 16.3037975"></polygon>
                        <path d="M1.95781435,0 C0.877008439,0 0,0.877008439 0,1.95781435 C0,3.03862025 0.877008439,3.93397046 1.95781435,3.93397046 C3.03862025,3.93397046 3.91562869,3.03862025 3.91562869,1.95781435 C3.91494937,0.877008439 3.03794093,0 1.95781435,0 Z" id="Path"></path>
                    </g>
                </g>
            </g>
        </g>
    </g>
</svg>
