<?xml version="1.0" encoding="UTF-8"?>
<svg width="20px" height="17px" viewBox="0 0 20 17" version="1.1" xmlns="http://www.w3.org/2000/svg" xmlns:xlink="http://www.w3.org/1999/xlink">
    <title>Path</title>
    <g id="Homepage" stroke="none" stroke-width="1" fill="none" fill-rule="evenodd">
        <g transform="translate(-1160.000000, -5848.000000)" id="Footer">
            <g transform="translate(-1.000000, 5198.000000)">
                <polygon id="Rectangle-Copy-28" fill="none" points="1 350 738 350 1445 350 1445 822 1 822"></polygon>
                <g id="Reseaux" transform="translate(1152.000000, 640.000000)" fill="#7B7B7B" fill-rule="nonzero">
                    <path d="M26.1553077,14.7326164 C26.928385,14.1836999 27.5786887,13.4985444 28.1085951,12.7096254 L28.1085951,12.7088333 C27.4012611,13.0185394 26.6487782,13.2244821 25.8630275,13.3242851 C26.6709566,12.841904 27.2879926,12.0838764 27.5778966,11.1705997 C26.8246215,11.6197132 25.9929298,11.9365482 25.1065841,12.1139757 C24.3913293,11.3519877 23.3719129,10.8806957 22.2598223,10.8806957 C20.1021764,10.8806957 18.3651289,12.6320008 18.3651289,14.7785575 C18.3651289,15.0874715 18.3912678,15.3845043 18.4554268,15.6672795 C15.2157897,15.508862 12.3484336,13.9563708 10.4220772,11.590406 C10.0862322,12.1741743 9.88821033,12.841904 9.88821033,13.5603272 C9.88821033,14.910044 10.5828709,16.1060958 11.6197132,16.7991722 C10.9931721,16.7872909 10.3793045,16.6051109 9.85890309,16.3191673 L9.85890309,16.36194 C9.85890309,18.2558208 11.209412,19.8289063 12.9813113,20.1916823 C12.6636843,20.2788119 12.3183342,20.3200004 11.9595187,20.3200004 C11.7100112,20.3200004 11.4581274,20.3057428 11.2220854,20.2534651 C11.726645,21.7964512 13.1603231,22.9315123 14.8633108,22.9687404 C13.5373566,24.0055827 11.853379,24.6305396 10.030786,24.6305396 C9.71157485,24.6305396 9.40503706,24.6162821 9.09849926,24.5774698 C10.8252496,25.6903525 12.8704191,26.3263986 15.0771744,26.3263986 C21.9548687,26.3263986 26.4372908,20.588518 26.1553077,14.7326164 Z" id="Path"></path>
                </g>
            </g>
        </g>
    </g>
</svg>
